G04 start of page 2 for group 3 layer_idx 0 *
G04 Title: (unknown), top_copper *
G04 Creator: <version>
G04 CreationDate: <date>
G04 For: TEST *
G04 Format: Gerber/RS-274X *
G04 PCB-Dimensions: 65000 62500 *
G04 PCB-Coordinate-Origin: lower left *
%MOIN*%
%FSLAX25Y25*%
%LNTOP_COPPER_NONE_3*%
%ADD14C,0.0315*%
%ADD13C,0.0787*%
%ADD12C,0.0100*%
%ADD11C,0.0001*%
G54D11*G36*
X17108Y42477D02*X16725Y42385D01*
X16362Y42234D01*
X16026Y42029D01*
X15727Y41773D01*
X15690Y41730D01*
X15664Y41840D01*
X15306Y42704D01*
X14818Y43500D01*
X14211Y44211D01*
X13500Y44818D01*
X12704Y45306D01*
X11840Y45664D01*
X10932Y45882D01*
X10000Y45955D01*
X9991Y45955D01*
Y46545D01*
X10000Y46545D01*
X10932Y46618D01*
X11840Y46836D01*
X12704Y47194D01*
X13500Y47682D01*
X14211Y48289D01*
X14818Y49000D01*
X15306Y49796D01*
X15664Y50660D01*
X15882Y51568D01*
X15937Y52500D01*
X15882Y53432D01*
X15664Y54340D01*
X15306Y55204D01*
X14818Y56000D01*
X14211Y56711D01*
X13500Y57318D01*
X12704Y57806D01*
X11840Y58164D01*
X10932Y58382D01*
X10000Y58455D01*
X9991Y58455D01*
Y60000D01*
X32492D01*
X32500Y59902D01*
Y55098D01*
X32492Y55000D01*
X32500Y54902D01*
Y50098D01*
X32492Y50000D01*
X32500Y49902D01*
Y45098D01*
X32492Y45000D01*
X32500Y44902D01*
Y35218D01*
X32490Y35000D01*
X28203D01*
X28500Y35182D01*
X29211Y35789D01*
X29818Y36500D01*
X30306Y37296D01*
X30664Y38160D01*
X30882Y39068D01*
X30937Y40000D01*
X30882Y40932D01*
X30664Y41840D01*
X30306Y42704D01*
X30000Y43203D01*
Y45000D01*
X29977Y45392D01*
X29885Y45775D01*
X29734Y46138D01*
X29529Y46474D01*
X29273Y46773D01*
X28974Y47029D01*
X28638Y47234D01*
X28275Y47385D01*
X28089Y47430D01*
X28500Y47682D01*
X29211Y48289D01*
X29818Y49000D01*
X30306Y49796D01*
X30664Y50660D01*
X30882Y51568D01*
X30937Y52500D01*
X30882Y53432D01*
X30664Y54340D01*
X30306Y55204D01*
X29818Y56000D01*
X29211Y56711D01*
X28500Y57318D01*
X27704Y57806D01*
X26840Y58164D01*
X25932Y58382D01*
X25000Y58455D01*
X24068Y58382D01*
X23160Y58164D01*
X22296Y57806D01*
X21500Y57318D01*
X20789Y56711D01*
X20182Y56000D01*
X19694Y55204D01*
X19336Y54340D01*
X19118Y53432D01*
X19045Y52500D01*
X19118Y51568D01*
X19336Y50660D01*
X19694Y49796D01*
X20182Y49000D01*
X20789Y48289D01*
X21500Y47682D01*
X22296Y47194D01*
X23160Y46836D01*
X24068Y46618D01*
X25000Y46545D01*
X25570Y46590D01*
X25471Y46474D01*
X25266Y46138D01*
X25184Y45941D01*
X25000Y45955D01*
X24068Y45882D01*
X23160Y45664D01*
X22296Y45306D01*
X21500Y44818D01*
X20789Y44211D01*
X20182Y43500D01*
X19694Y42704D01*
X19609Y42500D01*
X17500D01*
X17108Y42477D01*
G37*
G36*
X9068Y45882D02*X8160Y45664D01*
X7296Y45306D01*
X6500Y44818D01*
X5789Y44211D01*
X5182Y43500D01*
X4694Y42704D01*
X4336Y41840D01*
X4118Y40932D01*
X4045Y40000D01*
X4118Y39068D01*
X4336Y38160D01*
X4694Y37296D01*
X5182Y36500D01*
X5789Y35789D01*
X6500Y35182D01*
X6797Y35000D01*
X2500D01*
Y60000D01*
X9991D01*
Y58455D01*
X9068Y58382D01*
X8160Y58164D01*
X7296Y57806D01*
X6500Y57318D01*
X5789Y56711D01*
X5182Y56000D01*
X4694Y55204D01*
X4336Y54340D01*
X4118Y53432D01*
X4045Y52500D01*
X4118Y51568D01*
X4336Y50660D01*
X4694Y49796D01*
X5182Y49000D01*
X5789Y48289D01*
X6500Y47682D01*
X7296Y47194D01*
X8160Y46836D01*
X9068Y46618D01*
X9991Y46545D01*
Y45955D01*
X9068Y45882D01*
G37*
G36*
X30000Y30000D02*Y10000D01*
X25000D01*
Y30000D01*
X30000D01*
G37*
G36*
X37500D02*Y10000D01*
X32500D01*
Y30000D01*
X37500D01*
G37*
G36*
X45000D02*Y10000D01*
X40000D01*
Y30000D01*
X45000D01*
G37*
G36*
X52500D02*Y10000D01*
X47500D01*
Y30000D01*
X52500D01*
G37*
G54D12*X17500Y40000D02*X25000D01*
X27500Y42500D01*
Y45000D01*
X35000Y60000D02*X55000D01*
X35000Y45000D02*X55000D01*
X35000Y55000D02*X55000D01*
X35000Y50000D02*X55000D01*
X35000Y35000D02*G75*G02X42500Y42500I7500J0D01*G01*
X40000Y35000D02*G75*G02X47500Y42500I7500J0D01*G01*
X45000Y35000D02*G75*G02X52500Y42500I7500J0D01*G01*
X50000Y35000D02*G75*G02X57500Y42500I7500J0D01*G01*
X5000Y32500D02*X7000D01*
X6000D02*Y28500D01*
X8200Y30700D02*X9700D01*
X8200Y28500D02*X10200D01*
X8200Y32500D02*Y28500D01*
Y32500D02*X10200D01*
X13400D02*X13900Y32000D01*
X11900Y32500D02*X13400D01*
X11400Y32000D02*X11900Y32500D01*
X11400Y32000D02*Y31000D01*
X11900Y30500D01*
X13400D01*
X13900Y30000D01*
Y29000D01*
X13400Y28500D02*X13900Y29000D01*
X11900Y28500D02*X13400D01*
X11400Y29000D02*X11900Y28500D01*
X15100Y32500D02*X17100D01*
X16100D02*Y28500D01*
X5000Y25000D02*X7000D01*
X6000D02*Y21000D01*
X8200Y23200D02*X9700D01*
X8200Y21000D02*X10200D01*
X8200Y25000D02*Y21000D01*
Y25000D02*X10200D01*
X13400D02*X13900Y24500D01*
X11900Y25000D02*X13400D01*
X11400Y24500D02*X11900Y25000D01*
X11400Y24500D02*Y23500D01*
X11900Y23000D01*
X13400D01*
X13900Y22500D01*
Y21500D01*
X13400Y21000D02*X13900Y21500D01*
X11900Y21000D02*X13400D01*
X11400Y21500D02*X11900Y21000D01*
X15100Y25000D02*X17100D01*
X16100D02*Y21000D01*
X5000Y17500D02*X7000D01*
X6000D02*Y13500D01*
X8200Y15700D02*X9700D01*
X8200Y13500D02*X10200D01*
X8200Y17500D02*Y13500D01*
Y17500D02*X10200D01*
X13400D02*X13900Y17000D01*
X11900Y17500D02*X13400D01*
X11400Y17000D02*X11900Y17500D01*
X11400Y17000D02*Y16000D01*
X11900Y15500D01*
X13400D01*
X13900Y15000D01*
Y14000D01*
X13400Y13500D02*X13900Y14000D01*
X11900Y13500D02*X13400D01*
X11400Y14000D02*X11900Y13500D01*
X15100Y17500D02*X17100D01*
X16100D02*Y13500D01*
X5000Y10000D02*X7000D01*
X6000D02*Y6000D01*
X8200Y8200D02*X9700D01*
X8200Y6000D02*X10200D01*
X8200Y10000D02*Y6000D01*
Y10000D02*X10200D01*
X13400D02*X13900Y9500D01*
X11900Y10000D02*X13400D01*
X11400Y9500D02*X11900Y10000D01*
X11400Y9500D02*Y8500D01*
X11900Y8000D01*
X13400D01*
X13900Y7500D01*
Y6500D01*
X13400Y6000D02*X13900Y6500D01*
X11900Y6000D02*X13400D01*
X11400Y6500D02*X11900Y6000D01*
X15100Y10000D02*X17100D01*
X16100D02*Y6000D01*
G54D13*X10000Y52500D03*
X25000D03*
X10000Y40000D03*
X25000D03*
G54D11*G36*
X21910Y6377D02*X19942D01*
Y3623D01*
X21910D01*
Y6377D01*
G37*
G36*
X25058D02*X23090D01*
Y3623D01*
X25058D01*
Y6377D01*
G37*
G36*
X31910D02*X29942D01*
Y3623D01*
X31910D01*
Y6377D01*
G37*
G36*
X35058D02*X33090D01*
Y3623D01*
X35058D01*
Y6377D01*
G37*
G36*
X41910D02*X39942D01*
Y3623D01*
X41910D01*
Y6377D01*
G37*
G36*
X45058D02*X43090D01*
Y3623D01*
X45058D01*
Y6377D01*
G37*
G36*
X51910D02*X49942D01*
Y3623D01*
X51910D01*
Y6377D01*
G37*
G36*
X55058D02*X53090D01*
Y3623D01*
X55058D01*
Y6377D01*
G37*
G54D14*M02*
