/* XPM */
static const char * warning_xpm[] = {
"48 48 26 1",
" 	c None",
".	c #000200",
"+	c #151500",
"@	c #201F00",
"#	c #AE0102",
"$	c #363601",
"%	c #B92102",
"&	c #474501",
"*	c #514D00",
"=	c #BD3000",
"-	c #BF3A00",
";	c #C54D00",
">	c #C95B00",
",	c #827C00",
"'	c #D06C00",
")	c #D47B00",
"!	c #D78D00",
"~	c #A5A000",
"{	c #DFA100",
"]	c #C8BF00",
"^	c #E5BB00",
"/	c #D4CE00",
"(	c #EACA00",
"_	c #ECD000",
":	c #ECDC00",
"<	c #F5EA00",
"                                                ",
"                                                ",
"                                                ",
"                                                ",
"                      ####                      ",
"                     ######                     ",
"                     ######                     ",
"                    ########                    ",
"                    ########                    ",
"                   ##########                   ",
"                   ####;%####                   ",
"                  #####_)#####                  ",
"                  ####'<<%####                  ",
"                 ####%:<<{#####                 ",
"                #####!<<<<-####                 ",
"                ####%<<<<<^#####                ",
"               #####{<<<<<<;####                ",
"               ####=<<<<<<<(#####               ",
"              #####^<</@$<<<'####               ",
"              ####;<<<~..]<<:%####              ",
"             #####^<<<~../<<<)#####             ",
"             ####><<<<~..:<<<<%####             ",
"            #####_<<<<]..<<<<<{#####            ",
"            ####)<<<<<]..<<<<<<-####            ",
"           ####%:<<<<</.+<<<<<<^#####           ",
"          #####!<<<<<<:.@<<<<<<<;####           ",
"          ####%<<<<<<<<.$<<<<<<<_#####          ",
"         #####{<<<<<<<<.&<<<<<<<<'####          ",
"         ####-<<<<<<<<<@*<<<<<<<<:%####         ",
"        #####^<<<<<<<<<@*<<<<<<<<<!#####        ",
"        ####;<<<<<<<<<<&,<<<<<<<<<<%####        ",
"       #####(<<<<<<<<<</:<<<<<<<<<<{#####       ",
"       ####'<<<<<<<<<<<<<<<<<<<<<<<<-####       ",
"      #####_<<<<<<<<<<<<<<<<<<<<<<<<^#####      ",
"      ####)<<<<<<<<<<<<<<<<<<<<<<<<<<;####      ",
"     ####%:<<<<<<<<<<<~&*]<<<<<<<<<<<_#####     ",
"    #####!<<<<<<<<<<<<...$<<<<<<<<<<<<'####     ",
"    ####%<<<<<<<<<<<<<@..*<<<<<<<<<<<<:%####    ",
"   #####{<<<<<<<<<<<<</,,:<<<<<<<<<<<<<!#####   ",
"   ####-<<<<<<<<<<<<<<<<<<<<<<<<<<<<<<<<%####   ",
"  #####'!!!!!!!!!!!!!!!!!!!!!!!!!!!!!!!!;#####  ",
"  ############################################  ",
" ############################################## ",
" ############################################## ",
"  ############################################  ",
"                                                ",
"                                                ",
"                                                "};
