G04 start of page 2 for group 3 layer_idx 0 *
G04 Title: Clear and no-clear lines, top_copper *
G04 Creator: <version>
G04 CreationDate: <date>
G04 For: TEST *
G04 Format: Gerber/RS-274X *
G04 PCB-Dimensions: 50000 50000 *
G04 PCB-Coordinate-Origin: lower left *
%MOIN*%
%FSLAX25Y25*%
%LNTOP_COPPER_NONE_3*%
%ADD15C,0.0050*%
%ADD14C,0.0200*%
%ADD13C,0.0100*%
%ADD12C,0.0150*%
%ADD11C,0.0001*%
G54D11*G36*
X47500Y47500D02*Y2500D01*
X26250D01*
Y7967D01*
X26457Y8016D01*
X27140Y8299D01*
X27771Y8686D01*
X28334Y9166D01*
X28814Y9729D01*
X29201Y10360D01*
X29484Y11043D01*
X29656Y11762D01*
X29700Y12500D01*
Y23050D01*
X40000D01*
X40306Y23068D01*
X40604Y23140D01*
X40888Y23257D01*
X41150Y23418D01*
X41383Y23617D01*
X41582Y23850D01*
X41743Y24112D01*
X41860Y24396D01*
X41932Y24694D01*
X41956Y25000D01*
X41932Y25306D01*
X41860Y25604D01*
X41743Y25888D01*
X41582Y26150D01*
X41383Y26383D01*
X41150Y26582D01*
X40888Y26743D01*
X40604Y26860D01*
X40306Y26932D01*
X40000Y26950D01*
X29700D01*
Y37500D01*
X29656Y38238D01*
X29484Y38957D01*
X29201Y39640D01*
X28814Y40271D01*
X28334Y40834D01*
X27771Y41314D01*
X27140Y41701D01*
X26457Y41984D01*
X26250Y42033D01*
Y47500D01*
X47500D01*
G37*
G36*
X26250D02*Y42033D01*
X25738Y42156D01*
X25000Y42214D01*
X24262Y42156D01*
X23543Y41984D01*
X22860Y41701D01*
X22229Y41314D01*
X21666Y40834D01*
X21186Y40271D01*
X20799Y39640D01*
X20516Y38957D01*
X20344Y38238D01*
X20300Y37500D01*
Y26950D01*
X12500D01*
X12194Y26932D01*
X11896Y26860D01*
X11612Y26743D01*
X11350Y26582D01*
X11117Y26383D01*
X10918Y26150D01*
X10757Y25888D01*
X10640Y25604D01*
X10568Y25306D01*
X10544Y25000D01*
X10568Y24694D01*
X10640Y24396D01*
X10757Y24112D01*
X10918Y23850D01*
X11117Y23617D01*
X11350Y23418D01*
X11612Y23257D01*
X11896Y23140D01*
X12194Y23068D01*
X12500Y23050D01*
X20300D01*
Y12500D01*
X20344Y11762D01*
X20516Y11043D01*
X20799Y10360D01*
X21186Y9729D01*
X21666Y9166D01*
X22229Y8686D01*
X22860Y8299D01*
X23543Y8016D01*
X24262Y7844D01*
X25000Y7786D01*
X25738Y7844D01*
X26250Y7967D01*
Y2500D01*
X2500D01*
Y47500D01*
X26250D01*
G37*
G54D12*X12500Y25000D02*X40000D01*
G54D13*X25000Y37500D02*Y12500D01*
G54D14*Y25000D02*X40000Y30000D01*
G54D15*X25000Y25000D02*X15000Y35000D01*
M02*
