/* XPM */
static char *noname[] = {
/* width height ncolors chars_per_pixel */
"32 32 256 2",
/* colors */
"   c #000000",
" . c #838D91",
" X c #365938",
" o c #5F6767",
" O c #E2E0E1",
" + c #799A7D",
" @ c #9FA9B3",
" # c #2F5331",
" $ c #B1C3B4",
" % c #2B552D",
" & c #2D512F",
" * c #6B6F76",
" = c #DBDADA",
" - c #2A532C",
" ; c #2B512D",
" : c #99A3AD",
" > c #AEBFB1",
" , c #2A4F2C",
" < c #729276",
" 1 c #294F2B",
" 2 c #859396",
" 3 c #284F2A",
" 4 c #709274",
" 5 c #6C9870",
" 6 c #274F29",
" 7 c #264F28",
" 8 c #254F27",
" 9 c #264D28",
" 0 c #254D27",
" q c #244D26",
" w c #234D25",
" e c #939DA7",
" r c #244B26",
" t c #6A8C6E",
" y c #8F99A3",
" u c #8F97A3",
" i c #6E737C",
" p c #8D97A1",
" a c #1B451D",
" s c #8B959F",
" d c #608C64",
" f c #9FAFA2",
" g c #89939D",
" h c #9DAFA0",
" j c #5D8861",
" k c #87919B",
" l c #708E77",
" z c #96AB99",
" x c #727B83",
" c c #113D13",
" v c #58785C",
" b c #547458",
" n c #537457",
" m c #57645B",
" M c #4B6C4F",
" N c #101112",
" B c #747C7E",
" V c #7D9D80",
" C c #73787D",
" Z c #7B9288",
" A c #B1C2B3",
" S c #879497",
" D c #55625C",
" F c #636A6D",
" G c #274828",
" H c #244C25",
" J c #9FB6A1",
" K c #A0B0A2",
" L c #9DAE9F",
" P c #709376",
" I c #87909A",
" U c #5B855E",
" Y c #858E98",
" T c #558558",
" R c #7E9987",
" E c #678B6D",
" W c #CAD3CB",
" Q c #4E7B51",
" ! c #49794C",
" ~ c #728D7B",
" ^ c #4C6D4F",
" / c #496F4C",
" ( c #B8C1B9",
" ) c #6E7577",
" _ c #465749",
" ` c #B3BBB4",
" ' c #37693A",
" ] c #3B5D3E",
" [ c #646D6D",
" { c #E7E6E7",
" } c #E2E4E2",
" | c #38513B",
".  c #E1E2E1",
".. c #9099A2",
".X c #384D3B",
".o c #7D858C",
".O c #6C6F78",
".+ c #DBDCDB",
".@ c #729877",
".# c #2C512F",
".$ c #879399",
".% c #719476",
".& c #709475",
".* c #D8D8D8",
".= c #719276",
".- c #709275",
".; c #6F9274",
".: c #6E9073",
".> c #949FA9",
"., c #6D9072",
".< c #6D8E72",
".1 c #6A8E6F",
".2 c #6B8C70",
".3 c #67926C",
".4 c #303133",
".5 c #909BA5",
".6 c #678C6C",
".7 c #8E99A3",
".8 c #68886D",
".9 c #8D97A2",
".0 c #CDCECD",
".q c #517A53",
".w c #8EA18F",
".e c #9BB39F",
".r c #686F77",
".t c #517053",
".y c #2C2F32",
".u c #F3EDF2",
".i c #456047",
".p c #426444",
".a c #3C6A3E",
".s c #58645D",
".d c #161719",
".f c #39683B",
".g c #969EA7",
".h c #39543B",
".j c #7B9B7F",
".k c #2D562F",
".l c #B1C2B4",
".z c #2D522F",
".x c #6B7076",
".c c #677F68",
".v c #658166",
".b c #677B68",
".n c #89909A",
".m c #6F9773",
".M c #2E4830",
".N c #98A2AC",
".B c #565E5E",
".V c #265028",
".C c #274E29",
".Z c #6F9173",
".A c #264E28",
".S c #254E27",
".D c #6E8F72",
".F c #244E26",
".G c #254C27",
".H c #274829",
".J c #244C26",
".K c #234C25",
".L c #234A25",
".P c #214A23",
".I c #909AA4",
".U c #69896D",
".Y c #6F747D",
".T c #8E98A2",
".R c #577758",
".E c #68876C",
".W c #8C96A0",
".Q c #658769",
".! c #7B828C",
".~ c #5E8D62",
".^ c #9EB0A1",
"./ c #9DAEA0",
".( c #7F9789",
".) c #456746",
"._ c #C2CFC4",
".` c #859E88",
".' c #1D2022",
".] c #315732",
".[ c #426746",
".{ c #7C927F",
".} c #B1C1B3",
".| c #8B919B",
"X  c #2E4D2F",
"X. c #2A512B",
"XX c #264F27",
"Xo c #224B23",
"XO c #7F878F",
"X+ c #8D97A0",
"X@ c #74947A",
"X# c #88919B",
"X$ c #6B9071",
"X% c #62696F",
"X& c #57845A",
"X* c #6B8C71",
"X= c #698E6F",
"X- c #678C6D",
"X; c #638A69",
"X: c #1A1B1B",
"X> c #697179",
"X, c #477A4A",
"X< c #5E7E64",
"X1 c #467649",
"X2 c #2F3336",
"X3 c #F6F1F6",
"X4 c #416A44",
"X5 c #6D7876",
"X6 c #436446",
"X7 c #8E949D",
"X8 c #060707",
"X9 c #415644",
"X0 c #385C3B",
"Xq c #3E5241",
"Xw c #355A38",
"Xe c #355838",
"Xr c #E2E3E2",
"Xt c #7B9B80",
"Xy c #7A997F",
"Xu c #8E9AA0",
"Xi c #E0DFE0",
"Xp c #DFDFDF",
"Xa c #315434",
"Xs c #DDDFDD",
"Xd c #739B78",
"Xf c #729577",
"Xg c #739378",
"Xh c #D9D9D9",
"Xj c #D8D9D8",
"Xk c #709375",
"Xl c #6F9374",
"Xz c #6F9174",
"Xx c #6E9173",
"Xc c #6B9570",
"Xv c #6D8F72",
"Xb c #919CA6",
"Xn c #698D6E",
"Xm c #909AA5",
"XM c #8F9AA4",
"XN c #69896E",
"XB c #8E98A3",
"XV c #8D96A2",
"XC c #8C96A1",
"XZ c #7C848E",
"XA c #8B96A0",
"XS c #65856A",
"XD c #CACDCA",
"XF c #5F7F64",
"XG c #879E88",
"XH c #899A8A",
"XJ c #889889",
"XK c #2B2E31",
"XL c #446546",
"XP c #EDE8EC",
"XI c #546359",
"XU c None",
/* pixels */
"XxXxXxXxXxXxXxXxXxXxXxXxXxXxXxXxXxXxXxXxXxXxXxXxXxXxXxXxXxXxXxXx",
"XxXxXxXxXxXxXxXxXxXxXxXxXxXxXxXxXxXxXxXxXxXxXxXxXxXxXxXxXxXxXxXx",
"XxXxXxXxXxXxXxXxXxXxXxXxXxXxXxXxXxXxXxXxXxXxXxXxXxXxXxXxXxXxXxXx",
"XxXxXxXxXxXxXxXxXxXxXxXxXxXkXf.<.<Xk.&.;XxXxXxXxXxXxXxXxXxXxXxXx",
"XxXxXxXxXxXxXxXxXxXxXx.< n ] & 1 3.# X ^.UXxXxXxXxXxXxXxXxXxXxXx",
"XxXxXxXxXxXxXxXxXxXx.2.z.A 6 6 6 6 6 6 7 9 tXxXxXxXxXxXxXxXxXxXx",
"XxXxXxXxXxXxXxXxXxXx v.S 6 6 6 6 6 6 6 6 6 Q.:XxXxXxXxXxXxXxXxXx",
"XxXxXxXxXxXxXxXxXxXxXS H 7.H.XXI mXqX .F.L.~XxXxXxXxXxXxXxXxXxXx",
"XxXxXxXxXxXxXxXxXxXx.;X<X5X7 :XM.9.>.n BX;XlXxXxXxXxXxXxXxXxXxXx",
"XxXxXxXxXxXxXv.8XvXx ~XC s s p s.W p pXA u.(.,.;XSXNXxXxXxXxXxXx",
"XxXxXxXxXx.2 #.KXw lXC p.W.W.W p.W.W p p pXV RX6 q 9.QXxXxXxXxXx",
"XxXxXxXx.; M 7 6Xo ..W.W p.W p y y p.W.W p.W IX. 6 6X4XzXxXxXxXx",
"XxXxXxXx PXa 6 6.M.g p.W.W.T xX2XKX> y p.W.WX#X9 7 6 7.@XxXxXxXx",
"XxXxXxXxX*.C 6 7.s y p.W p.r        X%.W.W.WXM o.F 6 r.3XxXxXxXx",
"XxXxXxXx.E H 6XX ).W.W.W.5.d         N e p p.T * - 6.G jXxXxXxXx",
"XxXxXxXxXF 0 6 8 C s p p pX8           @ p.W p.O.k 6 9X&.:XxXxXx",
"XxXxXxXxXN.K 6 7 [ p.W.W.I.y        .4.I.W p p.x.V 6.G dXxXxXxXx",
"XxXxXxXxXv , 6 6 _Xm s.W p k.'    X:...W.W p y D.S 6.L 5XxXxXxXx",
"XxXxXxXx.%Xe 6 6 G.| s.W.W.WXbXO.o.N.W p.W p Y.h 6 6 %XdXxXxXxXx",
"XxXxXxXxXx b.S 6.P Z p p.W.W p.W p.W.W p p.W S q 6.C !.:XxXxXxXx",
"XxXxXxXxXx.Z /.f T.,.$.W p.W.W p.W.W.W p.TX+.e.{.aX1.mXxXxXxXxXx",
"XxXxXxXxXxXxXz.-XxXx.: 2 sXB.W p.W.W.7 gXuX@.l h.-XzXxXxXxXxXxXx",
"XxXxXxXxXxXxXxXxXxXxXzXL |.B i.!XZ.Y FX9X0.D $./XxXxXxXxXxXxXxXx",
"XxXxXxXxXxXxXxXxXt.6.`.R.] w.p.i.b ;.V q.) V._ hXxXxXxXxXxXxXxXx",
"XxXxXxXxXxXxXxXn.+ W.0 `.c.t.*XsXDXH.K.vXp (Xi.^XxXxXxXxXxXxXxXx",
"XxXxXxXxXxXxXxXx.j =X$.[.F.J.wXJ aX3 cXr.qXc.} hXxXxXxXxXxXxXxXx",
"XxXxXxXxXxXxXxXx.jXj.1.;Xl U JXG '.uX, }XyX- A LXxXxXxXxXxXxXxXx",
"XxXxXxXxXxXxXxXx +XhX=XxXxXx > f EXP.6 z O.  { KXxXxXxXxXxXxXxXx",
"XxXxXxXxXxXxXxXx.,.-XxXxXxXx.,.-XxXzXx.,.=Xg < 4XxXxXxXxXxXxXxXx",
"XxXxXxXxXxXxXxXxXxXxXxXxXxXxXxXxXxXxXxXxXxXxXxXxXxXxXxXxXxXxXxXx",
"XxXxXxXxXxXxXxXxXxXxXxXxXxXxXxXxXxXxXxXxXxXxXxXxXxXxXxXxXxXxXxXx",
"XxXxXxXxXxXxXxXxXxXxXxXxXxXxXxXxXxXxXxXxXxXxXxXxXxXxXxXxXxXxXxXx"
};
