/* XPM */
static char *noname[] = {
/* width height ncolors chars_per_pixel */
"64 64 547 2",
/* colors */
"   c #000000",
" . c #829C86",
" X c #3F4941",
" o c #365738",
" O c #75A879",
" + c #365538",
" @ c #B4C7B7",
" # c #7A987E",
" $ c #E0DEDF",
" % c #79987D",
" & c #305532",
" * c #E0DCDF",
" = c #77987B",
" - c #DEDCDD",
" ; c #729C76",
" : c #344736",
" > c #749478",
" , c #2B512D",
" < c #709674",
" 1 c #28512A",
" 2 c #294F2B",
" 3 c #275129",
" 4 c #274F29",
" 5 c #6F9273",
" 6 c #264F28",
" 7 c #607C61",
" 8 c #264D28",
" 9 c #6E9072",
" 0 c #669C6A",
" q c #254D27",
" w c #244D26",
" e c #D5D2D4",
" r c #244B26",
" t c #234B25",
" y c #224B24",
" u c #6B8C6F",
" i c #919BA5",
" p c #224924",
" a c #6A8C6E",
" s c #204922",
" d c #619665",
" f c #1F4921",
" g c #8F99A3",
" h c #7B9682",
" j c #8E97A2",
" k c #1D471F",
" l c #8D97A1",
" z c #799480",
" x c #1C471E",
" c c #8C95A0",
" v c #91969B",
" b c #1B451D",
" n c #8B959F",
" m c #8A959E",
" M c #8A939E",
" N c #89939D",
" B c #638267",
" V c #174119",
" C c #87919B",
" Z c #8B9095",
" A c #607C64",
" S c #646B72",
" D c #54595F",
" F c #5F7C63",
" G c #5E7A62",
" H c #989EA5",
" J c #CDDACF",
" K c #75767C",
" L c #697A70",
" P c #547058",
" I c #537057",
" U c #4F7453",
" Y c #516C55",
" T c #575C5B",
" R c #888E95",
" E c #777C81",
" W c #4C6A50",
" Q c #4B6A4F",
" ! c #4B684F",
" ~ c #BACCBC",
" ^ c #374C38",
" / c #446248",
" ( c #9CA6AF",
" ) c #415E45",
" _ c #2B542C",
" ` c #69A16C",
" ' c #285229",
" ] c #68A16B",
" [ c #2A482B",
" { c #264E27",
" } c #254E26",
" | c #959EA8",
".  c #949EA7",
".. c #254C26",
".X c #A9B8AB",
".o c #939CA6",
".O c #828A92",
".+ c #629B65",
".@ c #639966",
".# c #A7B6A9",
".$ c #909AA3",
".% c #808890",
".& c #7D868D",
".* c #5D9360",
".= c #5C935F",
".- c #879D90",
".; c #686E75",
".: c #719377",
".> c #8D9196",
"., c #588F5B",
".< c #9AAE9C",
".1 c #869099",
".2 c #858E98",
".3 c #6D9173",
".4 c #848E97",
".5 c #838C96",
".6 c #828C95",
".7 c #727A82",
".8 c #707880",
".9 c #92A894",
".0 c #69896F",
".q c #7D8690",
".w c #4D8350",
".e c #474C51",
".r c #97A9A6",
".t c #575F5A",
".y c #FAF8FA",
".u c #58575B",
".i c #A7B1B9",
".p c #F9F6F9",
".a c #A6AFB8",
".s c #74797D",
".d c #1E2022",
".f c #0E0E0F",
".g c #525555",
".h c #A3ABB5",
".j c #4C5D4F",
".k c #515354",
".l c #416544",
".z c #4E4F51",
".x c #8A9B99",
".c c #435F46",
".v c #B6BDB7",
".b c #B5BDB6",
".n c #EDECED",
".m c #B1BFB2",
".M c #ECEAEC",
".N c #3F5D42",
".B c #56635C",
".V c #38673B",
".C c #585B5E",
".Z c #365F39",
".A c #E6E6E6",
".S c #54575A",
".D c #37593A",
".F c #38573B",
".G c #E4E4E4",
".H c #E5E2E5",
".J c #37573A",
".K c #535359",
".L c #525358",
".P c #E2E2E2",
".I c #E1E0E1",
".U c #335536",
".Y c #E0E0E0",
".T c #E0DEE0",
".R c #315534",
".E c #2F5332",
".W c #77967C",
".Q c #DDDCDD",
".! c #DCDCDC",
".~ c #719C76",
".^ c #2B552E",
"./ c #749679",
".( c #DBDADB",
".) c #709A75",
"._ c #DADADA",
".` c #DBD8DB",
".' c #719676",
".] c #59905B",
".[ c #719476",
".{ c #709475",
".} c #709275",
".| c #5D845F",
"X  c #859197",
"X. c #6F9274",
"XX c #6E9273",
"Xo c #656B71",
"XO c #6E9073",
"X+ c #6B9470",
"X@ c #848D96",
"X# c #6D9072",
"X$ c #6E8E73",
"X% c #97AB98",
"X& c #6C9071",
"X* c #D1D8D1",
"X= c #939DA8",
"X- c #6C8E71",
"X; c #95A996",
"X: c #D2D2D2",
"X> c #6B8C70",
"X, c #94A995",
"X< c #698E6E",
"X1 c #909BA5",
"X2 c #93A794",
"X3 c #698A6E",
"X4 c #678C6C",
"X5 c #94A395",
"X6 c #7E8790",
"X7 c #68886D",
"X8 c #67886C",
"X9 c #4E8450",
"X0 c #658A6A",
"Xq c #7C858E",
"Xw c #82848A",
"Xe c #8C95A1",
"Xr c #8B95A0",
"Xt c #CBCCCB",
"Xy c #65846A",
"Xu c #8A959F",
"Xi c #4B7E4D",
"Xp c #FEFBFD",
"Xa c #777F89",
"Xs c #899F8A",
"Xd c #767F88",
"Xf c #666D75",
"Xg c #7C7E84",
"Xh c #555B61",
"Xj c #607E65",
"Xk c #585C5A",
"Xl c #5F7C64",
"Xz c #636B72",
"Xx c #F9F7F8",
"Xc c #555C57",
"Xv c #A7B0B8",
"Xb c #67666C",
"Xn c #437445",
"Xm c #A5AEB6",
"XM c #4F555B",
"XN c #2E3134",
"XB c #A3ACB4",
"XV c #3D4146",
"XC c #4C5C4E",
"XZ c #476449",
"XA c #57745C",
"XS c #3D703F",
"XD c #436645",
"XF c #465C48",
"XG c #416443",
"XH c #050505",
"XJ c #3F5E41",
"XK c #38663A",
"XL c #3C5E3E",
"XP c #575A5C",
"XI c #111314",
"XU c #375E39",
"XY c #809F84",
"XT c #365E38",
"XR c #336035",
"XE c #809B84",
"XW c #3B523D",
"XQ c #326034",
"X! c #7F9B83",
"X~ c #76A97A",
"X^ c #38543A",
"X/ c #708571",
"X( c #525257",
"X) c #75A579",
"X_ c #335835",
"X` c #3D423F",
"X' c #7A977E",
"X] c #4F5054",
"X[ c #315433",
"X{ c #3C423E",
"X} c #79977D",
"X| c #39463B",
"o  c #6B816C",
"o. c #38463A",
"oX c #70A374",
"oo c #39443B",
"oO c #6FA373",
"o+ c #2D562F",
"o@ c #729D76",
"o# c #6DA571",
"o$ c #364638",
"o% c #374439",
"o& c #697F6A",
"o* c #709F74",
"o= c #2E5230",
"o- c #778A85",
"o; c #2D522F",
"o: c #6DA171",
"o> c #2B542D",
"o, c #2B522D",
"o< c #DBD9DA",
"o1 c #719775",
"o2 c #709774",
"o3 c #2A502C",
"o4 c #DAD7D9",
"o5 c #28522A",
"o6 c #98A2AC",
"o7 c #29502B",
"o8 c #28502A",
"o9 c #294E2B",
"o0 c #2C482E",
"oq c #275029",
"ow c #265028",
"oe c #2A482C",
"or c #264E28",
"ot c #55585D",
"oy c #254E27",
"ou c #235025",
"oi c #254C27",
"op c #54565C",
"oa c #244C26",
"os c #264828",
"od c #234C25",
"of c #244A26",
"og c #929CA6",
"oh c #234A25",
"oj c #808C91",
"ok c #61666C",
"ol c #214A23",
"oz c #224824",
"ox c #204A22",
"oc c #214823",
"ov c #629566",
"ob c #688B6C",
"on c #658F69",
"om c #8F98A3",
"oM c #204622",
"oN c #3E4043",
"oB c #8E98A2",
"oV c #1D481F",
"oC c #6D747B",
"oZ c #8D96A1",
"oA c #618F65",
"oS c #8C96A0",
"oD c #8B969F",
"oF c #8B949F",
"oG c #909E90",
"oH c #8A949E",
"oJ c #788089",
"oK c #628166",
"oL c #869D90",
"oP c #728F79",
"oI c #7B7D82",
"oU c #607D64",
"oY c #96AE99",
"oT c #133C15",
"oR c #56875A",
"oE c #707881",
"oW c #6B8972",
"oQ c #58755C",
"o! c #557959",
"o~ c #7F8589",
"o^ c #8BA28E",
"o/ c #536F57",
"o( c #415D42",
"o) c #637D6A",
"o_ c #88A08B",
"o` c #4D6B51",
"o' c #57595B",
"o] c #212426",
"o[ c #859A88",
"o{ c #385B39",
"o} c #959DA5",
"o| c #728672",
"O  c #49674D",
"O. c #0B0C0D",
"OX c #46634A",
"Oo c #3F4140",
"OO c #B2C5B4",
"O+ c #B4BDB6",
"O@ c #EBEEEC",
"O# c #9BA5AE",
"O$ c #9AA3AD",
"O% c #274F28",
"O& c #679C6A",
"O* c #959FA8",
"O= c #7F9C85",
"O- c #659A68",
"O; c #929BA5",
"O: c #525359",
"O> c #224923",
"O, c #254126",
"O< c #629665",
"O1 c #8D97A0",
"O2 c #DBE2DC",
"O3 c #8B959E",
"O4 c #5B5F65",
"O5 c #D9E0DA",
"O6 c #9DB59F",
"O7 c #5A5D64",
"O8 c #59905C",
"O9 c #88919B",
"O0 c #87919A",
"Oq c #676D74",
"Ow c #868F99",
"Oe c #848D97",
"Or c #838D96",
"Ot c #6B9071",
"Oy c #95AB97",
"Ou c #828B95",
"Oi c #717981",
"Op c #698E6F",
"Oa c #6B8871",
"Os c #6F777F",
"Od c #C9D2CA",
"Of c #517C54",
"Og c #7B858E",
"Oh c #81848A",
"Oj c #8B9E97",
"Ok c #C7D0C8",
"Ol c #FDFBFD",
"Oz c #FAF9FA",
"Ox c #69686F",
"Oc c #F9F7F9",
"Ov c #212325",
"Ob c #A7AEB9",
"On c #F8F5F8",
"Om c #6E8477",
"OM c #F5F5F5",
"ON c #427245",
"OB c #A3ACB5",
"OV c #829184",
"OC c #0B0B0C",
"OZ c #F2F1F2",
"OA c #71747A",
"OS c #436246",
"OD c #3C6C3F",
"OF c #8D949C",
"OG c #415E44",
"OH c #405E43",
"OJ c #4B4C4E",
"OK c #3B663E",
"OL c #E9E7E9",
"OP c #E7E7E7",
"OI c #E6E5E6",
"OU c #39583C",
"OY c #E5E5E5",
"OT c #E4E3E4",
"OR c #365839",
"OE c #365639",
"OW c #808C8F",
"OQ c #525258",
"O! c #335636",
"O~ c #515057",
"O^ c #E0DFE0",
"O/ c #325435",
"O( c #DFDFDF",
"O) c #485A4E",
"O_ c #2E5231",
"O` c #DCDBDC",
"O' c #75957A",
"O] c #729977",
"O[ c #749579",
"O{ c #D8DDD8",
"O} c #DAD9DA",
"O| c #709775",
"+  c #719576",
"+. c #DAD7DA",
"+X c #29502C",
"+o c #588F5A",
"+O c #6F9574",
"++ c #709375",
"+@ c #849D8C",
"+# c #6F9374",
"+$ c #6F9174",
"+% c #D2DDD2",
"+& c #849096",
"+* c #6E9173",
"+= c #6D9172",
"+- c #D5D5D5",
"+; c #6E8F73",
"+: c #D6D3D6",
"+> c #646A70",
"+, c #D5D3D5",
"+< c #838C95",
"+1 c #6C8F71",
"+2 c #D5D1D5",
"+3 c #6B8F70",
"+4 c #818A93",
"+5 c #698D6E",
"+6 c #D1D1D1",
"+7 c #6A8B6F",
"+8 c #5B755D",
"+9 c #8F9AA4",
"+0 c #CED1CE",
"+q c #8F98A4",
"+w c #68896D",
"+e c #1E4821",
"+r c #668B6B",
"+t c #8E98A3",
"+y c #84858C",
"+u c #1D4820",
"+i c #67876C",
"+p c #65896A",
"+a c #8D96A2",
"+s c #82858A",
"+d c #8C96A1",
"+f c #66856B",
"+g c #929E93",
"+h c #7B848D",
"+j c #65856A",
"+k c #818389",
"+l c #4C814E",
"+z c #4D7F4F",
"+x c #909E91",
"+c c #4C7F4E",
"+v c #8A949F",
"+b c #CACBCA",
"+n c #19441C",
"+m c #89949E",
"+M c #697078",
"+N c #88929D",
"+B c #628167",
"+V c #778089",
"+C c #8A9E8B",
"+Z c #9CA3AA",
"+A c #617F66",
"+S c #607D65",
"+D c #728B7A",
"+F c #89988A",
"+G c #5E7D63",
"+H c #A9B1BA",
"+J c #F9F6F8",
"+K c #5C7B61",
"+L c #829883",
"+P c #466948",
"+I c #8FAA93",
"+U c #4D5D4F",
"+Y c #4C5D4E",
"+T c #58755D",
"+R c #4A5D4C",
"+E c #1B1C1E",
"+W c #EDECEC",
"+Q c #445746",
"+! c #788E79",
"+~ c #141617",
"+^ c #3D5F3F",
"+/ c #38673A",
"+( c #595D5E",
"+) c #84A288",
"+_ c #83A287",
"+` c #3A5D3C",
"+' c None",
/* pixels */
"+*+*+*+*+*+*+*+*+*+*+*+*+*+*+*+*+*+*+*+*+*+*+*+*+*+*+*+*+*+*+*+*+*+*+*+*+*+*+*+*+*+*+*+*+*+*+*+*+*+*+*+*+*+*+*+*+*+*+*+*+*+*+*+*",
"+*+*+*+*+*+*+*+*+*+*+*+*+*+*+*+*+*+*+*+*+*+*+*+*+*+*+*+*+*+*+*+*+*+*+*+*+*+*+*+*+*+*+*+*+*+*+*+*+*+*+*+*+*+*+*+*+*+*+*+*+*+*+*+*",
"+*+*+*+*+*+*+*+*+*+*+*+*+*+*+*+*+*+*+*+*+*+*+*+*+*+*+*+*+*+*+*+*+*+*+*+*+*+*+*+*+*+*+*+*+*+*+*+*+*+*+*+*+*+*+*+*+*+*+*+*+*+*+*+*",
"+*+*+*+*+*+*+*+*+*+*+*+*+*+*+*+*+*+*+*+*+*+*+*+*+*+*+*+*+*+*+*+*+*+*+*+*+*+*+*+*+*+*+*+*+*+*+*+*+*+*+*+*+*+*+*+*+*+*+*+*+*+*+*+*",
"+*+*+*+*+*+*+*+*+*+*+*+*+*+*+*+*+*+*+*+*+*+*+*+*+*+*+*+*+*+*+*+*+*+*+*+*+*+*+*+*+*+*+*+*+*+*+*+*+*+*+*+*+*+*+*+*+*+*+*+*+*+*+*+*",
"+*+*+*+*+*+*+*+*+*+*+*+*+*+*+*+*+*+*+*+*+*+*+*+*+*+*+*+*+*+*+*+*+*+*+*+*+*+*+*+*+*+*+*+*+*+*+*+*+*+*+*+*+*+*+*+*+*+*+*+*+*+*+*+*",
"+*+*+*+*+*+*+*+*+*+*+*+*+*+*+*+*+*+*+*+*+*+*+*+*+*+*+*+*+*+*+*+*+*+*+*+*+*+*+*+*+*+*+*+*+*+*+*+*+*+*+*+*+*+*+*+*+*+*+*+*+*+*+*+*",
"+*+*+*+*+*+*+*+*+*+*+*+*+*+*+*+*+*+*+*+*+*+*+*+*+*+*+*+#.{+ +iX7X7X7X-.{++X.+*+*+*+*+*+*+*+*+*+*+*+*+*+*+*+*+*+*+*+*+*+*+*+*+*+*",
"+*+*+*+*+*+*+*+*+*+*+*+*+*+*+*+*+*+*+*+*+*+*+*+*.{Xy GO OE.FX[O_O_o= o.J.N I+AX-X.+*+*+*+*+*+*+*+*+*+*+*+*+*+*+*+*+*+*+*+*+*+*+*",
"+*+*+*+*+*+*+*+*+*+*+*+*+*+*+*+*+*+*+*+*+*+* 9Xl /.R wor 4 4 4 4 4 4 4 4 6oy+X.J PX8+*+*+*+*+*+*+*+*+*+*+*+*+*+*+*+*+*+*+*+*+*+*",
"+*+*+*+*+*+*+*+*+*+*+*+*+*+*+*+*+*+*+*+*+*+* !o7or 4 4 4 4 4 4 4 4 4 4 4 4 4 4 4 }ORX.+*+*+*+*+*+*+*+*+*+*+*+*+*+*+*+*+*+*+*+*+*",
"+*+*+*+*+*+*+*+*+*+*+*+*+*+*+*+*+*+*+*+*X.XA 6 4 4 4 4 4 4 4 4 4 4 4 4 4 4 4 4 4 4or U+*+*+*+*+*+*+*+*+*+*+*+*+*+*+*+*+*+*+*+*+*",
"+*+*+*+*+*+*+*+*+*+*+*+*+*+*+*+*+*+*+*+*++ /or 4 4 4 4 4 4 4 4 4 4 4 4 4 4 4 4 4 4 4XRO]+*+*+*+*+*+*+*+*+*+*+*+*+*+*+*+*+*+*+*+*",
"+*+*+*+*+*+*+*+*+*+*+*+*+*+*+*+*+*+*+*+*.{OU 4 4 4 4 4 4 4 4 4 4 4 4 4 4 4 4 4 4 4 4oMX~+*+*+*+*+*+*+*+*+*+*+*+*+*+*+*+*+*+*+*+*",
"+*+*+*+*+*+*+*+*+*+*+*+*+*+*+*+*+*+*+*+*X. Wor 4 4 4 4oqoyocoeo0o0o0or t 6 4 4 4 4 4.Vo@+*+*+*+*+*+*+*+*+*+*+*+*+*+*+*+*+*+*+*+*",
"+*+*+*+*+*+*+*+*+*+*+*+*+*+*+*+*+*+*+*+*+*+Ao3 4 4oyosX|OoOxXgXw+sOhXb.k XX^ y 4 4oh.,+O+*+*+*+*+*+*+*+*+*+*+*+*+*+*+*+*+*+*+*+*",
"+*+*+*+*+*+*+*+*+*+*+*+*+*+*+*+*+*+*+*+*+*X.oK.ZO,X{ K v.iO$.$ n+moH | (OFOA.z ^ '.] <+*+*+*+*+*+*+*+*+*+*+*+*+*+*+*+*+*+*+*+*+*",
"+*+*+*+*+*+*+*+*+*+*+*+*+*+*+*+*+*+*+*+*+*+*+7o-ObXmO*+d l noBoSoS loSoSoBXrO#.h.r./+=+*+*+*+*+*+*+*+*+*+*+*+*+*+*+*+*+*+*+*+*+*",
"+*+*+*+*+*+*+*+*+*+*+*+*+*+*+*+*+*+*+*+*X..0X XroB noS n l loSoSoS loS l l l loHoBom hX#+*+*+*+*+*X.X.+*+*+*+*+*+*+*+*+*+*+*+*+*",
"+*+*+*+*+*+*+*+*+*+*+*+*.{Xj+KoU+BX.+*+*Oa coDoB l loS noSoS noSoSoS loS l l l loSoBXeoLX&+*+*X- Fo/oQ+i+*+*+*+*+*+*+*+*+*+*+*+*",
"+*+*+*+*+*+*+*+*+*+*+*+* Y ,oy wo; B+* a.1oSoS l noSoS n loS loB noS n loSoSoSoB l n n+qO=X# u.N 4oy w.DX>+*+*+*+*+*+*+*+*+*+*+*",
"+*+*+*+*+*+*+*+*+*+*XX+T 6 4 4 4 4 2obojoHoB l noS noS loSoSoS l loS loS loB n l l loS lom = )oy 4 4 4O%.lX.+*+*+*+*+*+*+*+*+*+*",
"+*+*+*+*+*+*+*+*+*+*X-.J 4 4 4 4 4oro) joSoSoS l loSoS n l l n noS l l g loS loS l l loHoSOWo, 4 4 4 4 4O>.)+*+*+*+*+*+*+*+*+*+*",
"+*+*+*+*+*+*+*+*+*+* A+X 4 4 4 4 4of+k+voSoB n l l loS l loB+doB noBoH l n loSoSoSoSoS l lXao( 4 4 4 4 4 4OfXO+*+*+*+*+*+*+*+*+*",
"+*+*+*+*+*+*+*+*+*+#O or 4 4 4 4oq : ZoHoBoH noSoS loS noBoH+h DXhoEOe l loS l loS loB n lXd.tod 4 4 4 4 4XQ.[+*+*+*+*+*+*+*+*+*",
"+*+*+*+*+*+*+*+*+*+*.J 4 4 4 4 4odOJ.aoSoSoB loS noSoS g.7XN        o]Xf+toS loSoH l noS lO0O:+^ 4 4 4 4 4 po*+*+*+*+*+*+*+*+*+*",
"+*+*+*+*+*+*+*+*+*X7o= 4 4 4 4 4 [ K.ooS loS n n loSoBOiO.              Xz n l l l noS n n g+>+Roy 4 4 4 4oi dXO+*+*+*+*+*+*+*+*",
"+*+*+*+*+*+*+*+*+*+Ao3 4 4 4 4oq :.>+N l n l loS l l+4XI                  oBoHoS loS l noBoBXdXc w 4 4 4 4 8oRXO+*+*+*+*+*+*+*+*",
"+*+*+*+*+*+*+*+*+*Xloy 4 4 4 4oqo% H loSoHoSoSoS lX1XM                    .eoSoH l l noB n lOg T 1 4 4 4 4 4.w+;+*+*+*+*+*+*+*+*",
"+*+*+*+*+*+*+*+*X.+Toy 4 4 4 4owX`OB loS l l l NoSO9Ov                    .fo6 l loSoS l l l.5O~XU 4 4 4 4 4ON+#+*+*+*+*+*+*+*+*",
"+*+*+*+*+*+*+*+*X. Qor 4 4 4 4owX`OB noS l loH loS.2+~                      +HoS l l n n l nX@OQXT 4 4 4 4 4XK ;+*+*+*+*+*+*+*+*",
"+*+*+*+*+*+*+*+*X.o`or 4 4 4 4owX`XBoBoSoSoS loS l.4+E                      Xv loSoS n loS lOrOQXT 4 4 4 4 4OD.~+*+*+*+*+*+*+*+*",
"+*+*+*+*+*+*+*+*+*+Soy 4 4 4 4oqooo} l noSoS loS l+9XV                    oN. oSoSoSoS loS lOuXPo+ 4 4 4 4 4X9X$+*+*+*+*+*+*+*+*",
"+*+*+*+*+*+*+*+*+*Xl w 4 4 4 4oqo$ R+doS noS loSoSoSX6XH                  +ZoSoS n l loSoS n+VXk w 4 4 4 4 4+l+;+*+*+*+*+*+*+*+*",
"+*+*+*+*+*+*+*+*+*+f.E 4 4 4 4 4o0oI+m l n noS l l lO3 S                .sO;oSoB noS l l noBoCXC q 4 4 4 4oa.@XO+*+*+*+*+*+*+*+*",
"+*+*+*+*+*+*+*+*+*X3.U 4 4 4 4 4ol.uX=oBoSoSoSoS l loS lOs.d        OCo~ ioBoS n noSoS noS lO7XJ 4 4 4 4 4 r 0XO+*+*+*+*+*+*+*+*",
"+*+*+*+*+*+*+*+*+*.{.N 6 4 4 4 4oqo..O n noSoH goSoSoSoSoSog.%.S.C E+HO1oSoSoBoSoS loBoS l.q+( 3 4 4 4 4 4 4 O+*+*+*+*+*+*+*+*+*",
"+*+*+*+*+*+*+*+*+*X. I } 4 4 4 4 4os+yoHoS noSoS noBoBoSoSoSoSoHoHXuoS l n loS l n n loS noJXFor 4 4 4 4 4XnO|+*+*+*+*+*+*+*+*+*",
"+*+*+*+*+*+*+*+*+*+*+j.R 4 4 4 4 4oq L n noBoS l loSoSoS loSoSoS l loSoS loH l noSoB noBoS.& _ 4 4 4 4 4oi.++;+*+*+*+*+*+*+*+*+*",
"+*+*+*+*+*+*+*+*+*+*.{OX { 4 4 4 4ozO- C loH l loSoS loSoS l loS loS l l l noSoSoSoSoSoB+a zO/ 4 4 4 4 4o>X)+*+*+*+*+*+*+*+*+*+*",
"+*+*+*+*+*+*+*+*+*+*+*+wO!oa 4 8 pO8O|oWoS l loBoS l n loSoS l loSoS l noSoS loS l noSoZ.-+_o[o9.. 4 q.^ ]+*+*+*+*+*+*+*+*+*+*+*",
"+*+*+*+*+*+*+*+*+*+*+*+*+$oA+c+oO&o2+*X.Om+qoS noS loS l loSoSoS loS n n n loS l l goF.xX4Oz+:+povXi.*oX+*+*+*+*+*+*+*+*+*+*+*+*",
"+*+*+*+*+*+*+*+*+*+*+*+*+*+*+;+;XO+*+*+*+#+D M m l l n noHoSoS loSoS loSoS l l noSoZOj 5X0+J+,X<XO+;+;XO+*+*+*+*+*+*+*+*+*+*+*+*",
"+*+*+*+*+*+*+*+*+*+*+*+*+*+*+*+*+*+*+*+*+*+*oP+&Ow.6 l loSoSoS l loSoS n l lOwOu l+@+1+*X0+J+,X<+*+*+*+*+*+*+*+*+*+*+*+*+*+*+*+*",
"+*+*+*+*+*+*+*+*+*+*+*+*+*+*+*+*+*+*+*+*+*+*+7XZO)X]O4.8Or noB goB+9+9+<Xq+M.K.BOS+GXX+*X0+J+,X<+*+*+*+*+*+*+*+*+*+*+*+*+*+*+*+*",
"+*+*+*+*+*+*+*+*+*+*+*+*+*+*+*+*+*+*+*+*+*+7OHoyoy &XW.gX(otokOq.;Xoop.Lo'XC+^od 4o3oK+*X0+J+,X<+*+*+*+*+*+*+*+*+*+*+*+*+*+*+*+*",
"+*+*+*+*+*+*+*+*+*+*+*+*+*+*+*+*+*+*+*+*X.o/ w 4 4 4 4o5X_.c+Q.j+Y+UOGXLo+oy 4 4 4 4OKo1X0+J+,X<+*+*+*+*+*+*+*+*+*+*+*+*+*+*+*+*",
"+*+*+*+*+*+*+*+*+*+*+*+*+*+*+*+*+)oYX#X4OO.#X,X; 7or 4o8+C f bXsX2+L f 4 4 4 4o8+PX%O6 ~ @OZ+,X<+*+*+*+*+*+*+*+*+*+*+*+*+*+*+*+*",
"+*+*+*+*+*+*+*+*+*+*+*+*+*+*+*+r.y -o_ J.A.Y.Y.Y * k yOk.IX5.mOP.Y.IoGox 4 4o8XGOMO(.Y.YO(O(+,X<+*+*+*+*+*+*+*+*+*+*+*+*+*+*+*+*",
"+*+*+*+*+*+*+*+*+*+*+*+*+*+*+*.3o^ $OIOYXtOVX/o|o oa 4+`+-OTOY+bo&X:.P+xoa 4XDOM.Q+g+!Oy+0.Y+,X<+*+*+*+*+*+*+*+*+*+*+*+*+*+*+*+*",
"+*+*+*+*+*+*+*+*+*+*+*+*+*+*+*+*X#.<.GXt.W++ +or 4 4 4 4o{.MO}+8 4o{.M.`oV sX*.!+F+e `XX %OL+,X<+*+*+*+*+*+*+*+*+*+*+*+*+*+*+*+*",
"+*+*+*+*+*+*+*+*+*+*+*+*+*+*+*+*+*+I.nO+X&+*.}o!XQ t 4 4+nXp+. x 4+nXpo4+uoxOdO`.|o#XO+*X0Oc+,X<+*+*+*+*+*+*+*+*+*+*+*+*+*+*+*+*",
"+*+*+*+*+*+*+*+*+*+*+*+*+*+*+*+*+*+I+W.bOt+*+*+*.:on+z+/oTOl+. boi VOl+.ouXS+%O}XYXO+*+*X0+J+,X<+*+*+*+*+*+*+*+*+*+*+*+*+*+*+*+*",
"+*+*+*+*+*+*+*+*+*+*+*+*+*+*+*+*+*+I+W.bOt+*+*+*+*+*+;.'o:On+:.=O<.,.p eoOX+O2._.X+rOpOp+5Xx+,X<+*+*+*+*+*+*+*+*+*+*+*+*+*+*+*+*",
"+*+*+*+*+*+*+*+*+*+*+*+*+*+*+*+*+*+I+W.bOt+*+*+*+*+*+*+*X0+J+,+5XO+p+J+,X<+=.9.TO^O{O5O5O@.Y+,X<+*+*+*+*+*+*+*+*+*+*+*+*+*+*+*+*",
"+*+*+*+*+*+*+*+*+*+*+*+*+*+*+*+*+*+).H.v+3+*+*+*+*+*+*+*X4OI+2X<+*X4OI+2X<+*X# .+6.(o<o<.(O`+2X<+*+*+*+*+*+*+*+*+*+*+*+*+*+*+*+*",
"+*+*+*+*+*+*+*+*+*+*+*+*+*+*+*+*+*X#X'O'+*+*+*+*+*+*+*+*+* > #+*+*+* > #+*+*+*+*O[X!X!X!XEX} #+*+*+*+*+*+*+*+*+*+*+*+*+*+*+*+*+*",
"+*+*+*+*+*+*+*+*+*+*+*+*+*+*+*+*+*+*+*+*+*+*+*+*+*+*+*+*+*+*+*+*+*+*+*+*+*+*+*+*+*+*+*+*+*+*+*+*+*+*+*+*+*+*+*+*+*+*+*+*+*+*+*+*",
"+*+*+*+*+*+*+*+*+*+*+*+*+*+*+*+*+*+*+*+*+*+*+*+*+*+*+*+*+*+*+*+*+*+*+*+*+*+*+*+*+*+*+*+*+*+*+*+*+*+*+*+*+*+*+*+*+*+*+*+*+*+*+*+*",
"+*+*+*+*+*+*+*+*+*+*+*+*+*+*+*+*+*+*+*+*+*+*+*+*+*+*+*+*+*+*+*+*+*+*+*+*+*+*+*+*+*+*+*+*+*+*+*+*+*+*+*+*+*+*+*+*+*+*+*+*+*+*+*+*",
"+*+*+*+*+*+*+*+*+*+*+*+*+*+*+*+*+*+*+*+*+*+*+*+*+*+*+*+*+*+*+*+*+*+*+*+*+*+*+*+*+*+*+*+*+*+*+*+*+*+*+*+*+*+*+*+*+*+*+*+*+*+*+*+*",
"+*+*+*+*+*+*+*+*+*+*+*+*+*+*+*+*+*+*+*+*+*+*+*+*+*+*+*+*+*+*+*+*+*+*+*+*+*+*+*+*+*+*+*+*+*+*+*+*+*+*+*+*+*+*+*+*+*+*+*+*+*+*+*+*",
"+*+*+*+*+*+*+*+*+*+*+*+*+*+*+*+*+*+*+*+*+*+*+*+*+*+*+*+*+*+*+*+*+*+*+*+*+*+*+*+*+*+*+*+*+*+*+*+*+*+*+*+*+*+*+*+*+*+*+*+*+*+*+*+*",
"+*+*+*+*+*+*+*+*+*+*+*+*+*+*+*+*+*+*+*+*+*+*+*+*+*+*+*+*+*+*+*+*+*+*+*+*+*+*+*+*+*+*+*+*+*+*+*+*+*+*+*+*+*+*+*+*+*+*+*+*+*+*+*+*"
};
