G04 start of page 7 for group -1 layer_idx 268435461 *
G04 Title: thermals vs. multiple layer polygons, <virtual group> *
G04 Creator: <version>
G04 CreationDate: <date>
G04 For: TEST *
G04 Format: Gerber/RS-274X *
G04 PCB-Dimensions: 50000 50000 *
G04 PCB-Coordinate-Origin: lower left *
%MOIN*%
%FSLAX25Y25*%
%LNLOGICAL_VIRTUAL_FAB_NONE*%
%ADD25C,0.0100*%
%ADD24C,0.0001*%
%ADD23C,0.0060*%
%ADD22C,0.0080*%
G54D22*X10000Y40000D02*Y38400D01*
Y40000D02*X11387Y40800D01*
X10000Y40000D02*X8613Y40800D01*
X27500Y40000D02*Y38400D01*
Y40000D02*X28887Y40800D01*
X27500Y40000D02*X26113Y40800D01*
X10000Y22500D02*Y20900D01*
Y22500D02*X11387Y23300D01*
X10000Y22500D02*X8613Y23300D01*
X27500Y22500D02*Y20900D01*
Y22500D02*X28887Y23300D01*
X27500Y22500D02*X26113Y23300D01*
X15000Y106250D02*Y104650D01*
Y106250D02*X16387Y107050D01*
X15000Y106250D02*X13613Y107050D01*
G54D23*X135000Y110000D02*X136500Y107000D01*
X138000Y110000D01*
X136500Y107000D02*Y104000D01*
X139800Y107300D02*X142050D01*
X139800Y104000D02*X142800D01*
X139800Y110000D02*Y104000D01*
Y110000D02*X142800D01*
X147600D02*X148350Y109250D01*
X145350Y110000D02*X147600D01*
X144600Y109250D02*X145350Y110000D01*
X144600Y109250D02*Y107750D01*
X145350Y107000D01*
X147600D01*
X148350Y106250D01*
Y104750D01*
X147600Y104000D02*X148350Y104750D01*
X145350Y104000D02*X147600D01*
X144600Y104750D02*X145350Y104000D01*
X98000Y106250D02*X101000Y110000D01*
X98000Y106250D02*X101750D01*
X101000Y110000D02*Y104000D01*
G54D24*G36*
X45000Y110000D02*X49500D01*
Y104000D01*
X45000D01*
Y110000D01*
G37*
G36*
X50400D02*X54900D01*
Y104000D01*
X50400D01*
Y110000D01*
G37*
G36*
X55800D02*X60300D01*
Y104000D01*
X55800D01*
Y110000D01*
G37*
G54D23*X61200Y109250D02*X61950Y110000D01*
X63450D01*
X64200Y109250D01*
X63450Y104000D02*X64200Y104750D01*
X61950Y104000D02*X63450D01*
X61200Y104750D02*X61950Y104000D01*
Y107300D02*X63450D01*
X64200Y109250D02*Y108050D01*
Y106550D02*Y104750D01*
Y106550D02*X63450Y107300D01*
X64200Y108050D02*X63450Y107300D01*
X66000Y109250D02*X66750Y110000D01*
X69000D01*
X69750Y109250D01*
Y107750D01*
X66000Y104000D02*X69750Y107750D01*
X66000Y104000D02*X69750D01*
X3000Y125000D02*X3750Y124250D01*
X750Y125000D02*X3000D01*
X0Y124250D02*X750Y125000D01*
X0Y124250D02*Y122750D01*
X750Y122000D01*
X3000D01*
X3750Y121250D01*
Y119750D01*
X3000Y119000D02*X3750Y119750D01*
X750Y119000D02*X3000D01*
X0Y119750D02*X750Y119000D01*
G54D24*G36*
X5550Y125000D02*X10050D01*
Y119000D01*
X5550D01*
Y125000D01*
G37*
G36*
X10950D02*X15450D01*
Y119000D01*
X10950D01*
Y125000D01*
G37*
G36*
X16350D02*X20850D01*
Y119000D01*
X16350D01*
Y125000D01*
G37*
G36*
X21750D02*X26250D01*
Y119000D01*
X21750D01*
Y125000D01*
G37*
G36*
X27150D02*X31650D01*
Y119000D01*
X27150D01*
Y125000D01*
G37*
G54D23*X0Y118000D02*X5550D01*
X41750Y125000D02*Y119000D01*
X43700Y125000D02*X44750Y123950D01*
Y120050D01*
X43700Y119000D02*X44750Y120050D01*
X41000Y119000D02*X43700D01*
X41000Y125000D02*X43700D01*
G54D24*G36*
X46550D02*X51050D01*
Y119000D01*
X46550D01*
Y125000D01*
G37*
G36*
X51950D02*X56450D01*
Y119000D01*
X51950D01*
Y125000D01*
G37*
G36*
X57350D02*X61850D01*
Y119000D01*
X57350D01*
Y125000D01*
G37*
G36*
X62750D02*X67250D01*
Y119000D01*
X62750D01*
Y125000D01*
G37*
G36*
X70850D02*X75350D01*
Y119000D01*
X70850D01*
Y125000D01*
G37*
G54D23*X76250D02*X77750D01*
X77000D02*Y119000D01*
X76250D02*X77750D01*
G54D24*G36*
X79550Y125000D02*X84050D01*
Y119000D01*
X79550D01*
Y125000D01*
G37*
G36*
X84950D02*X89450D01*
Y119000D01*
X84950D01*
Y125000D01*
G37*
G36*
X90350D02*X94850D01*
Y119000D01*
X90350D01*
Y125000D01*
G37*
G36*
X95750D02*X100250D01*
Y119000D01*
X95750D01*
Y125000D01*
G37*
G54D23*X41000Y118000D02*X52550D01*
X96050Y119000D02*X98000D01*
X95000Y120050D02*X96050Y119000D01*
X95000Y123950D02*Y120050D01*
Y123950D02*X96050Y125000D01*
X98000D01*
G54D24*G36*
X99800D02*X104300D01*
Y119000D01*
X99800D01*
Y125000D01*
G37*
G36*
X105200D02*X109700D01*
Y119000D01*
X105200D01*
Y125000D01*
G37*
G36*
X110600D02*X115100D01*
Y119000D01*
X110600D01*
Y125000D01*
G37*
G36*
X116000D02*X120500D01*
Y119000D01*
X116000D01*
Y125000D01*
G37*
G54D23*X95000Y118000D02*X99800D01*
X130750Y125000D02*Y119000D01*
X130000Y125000D02*X133000D01*
X133750Y124250D01*
Y122750D01*
X133000Y122000D02*X133750Y122750D01*
X130750Y122000D02*X133000D01*
G54D24*G36*
X135550Y125000D02*X140050D01*
Y119000D01*
X135550D01*
Y125000D01*
G37*
G36*
X140950D02*X145450D01*
Y119000D01*
X140950D01*
Y125000D01*
G37*
G36*
X146350D02*X150850D01*
Y119000D01*
X146350D01*
Y125000D01*
G37*
G36*
X151750D02*X156250D01*
Y119000D01*
X151750D01*
Y125000D01*
G37*
G36*
X157150D02*X161650D01*
Y119000D01*
X157150D01*
Y125000D01*
G37*
G36*
X162550D02*X167050D01*
Y119000D01*
X162550D01*
Y125000D01*
G37*
G54D23*X130000Y118000D02*X135550D01*
X0Y140000D02*X3000D01*
X1500D02*Y134000D01*
G54D24*G36*
X4800Y140000D02*X9300D01*
Y134000D01*
X4800D01*
Y140000D01*
G37*
G36*
X10200D02*X14700D01*
Y134000D01*
X10200D01*
Y140000D01*
G37*
G36*
X15600D02*X20100D01*
Y134000D01*
X15600D01*
Y140000D01*
G37*
G36*
X21000D02*X25500D01*
Y134000D01*
X21000D01*
Y140000D01*
G37*
G36*
X29100D02*X33600D01*
Y134000D01*
X29100D01*
Y140000D01*
G37*
G36*
X34500D02*X39000D01*
Y134000D01*
X34500D01*
Y140000D01*
G37*
G36*
X39900D02*X44400D01*
Y134000D01*
X39900D01*
Y140000D01*
G37*
G54D23*X48000Y138800D02*X49200Y140000D01*
Y134000D01*
X48000D02*X50250D01*
G54D24*G36*
X54750Y140000D02*X59250D01*
Y134000D01*
X54750D01*
Y140000D01*
G37*
G36*
X60150D02*X64650D01*
Y134000D01*
X60150D01*
Y140000D01*
G37*
G36*
X65550D02*X70050D01*
Y134000D01*
X65550D01*
Y140000D01*
G37*
G36*
X70950D02*X75450D01*
Y134000D01*
X70950D01*
Y140000D01*
G37*
G36*
X76350D02*X80850D01*
Y134000D01*
X76350D01*
Y140000D01*
G37*
G36*
X81750D02*X86250D01*
Y134000D01*
X81750D01*
Y140000D01*
G37*
G36*
X87150D02*X91650D01*
Y134000D01*
X87150D01*
Y140000D01*
G37*
G36*
X92550D02*X97050D01*
Y134000D01*
X92550D01*
Y140000D01*
G37*
G36*
X97950D02*X102450D01*
Y134000D01*
X97950D01*
Y140000D01*
G37*
G36*
X106050D02*X110550D01*
Y134000D01*
X106050D01*
Y140000D01*
G37*
G36*
X111450D02*X115950D01*
Y134000D01*
X111450D01*
Y140000D01*
G37*
G36*
X116850D02*X121350D01*
Y134000D01*
X116850D01*
Y140000D01*
G37*
G36*
X122250D02*X126750D01*
Y134000D01*
X122250D01*
Y140000D01*
G37*
G36*
X127650D02*X132150D01*
Y134000D01*
X127650D01*
Y140000D01*
G37*
G36*
X135750D02*X140250D01*
Y134000D01*
X135750D01*
Y140000D01*
G37*
G36*
X141150D02*X145650D01*
Y134000D01*
X141150D01*
Y140000D01*
G37*
G36*
X146550D02*X151050D01*
Y134000D01*
X146550D01*
Y140000D01*
G37*
G36*
X151950D02*X156450D01*
Y134000D01*
X151950D01*
Y140000D01*
G37*
G36*
X157350D02*X161850D01*
Y134000D01*
X157350D01*
Y140000D01*
G37*
G36*
X165450D02*X169950D01*
Y134000D01*
X165450D01*
Y140000D01*
G37*
G36*
X170850D02*X175350D01*
Y134000D01*
X170850D01*
Y140000D01*
G37*
G36*
X176250D02*X180750D01*
Y134000D01*
X176250D01*
Y140000D01*
G37*
G36*
X181650D02*X186150D01*
Y134000D01*
X181650D01*
Y140000D01*
G37*
G36*
X189750D02*X194250D01*
Y134000D01*
X189750D01*
Y140000D01*
G37*
G36*
X195150D02*X199650D01*
Y134000D01*
X195150D01*
Y140000D01*
G37*
G36*
X203250D02*X207750D01*
Y134000D01*
X203250D01*
Y140000D01*
G37*
G36*
X208650D02*X213150D01*
Y134000D01*
X208650D01*
Y140000D01*
G37*
G36*
X214050D02*X218550D01*
Y134000D01*
X214050D01*
Y140000D01*
G37*
G36*
X219450D02*X223950D01*
Y134000D01*
X219450D01*
Y140000D01*
G37*
G36*
X227550D02*X232050D01*
Y134000D01*
X227550D01*
Y140000D01*
G37*
G36*
X232950D02*X237450D01*
Y134000D01*
X232950D01*
Y140000D01*
G37*
G36*
X238350D02*X242850D01*
Y134000D01*
X238350D01*
Y140000D01*
G37*
G36*
X243750D02*X248250D01*
Y134000D01*
X243750D01*
Y140000D01*
G37*
G36*
X249150D02*X253650D01*
Y134000D01*
X249150D01*
Y140000D01*
G37*
G36*
X254550D02*X259050D01*
Y134000D01*
X254550D01*
Y140000D01*
G37*
G36*
X259950D02*X264450D01*
Y134000D01*
X259950D01*
Y140000D01*
G37*
G54D23*X268050Y136250D02*X271050Y140000D01*
X268050Y136250D02*X271800D01*
X271050Y140000D02*Y134000D01*
G54D24*G36*
X276300Y140000D02*X280800D01*
Y134000D01*
X276300D01*
Y140000D01*
G37*
G36*
X281700D02*X286200D01*
Y134000D01*
X281700D01*
Y140000D01*
G37*
G36*
X287100D02*X291600D01*
Y134000D01*
X287100D01*
Y140000D01*
G37*
G36*
X292500D02*X297000D01*
Y134000D01*
X292500D01*
Y140000D01*
G37*
G36*
X297900D02*X302400D01*
Y134000D01*
X297900D01*
Y140000D01*
G37*
G36*
X306000D02*X310500D01*
Y134000D01*
X306000D01*
Y140000D01*
G37*
G36*
X311400D02*X315900D01*
Y134000D01*
X311400D01*
Y140000D01*
G37*
G36*
X316800D02*X321300D01*
Y134000D01*
X316800D01*
Y140000D01*
G37*
G36*
X322200D02*X326700D01*
Y134000D01*
X322200D01*
Y140000D01*
G37*
G36*
X327600D02*X332100D01*
Y134000D01*
X327600D01*
Y140000D01*
G37*
G54D25*X0Y50000D02*X50000D01*
X0D02*Y0D01*
X50000Y50000D02*Y0D01*
X0D02*X50000D01*
G54D23*X200000Y65000D02*Y59000D01*
Y65000D02*X202250Y62000D01*
X204500Y65000D01*
Y59000D01*
G54D24*G36*
X206300Y65000D02*X210800D01*
Y59000D01*
X206300D01*
Y65000D01*
G37*
G36*
X211700D02*X216200D01*
Y59000D01*
X211700D01*
Y65000D01*
G37*
G36*
X217100D02*X221600D01*
Y59000D01*
X217100D01*
Y65000D01*
G37*
G36*
X222500D02*X227000D01*
Y59000D01*
X222500D01*
Y65000D01*
G37*
G36*
X227900D02*X232400D01*
Y59000D01*
X227900D01*
Y65000D01*
G37*
G36*
X233300D02*X237800D01*
Y59000D01*
X233300D01*
Y65000D01*
G37*
G54D23*X242150D02*Y59000D01*
X244100Y65000D02*X245150Y63950D01*
Y60050D01*
X244100Y59000D02*X245150Y60050D01*
X241400Y59000D02*X244100D01*
X241400Y65000D02*X244100D01*
G54D24*G36*
X246950D02*X251450D01*
Y59000D01*
X246950D01*
Y65000D01*
G37*
G36*
X252350D02*X256850D01*
Y59000D01*
X252350D01*
Y65000D01*
G37*
G36*
X257750D02*X262250D01*
Y59000D01*
X257750D01*
Y65000D01*
G37*
G36*
X263150D02*X267650D01*
Y59000D01*
X263150D01*
Y65000D01*
G37*
G36*
X268550D02*X273050D01*
Y59000D01*
X268550D01*
Y65000D01*
G37*
G36*
X273950D02*X278450D01*
Y59000D01*
X273950D01*
Y65000D01*
G37*
G36*
X279350D02*X283850D01*
Y59000D01*
X279350D01*
Y65000D01*
G37*
G36*
X284750D02*X289250D01*
Y59000D01*
X284750D01*
Y65000D01*
G37*
G36*
X290150D02*X294650D01*
Y59000D01*
X290150D01*
Y65000D01*
G37*
G36*
X295550D02*X300050D01*
Y59000D01*
X295550D01*
Y65000D01*
G37*
G54D23*X303650D02*X306650D01*
X303650D02*Y62000D01*
X304400Y62750D01*
X305900D01*
X306650Y62000D01*
Y59750D01*
X305900Y59000D02*X306650Y59750D01*
X304400Y59000D02*X305900D01*
X303650Y59750D02*X304400Y59000D01*
G54D24*G36*
X308450Y65000D02*X312950D01*
Y59000D01*
X308450D01*
Y65000D01*
G37*
G36*
X313850D02*X318350D01*
Y59000D01*
X313850D01*
Y65000D01*
G37*
G36*
X319250D02*X323750D01*
Y59000D01*
X319250D01*
Y65000D01*
G37*
G36*
X324650D02*X329150D01*
Y59000D01*
X324650D01*
Y65000D01*
G37*
G36*
X330050D02*X334550D01*
Y59000D01*
X330050D01*
Y65000D01*
G37*
G36*
X335450D02*X339950D01*
Y59000D01*
X335450D01*
Y65000D01*
G37*
G36*
X340850D02*X345350D01*
Y59000D01*
X340850D01*
Y65000D01*
G37*
G36*
X346250D02*X350750D01*
Y59000D01*
X346250D01*
Y65000D01*
G37*
G36*
X351650D02*X356150D01*
Y59000D01*
X351650D01*
Y65000D01*
G37*
G36*
X359750D02*X364250D01*
Y59000D01*
X359750D01*
Y65000D01*
G37*
G36*
X365150D02*X369650D01*
Y59000D01*
X365150D01*
Y65000D01*
G37*
G36*
X370550D02*X375050D01*
Y59000D01*
X370550D01*
Y65000D01*
G37*
G36*
X375950D02*X380450D01*
Y59000D01*
X375950D01*
Y65000D01*
G37*
G36*
X384050D02*X388550D01*
Y59000D01*
X384050D01*
Y65000D01*
G37*
G36*
X389450D02*X393950D01*
Y59000D01*
X389450D01*
Y65000D01*
G37*
G36*
X394850D02*X399350D01*
Y59000D01*
X394850D01*
Y65000D01*
G37*
G36*
X400250D02*X404750D01*
Y59000D01*
X400250D01*
Y65000D01*
G37*
G36*
X405650D02*X410150D01*
Y59000D01*
X405650D01*
Y65000D01*
G37*
G54D23*X413750D02*X416750D01*
X413750D02*Y62000D01*
X414500Y62750D01*
X416000D01*
X416750Y62000D01*
Y59750D01*
X416000Y59000D02*X416750Y59750D01*
X414500Y59000D02*X416000D01*
X413750Y59750D02*X414500Y59000D01*
G54D24*G36*
X418550Y65000D02*X423050D01*
Y59000D01*
X418550D01*
Y65000D01*
G37*
G36*
X423950D02*X428450D01*
Y59000D01*
X423950D01*
Y65000D01*
G37*
G36*
X429350D02*X433850D01*
Y59000D01*
X429350D01*
Y65000D01*
G37*
G36*
X434750D02*X439250D01*
Y59000D01*
X434750D01*
Y65000D01*
G37*
G36*
X440150D02*X444650D01*
Y59000D01*
X440150D01*
Y65000D01*
G37*
G36*
X445550D02*X450050D01*
Y59000D01*
X445550D01*
Y65000D01*
G37*
G36*
X450950D02*X455450D01*
Y59000D01*
X450950D01*
Y65000D01*
G37*
G36*
X456350D02*X460850D01*
Y59000D01*
X456350D01*
Y65000D01*
G37*
G36*
X461750D02*X466250D01*
Y59000D01*
X461750D01*
Y65000D01*
G37*
G36*
X469850D02*X474350D01*
Y59000D01*
X469850D01*
Y65000D01*
G37*
G36*
X475250D02*X479750D01*
Y59000D01*
X475250D01*
Y65000D01*
G37*
G36*
X480650D02*X485150D01*
Y59000D01*
X480650D01*
Y65000D01*
G37*
G36*
X486050D02*X490550D01*
Y59000D01*
X486050D01*
Y65000D01*
G37*
G36*
X494150D02*X498650D01*
Y59000D01*
X494150D01*
Y65000D01*
G37*
G36*
X499550D02*X504050D01*
Y59000D01*
X499550D01*
Y65000D01*
G37*
G36*
X504950D02*X509450D01*
Y59000D01*
X504950D01*
Y65000D01*
G37*
G36*
X510350D02*X514850D01*
Y59000D01*
X510350D01*
Y65000D01*
G37*
G54D23*X0Y-8000D02*X3000D01*
X3750Y-7250D01*
Y-5450D02*Y-7250D01*
X3000Y-4700D02*X3750Y-5450D01*
X750Y-4700D02*X3000D01*
X750Y-2000D02*Y-8000D01*
X0Y-2000D02*X3000D01*
X3750Y-2750D01*
Y-3950D01*
X3000Y-4700D02*X3750Y-3950D01*
G54D24*G36*
X5550Y-2000D02*X10050D01*
Y-8000D01*
X5550D01*
Y-2000D01*
G37*
G36*
X10950D02*X15450D01*
Y-8000D01*
X10950D01*
Y-2000D01*
G37*
G36*
X16350D02*X20850D01*
Y-8000D01*
X16350D01*
Y-2000D01*
G37*
G36*
X21750D02*X26250D01*
Y-8000D01*
X21750D01*
Y-2000D01*
G37*
G36*
X29850D02*X34350D01*
Y-8000D01*
X29850D01*
Y-2000D01*
G37*
G36*
X35250D02*X39750D01*
Y-8000D01*
X35250D01*
Y-2000D01*
G37*
G36*
X40650D02*X45150D01*
Y-8000D01*
X40650D01*
Y-2000D01*
G37*
G36*
X46050D02*X50550D01*
Y-8000D01*
X46050D01*
Y-2000D01*
G37*
G36*
X51450D02*X55950D01*
Y-8000D01*
X51450D01*
Y-2000D01*
G37*
G36*
X56850D02*X61350D01*
Y-8000D01*
X56850D01*
Y-2000D01*
G37*
G36*
X62250D02*X66750D01*
Y-8000D01*
X62250D01*
Y-2000D01*
G37*
G36*
X70350D02*X74850D01*
Y-8000D01*
X70350D01*
Y-2000D01*
G37*
G36*
X75750D02*X80250D01*
Y-8000D01*
X75750D01*
Y-2000D01*
G37*
G36*
X83850D02*X88350D01*
Y-8000D01*
X83850D01*
Y-2000D01*
G37*
G36*
X89250D02*X93750D01*
Y-8000D01*
X89250D01*
Y-2000D01*
G37*
G36*
X94650D02*X99150D01*
Y-8000D01*
X94650D01*
Y-2000D01*
G37*
G36*
X102750D02*X107250D01*
Y-8000D01*
X102750D01*
Y-2000D01*
G37*
G36*
X108150D02*X112650D01*
Y-8000D01*
X108150D01*
Y-2000D01*
G37*
G36*
X113550D02*X118050D01*
Y-8000D01*
X113550D01*
Y-2000D01*
G37*
G36*
X118950D02*X123450D01*
Y-8000D01*
X118950D01*
Y-2000D01*
G37*
G36*
X124350D02*X128850D01*
Y-8000D01*
X124350D01*
Y-2000D01*
G37*
G36*
X129750D02*X134250D01*
Y-8000D01*
X129750D01*
Y-2000D01*
G37*
G36*
X135150D02*X139650D01*
Y-8000D01*
X135150D01*
Y-2000D01*
G37*
G36*
X140550D02*X145050D01*
Y-8000D01*
X140550D01*
Y-2000D01*
G37*
G36*
X145950D02*X150450D01*
Y-8000D01*
X145950D01*
Y-2000D01*
G37*
G36*
X151350D02*X155850D01*
Y-8000D01*
X151350D01*
Y-2000D01*
G37*
G36*
X159450D02*X163950D01*
Y-8000D01*
X159450D01*
Y-2000D01*
G37*
G36*
X164850D02*X169350D01*
Y-8000D01*
X164850D01*
Y-2000D01*
G37*
G36*
X172950D02*X177450D01*
Y-8000D01*
X172950D01*
Y-2000D01*
G37*
G36*
X178350D02*X182850D01*
Y-8000D01*
X178350D01*
Y-2000D01*
G37*
G36*
X183750D02*X188250D01*
Y-8000D01*
X183750D01*
Y-2000D01*
G37*
G36*
X189150D02*X193650D01*
Y-8000D01*
X189150D01*
Y-2000D01*
G37*
G54D23*X197250Y-7250D02*X198000Y-8000D01*
X197250Y-6050D02*Y-7250D01*
Y-6050D02*X198300Y-5000D01*
X199200D01*
X200250Y-6050D01*
Y-7250D01*
X199500Y-8000D02*X200250Y-7250D01*
X198000Y-8000D02*X199500D01*
X197250Y-3950D02*X198300Y-5000D01*
X197250Y-2750D02*Y-3950D01*
Y-2750D02*X198000Y-2000D01*
X199500D01*
X200250Y-2750D01*
Y-3950D01*
X199200Y-5000D02*X200250Y-3950D01*
G54D24*G36*
X202050Y-2000D02*X206550D01*
Y-8000D01*
X202050D01*
Y-2000D01*
G37*
G36*
X207450D02*X211950D01*
Y-8000D01*
X207450D01*
Y-2000D01*
G37*
G36*
X212850D02*X217350D01*
Y-8000D01*
X212850D01*
Y-2000D01*
G37*
G36*
X218250D02*X222750D01*
Y-8000D01*
X218250D01*
Y-2000D01*
G37*
G36*
X223650D02*X228150D01*
Y-8000D01*
X223650D01*
Y-2000D01*
G37*
G36*
X229050D02*X233550D01*
Y-8000D01*
X229050D01*
Y-2000D01*
G37*
G36*
X234450D02*X238950D01*
Y-8000D01*
X234450D01*
Y-2000D01*
G37*
G36*
X242550D02*X247050D01*
Y-8000D01*
X242550D01*
Y-2000D01*
G37*
G36*
X247950D02*X252450D01*
Y-8000D01*
X247950D01*
Y-2000D01*
G37*
G36*
X253350D02*X257850D01*
Y-8000D01*
X253350D01*
Y-2000D01*
G37*
G36*
X261450D02*X265950D01*
Y-8000D01*
X261450D01*
Y-2000D01*
G37*
G36*
X266850D02*X271350D01*
Y-8000D01*
X266850D01*
Y-2000D01*
G37*
G36*
X272250D02*X276750D01*
Y-8000D01*
X272250D01*
Y-2000D01*
G37*
G36*
X277650D02*X282150D01*
Y-8000D01*
X277650D01*
Y-2000D01*
G37*
G36*
X283050D02*X287550D01*
Y-8000D01*
X283050D01*
Y-2000D01*
G37*
G36*
X288450D02*X292950D01*
Y-8000D01*
X288450D01*
Y-2000D01*
G37*
G36*
X293850D02*X298350D01*
Y-8000D01*
X293850D01*
Y-2000D01*
G37*
G36*
X299250D02*X303750D01*
Y-8000D01*
X299250D01*
Y-2000D01*
G37*
G36*
X304650D02*X309150D01*
Y-8000D01*
X304650D01*
Y-2000D01*
G37*
G36*
X312750D02*X317250D01*
Y-8000D01*
X312750D01*
Y-2000D01*
G37*
G36*
X320850D02*X325350D01*
Y-8000D01*
X320850D01*
Y-2000D01*
G37*
G36*
X326250D02*X330750D01*
Y-8000D01*
X326250D01*
Y-2000D01*
G37*
G36*
X331650D02*X336150D01*
Y-8000D01*
X331650D01*
Y-2000D01*
G37*
G36*
X339750D02*X344250D01*
Y-8000D01*
X339750D01*
Y-2000D01*
G37*
G36*
X345150D02*X349650D01*
Y-8000D01*
X345150D01*
Y-2000D01*
G37*
G54D23*X353250D02*X356250D01*
X353250D02*Y-5000D01*
X354000Y-4250D01*
X355500D01*
X356250Y-5000D01*
Y-7250D01*
X355500Y-8000D02*X356250Y-7250D01*
X354000Y-8000D02*X355500D01*
X353250Y-7250D02*X354000Y-8000D01*
G54D24*G36*
X358050Y-2000D02*X362550D01*
Y-8000D01*
X358050D01*
Y-2000D01*
G37*
G36*
X363450D02*X367950D01*
Y-8000D01*
X363450D01*
Y-2000D01*
G37*
G36*
X368850D02*X373350D01*
Y-8000D01*
X368850D01*
Y-2000D01*
G37*
G36*
X374250D02*X378750D01*
Y-8000D01*
X374250D01*
Y-2000D01*
G37*
G36*
X379650D02*X384150D01*
Y-8000D01*
X379650D01*
Y-2000D01*
G37*
G36*
X385050D02*X389550D01*
Y-8000D01*
X385050D01*
Y-2000D01*
G37*
G36*
X390450D02*X394950D01*
Y-8000D01*
X390450D01*
Y-2000D01*
G37*
G36*
X395850D02*X400350D01*
Y-8000D01*
X395850D01*
Y-2000D01*
G37*
G36*
X401250D02*X405750D01*
Y-8000D01*
X401250D01*
Y-2000D01*
G37*
G36*
X406650D02*X411150D01*
Y-8000D01*
X406650D01*
Y-2000D01*
G37*
G54D23*X412050D02*X415050D01*
X412050D02*Y-5000D01*
X412800Y-4250D01*
X414300D01*
X415050Y-5000D01*
Y-7250D01*
X414300Y-8000D02*X415050Y-7250D01*
X412800Y-8000D02*X414300D01*
X412050Y-7250D02*X412800Y-8000D01*
G54D24*G36*
X416850Y-2000D02*X421350D01*
Y-8000D01*
X416850D01*
Y-2000D01*
G37*
G36*
X422250D02*X426750D01*
Y-8000D01*
X422250D01*
Y-2000D01*
G37*
G36*
X427650D02*X432150D01*
Y-8000D01*
X427650D01*
Y-2000D01*
G37*
G36*
X433050D02*X437550D01*
Y-8000D01*
X433050D01*
Y-2000D01*
G37*
G36*
X438450D02*X442950D01*
Y-8000D01*
X438450D01*
Y-2000D01*
G37*
G36*
X443850D02*X448350D01*
Y-8000D01*
X443850D01*
Y-2000D01*
G37*
G36*
X449250D02*X453750D01*
Y-8000D01*
X449250D01*
Y-2000D01*
G37*
G36*
X454650D02*X459150D01*
Y-8000D01*
X454650D01*
Y-2000D01*
G37*
G36*
X460050D02*X464550D01*
Y-8000D01*
X460050D01*
Y-2000D01*
G37*
G36*
X468150D02*X472650D01*
Y-8000D01*
X468150D01*
Y-2000D01*
G37*
G36*
X473550D02*X478050D01*
Y-8000D01*
X473550D01*
Y-2000D01*
G37*
G36*
X478950D02*X483450D01*
Y-8000D01*
X478950D01*
Y-2000D01*
G37*
G36*
X484350D02*X488850D01*
Y-8000D01*
X484350D01*
Y-2000D01*
G37*
G54D23*X200750Y80000D02*Y74000D01*
X202700Y80000D02*X203750Y78950D01*
Y75050D01*
X202700Y74000D02*X203750Y75050D01*
X200000Y74000D02*X202700D01*
X200000Y80000D02*X202700D01*
G54D24*G36*
X205550D02*X210050D01*
Y74000D01*
X205550D01*
Y80000D01*
G37*
G36*
X210950D02*X215450D01*
Y74000D01*
X210950D01*
Y80000D01*
G37*
G36*
X216350D02*X220850D01*
Y74000D01*
X216350D01*
Y80000D01*
G37*
G36*
X221750D02*X226250D01*
Y74000D01*
X221750D01*
Y80000D01*
G37*
G36*
X229850D02*X234350D01*
Y74000D01*
X229850D01*
Y80000D01*
G37*
G36*
X235250D02*X239750D01*
Y74000D01*
X235250D01*
Y80000D01*
G37*
G36*
X240650D02*X245150D01*
Y74000D01*
X240650D01*
Y80000D01*
G37*
G36*
X246050D02*X250550D01*
Y74000D01*
X246050D01*
Y80000D01*
G37*
G36*
X251450D02*X255950D01*
Y74000D01*
X251450D01*
Y80000D01*
G37*
G36*
X256850D02*X261350D01*
Y74000D01*
X256850D01*
Y80000D01*
G37*
G54D23*X200000Y93500D02*Y89000D01*
Y93500D02*X201050Y95000D01*
X202700D01*
X203750Y93500D01*
Y89000D01*
X200000Y92000D02*X203750D01*
G54D24*G36*
X205550Y95000D02*X210050D01*
Y89000D01*
X205550D01*
Y95000D01*
G37*
G36*
X210950D02*X215450D01*
Y89000D01*
X210950D01*
Y95000D01*
G37*
G36*
X216350D02*X220850D01*
Y89000D01*
X216350D01*
Y95000D01*
G37*
G36*
X221750D02*X226250D01*
Y89000D01*
X221750D01*
Y95000D01*
G37*
G36*
X227150D02*X231650D01*
Y89000D01*
X227150D01*
Y95000D01*
G37*
G36*
X232550D02*X237050D01*
Y89000D01*
X232550D01*
Y95000D01*
G37*
G54D23*X240650D02*X243650D01*
X242150D02*Y89000D01*
X245450Y92300D02*X247700D01*
X245450Y89000D02*X248450D01*
X245450Y95000D02*Y89000D01*
Y95000D02*X248450D01*
X253250D02*X254000Y94250D01*
X251000Y95000D02*X253250D01*
X250250Y94250D02*X251000Y95000D01*
X250250Y94250D02*Y92750D01*
X251000Y92000D01*
X253250D01*
X254000Y91250D01*
Y89750D01*
X253250Y89000D02*X254000Y89750D01*
X251000Y89000D02*X253250D01*
X250250Y89750D02*X251000Y89000D01*
X255800Y95000D02*X258800D01*
X257300D02*Y89000D01*
X200000Y110000D02*X203000D01*
X201500D02*Y104000D01*
G54D24*G36*
X204800Y110000D02*X209300D01*
Y104000D01*
X204800D01*
Y110000D01*
G37*
G36*
X210200D02*X214700D01*
Y104000D01*
X210200D01*
Y110000D01*
G37*
G36*
X215600D02*X220100D01*
Y104000D01*
X215600D01*
Y110000D01*
G37*
G36*
X221000D02*X225500D01*
Y104000D01*
X221000D01*
Y110000D01*
G37*
G36*
X226400D02*X230900D01*
Y104000D01*
X226400D01*
Y110000D01*
G37*
G36*
X234500D02*X239000D01*
Y104000D01*
X234500D01*
Y110000D01*
G37*
G36*
X239900D02*X244400D01*
Y104000D01*
X239900D01*
Y110000D01*
G37*
G36*
X245300D02*X249800D01*
Y104000D01*
X245300D01*
Y110000D01*
G37*
G36*
X250700D02*X255200D01*
Y104000D01*
X250700D01*
Y110000D01*
G37*
G36*
X256100D02*X260600D01*
Y104000D01*
X256100D01*
Y110000D01*
G37*
G36*
X261500D02*X266000D01*
Y104000D01*
X261500D01*
Y110000D01*
G37*
G36*
X266900D02*X271400D01*
Y104000D01*
X266900D01*
Y110000D01*
G37*
G36*
X272300D02*X276800D01*
Y104000D01*
X272300D01*
Y110000D01*
G37*
G36*
X280400D02*X284900D01*
Y104000D01*
X280400D01*
Y110000D01*
G37*
G36*
X285800D02*X290300D01*
Y104000D01*
X285800D01*
Y110000D01*
G37*
G36*
X291200D02*X295700D01*
Y104000D01*
X291200D01*
Y110000D01*
G37*
G36*
X299300D02*X303800D01*
Y104000D01*
X299300D01*
Y110000D01*
G37*
G36*
X304700D02*X309200D01*
Y104000D01*
X304700D01*
Y110000D01*
G37*
G36*
X310100D02*X314600D01*
Y104000D01*
X310100D01*
Y110000D01*
G37*
G36*
X315500D02*X320000D01*
Y104000D01*
X315500D01*
Y110000D01*
G37*
G36*
X320900D02*X325400D01*
Y104000D01*
X320900D01*
Y110000D01*
G37*
G36*
X326300D02*X330800D01*
Y104000D01*
X326300D01*
Y110000D01*
G37*
G36*
X331700D02*X336200D01*
Y104000D01*
X331700D01*
Y110000D01*
G37*
G36*
X337100D02*X341600D01*
Y104000D01*
X337100D01*
Y110000D01*
G37*
G36*
X345200D02*X349700D01*
Y104000D01*
X345200D01*
Y110000D01*
G37*
G36*
X350600D02*X355100D01*
Y104000D01*
X350600D01*
Y110000D01*
G37*
G36*
X356000D02*X360500D01*
Y104000D01*
X356000D01*
Y110000D01*
G37*
G36*
X361400D02*X365900D01*
Y104000D01*
X361400D01*
Y110000D01*
G37*
G36*
X366800D02*X371300D01*
Y104000D01*
X366800D01*
Y110000D01*
G37*
G36*
X374900D02*X379400D01*
Y104000D01*
X374900D01*
Y110000D01*
G37*
G36*
X380300D02*X384800D01*
Y104000D01*
X380300D01*
Y110000D01*
G37*
G36*
X385700D02*X390200D01*
Y104000D01*
X385700D01*
Y110000D01*
G37*
G36*
X391100D02*X395600D01*
Y104000D01*
X391100D01*
Y110000D01*
G37*
G36*
X396500D02*X401000D01*
Y104000D01*
X396500D01*
Y110000D01*
G37*
G36*
X401900D02*X406400D01*
Y104000D01*
X401900D01*
Y110000D01*
G37*
G36*
X407300D02*X411800D01*
Y104000D01*
X407300D01*
Y110000D01*
G37*
G36*
X412700D02*X417200D01*
Y104000D01*
X412700D01*
Y110000D01*
G37*
G36*
X420800D02*X425300D01*
Y104000D01*
X420800D01*
Y110000D01*
G37*
G54D23*X428900D02*Y104000D01*
Y110000D02*X431900D01*
X428900Y107300D02*X431150D01*
G54D24*G36*
X433700Y110000D02*X438200D01*
Y104000D01*
X433700D01*
Y110000D01*
G37*
G36*
X439100D02*X443600D01*
Y104000D01*
X439100D01*
Y110000D01*
G37*
G36*
X444500D02*X449000D01*
Y104000D01*
X444500D01*
Y110000D01*
G37*
G36*
X449900D02*X454400D01*
Y104000D01*
X449900D01*
Y110000D01*
G37*
G36*
X455300D02*X459800D01*
Y104000D01*
X455300D01*
Y110000D01*
G37*
G36*
X460700D02*X465200D01*
Y104000D01*
X460700D01*
Y110000D01*
G37*
G36*
X466100D02*X470600D01*
Y104000D01*
X466100D01*
Y110000D01*
G37*
G36*
X471500D02*X476000D01*
Y104000D01*
X471500D01*
Y110000D01*
G37*
G36*
X476900D02*X481400D01*
Y104000D01*
X476900D01*
Y110000D01*
G37*
G36*
X482300D02*X486800D01*
Y104000D01*
X482300D01*
Y110000D01*
G37*
G54D23*X491150D02*Y104000D01*
X493100Y110000D02*X494150Y108950D01*
Y105050D01*
X493100Y104000D02*X494150Y105050D01*
X490400Y104000D02*X493100D01*
X490400Y110000D02*X493100D01*
G54D24*G36*
X495950D02*X500450D01*
Y104000D01*
X495950D01*
Y110000D01*
G37*
G36*
X501350D02*X505850D01*
Y104000D01*
X501350D01*
Y110000D01*
G37*
G36*
X506750D02*X511250D01*
Y104000D01*
X506750D01*
Y110000D01*
G37*
G36*
X512150D02*X516650D01*
Y104000D01*
X512150D01*
Y110000D01*
G37*
G36*
X517550D02*X522050D01*
Y104000D01*
X517550D01*
Y110000D01*
G37*
G36*
X522950D02*X527450D01*
Y104000D01*
X522950D01*
Y110000D01*
G37*
M02*
