<?xml version="1.0" encoding="UTF-8" standalone="no"?>
<!DOCTYPE svg PUBLIC "-//W3C//DTD SVG 1.1//EN"
 "http://www.w3.org/Graphics/SVG/1.1/DTD/svg11.dtd">
<!-- Generated by graphviz version 2.38.0 (20140413.2041)
 -->
<!-- Title: g Pages: 1 -->
<svg width="761pt" height="513pt"
 viewBox="0.00 0.00 760.90 512.74" xmlns="http://www.w3.org/2000/svg" xmlns:xlink="http://www.w3.org/1999/xlink">
<g id="graph0" class="graph" transform="scale(1 1) rotate(0) translate(4 508.74)">
<title>g</title>
<polygon fill="white" stroke="none" points="-4,4 -4,-508.74 756.897,-508.74 756.897,4 -4,4"/>
<g id="clust1" class="cluster"><title>cluster_1</title>
<polygon fill="none" stroke="black" points="147.897,-8 147.897,-487.87 417.897,-487.87 417.897,-8 147.897,-8"/>
<text text-anchor="middle" x="282.897" y="-472.67" font-family="Times,serif" font-size="14.00">umbrella</text>
</g>
<g id="clust2" class="cluster"><title>cluster_2</title>
<polygon fill="none" stroke="black" points="425.897,-404 425.897,-496.74 744.897,-496.74 744.897,-404 425.897,-404"/>
<text text-anchor="middle" x="585.397" y="-481.54" font-family="Times,serif" font-size="14.00">legend</text>
</g>
<!-- pcbrnd -->
<g id="node1" class="node"><title>pcbrnd</title>
<ellipse fill="green" stroke="black" cx="264.897" cy="-304" rx="72" ry="72"/>
<text text-anchor="middle" x="264.897" y="-300.3" font-family="Times,serif" font-size="14.00">pcb&#45;rnd</text>
</g>
<!-- edakrill -->
<g id="node2" class="node"><title>edakrill</title>
<ellipse fill="green" stroke="black" cx="229.897" cy="-142" rx="54" ry="54"/>
<text text-anchor="middle" x="229.897" y="-138.3" font-family="Times,serif" font-size="14.00">edakrill</text>
</g>
<!-- pcbrnd&#45;&gt;edakrill -->
<g id="edge1" class="edge"><title>pcbrnd&#45;&gt;edakrill</title>
<path fill="none" stroke="black" d="M247.471,-223.339C246.13,-217.207 244.788,-211.073 243.478,-205.081"/>
<polygon fill="black" stroke="black" points="244.091,-224.266 249.648,-233.287 250.93,-222.77 244.091,-224.266"/>
<polygon fill="black" stroke="black" points="246.862,-204.176 241.306,-195.155 240.024,-205.672 246.862,-204.176"/>
</g>
<!-- tedax -->
<g id="node3" class="node"><title>tedax</title>
<ellipse fill="green" stroke="black" cx="229.897" cy="-34" rx="29.795" ry="18"/>
<text text-anchor="middle" x="229.897" y="-30.3" font-family="Times,serif" font-size="14.00">tedax</text>
</g>
<!-- pcbrnd&#45;&gt;tedax -->
<g id="edge3" class="edge"><title>pcbrnd&#45;&gt;tedax</title>
<path fill="none" stroke="black" d="M202.34,-250.072C187.955,-234.304 174.623,-215.874 166.897,-196 149.506,-151.262 146.639,-131.516 166.897,-88 173.759,-73.2605 186.961,-61.1555 199.515,-52.254"/>
<polygon fill="black" stroke="black" points="200.048,-252.742 209.467,-257.593 205.129,-247.927 200.048,-252.742"/>
<polygon fill="black" stroke="black" points="201.621,-55.057 208.016,-46.6101 197.749,-49.2252 201.621,-55.057"/>
</g>
<!-- cschem -->
<g id="node4" class="node"><title>cschem</title>
<ellipse fill="red" stroke="black" cx="355.897" cy="-142" rx="54" ry="54"/>
<text text-anchor="middle" x="355.897" y="-138.3" font-family="Times,serif" font-size="14.00">cschem</text>
</g>
<!-- pcbrnd&#45;&gt;cschem -->
<g id="edge2" class="edge"><title>pcbrnd&#45;&gt;cschem</title>
<path fill="none" stroke="black" d="M305.185,-232.165C311.64,-220.816 318.236,-209.217 324.446,-198.299"/>
<polygon fill="black" stroke="black" points="301.982,-230.717 300.08,-241.14 308.067,-234.178 301.982,-230.717"/>
<polygon fill="black" stroke="black" points="327.658,-199.732 329.559,-189.309 321.573,-196.271 327.658,-199.732"/>
</g>
<!-- kicad -->
<g id="node9" class="node"><title>kicad</title>
<ellipse fill="none" stroke="black" cx="29.8973" cy="-34" rx="29.795" ry="18"/>
<text text-anchor="middle" x="29.8973" y="-30.3" font-family="Times,serif" font-size="14.00">kicad</text>
</g>
<!-- pcbrnd&#45;&gt;kicad -->
<g id="edge9" class="edge"><title>pcbrnd&#45;&gt;kicad</title>
<path fill="none" stroke="black" d="M185.022,-284C137.689,-268.434 80.8792,-241.356 48.8973,-196 20.8703,-156.253 22.0227,-96.8094 25.7323,-62.369"/>
<polygon fill="black" stroke="black" points="184.069,-287.369 194.659,-287.055 186.185,-280.697 184.069,-287.369"/>
<polygon fill="black" stroke="black" points="29.2456,-62.4748 26.9928,-52.1222 22.2979,-61.6201 29.2456,-62.4748"/>
</g>
<!-- gschem -->
<g id="node10" class="node"><title>gschem</title>
<ellipse fill="none" stroke="black" cx="540.897" cy="-34" rx="38.1938" ry="18"/>
<text text-anchor="middle" x="540.897" y="-30.3" font-family="Times,serif" font-size="14.00">gschem</text>
</g>
<!-- pcbrnd&#45;&gt;gschem -->
<g id="edge12" class="edge"><title>pcbrnd&#45;&gt;gschem</title>
<path fill="none" stroke="black" d="M340.097,-270.998C376.401,-252.865 418.732,-227.476 449.897,-196 460.53,-185.262 504.738,-103.247 527.388,-60.5962"/>
<polygon fill="black" stroke="black" points="338.448,-267.909 331.007,-275.451 341.527,-274.195 338.448,-267.909"/>
<polygon fill="black" stroke="black" points="530.543,-62.1172 532.134,-51.6424 524.358,-58.8391 530.543,-62.1172"/>
</g>
<!-- eagle -->
<g id="node11" class="node"><title>eagle</title>
<ellipse fill="none" stroke="black" cx="454.897" cy="-34" rx="29.4969" ry="18"/>
<text text-anchor="middle" x="454.897" y="-30.3" font-family="Times,serif" font-size="14.00">eagle</text>
</g>
<!-- pcbrnd&#45;&gt;eagle -->
<g id="edge15" class="edge"><title>pcbrnd&#45;&gt;eagle</title>
<path fill="none" stroke="black" d="M338.813,-267.126C367.873,-249.508 398.983,-225.629 418.897,-196 446.434,-155.031 453.21,-96.2532 454.698,-62.2146"/>
<polygon fill="black" stroke="black" points="336.714,-264.3 329.874,-272.392 340.267,-270.331 336.714,-264.3"/>
<polygon fill="black" stroke="black" points="458.201,-62.1909 455.015,-52.0863 451.204,-61.9719 458.201,-62.1909"/>
</g>
<!-- fidocadj -->
<g id="node14" class="node"><title>fidocadj</title>
<ellipse fill="none" stroke="black" cx="97.8973" cy="-142" rx="39.7935" ry="18"/>
<text text-anchor="middle" x="97.8973" y="-138.3" font-family="Times,serif" font-size="14.00">fidocadj</text>
</g>
<!-- pcbrnd&#45;&gt;fidocadj -->
<g id="edge20" class="edge"><title>pcbrnd&#45;&gt;fidocadj</title>
<path fill="none" stroke="black" d="M202.336,-250.469C183.103,-233.587 162.193,-214.465 143.897,-196 134.877,-186.896 125.504,-176.326 117.59,-167.031"/>
<polygon fill="black" stroke="black" points="200.061,-253.129 209.897,-257.067 204.663,-247.855 200.061,-253.129"/>
<polygon fill="black" stroke="black" points="120.171,-164.662 111.056,-159.26 114.813,-169.166 120.171,-164.662"/>
</g>
<!-- edakrill&#45;&gt;tedax -->
<g id="edge8" class="edge"><title>edakrill&#45;&gt;tedax</title>
<path fill="none" stroke="black" d="M229.897,-77.9662C229.897,-72.4599 229.897,-67.1035 229.897,-62.1468"/>
<polygon fill="black" stroke="black" points="226.397,-78 229.897,-88 233.397,-78 226.397,-78"/>
<polygon fill="black" stroke="black" points="233.397,-62.0307 229.897,-52.0307 226.397,-62.0308 233.397,-62.0307"/>
</g>
<!-- edakrill&#45;&gt;kicad -->
<g id="edge11" class="edge"><title>edakrill&#45;&gt;kicad</title>
<path fill="none" stroke="black" d="M176.88,-105.568C167.058,-99.4582 156.778,-93.3572 146.897,-88 119.502,-73.1471 87.1515,-58.7167 63.419,-48.6736"/>
<polygon fill="black" stroke="black" points="175.046,-108.549 185.373,-110.92 178.779,-102.627 175.046,-108.549"/>
<polygon fill="black" stroke="black" points="64.7115,-45.4203 54.1358,-44.7826 62.0055,-51.8762 64.7115,-45.4203"/>
</g>
<!-- edakrill&#45;&gt;gschem -->
<g id="edge14" class="edge"><title>edakrill&#45;&gt;gschem</title>
<path fill="none" stroke="black" d="M276.252,-97.6475C281.615,-93.9858 287.208,-90.6697 292.897,-88 374.66,-49.6326 405.598,-75.1523 492.897,-52 496.059,-51.1615 499.31,-50.2103 502.557,-49.1964"/>
<polygon fill="black" stroke="black" points="274.05,-94.9215 268.034,-103.643 278.176,-100.576 274.05,-94.9215"/>
<polygon fill="black" stroke="black" points="503.798,-52.4726 512.199,-46.017 501.606,-45.8247 503.798,-52.4726"/>
</g>
<!-- edakrill&#45;&gt;eagle -->
<g id="edge16" class="edge"><title>edakrill&#45;&gt;eagle</title>
<path fill="none" stroke="black" d="M276.761,-98.0233C281.997,-94.3199 287.423,-90.8904 292.897,-88 345.535,-60.2086 366.486,-73.7422 421.897,-52 422.764,-51.6601 423.637,-51.3045 424.514,-50.9361"/>
<polygon fill="black" stroke="black" points="274.631,-95.2455 268.709,-104.03 278.817,-100.856 274.631,-95.2455"/>
<polygon fill="black" stroke="black" points="426.266,-53.9827 433.89,-46.6253 423.342,-47.6227 426.266,-53.9827"/>
</g>
<!-- cschem&#45;&gt;edakrill -->
<g id="edge7" class="edge"><title>cschem&#45;&gt;edakrill</title>
<path fill="none" stroke="black" d="M294.728,-142C294.572,-142 294.417,-142 294.262,-142"/>
<polygon fill="black" stroke="black" points="291.722,-145.5 301.722,-142 291.722,-138.5 291.722,-145.5"/>
<polygon fill="black" stroke="black" points="294.038,-138.5 284.038,-142 294.038,-145.5 294.038,-138.5"/>
</g>
<!-- cschem&#45;&gt;tedax -->
<g id="edge6" class="edge"><title>cschem&#45;&gt;tedax</title>
<path fill="none" stroke="black" d="M307.253,-100.077C289.251,-84.9321 269.597,-68.3979 254.605,-55.7854"/>
<polygon fill="black" stroke="black" points="305.083,-102.825 314.989,-106.585 309.59,-97.4689 305.083,-102.825"/>
<polygon fill="black" stroke="black" points="256.701,-52.975 246.795,-49.2157 252.194,-58.3316 256.701,-52.975"/>
</g>
<!-- genxproj -->
<g id="node5" class="node"><title>genxproj</title>
<ellipse fill="red" stroke="black" cx="355.897" cy="-438.87" rx="42.4939" ry="18"/>
<text text-anchor="middle" x="355.897" y="-435.17" font-family="Times,serif" font-size="14.00">genxproj</text>
</g>
<!-- genxproj&#45;&gt;pcbrnd -->
<g id="edge4" class="edge"><title>genxproj&#45;&gt;pcbrnd</title>
<path fill="none" stroke="black" d="M338.754,-412.839C330.831,-401.27 321,-386.915 311.123,-372.494"/>
<polygon fill="black" stroke="black" points="336.018,-415.038 344.556,-421.311 341.793,-411.082 336.018,-415.038"/>
<polygon fill="black" stroke="black" points="313.855,-370.289 305.316,-364.016 308.079,-374.244 313.855,-370.289"/>
</g>
<!-- genxproj&#45;&gt;cschem -->
<g id="edge5" class="edge"><title>genxproj&#45;&gt;cschem</title>
<path fill="none" stroke="black" d="M355.897,-410.671C355.897,-364.583 355.897,-269.968 355.897,-206.49"/>
<polygon fill="black" stroke="black" points="352.397,-410.742 355.897,-420.742 359.397,-410.742 352.397,-410.742"/>
<polygon fill="black" stroke="black" points="359.397,-206.191 355.897,-196.191 352.397,-206.191 359.397,-206.191"/>
</g>
<!-- genxproj&#45;&gt;kicad -->
<g id="edge10" class="edge"><title>genxproj&#45;&gt;kicad</title>
<path fill="none" stroke="black" d="M309.108,-427.625C272.815,-418.182 222.378,-401.686 183.897,-376 93.8833,-315.915 58.9789,-296.923 19.8973,-196 2.65028,-151.462 12.8206,-94.813 21.5326,-61.9554"/>
<polygon fill="black" stroke="black" points="308.396,-431.055 318.948,-430.103 310.106,-424.267 308.396,-431.055"/>
<polygon fill="black" stroke="black" points="24.9468,-62.7422 24.2733,-52.1688 18.2062,-60.8544 24.9468,-62.7422"/>
</g>
<!-- genxproj&#45;&gt;gschem -->
<g id="edge13" class="edge"><title>genxproj&#45;&gt;gschem</title>
<path fill="none" stroke="black" d="M389.555,-419.318C399.785,-414.029 411.163,-408.49 421.897,-404 458.591,-388.651 482.012,-407.028 506.897,-376 581.848,-282.549 559.93,-125.15 547.157,-62.2079"/>
<polygon fill="black" stroke="black" points="387.753,-416.311 380.534,-424.067 391.014,-422.506 387.753,-416.311"/>
<polygon fill="black" stroke="black" points="550.547,-61.3218 545.053,-52.2631 543.699,-62.7711 550.547,-61.3218"/>
</g>
<!-- tinycad -->
<g id="node12" class="node"><title>tinycad</title>
<ellipse fill="none" stroke="black" cx="461.897" cy="-304" rx="36.2938" ry="18"/>
<text text-anchor="middle" x="461.897" y="-300.3" font-family="Times,serif" font-size="14.00">tinycad</text>
</g>
<!-- genxproj&#45;&gt;tinycad -->
<g id="edge18" class="edge"><title>genxproj&#45;&gt;tinycad</title>
<path fill="none" stroke="black" d="M382.646,-416.147C395.433,-404.966 410.415,-390.632 421.897,-376 432.826,-362.074 442.627,-344.799 449.793,-330.777"/>
<polygon fill="black" stroke="black" points="380.34,-413.514 375.019,-422.675 384.892,-418.832 380.34,-413.514"/>
<polygon fill="black" stroke="black" points="453.002,-332.183 454.313,-321.669 446.732,-329.07 453.002,-332.183"/>
</g>
<!-- l1 -->
<g id="node6" class="node"><title>l1</title>
<ellipse fill="green" stroke="black" cx="690.897" cy="-438.87" rx="45.9239" ry="26.7407"/>
<text text-anchor="middle" x="690.897" y="-442.67" font-family="Times,serif" font-size="14.00">released,</text>
<text text-anchor="middle" x="690.897" y="-427.67" font-family="Times,serif" font-size="14.00">ready</text>
</g>
<!-- l2 -->
<g id="node7" class="node"><title>l2</title>
<ellipse fill="red" stroke="black" cx="588.897" cy="-438.87" rx="38.1938" ry="18"/>
<text text-anchor="middle" x="588.897" y="-435.17" font-family="Times,serif" font-size="14.00">planned</text>
</g>
<!-- l3 -->
<g id="node8" class="node"><title>l3</title>
<ellipse fill="none" stroke="black" cx="482.897" cy="-438.87" rx="49.4949" ry="26.7407"/>
<text text-anchor="middle" x="482.897" y="-442.67" font-family="Times,serif" font-size="14.00">3rd party,</text>
<text text-anchor="middle" x="482.897" y="-427.67" font-family="Times,serif" font-size="14.00">external</text>
</g>
<!-- tinycad&#45;&gt;pcbrnd -->
<g id="edge17" class="edge"><title>tinycad&#45;&gt;pcbrnd</title>
<path fill="none" stroke="black" d="M425.375,-304C399.437,-304 373.5,-304 347.562,-304"/>
<polygon fill="black" stroke="black" points="347.233,-300.5 337.233,-304 347.233,-307.5 347.233,-300.5"/>
</g>
<!-- mentor -->
<g id="node13" class="node"><title>mentor</title>
<ellipse fill="none" stroke="black" cx="103.897" cy="-438.87" rx="36.2938" ry="18"/>
<text text-anchor="middle" x="103.897" y="-435.17" font-family="Times,serif" font-size="14.00">mentor</text>
</g>
<!-- mentor&#45;&gt;pcbrnd -->
<g id="edge19" class="edge"><title>mentor&#45;&gt;pcbrnd</title>
<path fill="none" stroke="black" d="M121.367,-422.968C128.352,-417.038 136.484,-410.171 143.897,-404 162.516,-388.503 182.859,-371.778 201.462,-356.566"/>
<polygon fill="black" stroke="black" points="203.789,-359.184 209.318,-350.147 199.36,-353.764 203.789,-359.184"/>
</g>
</g>
</svg>
