<?xml version="1.0" encoding="UTF-8" standalone="no"?>
<!DOCTYPE svg PUBLIC "-//W3C//DTD SVG 1.1//EN"
 "http://www.w3.org/Graphics/SVG/1.1/DTD/svg11.dtd">
<!-- Generated by graphviz version 2.26.3 (20100126.1600)
 -->
<!-- Title: g Pages: 1 -->
<svg width="760pt" height="665pt"
 viewBox="0.00 0.00 760.00 665.00" xmlns="http://www.w3.org/2000/svg" xmlns:xlink="http://www.w3.org/1999/xlink">
<g id="graph1" class="graph" transform="scale(1 1) rotate(0) translate(4 661)">
<title>g</title>
<polygon fill="white" stroke="white" points="-4,5 -4,-661 757,-661 757,5 -4,5"/>
<g id="graph2" class="cluster"><title>cluster_1</title>
<polygon fill="none" stroke="black" points="168,-8 168,-637 352,-637 352,-8 168,-8"/>
<text text-anchor="middle" x="260" y="-620.4" font-family="Times Roman,serif" font-size="14.00">umbrella</text>
</g>
<g id="graph3" class="cluster"><title>cluster_2</title>
<polygon fill="none" stroke="black" points="360,-548 360,-649 744,-649 744,-548 360,-548"/>
<text text-anchor="middle" x="552" y="-632.4" font-family="Times Roman,serif" font-size="14.00">legend</text>
</g>
<!-- pcbrnd -->
<g id="node2" class="node"><title>pcbrnd</title>
<ellipse fill="green" stroke="black" cx="248" cy="-448" rx="72" ry="72"/>
<text text-anchor="middle" x="248" y="-443.9" font-family="Times Roman,serif" font-size="14.00">pcb&#45;rnd</text>
</g>
<!-- edakrill -->
<g id="node3" class="node"><title>edakrill</title>
<ellipse fill="green" stroke="black" cx="290" cy="-286" rx="54" ry="54"/>
<text text-anchor="middle" x="290" y="-281.9" font-family="Times Roman,serif" font-size="14.00">edakrill</text>
</g>
<!-- pcbrnd&#45;&gt;edakrill -->
<g id="edge4" class="edge"><title>pcbrnd&#45;&gt;edakrill</title>
<path fill="none" stroke="black" d="M268.751,-367.959C270.445,-361.425 272.142,-354.883 273.796,-348.502"/>
<polygon fill="black" stroke="black" points="265.299,-367.328 266.178,-377.887 272.075,-369.085 265.299,-367.328"/>
<polygon fill="black" stroke="black" points="277.233,-349.192 276.354,-338.633 270.457,-347.435 277.233,-349.192"/>
</g>
<!-- tedax -->
<g id="node4" class="node"><title>tedax</title>
<ellipse fill="green" stroke="black" cx="250" cy="-34" rx="38.9134" ry="18"/>
<text text-anchor="middle" x="250" y="-29.9" font-family="Times Roman,serif" font-size="14.00">tedax</text>
</g>
<!-- pcbrnd&#45;&gt;tedax -->
<g id="edge8" class="edge"><title>pcbrnd&#45;&gt;tedax</title>
<path fill="none" stroke="black" d="M212.893,-373.518C208.679,-362.462 204.863,-351.063 202,-340 187.946,-285.69 163.559,-138.967 187,-88 193.297,-74.3091 204.967,-62.7904 216.568,-53.9547"/>
<polygon fill="black" stroke="black" points="209.758,-375.111 216.684,-383.128 216.27,-372.542 209.758,-375.111"/>
<polygon fill="black" stroke="black" points="218.81,-56.6547 224.925,-48.0025 214.75,-50.953 218.81,-56.6547"/>
</g>
<!-- cschem -->
<g id="node5" class="node"><title>cschem</title>
<ellipse fill="red" stroke="black" cx="250" cy="-142" rx="54" ry="54"/>
<text text-anchor="middle" x="250" y="-137.9" font-family="Times Roman,serif" font-size="14.00">cschem</text>
</g>
<!-- pcbrnd&#45;&gt;cschem -->
<g id="edge6" class="edge"><title>pcbrnd&#45;&gt;cschem</title>
<path fill="none" stroke="black" d="M219.037,-371.055C216.136,-360.741 213.655,-350.201 212,-340 204.311,-292.62 202.475,-279.046 212,-232 214.164,-221.309 217.64,-210.31 221.63,-199.831"/>
<polygon fill="black" stroke="black" points="215.743,-372.258 221.933,-380.856 222.456,-370.274 215.743,-372.258"/>
<polygon fill="black" stroke="black" points="224.947,-200.963 225.418,-190.379 218.449,-198.36 224.947,-200.963"/>
</g>
<!-- kicad -->
<g id="node20" class="node"><title>kicad</title>
<ellipse fill="none" stroke="black" cx="36" cy="-142" rx="36.1339" ry="18"/>
<text text-anchor="middle" x="36" y="-137.9" font-family="Times Roman,serif" font-size="14.00">kicad</text>
</g>
<!-- pcbrnd&#45;&gt;kicad -->
<g id="edge20" class="edge"><title>pcbrnd&#45;&gt;kicad</title>
<path fill="none" stroke="black" d="M169.406,-423.962C128.387,-407.188 81.3767,-380.423 55,-340 21.0465,-287.966 25.4342,-211.27 31.0408,-170.28"/>
<polygon fill="black" stroke="black" points="168.283,-427.282 178.87,-427.702 170.856,-420.772 168.283,-427.282"/>
<polygon fill="black" stroke="black" points="34.5321,-170.597 32.5465,-160.19 27.6088,-169.564 34.5321,-170.597"/>
</g>
<!-- gschem -->
<g id="node24" class="node"><title>gschem</title>
<ellipse fill="none" stroke="black" cx="499" cy="-142" rx="46.7546" ry="18"/>
<text text-anchor="middle" x="499" y="-137.9" font-family="Times Roman,serif" font-size="14.00">gschem</text>
</g>
<!-- pcbrnd&#45;&gt;gschem -->
<g id="edge26" class="edge"><title>pcbrnd&#45;&gt;gschem</title>
<path fill="none" stroke="black" d="M306.701,-390.067C312.41,-385.147 318.228,-380.383 324,-376 348.768,-357.195 362.167,-362.146 384,-340 434.792,-288.48 471.487,-210.144 488.459,-169.157"/>
<polygon fill="black" stroke="black" points="304.188,-387.617 298.997,-396.853 308.814,-392.869 304.188,-387.617"/>
<polygon fill="black" stroke="black" points="491.732,-170.399 492.251,-159.817 485.246,-167.765 491.732,-170.399"/>
</g>
<!-- eagle -->
<g id="node28" class="node"><title>eagle</title>
<ellipse fill="none" stroke="black" cx="397" cy="-142" rx="36.8288" ry="18"/>
<text text-anchor="middle" x="397" y="-137.9" font-family="Times Roman,serif" font-size="14.00">eagle</text>
</g>
<!-- pcbrnd&#45;&gt;eagle -->
<g id="edge32" class="edge"><title>pcbrnd&#45;&gt;eagle</title>
<path fill="none" stroke="black" d="M308.145,-391.761C327.928,-372.113 346.528,-351.99 353,-340 382.879,-284.65 392.483,-210.144 395.56,-170.162"/>
<polygon fill="black" stroke="black" points="305.499,-389.455 300.824,-398.963 310.407,-394.445 305.499,-389.455"/>
<polygon fill="black" stroke="black" points="399.059,-170.292 396.252,-160.076 392.075,-169.813 399.059,-170.292"/>
</g>
<!-- fidocadj -->
<g id="node36" class="node"><title>fidocadj</title>
<ellipse fill="none" stroke="black" cx="111" cy="-286" rx="46.7546" ry="18"/>
<text text-anchor="middle" x="111" y="-281.9" font-family="Times Roman,serif" font-size="14.00">fidocadj</text>
</g>
<!-- pcbrnd&#45;&gt;fidocadj -->
<g id="edge42" class="edge"><title>pcbrnd&#45;&gt;fidocadj</title>
<path fill="none" stroke="black" d="M194.663,-384.93C172.96,-359.267 149.119,-331.075 132.459,-311.375"/>
<polygon fill="black" stroke="black" points="192.106,-387.326 201.236,-392.702 197.451,-382.806 192.106,-387.326"/>
<polygon fill="black" stroke="black" points="134.915,-308.859 125.785,-303.484 129.57,-313.379 134.915,-308.859"/>
</g>
<!-- edakrill&#45;&gt;tedax -->
<g id="edge16" class="edge"><title>edakrill&#45;&gt;tedax</title>
<path fill="none" stroke="black" d="M312.964,-225.923C324.754,-185.26 332.905,-131.277 313,-88 306.703,-74.3091 295.033,-62.7904 283.432,-53.9547"/>
<polygon fill="black" stroke="black" points="309.553,-225.11 309.987,-235.696 316.249,-227.15 309.553,-225.11"/>
<polygon fill="black" stroke="black" points="285.25,-50.953 275.075,-48.0025 281.19,-56.6547 285.25,-50.953"/>
</g>
<!-- edakrill&#45;&gt;cschem -->
<g id="edge18" class="edge"><title>edakrill&#45;&gt;cschem</title>
<path fill="none" stroke="black" d="M272.726,-223.814C270.921,-217.315 269.085,-210.707 267.28,-204.208"/>
<polygon fill="black" stroke="black" points="269.397,-224.907 275.446,-233.605 276.142,-223.033 269.397,-224.907"/>
<polygon fill="black" stroke="black" points="270.525,-202.813 264.476,-194.115 263.78,-204.686 270.525,-202.813"/>
</g>
<!-- edakrill&#45;&gt;kicad -->
<g id="edge24" class="edge"><title>edakrill&#45;&gt;kicad</title>
<path fill="none" stroke="black" d="M243.912,-240.751C239.999,-237.641 236.005,-234.682 232,-232 204.583,-213.639 122.014,-177.9 73.2302,-157.415"/>
<polygon fill="black" stroke="black" points="241.875,-243.609 251.804,-247.307 246.348,-238.225 241.875,-243.609"/>
<polygon fill="black" stroke="black" points="74.5263,-154.164 63.9503,-153.531 71.8236,-160.621 74.5263,-154.164"/>
</g>
<!-- edakrill&#45;&gt;gschem -->
<g id="edge30" class="edge"><title>edakrill&#45;&gt;gschem</title>
<path fill="none" stroke="black" d="M335.371,-240.842C339.492,-237.653 343.727,-234.655 348,-232 386.352,-208.17 404.858,-220.165 443,-196 455.637,-187.994 467.823,-176.806 477.581,-166.69"/>
<polygon fill="black" stroke="black" points="333.146,-238.139 327.605,-247.17 337.568,-243.566 333.146,-238.139"/>
<polygon fill="black" stroke="black" points="480.276,-168.932 484.538,-159.232 475.157,-164.157 480.276,-168.932"/>
</g>
<!-- edakrill&#45;&gt;eagle -->
<g id="edge34" class="edge"><title>edakrill&#45;&gt;eagle</title>
<path fill="none" stroke="black" d="M328.362,-234.373C345.261,-211.629 364.357,-185.93 378.109,-167.424"/>
<polygon fill="black" stroke="black" points="325.549,-232.29 322.394,-242.404 331.168,-236.465 325.549,-232.29"/>
<polygon fill="black" stroke="black" points="381.055,-169.326 384.21,-159.212 375.437,-165.151 381.055,-169.326"/>
</g>
<!-- cschem&#45;&gt;tedax -->
<g id="edge14" class="edge"><title>cschem&#45;&gt;tedax</title>
<path fill="none" stroke="black" d="M250,-77.8012C250,-72.5711 250,-67.4735 250,-62.7143"/>
<polygon fill="black" stroke="black" points="246.5,-78 250,-88 253.5,-78 246.5,-78"/>
<polygon fill="black" stroke="black" points="253.5,-62.3207 250,-52.3207 246.5,-62.3208 253.5,-62.3207"/>
</g>
<!-- genxproj -->
<g id="node6" class="node"><title>genxproj</title>
<ellipse fill="red" stroke="black" cx="291" cy="-586" rx="53.0059" ry="18"/>
<text text-anchor="middle" x="291" y="-581.9" font-family="Times Roman,serif" font-size="14.00">genxproj</text>
</g>
<!-- genxproj&#45;&gt;pcbrnd -->
<g id="edge10" class="edge"><title>genxproj&#45;&gt;pcbrnd</title>
<path fill="none" stroke="black" d="M282.328,-558.168C279.411,-548.807 275.998,-537.854 272.476,-526.552"/>
<polygon fill="black" stroke="black" points="279.062,-559.453 285.379,-567.959 285.745,-557.37 279.062,-559.453"/>
<polygon fill="black" stroke="black" points="275.817,-525.509 269.501,-517.003 269.134,-527.592 275.817,-525.509"/>
</g>
<!-- genxproj&#45;&gt;cschem -->
<g id="edge12" class="edge"><title>genxproj&#45;&gt;cschem</title>
<path fill="none" stroke="black" d="M310.162,-560.037C317.595,-548.409 325.218,-534.148 329,-520 337.264,-489.085 347.482,-402.123 329,-376 301.234,-336.755 254.766,-379.245 227,-340 199.277,-300.816 221.011,-279.625 227,-232 228.153,-222.834 229.941,-213.264 232.023,-203.93"/>
<polygon fill="black" stroke="black" points="307.239,-558.113 304.583,-568.369 313.055,-562.007 307.239,-558.113"/>
<polygon fill="black" stroke="black" points="235.494,-204.46 234.381,-193.924 228.68,-202.855 235.494,-204.46"/>
</g>
<!-- genxproj&#45;&gt;kicad -->
<g id="edge22" class="edge"><title>genxproj&#45;&gt;kicad</title>
<path fill="none" stroke="black" d="M260.269,-563.953C251.941,-558.414 242.792,-552.711 234,-548 205.553,-532.756 192.738,-539.471 167,-520 85.5168,-458.358 57.6562,-436.471 24,-340 3.7889,-282.068 17.5222,-208.87 27.7416,-169.714"/>
<polygon fill="black" stroke="black" points="258.364,-566.89 268.602,-569.617 262.299,-561.101 258.364,-566.89"/>
<polygon fill="black" stroke="black" points="31.1797,-170.41 30.435,-159.841 24.4265,-168.567 31.1797,-170.41"/>
</g>
<!-- genxproj&#45;&gt;gschem -->
<g id="edge28" class="edge"><title>genxproj&#45;&gt;gschem</title>
<path fill="none" stroke="black" d="M323.99,-564.412C333.988,-558.509 345.191,-552.504 356,-548 400.582,-529.423 429.695,-556.778 461,-520 548.045,-417.739 520.666,-239.032 505.814,-170.168"/>
<polygon fill="black" stroke="black" points="321.92,-561.575 315.193,-569.76 325.556,-567.556 321.92,-561.575"/>
<polygon fill="black" stroke="black" points="509.158,-169.081 503.558,-160.087 502.327,-170.61 509.158,-169.081"/>
</g>
<!-- tinycad -->
<g id="node30" class="node"><title>tinycad</title>
<ellipse fill="none" stroke="black" cx="406" cy="-448" rx="46.0565" ry="18"/>
<text text-anchor="middle" x="406" y="-443.9" font-family="Times Roman,serif" font-size="14.00">tinycad</text>
</g>
<!-- genxproj&#45;&gt;tinycad -->
<g id="edge38" class="edge"><title>genxproj&#45;&gt;tinycad</title>
<path fill="none" stroke="black" d="M316.868,-561.75C329.231,-549.667 343.927,-534.557 356,-520 367.954,-505.586 379.968,-488.394 389.222,-474.425"/>
<polygon fill="black" stroke="black" points="314.278,-559.385 309.516,-568.85 319.141,-564.42 314.278,-559.385"/>
<polygon fill="black" stroke="black" points="392.336,-476.058 394.877,-465.773 386.477,-472.229 392.336,-476.058"/>
</g>
<!-- l1 -->
<g id="node8" class="node"><title>l1</title>
<ellipse fill="green" stroke="black" cx="680" cy="-586" rx="55.8614" ry="29.6985"/>
<text text-anchor="middle" x="680" y="-590.4" font-family="Times Roman,serif" font-size="14.00">released,</text>
<text text-anchor="middle" x="680" y="-573.4" font-family="Times Roman,serif" font-size="14.00">ready</text>
</g>
<!-- l2 -->
<g id="node9" class="node"><title>l2</title>
<ellipse fill="red" stroke="black" cx="557" cy="-586" rx="48.8383" ry="18"/>
<text text-anchor="middle" x="557" y="-581.9" font-family="Times Roman,serif" font-size="14.00">planned</text>
</g>
<!-- l3 -->
<g id="node10" class="node"><title>l3</title>
<ellipse fill="none" stroke="black" cx="429" cy="-586" rx="60.8112" ry="29.6985"/>
<text text-anchor="middle" x="429" y="-590.4" font-family="Times Roman,serif" font-size="14.00">3rd party,</text>
<text text-anchor="middle" x="429" y="-573.4" font-family="Times Roman,serif" font-size="14.00">external</text>
</g>
<!-- tinycad&#45;&gt;pcbrnd -->
<g id="edge36" class="edge"><title>tinycad&#45;&gt;pcbrnd</title>
<path fill="none" stroke="black" d="M359.754,-448C349.971,-448 340.189,-448 330.406,-448"/>
<polygon fill="black" stroke="black" points="330.211,-444.5 320.211,-448 330.211,-451.5 330.211,-444.5"/>
</g>
<!-- mentor -->
<g id="node33" class="node"><title>mentor</title>
<ellipse fill="none" stroke="black" cx="114" cy="-586" rx="46.0565" ry="18"/>
<text text-anchor="middle" x="114" y="-581.9" font-family="Times Roman,serif" font-size="14.00">mentor</text>
</g>
<!-- mentor&#45;&gt;pcbrnd -->
<g id="edge40" class="edge"><title>mentor&#45;&gt;pcbrnd</title>
<path fill="none" stroke="black" d="M130.431,-569.078C145.503,-553.557 168.737,-529.629 190.583,-507.131"/>
<polygon fill="black" stroke="black" points="193.159,-509.502 197.615,-499.889 188.137,-504.625 193.159,-509.502"/>
</g>
</g>
</svg>
