<?xml version="1.0" encoding="UTF-8" standalone="no"?>
<!DOCTYPE svg PUBLIC "-//W3C//DTD SVG 1.1//EN"
 "http://www.w3.org/Graphics/SVG/1.1/DTD/svg11.dtd">
<!-- Generated by graphviz version 2.26.3 (20100126.1600)
 -->
<!-- Title: g Pages: 1 -->
<svg width="905pt" height="665pt"
 viewBox="0.00 0.00 905.00 665.00" xmlns="http://www.w3.org/2000/svg" xmlns:xlink="http://www.w3.org/1999/xlink">
<g id="graph1" class="graph" transform="scale(1 1) rotate(0) translate(4 661)">
<title>g</title>
<polygon fill="white" stroke="white" points="-4,5 -4,-661 902,-661 902,5 -4,5"/>
<g id="graph2" class="cluster"><title>cluster_1</title>
<polygon fill="none" stroke="black" points="215,-8 215,-637 395,-637 395,-8 215,-8"/>
<text text-anchor="middle" x="305" y="-620.4" font-family="Times Roman,serif" font-size="14.00">umbrella</text>
</g>
<g id="graph3" class="cluster"><title>cluster_2</title>
<polygon fill="none" stroke="black" points="505,-548 505,-649 889,-649 889,-548 505,-548"/>
<text text-anchor="middle" x="697" y="-632.4" font-family="Times Roman,serif" font-size="14.00">legend</text>
</g>
<!-- pcbrnd -->
<g id="node2" class="node"><title>pcbrnd</title>
<ellipse fill="green" stroke="black" cx="295" cy="-448" rx="72" ry="72"/>
<text text-anchor="middle" x="295" y="-443.9" font-family="Times Roman,serif" font-size="14.00">pcb&#45;rnd</text>
</g>
<!-- edakrill -->
<g id="node3" class="node"><title>edakrill</title>
<ellipse fill="green" stroke="black" cx="277" cy="-142" rx="54" ry="54"/>
<text text-anchor="middle" x="277" y="-137.9" font-family="Times Roman,serif" font-size="14.00">edakrill</text>
</g>
<!-- pcbrnd&#45;&gt;edakrill -->
<g id="edge4" class="edge"><title>pcbrnd&#45;&gt;edakrill</title>
<path fill="none" stroke="black" d="M259.618,-373.711C255.648,-362.627 252.234,-351.169 250,-340 240.586,-292.932 243.03,-279.491 250,-232 251.389,-222.537 253.558,-212.687 256.077,-203.125"/>
<polygon fill="black" stroke="black" points="256.442,-375.208 263.235,-383.338 262.995,-372.746 256.442,-375.208"/>
<polygon fill="black" stroke="black" points="259.504,-203.864 258.811,-193.292 252.76,-201.989 259.504,-203.864"/>
</g>
<!-- tedax -->
<g id="node4" class="node"><title>tedax</title>
<ellipse fill="green" stroke="black" cx="277" cy="-34" rx="38.9134" ry="18"/>
<text text-anchor="middle" x="277" y="-29.9" font-family="Times Roman,serif" font-size="14.00">tedax</text>
</g>
<!-- pcbrnd&#45;&gt;tedax -->
<g id="edge8" class="edge"><title>pcbrnd&#45;&gt;tedax</title>
<path fill="none" stroke="black" d="M350.956,-387.28C361.233,-372.772 370.455,-356.635 376,-340 391.179,-294.463 380.12,-279.823 376,-232 370.424,-167.282 385.292,-143.168 351,-88 341.753,-73.123 326.765,-61.0516 312.687,-52.1255"/>
<polygon fill="black" stroke="black" points="347.92,-385.499 344.804,-395.625 353.555,-389.653 347.92,-385.499"/>
<polygon fill="black" stroke="black" points="314.476,-49.1171 304.1,-46.9773 310.877,-55.1209 314.476,-49.1171"/>
</g>
<!-- cschem -->
<g id="node5" class="node"><title>cschem</title>
<ellipse fill="red" stroke="black" cx="313" cy="-286" rx="54" ry="54"/>
<text text-anchor="middle" x="313" y="-281.9" font-family="Times Roman,serif" font-size="14.00">cschem</text>
</g>
<!-- pcbrnd&#45;&gt;cschem -->
<g id="edge6" class="edge"><title>pcbrnd&#45;&gt;cschem</title>
<path fill="none" stroke="black" d="M304.113,-365.98C304.715,-360.563 305.316,-355.152 305.906,-349.844"/>
<polygon fill="black" stroke="black" points="300.626,-365.676 303,-376.001 307.583,-366.449 300.626,-365.676"/>
<polygon fill="black" stroke="black" points="309.398,-350.114 307.023,-339.789 302.44,-349.341 309.398,-350.114"/>
</g>
<!-- kicad -->
<g id="node20" class="node"><title>kicad</title>
<ellipse fill="none" stroke="black" cx="439" cy="-34" rx="36.1339" ry="18"/>
<text text-anchor="middle" x="439" y="-29.9" font-family="Times Roman,serif" font-size="14.00">kicad</text>
</g>
<!-- pcbrnd&#45;&gt;kicad -->
<g id="edge20" class="edge"><title>pcbrnd&#45;&gt;kicad</title>
<path fill="none" stroke="black" d="M352.841,-389.699C365.143,-374.552 376.86,-357.531 385,-340 429.089,-245.048 437.365,-118.211 438.789,-62.3946"/>
<polygon fill="black" stroke="black" points="350.097,-387.525 346.371,-397.443 355.469,-392.013 350.097,-387.525"/>
<polygon fill="black" stroke="black" points="442.292,-62.2762 438.991,-52.2087 435.293,-62.1373 442.292,-62.2762"/>
</g>
<!-- gschem -->
<g id="node24" class="node"><title>gschem</title>
<ellipse fill="none" stroke="black" cx="47" cy="-34" rx="46.7546" ry="18"/>
<text text-anchor="middle" x="47" y="-29.9" font-family="Times Roman,serif" font-size="14.00">gschem</text>
</g>
<!-- pcbrnd&#45;&gt;gschem -->
<g id="edge26" class="edge"><title>pcbrnd&#45;&gt;gschem</title>
<path fill="none" stroke="black" d="M237.859,-388.371C231.792,-383.766 225.467,-379.54 219,-376 160.755,-344.115 117.168,-390.454 74,-340 5.47824,-259.912 26.6632,-121.107 39.885,-61.9763"/>
<polygon fill="black" stroke="black" points="235.967,-391.34 245.96,-394.858 240.342,-385.876 235.967,-391.34"/>
<polygon fill="black" stroke="black" points="43.2983,-62.7506 42.1593,-52.2171 36.481,-61.1618 43.2983,-62.7506"/>
</g>
<!-- eagle -->
<g id="node28" class="node"><title>eagle</title>
<ellipse fill="none" stroke="black" cx="159" cy="-34" rx="36.8288" ry="18"/>
<text text-anchor="middle" x="159" y="-29.9" font-family="Times Roman,serif" font-size="14.00">eagle</text>
</g>
<!-- pcbrnd&#45;&gt;eagle -->
<g id="edge32" class="edge"><title>pcbrnd&#45;&gt;eagle</title>
<path fill="none" stroke="black" d="M237.627,-388.78C231.609,-384.09 225.358,-379.733 219,-376 172.815,-348.885 135.713,-383.158 104,-340 40.4206,-253.475 108.86,-116.652 142.537,-59.9451"/>
<polygon fill="black" stroke="black" points="235.719,-391.741 245.678,-395.355 240.147,-386.319 235.719,-391.741"/>
<polygon fill="black" stroke="black" points="145.622,-61.6083 147.809,-51.2418 139.634,-57.9813 145.622,-61.6083"/>
</g>
<!-- fidocadj -->
<g id="node36" class="node"><title>fidocadj</title>
<ellipse fill="none" stroke="black" cx="160" cy="-286" rx="46.7546" ry="18"/>
<text text-anchor="middle" x="160" y="-281.9" font-family="Times Roman,serif" font-size="14.00">fidocadj</text>
</g>
<!-- pcbrnd&#45;&gt;fidocadj -->
<g id="edge42" class="edge"><title>pcbrnd&#45;&gt;fidocadj</title>
<path fill="none" stroke="black" d="M242.076,-384.491C220.735,-358.882 197.352,-330.823 181.023,-311.228"/>
<polygon fill="black" stroke="black" points="239.45,-386.807 248.541,-392.249 244.828,-382.326 239.45,-386.807"/>
<polygon fill="black" stroke="black" points="183.574,-308.822 174.483,-303.38 178.196,-313.303 183.574,-308.822"/>
</g>
<!-- edakrill&#45;&gt;tedax -->
<g id="edge18" class="edge"><title>edakrill&#45;&gt;tedax</title>
<path fill="none" stroke="black" d="M277,-77.8012C277,-72.5711 277,-67.4735 277,-62.7143"/>
<polygon fill="black" stroke="black" points="273.5,-78 277,-88 280.5,-78 273.5,-78"/>
<polygon fill="black" stroke="black" points="280.5,-62.3207 277,-52.3207 273.5,-62.3208 280.5,-62.3207"/>
</g>
<!-- edakrill&#45;&gt;kicad -->
<g id="edge24" class="edge"><title>edakrill&#45;&gt;kicad</title>
<path fill="none" stroke="black" d="M323.236,-96.966C327.115,-93.8069 331.062,-90.778 335,-88 346.941,-79.5777 378.227,-63.6047 403.388,-51.2067"/>
<polygon fill="black" stroke="black" points="320.772,-94.4661 315.394,-103.595 325.29,-99.8122 320.772,-94.4661"/>
<polygon fill="black" stroke="black" points="405.239,-54.1972 412.678,-46.6533 402.158,-47.9116 405.239,-54.1972"/>
</g>
<!-- edakrill&#45;&gt;gschem -->
<g id="edge30" class="edge"><title>edakrill&#45;&gt;gschem</title>
<path fill="none" stroke="black" d="M231.795,-96.5661C227.637,-93.4384 223.348,-90.5297 219,-88 207.982,-81.5894 141.332,-61.4693 94.3172,-47.6846"/>
<polygon fill="black" stroke="black" points="229.614,-99.3032 239.612,-102.809 233.982,-93.8335 229.614,-99.3032"/>
<polygon fill="black" stroke="black" points="95.1903,-44.2935 84.6099,-44.8465 93.2259,-51.0122 95.1903,-44.2935"/>
</g>
<!-- edakrill&#45;&gt;eagle -->
<g id="edge34" class="edge"><title>edakrill&#45;&gt;eagle</title>
<path fill="none" stroke="black" d="M229.907,-98.0305C226.223,-94.6291 222.555,-91.2543 219,-88 207.797,-77.7449 195.326,-66.4949 184.669,-56.9302"/>
<polygon fill="black" stroke="black" points="227.742,-100.796 237.459,-105.02 232.497,-95.6586 227.742,-100.796"/>
<polygon fill="black" stroke="black" points="186.707,-54.0566 176.924,-49.989 182.035,-59.2695 186.707,-54.0566"/>
</g>
<!-- cschem&#45;&gt;edakrill -->
<g id="edge16" class="edge"><title>cschem&#45;&gt;edakrill</title>
<path fill="none" stroke="black" d="M297.408,-223.632C295.82,-217.279 294.206,-210.824 292.618,-204.47"/>
<polygon fill="black" stroke="black" points="294.08,-224.753 299.901,-233.605 300.871,-223.055 294.08,-224.753"/>
<polygon fill="black" stroke="black" points="295.97,-203.449 290.149,-194.597 289.179,-205.147 295.97,-203.449"/>
</g>
<!-- cschem&#45;&gt;tedax -->
<g id="edge14" class="edge"><title>cschem&#45;&gt;tedax</title>
<path fill="none" stroke="black" d="M337.559,-226.659C350.541,-185.952 360.064,-131.624 340,-88 333.703,-74.3091 322.033,-62.7904 310.432,-53.9547"/>
<polygon fill="black" stroke="black" points="334.229,-225.581 334.383,-236.174 340.869,-227.797 334.229,-225.581"/>
<polygon fill="black" stroke="black" points="312.25,-50.953 302.075,-48.0025 308.19,-56.6547 312.25,-50.953"/>
</g>
<!-- genxproj -->
<g id="node6" class="node"><title>genxproj</title>
<ellipse fill="red" stroke="black" cx="295" cy="-586" rx="53.0059" ry="18"/>
<text text-anchor="middle" x="295" y="-581.9" font-family="Times Roman,serif" font-size="14.00">genxproj</text>
</g>
<!-- genxproj&#45;&gt;pcbrnd -->
<g id="edge10" class="edge"><title>genxproj&#45;&gt;pcbrnd</title>
<path fill="none" stroke="black" d="M295,-557.719C295,-549.529 295,-540.147 295,-530.393"/>
<polygon fill="black" stroke="black" points="291.5,-557.959 295,-567.959 298.5,-557.959 291.5,-557.959"/>
<polygon fill="black" stroke="black" points="298.5,-530.129 295,-520.129 291.5,-530.129 298.5,-530.129"/>
</g>
<!-- genxproj&#45;&gt;cschem -->
<g id="edge12" class="edge"><title>genxproj&#45;&gt;cschem</title>
<path fill="none" stroke="black" d="M327.614,-563.868C347.72,-549.435 370.653,-531.254 376,-520 389.733,-491.096 385.62,-406.52 376,-376 371.481,-361.664 363.773,-347.625 355.269,-335.058"/>
<polygon fill="black" stroke="black" points="325.377,-561.164 319.23,-569.793 329.417,-566.88 325.377,-561.164"/>
<polygon fill="black" stroke="black" points="357.919,-332.745 349.283,-326.608 352.207,-336.792 357.919,-332.745"/>
</g>
<!-- genxproj&#45;&gt;kicad -->
<g id="edge22" class="edge"><title>genxproj&#45;&gt;kicad</title>
<path fill="none" stroke="black" d="M327.649,-564.116C352.18,-547.38 382.187,-526.161 386,-520 479.217,-369.392 455.677,-141.376 443.791,-62.2346"/>
<polygon fill="black" stroke="black" points="325.56,-561.304 319.253,-569.817 329.492,-567.096 325.56,-561.304"/>
<polygon fill="black" stroke="black" points="447.206,-61.419 442.204,-52.079 440.29,-62.4994 447.206,-61.419"/>
</g>
<!-- genxproj&#45;&gt;gschem -->
<g id="edge28" class="edge"><title>genxproj&#45;&gt;gschem</title>
<path fill="none" stroke="black" d="M234.638,-578.101C193.389,-569.873 139.9,-553.263 104,-520 -4.87902,-419.117 24.5459,-344.424 23,-196 22.5001,-148.003 13.0356,-134.954 23,-88 24.9497,-78.8126 28.5741,-69.2905 32.4261,-60.848"/>
<polygon fill="black" stroke="black" points="234.1,-581.561 244.575,-579.97 235.394,-574.682 234.1,-581.561"/>
<polygon fill="black" stroke="black" points="35.5755,-62.3748 36.7948,-51.8503 29.2785,-59.3174 35.5755,-62.3748"/>
</g>
<!-- tinycad -->
<g id="node30" class="node"><title>tinycad</title>
<ellipse fill="none" stroke="black" cx="159" cy="-448" rx="46.0565" ry="18"/>
<text text-anchor="middle" x="159" y="-443.9" font-family="Times Roman,serif" font-size="14.00">tinycad</text>
</g>
<!-- genxproj&#45;&gt;tinycad -->
<g id="edge38" class="edge"><title>genxproj&#45;&gt;tinycad</title>
<path fill="none" stroke="black" d="M262.494,-563.776C246.134,-551.796 226.534,-536.176 211,-520 197.556,-506.001 184.761,-488.361 175.227,-474.046"/>
<polygon fill="black" stroke="black" points="260.554,-566.692 270.715,-569.693 264.643,-561.011 260.554,-566.692"/>
<polygon fill="black" stroke="black" points="178.13,-472.089 169.736,-465.624 172.266,-475.912 178.13,-472.089"/>
</g>
<!-- l1 -->
<g id="node8" class="node"><title>l1</title>
<ellipse fill="green" stroke="black" cx="825" cy="-586" rx="55.8614" ry="29.6985"/>
<text text-anchor="middle" x="825" y="-590.4" font-family="Times Roman,serif" font-size="14.00">released,</text>
<text text-anchor="middle" x="825" y="-573.4" font-family="Times Roman,serif" font-size="14.00">ready</text>
</g>
<!-- l2 -->
<g id="node9" class="node"><title>l2</title>
<ellipse fill="red" stroke="black" cx="702" cy="-586" rx="48.8383" ry="18"/>
<text text-anchor="middle" x="702" y="-581.9" font-family="Times Roman,serif" font-size="14.00">planned</text>
</g>
<!-- l3 -->
<g id="node10" class="node"><title>l3</title>
<ellipse fill="none" stroke="black" cx="574" cy="-586" rx="60.8112" ry="29.6985"/>
<text text-anchor="middle" x="574" y="-590.4" font-family="Times Roman,serif" font-size="14.00">3rd party,</text>
<text text-anchor="middle" x="574" y="-573.4" font-family="Times Roman,serif" font-size="14.00">external</text>
</g>
<!-- tinycad&#45;&gt;pcbrnd -->
<g id="edge36" class="edge"><title>tinycad&#45;&gt;pcbrnd</title>
<path fill="none" stroke="black" d="M205.219,-448C207.685,-448 210.151,-448 212.616,-448"/>
<polygon fill="black" stroke="black" points="212.754,-451.5 222.754,-448 212.754,-444.5 212.754,-451.5"/>
</g>
<!-- mentor -->
<g id="node33" class="node"><title>mentor</title>
<ellipse fill="none" stroke="black" cx="449" cy="-586" rx="46.0565" ry="18"/>
<text text-anchor="middle" x="449" y="-581.9" font-family="Times Roman,serif" font-size="14.00">mentor</text>
</g>
<!-- mentor&#45;&gt;pcbrnd -->
<g id="edge40" class="edge"><title>mentor&#45;&gt;pcbrnd</title>
<path fill="none" stroke="black" d="M430.424,-569.354C412.076,-552.912 382.99,-526.848 356.469,-503.083"/>
<polygon fill="black" stroke="black" points="358.486,-500.19 348.703,-496.123 353.815,-505.404 358.486,-500.19"/>
</g>
</g>
</svg>
