G04 start of page 11 for group -1 layer_idx 268435461 *
G04 Title: (unknown), <virtual group> *
G04 Creator: <version>
G04 CreationDate: <date>
G04 For: TEST *
G04 Format: Gerber/RS-274X *
G04 PCB-Dimensions: 50000 50000 *
G04 PCB-Coordinate-Origin: lower left *
%MOIN*%
%FSLAX25Y25*%
%LNLOGICAL_VIRTUAL_FAB_NONE*%
%ADD31C,0.0100*%
%ADD30C,0.0001*%
%ADD29C,0.0060*%
%ADD28C,0.0080*%
G54D28*X14000Y39000D02*Y37400D01*
Y39000D02*X15387Y39800D01*
X14000Y39000D02*X12613Y39800D01*
X22000Y40600D02*Y37400D01*
X20400Y39000D02*X23600D01*
X15000Y92850D02*Y89650D01*
X13400Y91250D02*X16600D01*
G54D29*X135000Y95000D02*X136500Y92000D01*
X138000Y95000D01*
X136500Y92000D02*Y89000D01*
X139800Y92300D02*X142050D01*
X139800Y89000D02*X142800D01*
X139800Y95000D02*Y89000D01*
Y95000D02*X142800D01*
X147600D02*X148350Y94250D01*
X145350Y95000D02*X147600D01*
X144600Y94250D02*X145350Y95000D01*
X144600Y94250D02*Y92750D01*
X145350Y92000D01*
X147600D01*
X148350Y91250D01*
Y89750D01*
X147600Y89000D02*X148350Y89750D01*
X145350Y89000D02*X147600D01*
X144600Y89750D02*X145350Y89000D01*
X98000Y93800D02*X99200Y95000D01*
Y89000D01*
X98000D02*X100250D01*
X15000Y106250D02*Y104650D01*
Y106250D02*X16387Y107050D01*
X15000Y106250D02*X13613Y107050D01*
X140000Y110000D02*Y104000D01*
Y110000D02*X143750Y104000D01*
Y110000D02*Y104000D01*
X145550Y109250D02*Y104750D01*
Y109250D02*X146300Y110000D01*
X147800D01*
X148550Y109250D01*
Y104750D01*
X147800Y104000D02*X148550Y104750D01*
X146300Y104000D02*X147800D01*
X145550Y104750D02*X146300Y104000D01*
X98000Y108800D02*X99200Y110000D01*
Y104000D01*
X98000D02*X100250D01*
G54D30*G36*
X45000Y110000D02*X49500D01*
Y104000D01*
X45000D01*
Y110000D01*
G37*
G36*
X50400D02*X54900D01*
Y104000D01*
X50400D01*
Y110000D01*
G37*
G36*
X55800D02*X60300D01*
Y104000D01*
X55800D01*
Y110000D01*
G37*
G54D29*X61200Y108800D02*X62400Y110000D01*
Y104000D01*
X61200D02*X63450D01*
G54D30*G36*
X65250Y110000D02*X69750D01*
Y104000D01*
X65250D01*
Y110000D01*
G37*
G36*
X45000Y95000D02*X49500D01*
Y89000D01*
X45000D01*
Y95000D01*
G37*
G36*
X50400D02*X54900D01*
Y89000D01*
X50400D01*
Y95000D01*
G37*
G36*
X55800D02*X60300D01*
Y89000D01*
X55800D01*
Y95000D01*
G37*
G54D29*X61200Y93800D02*X62400Y95000D01*
Y89000D01*
X61200D02*X63450D01*
G54D30*G36*
X65250Y95000D02*X69750D01*
Y89000D01*
X65250D01*
Y95000D01*
G37*
G54D29*X3000Y125000D02*X3750Y124250D01*
X750Y125000D02*X3000D01*
X0Y124250D02*X750Y125000D01*
X0Y124250D02*Y122750D01*
X750Y122000D01*
X3000D01*
X3750Y121250D01*
Y119750D01*
X3000Y119000D02*X3750Y119750D01*
X750Y119000D02*X3000D01*
X0Y119750D02*X750Y119000D01*
G54D30*G36*
X5550Y125000D02*X10050D01*
Y119000D01*
X5550D01*
Y125000D01*
G37*
G36*
X10950D02*X15450D01*
Y119000D01*
X10950D01*
Y125000D01*
G37*
G36*
X16350D02*X20850D01*
Y119000D01*
X16350D01*
Y125000D01*
G37*
G36*
X21750D02*X26250D01*
Y119000D01*
X21750D01*
Y125000D01*
G37*
G36*
X27150D02*X31650D01*
Y119000D01*
X27150D01*
Y125000D01*
G37*
G54D29*X0Y118000D02*X5550D01*
X41750Y125000D02*Y119000D01*
X43700Y125000D02*X44750Y123950D01*
Y120050D01*
X43700Y119000D02*X44750Y120050D01*
X41000Y119000D02*X43700D01*
X41000Y125000D02*X43700D01*
G54D30*G36*
X46550D02*X51050D01*
Y119000D01*
X46550D01*
Y125000D01*
G37*
G36*
X51950D02*X56450D01*
Y119000D01*
X51950D01*
Y125000D01*
G37*
G36*
X57350D02*X61850D01*
Y119000D01*
X57350D01*
Y125000D01*
G37*
G36*
X62750D02*X67250D01*
Y119000D01*
X62750D01*
Y125000D01*
G37*
G36*
X70850D02*X75350D01*
Y119000D01*
X70850D01*
Y125000D01*
G37*
G54D29*X76250D02*X77750D01*
X77000D02*Y119000D01*
X76250D02*X77750D01*
G54D30*G36*
X79550Y125000D02*X84050D01*
Y119000D01*
X79550D01*
Y125000D01*
G37*
G36*
X84950D02*X89450D01*
Y119000D01*
X84950D01*
Y125000D01*
G37*
G36*
X90350D02*X94850D01*
Y119000D01*
X90350D01*
Y125000D01*
G37*
G36*
X95750D02*X100250D01*
Y119000D01*
X95750D01*
Y125000D01*
G37*
G54D29*X41000Y118000D02*X52550D01*
X96050Y119000D02*X98000D01*
X95000Y120050D02*X96050Y119000D01*
X95000Y123950D02*Y120050D01*
Y123950D02*X96050Y125000D01*
X98000D01*
G54D30*G36*
X99800D02*X104300D01*
Y119000D01*
X99800D01*
Y125000D01*
G37*
G36*
X105200D02*X109700D01*
Y119000D01*
X105200D01*
Y125000D01*
G37*
G36*
X110600D02*X115100D01*
Y119000D01*
X110600D01*
Y125000D01*
G37*
G36*
X116000D02*X120500D01*
Y119000D01*
X116000D01*
Y125000D01*
G37*
G54D29*X95000Y118000D02*X99800D01*
X130750Y125000D02*Y119000D01*
X130000Y125000D02*X133000D01*
X133750Y124250D01*
Y122750D01*
X133000Y122000D02*X133750Y122750D01*
X130750Y122000D02*X133000D01*
G54D30*G36*
X135550Y125000D02*X140050D01*
Y119000D01*
X135550D01*
Y125000D01*
G37*
G36*
X140950D02*X145450D01*
Y119000D01*
X140950D01*
Y125000D01*
G37*
G36*
X146350D02*X150850D01*
Y119000D01*
X146350D01*
Y125000D01*
G37*
G36*
X151750D02*X156250D01*
Y119000D01*
X151750D01*
Y125000D01*
G37*
G36*
X157150D02*X161650D01*
Y119000D01*
X157150D01*
Y125000D01*
G37*
G36*
X162550D02*X167050D01*
Y119000D01*
X162550D01*
Y125000D01*
G37*
G54D29*X130000Y118000D02*X135550D01*
X0Y140000D02*X3000D01*
X1500D02*Y134000D01*
G54D30*G36*
X4800Y140000D02*X9300D01*
Y134000D01*
X4800D01*
Y140000D01*
G37*
G36*
X10200D02*X14700D01*
Y134000D01*
X10200D01*
Y140000D01*
G37*
G36*
X15600D02*X20100D01*
Y134000D01*
X15600D01*
Y140000D01*
G37*
G36*
X21000D02*X25500D01*
Y134000D01*
X21000D01*
Y140000D01*
G37*
G36*
X29100D02*X33600D01*
Y134000D01*
X29100D01*
Y140000D01*
G37*
G36*
X34500D02*X39000D01*
Y134000D01*
X34500D01*
Y140000D01*
G37*
G36*
X39900D02*X44400D01*
Y134000D01*
X39900D01*
Y140000D01*
G37*
G54D29*X48000Y138800D02*X49200Y140000D01*
Y134000D01*
X48000D02*X50250D01*
G54D30*G36*
X54750Y140000D02*X59250D01*
Y134000D01*
X54750D01*
Y140000D01*
G37*
G36*
X60150D02*X64650D01*
Y134000D01*
X60150D01*
Y140000D01*
G37*
G36*
X65550D02*X70050D01*
Y134000D01*
X65550D01*
Y140000D01*
G37*
G36*
X70950D02*X75450D01*
Y134000D01*
X70950D01*
Y140000D01*
G37*
G36*
X76350D02*X80850D01*
Y134000D01*
X76350D01*
Y140000D01*
G37*
G36*
X81750D02*X86250D01*
Y134000D01*
X81750D01*
Y140000D01*
G37*
G36*
X87150D02*X91650D01*
Y134000D01*
X87150D01*
Y140000D01*
G37*
G36*
X92550D02*X97050D01*
Y134000D01*
X92550D01*
Y140000D01*
G37*
G36*
X97950D02*X102450D01*
Y134000D01*
X97950D01*
Y140000D01*
G37*
G36*
X106050D02*X110550D01*
Y134000D01*
X106050D01*
Y140000D01*
G37*
G36*
X111450D02*X115950D01*
Y134000D01*
X111450D01*
Y140000D01*
G37*
G36*
X116850D02*X121350D01*
Y134000D01*
X116850D01*
Y140000D01*
G37*
G36*
X122250D02*X126750D01*
Y134000D01*
X122250D01*
Y140000D01*
G37*
G36*
X127650D02*X132150D01*
Y134000D01*
X127650D01*
Y140000D01*
G37*
G36*
X135750D02*X140250D01*
Y134000D01*
X135750D01*
Y140000D01*
G37*
G36*
X141150D02*X145650D01*
Y134000D01*
X141150D01*
Y140000D01*
G37*
G36*
X146550D02*X151050D01*
Y134000D01*
X146550D01*
Y140000D01*
G37*
G36*
X151950D02*X156450D01*
Y134000D01*
X151950D01*
Y140000D01*
G37*
G36*
X157350D02*X161850D01*
Y134000D01*
X157350D01*
Y140000D01*
G37*
G36*
X165450D02*X169950D01*
Y134000D01*
X165450D01*
Y140000D01*
G37*
G36*
X170850D02*X175350D01*
Y134000D01*
X170850D01*
Y140000D01*
G37*
G36*
X176250D02*X180750D01*
Y134000D01*
X176250D01*
Y140000D01*
G37*
G36*
X181650D02*X186150D01*
Y134000D01*
X181650D01*
Y140000D01*
G37*
G36*
X189750D02*X194250D01*
Y134000D01*
X189750D01*
Y140000D01*
G37*
G36*
X195150D02*X199650D01*
Y134000D01*
X195150D01*
Y140000D01*
G37*
G36*
X203250D02*X207750D01*
Y134000D01*
X203250D01*
Y140000D01*
G37*
G36*
X208650D02*X213150D01*
Y134000D01*
X208650D01*
Y140000D01*
G37*
G36*
X214050D02*X218550D01*
Y134000D01*
X214050D01*
Y140000D01*
G37*
G36*
X219450D02*X223950D01*
Y134000D01*
X219450D01*
Y140000D01*
G37*
G36*
X227550D02*X232050D01*
Y134000D01*
X227550D01*
Y140000D01*
G37*
G36*
X232950D02*X237450D01*
Y134000D01*
X232950D01*
Y140000D01*
G37*
G36*
X238350D02*X242850D01*
Y134000D01*
X238350D01*
Y140000D01*
G37*
G36*
X243750D02*X248250D01*
Y134000D01*
X243750D01*
Y140000D01*
G37*
G36*
X249150D02*X253650D01*
Y134000D01*
X249150D01*
Y140000D01*
G37*
G36*
X254550D02*X259050D01*
Y134000D01*
X254550D01*
Y140000D01*
G37*
G36*
X259950D02*X264450D01*
Y134000D01*
X259950D01*
Y140000D01*
G37*
G54D29*X268050Y139250D02*X268800Y140000D01*
X271050D01*
X271800Y139250D01*
Y137750D01*
X268050Y134000D02*X271800Y137750D01*
X268050Y134000D02*X271800D01*
G54D30*G36*
X276300Y140000D02*X280800D01*
Y134000D01*
X276300D01*
Y140000D01*
G37*
G36*
X281700D02*X286200D01*
Y134000D01*
X281700D01*
Y140000D01*
G37*
G36*
X287100D02*X291600D01*
Y134000D01*
X287100D01*
Y140000D01*
G37*
G36*
X292500D02*X297000D01*
Y134000D01*
X292500D01*
Y140000D01*
G37*
G36*
X297900D02*X302400D01*
Y134000D01*
X297900D01*
Y140000D01*
G37*
G36*
X306000D02*X310500D01*
Y134000D01*
X306000D01*
Y140000D01*
G37*
G36*
X311400D02*X315900D01*
Y134000D01*
X311400D01*
Y140000D01*
G37*
G36*
X316800D02*X321300D01*
Y134000D01*
X316800D01*
Y140000D01*
G37*
G36*
X322200D02*X326700D01*
Y134000D01*
X322200D01*
Y140000D01*
G37*
G36*
X327600D02*X332100D01*
Y134000D01*
X327600D01*
Y140000D01*
G37*
G54D31*X13000Y32000D02*X16000D01*
G54D29*X12775Y-8000D02*X15775D01*
X16525Y-7250D01*
Y-5450D02*Y-7250D01*
X15775Y-4700D02*X16525Y-5450D01*
X13525Y-4700D02*X15775D01*
X13525Y-2000D02*Y-8000D01*
X12775Y-2000D02*X15775D01*
X16525Y-2750D01*
Y-3950D01*
X15775Y-4700D02*X16525Y-3950D01*
G54D30*G36*
X18325Y-2000D02*X22825D01*
Y-8000D01*
X18325D01*
Y-2000D01*
G37*
G36*
X23725D02*X28225D01*
Y-8000D01*
X23725D01*
Y-2000D01*
G37*
G36*
X29125D02*X33625D01*
Y-8000D01*
X29125D01*
Y-2000D01*
G37*
G36*
X34525D02*X39025D01*
Y-8000D01*
X34525D01*
Y-2000D01*
G37*
G36*
X42625D02*X47125D01*
Y-8000D01*
X42625D01*
Y-2000D01*
G37*
G36*
X48025D02*X52525D01*
Y-8000D01*
X48025D01*
Y-2000D01*
G37*
G36*
X53425D02*X57925D01*
Y-8000D01*
X53425D01*
Y-2000D01*
G37*
G36*
X58825D02*X63325D01*
Y-8000D01*
X58825D01*
Y-2000D01*
G37*
G36*
X64225D02*X68725D01*
Y-8000D01*
X64225D01*
Y-2000D01*
G37*
G36*
X69625D02*X74125D01*
Y-8000D01*
X69625D01*
Y-2000D01*
G37*
G36*
X75025D02*X79525D01*
Y-8000D01*
X75025D01*
Y-2000D01*
G37*
G36*
X83125D02*X87625D01*
Y-8000D01*
X83125D01*
Y-2000D01*
G37*
G36*
X88525D02*X93025D01*
Y-8000D01*
X88525D01*
Y-2000D01*
G37*
G36*
X96625D02*X101125D01*
Y-8000D01*
X96625D01*
Y-2000D01*
G37*
G36*
X102025D02*X106525D01*
Y-8000D01*
X102025D01*
Y-2000D01*
G37*
G36*
X107425D02*X111925D01*
Y-8000D01*
X107425D01*
Y-2000D01*
G37*
G36*
X115525D02*X120025D01*
Y-8000D01*
X115525D01*
Y-2000D01*
G37*
G36*
X120925D02*X125425D01*
Y-8000D01*
X120925D01*
Y-2000D01*
G37*
G36*
X126325D02*X130825D01*
Y-8000D01*
X126325D01*
Y-2000D01*
G37*
G36*
X131725D02*X136225D01*
Y-8000D01*
X131725D01*
Y-2000D01*
G37*
G36*
X137125D02*X141625D01*
Y-8000D01*
X137125D01*
Y-2000D01*
G37*
G36*
X142525D02*X147025D01*
Y-8000D01*
X142525D01*
Y-2000D01*
G37*
G36*
X147925D02*X152425D01*
Y-8000D01*
X147925D01*
Y-2000D01*
G37*
G36*
X153325D02*X157825D01*
Y-8000D01*
X153325D01*
Y-2000D01*
G37*
G36*
X158725D02*X163225D01*
Y-8000D01*
X158725D01*
Y-2000D01*
G37*
G36*
X164125D02*X168625D01*
Y-8000D01*
X164125D01*
Y-2000D01*
G37*
G36*
X172225D02*X176725D01*
Y-8000D01*
X172225D01*
Y-2000D01*
G37*
G36*
X177625D02*X182125D01*
Y-8000D01*
X177625D01*
Y-2000D01*
G37*
G36*
X185725D02*X190225D01*
Y-8000D01*
X185725D01*
Y-2000D01*
G37*
G36*
X191125D02*X195625D01*
Y-8000D01*
X191125D01*
Y-2000D01*
G37*
G36*
X196525D02*X201025D01*
Y-8000D01*
X196525D01*
Y-2000D01*
G37*
G36*
X201925D02*X206425D01*
Y-8000D01*
X201925D01*
Y-2000D01*
G37*
G36*
X210025D02*X214525D01*
Y-8000D01*
X210025D01*
Y-2000D01*
G37*
G36*
X215425D02*X219925D01*
Y-8000D01*
X215425D01*
Y-2000D01*
G37*
G36*
X220825D02*X225325D01*
Y-8000D01*
X220825D01*
Y-2000D01*
G37*
G36*
X226225D02*X230725D01*
Y-8000D01*
X226225D01*
Y-2000D01*
G37*
G54D31*X21000Y32000D02*X24000D01*
G54D29*X200750Y80000D02*Y74000D01*
X202700Y80000D02*X203750Y78950D01*
Y75050D01*
X202700Y74000D02*X203750Y75050D01*
X200000Y74000D02*X202700D01*
X200000Y80000D02*X202700D01*
G54D30*G36*
X205550D02*X210050D01*
Y74000D01*
X205550D01*
Y80000D01*
G37*
G36*
X210950D02*X215450D01*
Y74000D01*
X210950D01*
Y80000D01*
G37*
G36*
X216350D02*X220850D01*
Y74000D01*
X216350D01*
Y80000D01*
G37*
G36*
X221750D02*X226250D01*
Y74000D01*
X221750D01*
Y80000D01*
G37*
G36*
X229850D02*X234350D01*
Y74000D01*
X229850D01*
Y80000D01*
G37*
G36*
X235250D02*X239750D01*
Y74000D01*
X235250D01*
Y80000D01*
G37*
G36*
X240650D02*X245150D01*
Y74000D01*
X240650D01*
Y80000D01*
G37*
G36*
X246050D02*X250550D01*
Y74000D01*
X246050D01*
Y80000D01*
G37*
G36*
X251450D02*X255950D01*
Y74000D01*
X251450D01*
Y80000D01*
G37*
G36*
X256850D02*X261350D01*
Y74000D01*
X256850D01*
Y80000D01*
G37*
G54D29*X200000Y93500D02*Y89000D01*
Y93500D02*X201050Y95000D01*
X202700D01*
X203750Y93500D01*
Y89000D01*
X200000Y92000D02*X203750D01*
G54D30*G36*
X205550Y95000D02*X210050D01*
Y89000D01*
X205550D01*
Y95000D01*
G37*
G36*
X210950D02*X215450D01*
Y89000D01*
X210950D01*
Y95000D01*
G37*
G36*
X216350D02*X220850D01*
Y89000D01*
X216350D01*
Y95000D01*
G37*
G36*
X221750D02*X226250D01*
Y89000D01*
X221750D01*
Y95000D01*
G37*
G36*
X227150D02*X231650D01*
Y89000D01*
X227150D01*
Y95000D01*
G37*
G36*
X232550D02*X237050D01*
Y89000D01*
X232550D01*
Y95000D01*
G37*
G54D29*X240650D02*X243650D01*
X242150D02*Y89000D01*
X245450Y92300D02*X247700D01*
X245450Y89000D02*X248450D01*
X245450Y95000D02*Y89000D01*
Y95000D02*X248450D01*
X253250D02*X254000Y94250D01*
X251000Y95000D02*X253250D01*
X250250Y94250D02*X251000Y95000D01*
X250250Y94250D02*Y92750D01*
X251000Y92000D01*
X253250D01*
X254000Y91250D01*
Y89750D01*
X253250Y89000D02*X254000Y89750D01*
X251000Y89000D02*X253250D01*
X250250Y89750D02*X251000Y89000D01*
X255800Y95000D02*X258800D01*
X257300D02*Y89000D01*
X200000Y110000D02*X203000D01*
X201500D02*Y104000D01*
G54D30*G36*
X204800Y110000D02*X209300D01*
Y104000D01*
X204800D01*
Y110000D01*
G37*
G36*
X210200D02*X214700D01*
Y104000D01*
X210200D01*
Y110000D01*
G37*
G36*
X215600D02*X220100D01*
Y104000D01*
X215600D01*
Y110000D01*
G37*
G36*
X221000D02*X225500D01*
Y104000D01*
X221000D01*
Y110000D01*
G37*
G36*
X226400D02*X230900D01*
Y104000D01*
X226400D01*
Y110000D01*
G37*
G36*
X234500D02*X239000D01*
Y104000D01*
X234500D01*
Y110000D01*
G37*
G36*
X239900D02*X244400D01*
Y104000D01*
X239900D01*
Y110000D01*
G37*
G36*
X245300D02*X249800D01*
Y104000D01*
X245300D01*
Y110000D01*
G37*
G36*
X250700D02*X255200D01*
Y104000D01*
X250700D01*
Y110000D01*
G37*
G36*
X256100D02*X260600D01*
Y104000D01*
X256100D01*
Y110000D01*
G37*
G36*
X261500D02*X266000D01*
Y104000D01*
X261500D01*
Y110000D01*
G37*
G36*
X266900D02*X271400D01*
Y104000D01*
X266900D01*
Y110000D01*
G37*
G36*
X272300D02*X276800D01*
Y104000D01*
X272300D01*
Y110000D01*
G37*
G36*
X277700D02*X282200D01*
Y104000D01*
X277700D01*
Y110000D01*
G37*
G36*
X285800D02*X290300D01*
Y104000D01*
X285800D01*
Y110000D01*
G37*
G54D29*X293900D02*Y104000D01*
Y110000D02*X296900D01*
X293900Y107300D02*X296150D01*
G54D30*G36*
X298700Y110000D02*X303200D01*
Y104000D01*
X298700D01*
Y110000D01*
G37*
G36*
X304100D02*X308600D01*
Y104000D01*
X304100D01*
Y110000D01*
G37*
G36*
X309500D02*X314000D01*
Y104000D01*
X309500D01*
Y110000D01*
G37*
G36*
X314900D02*X319400D01*
Y104000D01*
X314900D01*
Y110000D01*
G37*
G36*
X320300D02*X324800D01*
Y104000D01*
X320300D01*
Y110000D01*
G37*
G36*
X325700D02*X330200D01*
Y104000D01*
X325700D01*
Y110000D01*
G37*
G36*
X331100D02*X335600D01*
Y104000D01*
X331100D01*
Y110000D01*
G37*
G36*
X336500D02*X341000D01*
Y104000D01*
X336500D01*
Y110000D01*
G37*
G36*
X341900D02*X346400D01*
Y104000D01*
X341900D01*
Y110000D01*
G37*
G36*
X347300D02*X351800D01*
Y104000D01*
X347300D01*
Y110000D01*
G37*
G54D29*X356150D02*Y104000D01*
X358100Y110000D02*X359150Y108950D01*
Y105050D01*
X358100Y104000D02*X359150Y105050D01*
X355400Y104000D02*X358100D01*
X355400Y110000D02*X358100D01*
G54D30*G36*
X360950D02*X365450D01*
Y104000D01*
X360950D01*
Y110000D01*
G37*
G36*
X366350D02*X370850D01*
Y104000D01*
X366350D01*
Y110000D01*
G37*
G36*
X371750D02*X376250D01*
Y104000D01*
X371750D01*
Y110000D01*
G37*
G36*
X377150D02*X381650D01*
Y104000D01*
X377150D01*
Y110000D01*
G37*
G36*
X382550D02*X387050D01*
Y104000D01*
X382550D01*
Y110000D01*
G37*
G36*
X387950D02*X392450D01*
Y104000D01*
X387950D01*
Y110000D01*
G37*
M02*
