G04 start of page 4 for group 7 layer_idx 5 *
G04 Title: thermals on the last 2 layers - catch off-by-one bugs due to the 0-base index of thermals, Intern *
G04 Creator: <version>
G04 CreationDate: <date>
G04 For: TEST *
G04 Format: Gerber/RS-274X *
G04 PCB-Dimensions: 50000 50000 *
G04 PCB-Coordinate-Origin: lower left *
%MOIN*%
%FSLAX25Y25*%
%LNINTERN_COPPER_NONE_7*%
%ADD18C,0.0315*%
%ADD17C,0.0787*%
%ADD16C,0.0001*%
G54D16*G36*
X13830Y42500D02*X13826Y42496D01*
X13732Y42370D01*
X13658Y42230D01*
X13608Y42080D01*
X13581Y41924D01*
X13579Y41766D01*
X13602Y41610D01*
X13652Y41460D01*
X13778Y41108D01*
X13866Y40744D01*
X13919Y40374D01*
X13937Y40000D01*
X13919Y39626D01*
X13866Y39256D01*
X13778Y38892D01*
X13656Y38539D01*
X13606Y38389D01*
X13583Y38234D01*
X13585Y38076D01*
X13612Y37921D01*
X13662Y37772D01*
X13736Y37633D01*
X13830Y37507D01*
X13942Y37397D01*
X14071Y37306D01*
X14212Y37236D01*
X14362Y37189D01*
X14518Y37167D01*
X14675Y37168D01*
X14831Y37195D01*
X14980Y37246D01*
X15119Y37319D01*
X15245Y37413D01*
X15355Y37525D01*
X15446Y37654D01*
X15513Y37796D01*
X15704Y38328D01*
X15837Y38877D01*
X15917Y39436D01*
X15944Y40000D01*
X15917Y40564D01*
X15837Y41123D01*
X15704Y41672D01*
X15519Y42206D01*
X15450Y42348D01*
X15358Y42477D01*
X15336Y42500D01*
X17500D01*
Y32500D01*
X7500D01*
Y34670D01*
X7525Y34645D01*
X7654Y34554D01*
X7796Y34487D01*
X8328Y34296D01*
X8877Y34163D01*
X9436Y34083D01*
X10000Y34056D01*
X10564Y34083D01*
X11123Y34163D01*
X11672Y34296D01*
X12206Y34481D01*
X12348Y34550D01*
X12477Y34642D01*
X12591Y34752D01*
X12685Y34879D01*
X12759Y35019D01*
X12809Y35168D01*
X12836Y35324D01*
X12838Y35482D01*
X12815Y35639D01*
X12768Y35790D01*
X12698Y35931D01*
X12607Y36061D01*
X12496Y36174D01*
X12370Y36268D01*
X12230Y36342D01*
X12080Y36392D01*
X11924Y36419D01*
X11766Y36421D01*
X11610Y36398D01*
X11460Y36348D01*
X11108Y36222D01*
X10744Y36134D01*
X10374Y36081D01*
X10000Y36063D01*
X9626Y36081D01*
X9256Y36134D01*
X8892Y36222D01*
X8539Y36344D01*
X8389Y36394D01*
X8234Y36417D01*
X8076Y36415D01*
X7921Y36388D01*
X7772Y36338D01*
X7633Y36264D01*
X7507Y36170D01*
X7500Y36164D01*
Y42500D01*
X13830D01*
G37*
G54D17*X10000Y40000D03*
G54D18*M02*
