G04 start of page 3 for group 5 layer_idx 4 *
G04 Title: thermals on the last 2 layers - catch off-by-one bugs due to the 0-base index of thermals, Intern *
G04 Creator: <version>
G04 CreationDate: <date>
G04 For: TEST *
G04 Format: Gerber/RS-274X *
G04 PCB-Dimensions: 50000 50000 *
G04 PCB-Coordinate-Origin: lower left *
%MOIN*%
%FSLAX25Y25*%
%LNINTERN_COPPER_NONE_5*%
%ADD15C,0.0315*%
%ADD14C,0.0787*%
%ADD13C,0.0001*%
G54D13*G36*
X12500Y47500D02*Y45391D01*
X11840Y45664D01*
X10932Y45882D01*
X10000Y45955D01*
X9068Y45882D01*
X8160Y45664D01*
X7296Y45306D01*
X6560Y44855D01*
X8014Y43400D01*
X8207Y43519D01*
X8780Y43756D01*
X9382Y43901D01*
X10000Y43949D01*
X10618Y43901D01*
X11220Y43756D01*
X11793Y43519D01*
X11986Y43400D01*
X12500Y43914D01*
Y37500D01*
X6086D01*
X6600Y38014D01*
X6481Y38207D01*
X6244Y38780D01*
X6099Y39382D01*
X6051Y40000D01*
X6099Y40618D01*
X6244Y41220D01*
X6481Y41793D01*
X6600Y41986D01*
X5145Y43440D01*
X4694Y42704D01*
X4336Y41840D01*
X4118Y40932D01*
X4045Y40000D01*
X4118Y39068D01*
X4336Y38160D01*
X4609Y37500D01*
X2500D01*
Y47500D01*
X12500D01*
G37*
G54D14*X10000Y40000D03*
G54D15*M02*
