<?xml version="1.0" encoding="UTF-8" standalone="no"?>
<!DOCTYPE svg PUBLIC "-//W3C//DTD SVG 1.1//EN"
 "http://www.w3.org/Graphics/SVG/1.1/DTD/svg11.dtd">
<!-- Generated by graphviz version 2.38.0 (20140413.2041)
 -->
<!-- Title: keytree Pages: 1 -->
<svg width="280pt" height="241pt"
 viewBox="0.00 0.00 280.00 241.22" xmlns="http://www.w3.org/2000/svg" xmlns:xlink="http://www.w3.org/1999/xlink">
<g id="graph0" class="graph" transform="scale(1 1) rotate(0) translate(4 237.22)">
<title>keytree</title>
<polygon fill="white" stroke="none" points="-4,4 -4,-237.22 276,-237.22 276,4 -4,4"/>
<!-- root -->
<g id="node1" class="node"><title>root</title>
<ellipse fill="none" stroke="black" cx="136" cy="-206.35" rx="41.0244" ry="26.7407"/>
<text text-anchor="middle" x="136" y="-210.15" font-family="Times,serif" font-size="14.00">nothing</text>
<text text-anchor="middle" x="136" y="-195.15" font-family="Times,serif" font-size="14.00">pressed</text>
</g>
<!-- f1 -->
<g id="node2" class="node"><title>f1</title>
<ellipse fill="none" stroke="black" cx="100" cy="-116.61" rx="27" ry="26.7407"/>
<text text-anchor="middle" x="100" y="-120.41" font-family="Times,serif" font-size="14.00">f</text>
<text text-anchor="middle" x="100" y="-105.41" font-family="Times,serif" font-size="14.00">file</text>
</g>
<!-- root&#45;&gt;f1 -->
<g id="edge1" class="edge"><title>root&#45;&gt;f1</title>
<path fill="none" stroke="black" d="M125.587,-179.972C121.881,-170.938 117.648,-160.623 113.708,-151.019"/>
<polygon fill="black" stroke="black" points="116.928,-149.648 109.894,-141.725 110.452,-152.305 116.928,-149.648"/>
</g>
<!-- t1 -->
<g id="node5" class="node"><title>t1</title>
<ellipse fill="none" stroke="black" cx="173" cy="-116.61" rx="27" ry="26.7407"/>
<text text-anchor="middle" x="173" y="-120.41" font-family="Times,serif" font-size="14.00">t</text>
<text text-anchor="middle" x="173" y="-105.41" font-family="Times,serif" font-size="14.00">tool</text>
</g>
<!-- root&#45;&gt;t1 -->
<g id="edge4" class="edge"><title>root&#45;&gt;t1</title>
<path fill="none" stroke="black" d="M146.702,-179.972C150.512,-170.938 154.861,-160.623 158.911,-151.019"/>
<polygon fill="black" stroke="black" points="162.17,-152.299 162.831,-141.725 155.72,-149.579 162.17,-152.299"/>
</g>
<!-- q2 -->
<g id="node3" class="node"><title>q2</title>
<ellipse fill="none" stroke="black" cx="27" cy="-26.8701" rx="27" ry="26.7407"/>
<text text-anchor="middle" x="27" y="-30.6701" font-family="Times,serif" font-size="14.00">q</text>
<text text-anchor="middle" x="27" y="-15.6701" font-family="Times,serif" font-size="14.00">quit</text>
</g>
<!-- f1&#45;&gt;q2 -->
<g id="edge2" class="edge"><title>f1&#45;&gt;q2</title>
<path fill="none" stroke="black" d="M83.0688,-95.2603C73.3946,-83.6327 61.1165,-68.8753 50.5176,-56.1363"/>
<polygon fill="black" stroke="black" points="52.9257,-53.5583 43.8393,-48.1096 47.5446,-58.0354 52.9257,-53.5583"/>
</g>
<!-- n2 -->
<g id="node4" class="node"><title>n2</title>
<ellipse fill="none" stroke="black" cx="100" cy="-26.8701" rx="27.6545" ry="26.7407"/>
<text text-anchor="middle" x="100" y="-30.6701" font-family="Times,serif" font-size="14.00">n</text>
<text text-anchor="middle" x="100" y="-15.6701" font-family="Times,serif" font-size="14.00">new</text>
</g>
<!-- f1&#45;&gt;n2 -->
<g id="edge3" class="edge"><title>f1&#45;&gt;n2</title>
<path fill="none" stroke="black" d="M100,-89.2852C100,-81.3185 100,-72.4275 100,-63.9391"/>
<polygon fill="black" stroke="black" points="103.5,-63.874 100,-53.874 96.5001,-63.8741 103.5,-63.874"/>
</g>
<!-- l2 -->
<g id="node6" class="node"><title>l2</title>
<ellipse fill="none" stroke="black" cx="173" cy="-26.8701" rx="27" ry="26.7407"/>
<text text-anchor="middle" x="173" y="-30.6701" font-family="Times,serif" font-size="14.00">l</text>
<text text-anchor="middle" x="173" y="-15.6701" font-family="Times,serif" font-size="14.00">line</text>
</g>
<!-- t1&#45;&gt;l2 -->
<g id="edge5" class="edge"><title>t1&#45;&gt;l2</title>
<path fill="none" stroke="black" d="M173,-89.2852C173,-81.3185 173,-72.4275 173,-63.9391"/>
<polygon fill="black" stroke="black" points="176.5,-63.874 173,-53.874 169.5,-63.8741 176.5,-63.874"/>
</g>
<!-- a2 -->
<g id="node7" class="node"><title>a2</title>
<ellipse fill="none" stroke="black" cx="245" cy="-26.8701" rx="27" ry="26.7407"/>
<text text-anchor="middle" x="245" y="-30.6701" font-family="Times,serif" font-size="14.00">l</text>
<text text-anchor="middle" x="245" y="-15.6701" font-family="Times,serif" font-size="14.00">arc</text>
</g>
<!-- t1&#45;&gt;a2 -->
<g id="edge6" class="edge"><title>t1&#45;&gt;a2</title>
<path fill="none" stroke="black" d="M189.699,-95.2603C199.241,-83.6327 211.351,-68.8753 221.805,-56.1363"/>
<polygon fill="black" stroke="black" points="224.753,-58.0603 228.391,-48.1096 219.342,-53.6197 224.753,-58.0603"/>
</g>
</g>
</svg>
