G04 start of page 7 for group 1 layer_idx 8 *
G04 Title: (unknown), top_silk *
G04 Creator: <version>
G04 CreationDate: <date>
G04 For: TEST *
G04 Format: Gerber/RS-274X *
G04 PCB-Dimensions: 65000 62500 *
G04 PCB-Coordinate-Origin: lower left *
%MOIN*%
%FSLAX25Y25*%
%LNTOP_SILK_NONE_1*%
%ADD22C,0.0001*%
G54D22*G36*
X19350Y8150D02*X22350D01*
Y4150D01*
X19350D01*
Y8150D01*
G37*
G36*
X22950D02*X25950D01*
Y4150D01*
X22950D01*
Y8150D01*
G37*
G36*
X26550D02*X29550D01*
Y4150D01*
X26550D01*
Y8150D01*
G37*
G36*
X29350D02*X32350D01*
Y4150D01*
X29350D01*
Y8150D01*
G37*
G36*
X32950D02*X35950D01*
Y4150D01*
X32950D01*
Y8150D01*
G37*
G36*
X36550D02*X39550D01*
Y4150D01*
X36550D01*
Y8150D01*
G37*
G36*
X39350D02*X42350D01*
Y4150D01*
X39350D01*
Y8150D01*
G37*
G36*
X42950D02*X45950D01*
Y4150D01*
X42950D01*
Y8150D01*
G37*
G36*
X46550D02*X49550D01*
Y4150D01*
X46550D01*
Y8150D01*
G37*
G36*
X49350D02*X52350D01*
Y4150D01*
X49350D01*
Y8150D01*
G37*
G36*
X52950D02*X55950D01*
Y4150D01*
X52950D01*
Y8150D01*
G37*
G36*
X56550D02*X59550D01*
Y4150D01*
X56550D01*
Y8150D01*
G37*
M02*
