G04 start of page 8 for group 1 layer_idx 8 *
G04 Title: pins with different shapes, top_silk *
G04 Creator: <version>
G04 CreationDate: <date>
G04 For: TEST *
G04 Format: Gerber/RS-274X *
G04 PCB-Dimensions: 50000 50000 *
G04 PCB-Coordinate-Origin: lower left *
%MOIN*%
%FSLAX25Y25*%
%LNTOP_SILK_NONE_1*%
%ADD28C,0.0070*%
%ADD27C,0.0100*%
G54D27*X2500Y42500D02*Y32500D01*
X42500D02*X2500D01*
Y42500D02*X17500D01*
X2500Y22500D02*Y12500D01*
X27500Y22500D02*X42500D01*
Y12500D02*X2500D01*
X42500D02*Y22500D01*
X2500D02*X17500D01*
X42500Y32500D02*Y42500D01*
X27500D02*X42500D01*
X17500D02*G75*G03X27500Y42500I5000J0D01*G01*
X17500Y22500D02*G75*G03X27500Y22500I5000J0D01*G01*
G54D28*X7500Y47500D02*Y44000D01*
X8000Y43500D01*
X9000D01*
X9500Y44000D01*
Y47500D02*Y44000D01*
X10700Y46700D02*X11500Y47500D01*
Y43500D01*
X10700D02*X12200D01*
X7500Y27500D02*Y24000D01*
X8000Y23500D01*
X9000D01*
X9500Y24000D01*
Y27500D02*Y24000D01*
X10700Y27000D02*X11200Y27500D01*
X12700D01*
X13200Y27000D01*
Y26000D01*
X10700Y23500D02*X13200Y26000D01*
X10700Y23500D02*X13200D01*
M02*
