solid OpenSCAD_Model
  facet normal -0 0 1
    outer loop
      vertex -1.6 0.799999 0.599999
      vertex 1.6 -0.799999 0.599999
      vertex 1.6 0.799999 0.599999
    endloop
  endfacet
  facet normal 0 0 1
    outer loop
      vertex 1.6 -0.799999 0.599999
      vertex -1.6 0.799999 0.599999
      vertex -1.6 -0.799999 0.599999
    endloop
  endfacet
  facet normal 0 0 -1
    outer loop
      vertex -1.6 -0.799999 7.62939e-07
      vertex 1.6 0.799999 7.62939e-07
      vertex 1.6 -0.799999 7.62939e-07
    endloop
  endfacet
  facet normal -0 0 -1
    outer loop
      vertex 1.6 0.799999 7.62939e-07
      vertex -1.6 -0.799999 7.62939e-07
      vertex -1.6 0.799999 7.62939e-07
    endloop
  endfacet
  facet normal 0 1 -0
    outer loop
      vertex 1.6 0.799999 7.62939e-07
      vertex -1.6 0.799999 0.599999
      vertex 1.6 0.799999 0.599999
    endloop
  endfacet
  facet normal 0 1 0
    outer loop
      vertex -1.6 0.799999 0.599999
      vertex 1.6 0.799999 7.62939e-07
      vertex -1.6 0.799999 7.62939e-07
    endloop
  endfacet
  facet normal 0 -1 0
    outer loop
      vertex -1.6 -0.799999 7.62939e-07
      vertex 1.6 -0.799999 0.599999
      vertex -1.6 -0.799999 0.599999
    endloop
  endfacet
  facet normal 0 -1 -0
    outer loop
      vertex 1.6 -0.799999 0.599999
      vertex -1.6 -0.799999 7.62939e-07
      vertex 1.6 -0.799999 7.62939e-07
    endloop
  endfacet
  facet normal 1 -0 0
    outer loop
      vertex 1.6 -0.799999 0.599999
      vertex 1.6 0.799999 7.62939e-07
      vertex 1.6 0.799999 0.599999
    endloop
  endfacet
  facet normal 1 0 0
    outer loop
      vertex 1.6 0.799999 7.62939e-07
      vertex 1.6 -0.799999 0.599999
      vertex 1.6 -0.799999 7.62939e-07
    endloop
  endfacet
  facet normal -1 0 0
    outer loop
      vertex -1.6 -0.799999 7.62939e-07
      vertex -1.6 0.799999 0.599999
      vertex -1.6 0.799999 7.62939e-07
    endloop
  endfacet
  facet normal -1 -0 0
    outer loop
      vertex -1.6 0.799999 0.599999
      vertex -1.6 -0.799999 7.62939e-07
      vertex -1.6 -0.799999 0.599999
    endloop
  endfacet
endsolid OpenSCAD_Model
