/* XPM */
static const char * question_xpm[] = {
"48 48 26 1",
" 	c None",
".	c #000100",
"+	c #000509",
"@	c #020D14",
"#	c #000E1A",
"$	c #011321",
"%	c #02192B",
"&	c #001C32",
"*	c #002036",
"=	c #00243F",
"-	c #012945",
";	c #002D4E",
">	c #003254",
",	c #06365E",
"'	c #023D69",
")	c #004374",
"!	c #08497C",
"~	c #004D85",
"{	c #005290",
"]	c #005593",
"^	c #005B99",
"/	c #0060A4",
"(	c #0065A9",
"_	c #1862A8",
":	c #006AB4",
"<	c #0E69B5",
"                                                ",
"                                                ",
"                                                ",
"                                                ",
"                                                ",
"                                                ",
"                  <<<<<<<<<<<<                  ",
"                :<<<<<<<<<<<<<<<                ",
"              :<<<<<<{)','!/<<<<<<              ",
"             <<<<('%........$)<<<<<<            ",
"            <<<<,+............*:<<<<<           ",
"           <<<<<@....+%=*#.....&:<<<<<          ",
"          <<<<<<@.+;]<<<<<~$....'<<<<<<         ",
"         <<<<<<<#>_<<<<<<<<_@...%<<<<<<<        ",
"        <<<<<<<</<<<<<<<<<<<'...+<<<<<<<        ",
"        <<<<<<<<<<<<<<<<<<<<~...+<<<<<<<<       ",
"       <<<<<<<<<<<<<<<<<<<<<,...@<<<<<<<<       ",
"       <<<<<<<<<<<<<<<<<<<<(@...;<<<<<<<<:      ",
"      <<<<<<<<<<<<<<<<<<<<:*...+/<<<<<<<<<      ",
"      <<<<<<<<<<<<<<<<<<<<*...+!<<<<<<<<<<      ",
"      <<<<<<<<<<<<<<<<<<(%...+)<<<<<<<<<<<<     ",
"      <<<<<<<<<<<<<<<<</$...+~<<<<<<<<<<<<<     ",
"      <<<<<<<<<<<<<<<<_$...+]<<<<<<<<<<<<<:     ",
"      <<<<<<<<<<<<<<<<=...@^<<<<<<<<<<<<<<<     ",
"      <<<<<<<<<<<<<<</....]<<<<<<<<<<<<<<<<     ",
"      <<<<<<<<<<<<<<<'...*<<<<<<<<<<<<<<<<<     ",
"      <<<<<<<<<<<<<<<>...><<<<<<<<<<<<<<<<<     ",
"      <<<<<<<<<<<<<<<;...,<<<<<<<<<<<<<<<<<     ",
"      <<<<<<<<<<<<<<<;...,<<<<<<<<<<<<<<<<      ",
"      <<<<<<<<<<<<<<<;...,<<<<<<<<<<<<<<<<      ",
"       <<<<<<<<<<<<<<^~~~/<<<<<<<<<<<<<<<:      ",
"       <<<<<<<<<<<<<<<<<<<<<<<<<<<<<<<<<<       ",
"       <<<<<<<<<<<<<<<<<<<<<<<<<<<<<<<<<<       ",
"        <<<<<<<<<<<<<-@@@><<<<<<<<<<<<<<        ",
"         <<<<<<<<<<<<*...-<<<<<<<<<<<<<:        ",
"         :<<<<<<<<<<<*...-<<<<<<<<<<<<<         ",
"          <<<<<<<<<<<*...-<<<<<<<<<<<<          ",
"           :<<<<<<<<<*...-<<<<<<<<<<<           ",
"            <<<<<<<<<<<<<<<<<<<<<<<<            ",
"             <<<<<<<<<<<<<<<<<<<<<:             ",
"               :<<<<<<<<<<<<<<<<<               ",
"                 <<<<<<<<<<<<<<                 ",
"                    <<<<<<<:                    ",
"                                                ",
"                                                ",
"                                                ",
"                                                ",
"                                                "};
