<?xml version="1.0" encoding="UTF-8" standalone="no"?>
<!DOCTYPE svg PUBLIC "-//W3C//DTD SVG 1.1//EN"
 "http://www.w3.org/Graphics/SVG/1.1/DTD/svg11.dtd">
<!-- Generated by graphviz version 2.26.3 (20100126.1600)
 -->
<!-- Title: flow Pages: 1 -->
<svg width="994pt" height="464pt"
 viewBox="0.00 0.00 994.00 464.00" xmlns="http://www.w3.org/2000/svg" xmlns:xlink="http://www.w3.org/1999/xlink">
<g id="graph1" class="graph" transform="scale(1 1) rotate(0) translate(4 460)">
<title>flow</title>
<polygon fill="white" stroke="white" points="-4,5 -4,-460 991,-460 991,5 -4,5"/>
<!-- sch -->
<g id="node2" class="node"><title>sch</title>
<ellipse fill="none" stroke="black" cx="97" cy="-258" rx="96.8736" ry="29.6985"/>
<text text-anchor="middle" x="97" y="-262.4" font-family="Times Roman,serif" font-size="14.00">schematics editor</text>
<text text-anchor="middle" x="97" y="-245.4" font-family="Times Roman,serif" font-size="14.00">e.g. gschem</text>
</g>
<!-- pcb -->
<g id="node4" class="node"><title>pcb</title>
<polygon fill="none" stroke="black" points="552,-228.177 552,-287.823 509.823,-330 450.177,-330 408,-287.823 408,-228.177 450.177,-186 509.823,-186 552,-228.177"/>
<text text-anchor="middle" x="480" y="-253.9" font-family="Times Roman,serif" font-size="14.00">pcb&#45;rnd</text>
</g>
<!-- sch&#45;&gt;pcb -->
<g id="edge5" class="edge"><title>sch&#45;&gt;pcb</title>
<path fill="none" stroke="black" d="M194.142,-258C256.991,-258 337.918,-258 397.614,-258"/>
<polygon fill="black" stroke="black" points="397.753,-261.5 407.753,-258 397.753,-254.5 397.753,-261.5"/>
<text text-anchor="middle" x="268" y="-262.4" font-family="Times Roman,serif" font-size="14.00">fwd annotation</text>
</g>
<!-- pcb&#45;&gt;sch -->
<g id="edge7" class="edge"><title>pcb&#45;&gt;sch</title>
<path fill="none" stroke="grey" d="M407.731,-245.74C353.771,-238.188 278.234,-231.002 212,-237 203.792,-237.743 195.294,-238.779 186.805,-239.996"/>
<polygon fill="grey" stroke="grey" points="186.225,-236.544 176.861,-241.501 187.272,-243.465 186.225,-236.544"/>
<text text-anchor="middle" x="268" y="-241.4" font-family="Times Roman,serif" font-size="14.00" fill="grey">back annotation</text>
</g>
<!-- fab -->
<g id="node8" class="node"><title>fab</title>
<ellipse fill="none" stroke="black" cx="891" cy="-355" rx="57.1737" ry="18"/>
<text text-anchor="middle" x="891" y="-350.9" font-family="Times Roman,serif" font-size="14.00">fab house</text>
</g>
<!-- pcb&#45;&gt;fab -->
<g id="edge9" class="edge"><title>pcb&#45;&gt;fab</title>
<path fill="none" stroke="black" d="M552.343,-279.542C578.585,-287.055 608.529,-295.28 636,-302 702.5,-318.268 779.537,-333.832 831.385,-343.834"/>
<polygon fill="black" stroke="black" points="830.928,-347.311 841.408,-345.759 832.248,-340.436 830.928,-347.311"/>
<text text-anchor="middle" x="707" y="-337.4" font-family="Times Roman,serif" font-size="14.00">e.g. gerber, bom, xy</text>
</g>
<!-- tt -->
<g id="node9" class="node"><title>tt</title>
<ellipse fill="none" stroke="black" cx="891" cy="-290" rx="94.7523" ry="29.6985"/>
<text text-anchor="middle" x="891" y="-294.4" font-family="Times Roman,serif" font-size="14.00">etching at home:</text>
<text text-anchor="middle" x="891" y="-277.4" font-family="Times Roman,serif" font-size="14.00">toner transfer</text>
</g>
<!-- pcb&#45;&gt;tt -->
<g id="edge11" class="edge"><title>pcb&#45;&gt;tt</title>
<path fill="none" stroke="black" d="M552.061,-263.611C617.585,-268.712 714.996,-276.297 788.596,-282.027"/>
<polygon fill="black" stroke="black" points="788.576,-285.536 798.818,-282.823 789.119,-278.557 788.576,-285.536"/>
<text text-anchor="middle" x="707" y="-285.4" font-family="Times Roman,serif" font-size="14.00">e.g. ps or png</text>
</g>
<!-- web -->
<g id="node10" class="node"><title>web</title>
<ellipse fill="none" stroke="black" cx="891" cy="-225" rx="57.1737" ry="18"/>
<text text-anchor="middle" x="891" y="-220.9" font-family="Times Roman,serif" font-size="14.00">web page</text>
</g>
<!-- pcb&#45;&gt;web -->
<g id="edge13" class="edge"><title>pcb&#45;&gt;web</title>
<path fill="none" stroke="black" d="M552.061,-252.214C629.129,-246.026 750.309,-236.296 824.974,-230.301"/>
<polygon fill="black" stroke="black" points="825.503,-233.77 835.191,-229.481 824.943,-226.793 825.503,-233.77"/>
<text text-anchor="middle" x="707" y="-250.4" font-family="Times Roman,serif" font-size="14.00">e.g. svg</text>
</g>
<!-- doc -->
<g id="node11" class="node"><title>doc</title>
<ellipse fill="none" stroke="black" cx="891" cy="-160" rx="84.8528" ry="29.6985"/>
<text text-anchor="middle" x="891" y="-164.4" font-family="Times Roman,serif" font-size="14.00">printed</text>
<text text-anchor="middle" x="891" y="-147.4" font-family="Times Roman,serif" font-size="14.00">documentation</text>
</g>
<!-- pcb&#45;&gt;doc -->
<g id="edge15" class="edge"><title>pcb&#45;&gt;doc</title>
<path fill="none" stroke="black" d="M552.357,-236.515C578.6,-229.008 608.542,-220.772 636,-214 692.724,-200.011 757.09,-186.397 806.963,-176.339"/>
<polygon fill="black" stroke="black" points="807.942,-179.712 817.057,-174.311 806.564,-172.849 807.942,-179.712"/>
<text text-anchor="middle" x="707" y="-218.4" font-family="Times Roman,serif" font-size="14.00">e.g. ps, eps, png, jpg</text>
</g>
<!-- kicad -->
<g id="node12" class="node"><title>kicad</title>
<ellipse fill="none" stroke="grey" cx="480" cy="-29" rx="111.93" ry="29.6985"/>
<text text-anchor="middle" x="480" y="-33.4" font-family="Times Roman,serif" font-size="14.00" fill="grey">collaboration with</text>
<text text-anchor="middle" x="480" y="-16.4" font-family="Times Roman,serif" font-size="14.00" fill="grey">someone using kicad</text>
</g>
<!-- pcb&#45;&gt;kicad -->
<g id="edge21" class="edge"><title>pcb&#45;&gt;kicad</title>
<path fill="none" stroke="grey" d="M398.139,-238.135C318.036,-214.48 213.761,-169.842 256,-105 279.449,-69.003 321.139,-49.7347 362.247,-39.5341"/>
<polygon fill="grey" stroke="grey" points="397.198,-241.506 407.777,-240.916 399.139,-234.781 397.198,-241.506"/>
<polygon fill="grey" stroke="grey" points="363.159,-42.9156 372.112,-37.2517 361.581,-36.0958 363.159,-42.9156"/>
<text text-anchor="middle" x="268" y="-126.4" font-family="Times Roman,serif" font-size="14.00" fill="grey">kicad&#39;s</text>
<text text-anchor="middle" x="268" y="-109.4" font-family="Times Roman,serif" font-size="14.00" fill="grey">native format</text>
</g>
<!-- gpcb -->
<g id="node13" class="node"><title>gpcb</title>
<ellipse fill="none" stroke="grey" cx="480" cy="-105" rx="137.886" ry="29.6985"/>
<text text-anchor="middle" x="480" y="-109.4" font-family="Times Roman,serif" font-size="14.00" fill="grey">collaboration with</text>
<text text-anchor="middle" x="480" y="-92.4" font-family="Times Roman,serif" font-size="14.00" fill="grey">someone using gEDA/PCB</text>
</g>
<!-- pcb&#45;&gt;gpcb -->
<g id="edge23" class="edge"><title>pcb&#45;&gt;gpcb</title>
<path fill="none" stroke="grey" d="M480,-144.667C480,-154.301 480,-164.959 480,-175.77"/>
<polygon fill="grey" stroke="grey" points="476.5,-175.98 480,-185.98 483.5,-175.98 476.5,-175.98"/>
<polygon fill="grey" stroke="grey" points="483.5,-144.656 480,-134.656 476.5,-144.656 483.5,-144.656"/>
<text text-anchor="middle" x="527" y="-164.4" font-family="Times Roman,serif" font-size="14.00" fill="grey">gEDA</text>
<text text-anchor="middle" x="527" y="-147.4" font-family="Times Roman,serif" font-size="14.00" fill="grey">native format</text>
</g>
<!-- lib -->
<g id="node5" class="node"><title>lib</title>
<ellipse fill="none" stroke="black" cx="480" cy="-438" rx="27" ry="18"/>
<text text-anchor="middle" x="480" y="-433.9" font-family="Times Roman,serif" font-size="14.00">lib</text>
</g>
<!-- lib&#45;&gt;pcb -->
<g id="edge17" class="edge"><title>lib&#45;&gt;pcb</title>
<path fill="none" stroke="black" d="M442.88,-440.416C397.49,-441.011 323.116,-433.737 294,-383.5 264.272,-332.208 335.624,-297.547 398.381,-277.871"/>
<polygon fill="black" stroke="black" points="443.02,-443.913 452.924,-440.15 442.835,-436.916 443.02,-443.913"/>
<polygon fill="black" stroke="black" points="399.413,-281.216 407.963,-274.959 397.378,-274.518 399.413,-281.216"/>
<text text-anchor="middle" x="268" y="-370.9" font-family="Times Roman,serif" font-size="14.00">.fp</text>
</g>
<!-- wlib -->
<g id="node6" class="node"><title>wlib</title>
<ellipse fill="none" stroke="grey" cx="480" cy="-384" rx="30.7734" ry="18"/>
<text text-anchor="middle" x="480" y="-379.9" font-family="Times Roman,serif" font-size="14.00" fill="grey">wlib</text>
</g>
<!-- wlib&#45;&gt;pcb -->
<g id="edge19" class="edge"><title>wlib&#45;&gt;pcb</title>
<path fill="none" stroke="grey" d="M480,-340.34C480,-349.859 480,-358.725 480,-365.947"/>
<polygon fill="grey" stroke="grey" points="483.5,-340.226 480,-330.226 476.5,-340.226 483.5,-340.226"/>
<text text-anchor="middle" x="535" y="-343.9" font-family="Times Roman,serif" font-size="14.00" fill="grey">import footprint</text>
</g>
</g>
</svg>
