G04 start of page 2 for group -1 layer_idx 268435461 *
G04 Title: space (and other dangerous characters) in layer name, <virtual group> *
G04 Creator: <version>
G04 CreationDate: <date>
G04 For: TEST *
G04 Format: Gerber/RS-274X *
G04 PCB-Dimensions: 50000 50000 *
G04 PCB-Coordinate-Origin: lower left *
%MOIN*%
%FSLAX25Y25*%
%LNFAB*%
%ADD13C,0.0100*%
%ADD12C,0.0001*%
%ADD11C,0.0060*%
G54D11*X3000Y125000D02*X3750Y124250D01*
X750Y125000D02*X3000D01*
X0Y124250D02*X750Y125000D01*
X0Y124250D02*Y122750D01*
X750Y122000D01*
X3000D01*
X3750Y121250D01*
Y119750D01*
X3000Y119000D02*X3750Y119750D01*
X750Y119000D02*X3000D01*
X0Y119750D02*X750Y119000D01*
G54D12*G36*
X5550Y125000D02*X10050D01*
Y119000D01*
X5550D01*
Y125000D01*
G37*
G36*
X10950D02*X15450D01*
Y119000D01*
X10950D01*
Y125000D01*
G37*
G36*
X16350D02*X20850D01*
Y119000D01*
X16350D01*
Y125000D01*
G37*
G36*
X21750D02*X26250D01*
Y119000D01*
X21750D01*
Y125000D01*
G37*
G36*
X27150D02*X31650D01*
Y119000D01*
X27150D01*
Y125000D01*
G37*
G54D11*X0Y118000D02*X5550D01*
X41750Y125000D02*Y119000D01*
X43700Y125000D02*X44750Y123950D01*
Y120050D01*
X43700Y119000D02*X44750Y120050D01*
X41000Y119000D02*X43700D01*
X41000Y125000D02*X43700D01*
G54D12*G36*
X46550D02*X51050D01*
Y119000D01*
X46550D01*
Y125000D01*
G37*
G36*
X51950D02*X56450D01*
Y119000D01*
X51950D01*
Y125000D01*
G37*
G36*
X57350D02*X61850D01*
Y119000D01*
X57350D01*
Y125000D01*
G37*
G36*
X62750D02*X67250D01*
Y119000D01*
X62750D01*
Y125000D01*
G37*
G36*
X70850D02*X75350D01*
Y119000D01*
X70850D01*
Y125000D01*
G37*
G54D11*X76250D02*X77750D01*
X77000D02*Y119000D01*
X76250D02*X77750D01*
G54D12*G36*
X79550Y125000D02*X84050D01*
Y119000D01*
X79550D01*
Y125000D01*
G37*
G36*
X84950D02*X89450D01*
Y119000D01*
X84950D01*
Y125000D01*
G37*
G36*
X90350D02*X94850D01*
Y119000D01*
X90350D01*
Y125000D01*
G37*
G36*
X95750D02*X100250D01*
Y119000D01*
X95750D01*
Y125000D01*
G37*
G54D11*X41000Y118000D02*X52550D01*
X96050Y119000D02*X98000D01*
X95000Y120050D02*X96050Y119000D01*
X95000Y123950D02*Y120050D01*
Y123950D02*X96050Y125000D01*
X98000D01*
G54D12*G36*
X99800D02*X104300D01*
Y119000D01*
X99800D01*
Y125000D01*
G37*
G36*
X105200D02*X109700D01*
Y119000D01*
X105200D01*
Y125000D01*
G37*
G36*
X110600D02*X115100D01*
Y119000D01*
X110600D01*
Y125000D01*
G37*
G36*
X116000D02*X120500D01*
Y119000D01*
X116000D01*
Y125000D01*
G37*
G54D11*X95000Y118000D02*X99800D01*
X130750Y125000D02*Y119000D01*
X130000Y125000D02*X133000D01*
X133750Y124250D01*
Y122750D01*
X133000Y122000D02*X133750Y122750D01*
X130750Y122000D02*X133000D01*
G54D12*G36*
X135550Y125000D02*X140050D01*
Y119000D01*
X135550D01*
Y125000D01*
G37*
G36*
X140950D02*X145450D01*
Y119000D01*
X140950D01*
Y125000D01*
G37*
G36*
X146350D02*X150850D01*
Y119000D01*
X146350D01*
Y125000D01*
G37*
G36*
X151750D02*X156250D01*
Y119000D01*
X151750D01*
Y125000D01*
G37*
G36*
X157150D02*X161650D01*
Y119000D01*
X157150D01*
Y125000D01*
G37*
G36*
X162550D02*X167050D01*
Y119000D01*
X162550D01*
Y125000D01*
G37*
G54D11*X130000Y118000D02*X135550D01*
X0Y140000D02*X3000D01*
X1500D02*Y134000D01*
G54D12*G36*
X4800Y140000D02*X9300D01*
Y134000D01*
X4800D01*
Y140000D01*
G37*
G36*
X10200D02*X14700D01*
Y134000D01*
X10200D01*
Y140000D01*
G37*
G36*
X15600D02*X20100D01*
Y134000D01*
X15600D01*
Y140000D01*
G37*
G36*
X21000D02*X25500D01*
Y134000D01*
X21000D01*
Y140000D01*
G37*
G36*
X29100D02*X33600D01*
Y134000D01*
X29100D01*
Y140000D01*
G37*
G36*
X34500D02*X39000D01*
Y134000D01*
X34500D01*
Y140000D01*
G37*
G36*
X39900D02*X44400D01*
Y134000D01*
X39900D01*
Y140000D01*
G37*
G36*
X48000D02*X52500D01*
Y134000D01*
X48000D01*
Y140000D01*
G37*
G36*
X56100D02*X60600D01*
Y134000D01*
X56100D01*
Y140000D01*
G37*
G36*
X61500D02*X66000D01*
Y134000D01*
X61500D01*
Y140000D01*
G37*
G36*
X66900D02*X71400D01*
Y134000D01*
X66900D01*
Y140000D01*
G37*
G36*
X72300D02*X76800D01*
Y134000D01*
X72300D01*
Y140000D01*
G37*
G36*
X77700D02*X82200D01*
Y134000D01*
X77700D01*
Y140000D01*
G37*
G36*
X83100D02*X87600D01*
Y134000D01*
X83100D01*
Y140000D01*
G37*
G36*
X88500D02*X93000D01*
Y134000D01*
X88500D01*
Y140000D01*
G37*
G36*
X93900D02*X98400D01*
Y134000D01*
X93900D01*
Y140000D01*
G37*
G36*
X99300D02*X103800D01*
Y134000D01*
X99300D01*
Y140000D01*
G37*
G36*
X107400D02*X111900D01*
Y134000D01*
X107400D01*
Y140000D01*
G37*
G36*
X112800D02*X117300D01*
Y134000D01*
X112800D01*
Y140000D01*
G37*
G36*
X118200D02*X122700D01*
Y134000D01*
X118200D01*
Y140000D01*
G37*
G36*
X123600D02*X128100D01*
Y134000D01*
X123600D01*
Y140000D01*
G37*
G36*
X129000D02*X133500D01*
Y134000D01*
X129000D01*
Y140000D01*
G37*
G36*
X137100D02*X141600D01*
Y134000D01*
X137100D01*
Y140000D01*
G37*
G36*
X142500D02*X147000D01*
Y134000D01*
X142500D01*
Y140000D01*
G37*
G36*
X147900D02*X152400D01*
Y134000D01*
X147900D01*
Y140000D01*
G37*
G36*
X153300D02*X157800D01*
Y134000D01*
X153300D01*
Y140000D01*
G37*
G36*
X158700D02*X163200D01*
Y134000D01*
X158700D01*
Y140000D01*
G37*
G36*
X166800D02*X171300D01*
Y134000D01*
X166800D01*
Y140000D01*
G37*
G36*
X172200D02*X176700D01*
Y134000D01*
X172200D01*
Y140000D01*
G37*
G36*
X177600D02*X182100D01*
Y134000D01*
X177600D01*
Y140000D01*
G37*
G36*
X183000D02*X187500D01*
Y134000D01*
X183000D01*
Y140000D01*
G37*
G36*
X191100D02*X195600D01*
Y134000D01*
X191100D01*
Y140000D01*
G37*
G36*
X196500D02*X201000D01*
Y134000D01*
X196500D01*
Y140000D01*
G37*
G36*
X204600D02*X209100D01*
Y134000D01*
X204600D01*
Y140000D01*
G37*
G36*
X210000D02*X214500D01*
Y134000D01*
X210000D01*
Y140000D01*
G37*
G36*
X215400D02*X219900D01*
Y134000D01*
X215400D01*
Y140000D01*
G37*
G36*
X220800D02*X225300D01*
Y134000D01*
X220800D01*
Y140000D01*
G37*
G36*
X228900D02*X233400D01*
Y134000D01*
X228900D01*
Y140000D01*
G37*
G36*
X234300D02*X238800D01*
Y134000D01*
X234300D01*
Y140000D01*
G37*
G36*
X239700D02*X244200D01*
Y134000D01*
X239700D01*
Y140000D01*
G37*
G36*
X245100D02*X249600D01*
Y134000D01*
X245100D01*
Y140000D01*
G37*
G36*
X250500D02*X255000D01*
Y134000D01*
X250500D01*
Y140000D01*
G37*
G36*
X255900D02*X260400D01*
Y134000D01*
X255900D01*
Y140000D01*
G37*
G36*
X261300D02*X265800D01*
Y134000D01*
X261300D01*
Y140000D01*
G37*
G36*
X269400D02*X273900D01*
Y134000D01*
X269400D01*
Y140000D01*
G37*
G36*
X277500D02*X282000D01*
Y134000D01*
X277500D01*
Y140000D01*
G37*
G36*
X282900D02*X287400D01*
Y134000D01*
X282900D01*
Y140000D01*
G37*
G36*
X288300D02*X292800D01*
Y134000D01*
X288300D01*
Y140000D01*
G37*
G36*
X293700D02*X298200D01*
Y134000D01*
X293700D01*
Y140000D01*
G37*
G36*
X299100D02*X303600D01*
Y134000D01*
X299100D01*
Y140000D01*
G37*
G36*
X307200D02*X311700D01*
Y134000D01*
X307200D01*
Y140000D01*
G37*
G36*
X312600D02*X317100D01*
Y134000D01*
X312600D01*
Y140000D01*
G37*
G36*
X318000D02*X322500D01*
Y134000D01*
X318000D01*
Y140000D01*
G37*
G36*
X323400D02*X327900D01*
Y134000D01*
X323400D01*
Y140000D01*
G37*
G36*
X328800D02*X333300D01*
Y134000D01*
X328800D01*
Y140000D01*
G37*
G54D13*X0Y50000D02*X50000D01*
X0D02*Y0D01*
X50000Y50000D02*Y0D01*
X0D02*X50000D01*
G54D11*X200000Y65000D02*Y59000D01*
Y65000D02*X202250Y62000D01*
X204500Y65000D01*
Y59000D01*
G54D12*G36*
X206300Y65000D02*X210800D01*
Y59000D01*
X206300D01*
Y65000D01*
G37*
G36*
X211700D02*X216200D01*
Y59000D01*
X211700D01*
Y65000D01*
G37*
G36*
X217100D02*X221600D01*
Y59000D01*
X217100D01*
Y65000D01*
G37*
G36*
X222500D02*X227000D01*
Y59000D01*
X222500D01*
Y65000D01*
G37*
G36*
X227900D02*X232400D01*
Y59000D01*
X227900D01*
Y65000D01*
G37*
G36*
X233300D02*X237800D01*
Y59000D01*
X233300D01*
Y65000D01*
G37*
G54D11*X242150D02*Y59000D01*
X244100Y65000D02*X245150Y63950D01*
Y60050D01*
X244100Y59000D02*X245150Y60050D01*
X241400Y59000D02*X244100D01*
X241400Y65000D02*X244100D01*
G54D12*G36*
X246950D02*X251450D01*
Y59000D01*
X246950D01*
Y65000D01*
G37*
G36*
X252350D02*X256850D01*
Y59000D01*
X252350D01*
Y65000D01*
G37*
G36*
X257750D02*X262250D01*
Y59000D01*
X257750D01*
Y65000D01*
G37*
G36*
X263150D02*X267650D01*
Y59000D01*
X263150D01*
Y65000D01*
G37*
G36*
X268550D02*X273050D01*
Y59000D01*
X268550D01*
Y65000D01*
G37*
G36*
X273950D02*X278450D01*
Y59000D01*
X273950D01*
Y65000D01*
G37*
G36*
X279350D02*X283850D01*
Y59000D01*
X279350D01*
Y65000D01*
G37*
G36*
X284750D02*X289250D01*
Y59000D01*
X284750D01*
Y65000D01*
G37*
G36*
X290150D02*X294650D01*
Y59000D01*
X290150D01*
Y65000D01*
G37*
G36*
X295550D02*X300050D01*
Y59000D01*
X295550D01*
Y65000D01*
G37*
G54D11*X303650D02*X306650D01*
X303650D02*Y62000D01*
X304400Y62750D01*
X305900D01*
X306650Y62000D01*
Y59750D01*
X305900Y59000D02*X306650Y59750D01*
X304400Y59000D02*X305900D01*
X303650Y59750D02*X304400Y59000D01*
G54D12*G36*
X308450Y65000D02*X312950D01*
Y59000D01*
X308450D01*
Y65000D01*
G37*
G36*
X313850D02*X318350D01*
Y59000D01*
X313850D01*
Y65000D01*
G37*
G36*
X319250D02*X323750D01*
Y59000D01*
X319250D01*
Y65000D01*
G37*
G36*
X324650D02*X329150D01*
Y59000D01*
X324650D01*
Y65000D01*
G37*
G36*
X330050D02*X334550D01*
Y59000D01*
X330050D01*
Y65000D01*
G37*
G36*
X335450D02*X339950D01*
Y59000D01*
X335450D01*
Y65000D01*
G37*
G36*
X340850D02*X345350D01*
Y59000D01*
X340850D01*
Y65000D01*
G37*
G36*
X346250D02*X350750D01*
Y59000D01*
X346250D01*
Y65000D01*
G37*
G36*
X351650D02*X356150D01*
Y59000D01*
X351650D01*
Y65000D01*
G37*
G36*
X359750D02*X364250D01*
Y59000D01*
X359750D01*
Y65000D01*
G37*
G36*
X365150D02*X369650D01*
Y59000D01*
X365150D01*
Y65000D01*
G37*
G36*
X370550D02*X375050D01*
Y59000D01*
X370550D01*
Y65000D01*
G37*
G36*
X375950D02*X380450D01*
Y59000D01*
X375950D01*
Y65000D01*
G37*
G36*
X384050D02*X388550D01*
Y59000D01*
X384050D01*
Y65000D01*
G37*
G36*
X389450D02*X393950D01*
Y59000D01*
X389450D01*
Y65000D01*
G37*
G36*
X394850D02*X399350D01*
Y59000D01*
X394850D01*
Y65000D01*
G37*
G36*
X400250D02*X404750D01*
Y59000D01*
X400250D01*
Y65000D01*
G37*
G36*
X405650D02*X410150D01*
Y59000D01*
X405650D01*
Y65000D01*
G37*
G54D11*X413750D02*X416750D01*
X413750D02*Y62000D01*
X414500Y62750D01*
X416000D01*
X416750Y62000D01*
Y59750D01*
X416000Y59000D02*X416750Y59750D01*
X414500Y59000D02*X416000D01*
X413750Y59750D02*X414500Y59000D01*
G54D12*G36*
X418550Y65000D02*X423050D01*
Y59000D01*
X418550D01*
Y65000D01*
G37*
G36*
X423950D02*X428450D01*
Y59000D01*
X423950D01*
Y65000D01*
G37*
G36*
X429350D02*X433850D01*
Y59000D01*
X429350D01*
Y65000D01*
G37*
G36*
X434750D02*X439250D01*
Y59000D01*
X434750D01*
Y65000D01*
G37*
G36*
X440150D02*X444650D01*
Y59000D01*
X440150D01*
Y65000D01*
G37*
G36*
X445550D02*X450050D01*
Y59000D01*
X445550D01*
Y65000D01*
G37*
G36*
X450950D02*X455450D01*
Y59000D01*
X450950D01*
Y65000D01*
G37*
G36*
X456350D02*X460850D01*
Y59000D01*
X456350D01*
Y65000D01*
G37*
G36*
X461750D02*X466250D01*
Y59000D01*
X461750D01*
Y65000D01*
G37*
G36*
X469850D02*X474350D01*
Y59000D01*
X469850D01*
Y65000D01*
G37*
G36*
X475250D02*X479750D01*
Y59000D01*
X475250D01*
Y65000D01*
G37*
G36*
X480650D02*X485150D01*
Y59000D01*
X480650D01*
Y65000D01*
G37*
G36*
X486050D02*X490550D01*
Y59000D01*
X486050D01*
Y65000D01*
G37*
G36*
X494150D02*X498650D01*
Y59000D01*
X494150D01*
Y65000D01*
G37*
G36*
X499550D02*X504050D01*
Y59000D01*
X499550D01*
Y65000D01*
G37*
G36*
X504950D02*X509450D01*
Y59000D01*
X504950D01*
Y65000D01*
G37*
G36*
X510350D02*X514850D01*
Y59000D01*
X510350D01*
Y65000D01*
G37*
G54D11*X0Y-8000D02*X3000D01*
X3750Y-7250D01*
Y-5450D02*Y-7250D01*
X3000Y-4700D02*X3750Y-5450D01*
X750Y-4700D02*X3000D01*
X750Y-2000D02*Y-8000D01*
X0Y-2000D02*X3000D01*
X3750Y-2750D01*
Y-3950D01*
X3000Y-4700D02*X3750Y-3950D01*
G54D12*G36*
X5550Y-2000D02*X10050D01*
Y-8000D01*
X5550D01*
Y-2000D01*
G37*
G36*
X10950D02*X15450D01*
Y-8000D01*
X10950D01*
Y-2000D01*
G37*
G36*
X16350D02*X20850D01*
Y-8000D01*
X16350D01*
Y-2000D01*
G37*
G36*
X21750D02*X26250D01*
Y-8000D01*
X21750D01*
Y-2000D01*
G37*
G36*
X29850D02*X34350D01*
Y-8000D01*
X29850D01*
Y-2000D01*
G37*
G36*
X35250D02*X39750D01*
Y-8000D01*
X35250D01*
Y-2000D01*
G37*
G36*
X40650D02*X45150D01*
Y-8000D01*
X40650D01*
Y-2000D01*
G37*
G36*
X46050D02*X50550D01*
Y-8000D01*
X46050D01*
Y-2000D01*
G37*
G36*
X51450D02*X55950D01*
Y-8000D01*
X51450D01*
Y-2000D01*
G37*
G36*
X56850D02*X61350D01*
Y-8000D01*
X56850D01*
Y-2000D01*
G37*
G36*
X62250D02*X66750D01*
Y-8000D01*
X62250D01*
Y-2000D01*
G37*
G36*
X70350D02*X74850D01*
Y-8000D01*
X70350D01*
Y-2000D01*
G37*
G36*
X75750D02*X80250D01*
Y-8000D01*
X75750D01*
Y-2000D01*
G37*
G36*
X83850D02*X88350D01*
Y-8000D01*
X83850D01*
Y-2000D01*
G37*
G36*
X89250D02*X93750D01*
Y-8000D01*
X89250D01*
Y-2000D01*
G37*
G36*
X94650D02*X99150D01*
Y-8000D01*
X94650D01*
Y-2000D01*
G37*
G36*
X102750D02*X107250D01*
Y-8000D01*
X102750D01*
Y-2000D01*
G37*
G36*
X108150D02*X112650D01*
Y-8000D01*
X108150D01*
Y-2000D01*
G37*
G36*
X113550D02*X118050D01*
Y-8000D01*
X113550D01*
Y-2000D01*
G37*
G36*
X118950D02*X123450D01*
Y-8000D01*
X118950D01*
Y-2000D01*
G37*
G36*
X124350D02*X128850D01*
Y-8000D01*
X124350D01*
Y-2000D01*
G37*
G36*
X129750D02*X134250D01*
Y-8000D01*
X129750D01*
Y-2000D01*
G37*
G36*
X135150D02*X139650D01*
Y-8000D01*
X135150D01*
Y-2000D01*
G37*
G36*
X140550D02*X145050D01*
Y-8000D01*
X140550D01*
Y-2000D01*
G37*
G36*
X145950D02*X150450D01*
Y-8000D01*
X145950D01*
Y-2000D01*
G37*
G36*
X151350D02*X155850D01*
Y-8000D01*
X151350D01*
Y-2000D01*
G37*
G36*
X159450D02*X163950D01*
Y-8000D01*
X159450D01*
Y-2000D01*
G37*
G36*
X164850D02*X169350D01*
Y-8000D01*
X164850D01*
Y-2000D01*
G37*
G36*
X172950D02*X177450D01*
Y-8000D01*
X172950D01*
Y-2000D01*
G37*
G36*
X178350D02*X182850D01*
Y-8000D01*
X178350D01*
Y-2000D01*
G37*
G36*
X183750D02*X188250D01*
Y-8000D01*
X183750D01*
Y-2000D01*
G37*
G36*
X189150D02*X193650D01*
Y-8000D01*
X189150D01*
Y-2000D01*
G37*
G54D11*X197250Y-7250D02*X198000Y-8000D01*
X197250Y-6050D02*Y-7250D01*
Y-6050D02*X198300Y-5000D01*
X199200D01*
X200250Y-6050D01*
Y-7250D01*
X199500Y-8000D02*X200250Y-7250D01*
X198000Y-8000D02*X199500D01*
X197250Y-3950D02*X198300Y-5000D01*
X197250Y-2750D02*Y-3950D01*
Y-2750D02*X198000Y-2000D01*
X199500D01*
X200250Y-2750D01*
Y-3950D01*
X199200Y-5000D02*X200250Y-3950D01*
G54D12*G36*
X202050Y-2000D02*X206550D01*
Y-8000D01*
X202050D01*
Y-2000D01*
G37*
G36*
X207450D02*X211950D01*
Y-8000D01*
X207450D01*
Y-2000D01*
G37*
G36*
X212850D02*X217350D01*
Y-8000D01*
X212850D01*
Y-2000D01*
G37*
G36*
X218250D02*X222750D01*
Y-8000D01*
X218250D01*
Y-2000D01*
G37*
G36*
X223650D02*X228150D01*
Y-8000D01*
X223650D01*
Y-2000D01*
G37*
G36*
X229050D02*X233550D01*
Y-8000D01*
X229050D01*
Y-2000D01*
G37*
G36*
X234450D02*X238950D01*
Y-8000D01*
X234450D01*
Y-2000D01*
G37*
G36*
X242550D02*X247050D01*
Y-8000D01*
X242550D01*
Y-2000D01*
G37*
G36*
X247950D02*X252450D01*
Y-8000D01*
X247950D01*
Y-2000D01*
G37*
G36*
X253350D02*X257850D01*
Y-8000D01*
X253350D01*
Y-2000D01*
G37*
G36*
X261450D02*X265950D01*
Y-8000D01*
X261450D01*
Y-2000D01*
G37*
G36*
X266850D02*X271350D01*
Y-8000D01*
X266850D01*
Y-2000D01*
G37*
G36*
X272250D02*X276750D01*
Y-8000D01*
X272250D01*
Y-2000D01*
G37*
G36*
X277650D02*X282150D01*
Y-8000D01*
X277650D01*
Y-2000D01*
G37*
G36*
X283050D02*X287550D01*
Y-8000D01*
X283050D01*
Y-2000D01*
G37*
G36*
X288450D02*X292950D01*
Y-8000D01*
X288450D01*
Y-2000D01*
G37*
G36*
X293850D02*X298350D01*
Y-8000D01*
X293850D01*
Y-2000D01*
G37*
G36*
X299250D02*X303750D01*
Y-8000D01*
X299250D01*
Y-2000D01*
G37*
G36*
X304650D02*X309150D01*
Y-8000D01*
X304650D01*
Y-2000D01*
G37*
G36*
X312750D02*X317250D01*
Y-8000D01*
X312750D01*
Y-2000D01*
G37*
G36*
X320850D02*X325350D01*
Y-8000D01*
X320850D01*
Y-2000D01*
G37*
G36*
X326250D02*X330750D01*
Y-8000D01*
X326250D01*
Y-2000D01*
G37*
G36*
X331650D02*X336150D01*
Y-8000D01*
X331650D01*
Y-2000D01*
G37*
G36*
X339750D02*X344250D01*
Y-8000D01*
X339750D01*
Y-2000D01*
G37*
G36*
X345150D02*X349650D01*
Y-8000D01*
X345150D01*
Y-2000D01*
G37*
G54D11*X353250D02*X356250D01*
X353250D02*Y-5000D01*
X354000Y-4250D01*
X355500D01*
X356250Y-5000D01*
Y-7250D01*
X355500Y-8000D02*X356250Y-7250D01*
X354000Y-8000D02*X355500D01*
X353250Y-7250D02*X354000Y-8000D01*
G54D12*G36*
X358050Y-2000D02*X362550D01*
Y-8000D01*
X358050D01*
Y-2000D01*
G37*
G36*
X363450D02*X367950D01*
Y-8000D01*
X363450D01*
Y-2000D01*
G37*
G36*
X368850D02*X373350D01*
Y-8000D01*
X368850D01*
Y-2000D01*
G37*
G36*
X374250D02*X378750D01*
Y-8000D01*
X374250D01*
Y-2000D01*
G37*
G36*
X379650D02*X384150D01*
Y-8000D01*
X379650D01*
Y-2000D01*
G37*
G36*
X385050D02*X389550D01*
Y-8000D01*
X385050D01*
Y-2000D01*
G37*
G36*
X390450D02*X394950D01*
Y-8000D01*
X390450D01*
Y-2000D01*
G37*
G36*
X395850D02*X400350D01*
Y-8000D01*
X395850D01*
Y-2000D01*
G37*
G36*
X401250D02*X405750D01*
Y-8000D01*
X401250D01*
Y-2000D01*
G37*
G36*
X406650D02*X411150D01*
Y-8000D01*
X406650D01*
Y-2000D01*
G37*
G54D11*X412050D02*X415050D01*
X412050D02*Y-5000D01*
X412800Y-4250D01*
X414300D01*
X415050Y-5000D01*
Y-7250D01*
X414300Y-8000D02*X415050Y-7250D01*
X412800Y-8000D02*X414300D01*
X412050Y-7250D02*X412800Y-8000D01*
G54D12*G36*
X416850Y-2000D02*X421350D01*
Y-8000D01*
X416850D01*
Y-2000D01*
G37*
G36*
X422250D02*X426750D01*
Y-8000D01*
X422250D01*
Y-2000D01*
G37*
G36*
X427650D02*X432150D01*
Y-8000D01*
X427650D01*
Y-2000D01*
G37*
G36*
X433050D02*X437550D01*
Y-8000D01*
X433050D01*
Y-2000D01*
G37*
G36*
X438450D02*X442950D01*
Y-8000D01*
X438450D01*
Y-2000D01*
G37*
G36*
X443850D02*X448350D01*
Y-8000D01*
X443850D01*
Y-2000D01*
G37*
G36*
X449250D02*X453750D01*
Y-8000D01*
X449250D01*
Y-2000D01*
G37*
G36*
X454650D02*X459150D01*
Y-8000D01*
X454650D01*
Y-2000D01*
G37*
G36*
X460050D02*X464550D01*
Y-8000D01*
X460050D01*
Y-2000D01*
G37*
G36*
X468150D02*X472650D01*
Y-8000D01*
X468150D01*
Y-2000D01*
G37*
G36*
X473550D02*X478050D01*
Y-8000D01*
X473550D01*
Y-2000D01*
G37*
G36*
X478950D02*X483450D01*
Y-8000D01*
X478950D01*
Y-2000D01*
G37*
G36*
X484350D02*X488850D01*
Y-8000D01*
X484350D01*
Y-2000D01*
G37*
G54D11*X200750Y80000D02*Y74000D01*
X202700Y80000D02*X203750Y78950D01*
Y75050D01*
X202700Y74000D02*X203750Y75050D01*
X200000Y74000D02*X202700D01*
X200000Y80000D02*X202700D01*
G54D12*G36*
X205550D02*X210050D01*
Y74000D01*
X205550D01*
Y80000D01*
G37*
G36*
X210950D02*X215450D01*
Y74000D01*
X210950D01*
Y80000D01*
G37*
G36*
X216350D02*X220850D01*
Y74000D01*
X216350D01*
Y80000D01*
G37*
G36*
X221750D02*X226250D01*
Y74000D01*
X221750D01*
Y80000D01*
G37*
G36*
X229850D02*X234350D01*
Y74000D01*
X229850D01*
Y80000D01*
G37*
G36*
X235250D02*X239750D01*
Y74000D01*
X235250D01*
Y80000D01*
G37*
G36*
X240650D02*X245150D01*
Y74000D01*
X240650D01*
Y80000D01*
G37*
G36*
X246050D02*X250550D01*
Y74000D01*
X246050D01*
Y80000D01*
G37*
G36*
X251450D02*X255950D01*
Y74000D01*
X251450D01*
Y80000D01*
G37*
G36*
X256850D02*X261350D01*
Y74000D01*
X256850D01*
Y80000D01*
G37*
G54D11*X200000Y93500D02*Y89000D01*
Y93500D02*X201050Y95000D01*
X202700D01*
X203750Y93500D01*
Y89000D01*
X200000Y92000D02*X203750D01*
G54D12*G36*
X205550Y95000D02*X210050D01*
Y89000D01*
X205550D01*
Y95000D01*
G37*
G36*
X210950D02*X215450D01*
Y89000D01*
X210950D01*
Y95000D01*
G37*
G36*
X216350D02*X220850D01*
Y89000D01*
X216350D01*
Y95000D01*
G37*
G36*
X221750D02*X226250D01*
Y89000D01*
X221750D01*
Y95000D01*
G37*
G36*
X227150D02*X231650D01*
Y89000D01*
X227150D01*
Y95000D01*
G37*
G36*
X232550D02*X237050D01*
Y89000D01*
X232550D01*
Y95000D01*
G37*
G54D11*X240650D02*X243650D01*
X242150D02*Y89000D01*
X245450Y92300D02*X247700D01*
X245450Y89000D02*X248450D01*
X245450Y95000D02*Y89000D01*
Y95000D02*X248450D01*
X253250D02*X254000Y94250D01*
X251000Y95000D02*X253250D01*
X250250Y94250D02*X251000Y95000D01*
X250250Y94250D02*Y92750D01*
X251000Y92000D01*
X253250D01*
X254000Y91250D01*
Y89750D01*
X253250Y89000D02*X254000Y89750D01*
X251000Y89000D02*X253250D01*
X250250Y89750D02*X251000Y89000D01*
X255800Y95000D02*X258800D01*
X257300D02*Y89000D01*
X200000Y110000D02*X203000D01*
X201500D02*Y104000D01*
G54D12*G36*
X204800Y110000D02*X209300D01*
Y104000D01*
X204800D01*
Y110000D01*
G37*
G36*
X210200D02*X214700D01*
Y104000D01*
X210200D01*
Y110000D01*
G37*
G36*
X215600D02*X220100D01*
Y104000D01*
X215600D01*
Y110000D01*
G37*
G36*
X221000D02*X225500D01*
Y104000D01*
X221000D01*
Y110000D01*
G37*
G36*
X226400D02*X230900D01*
Y104000D01*
X226400D01*
Y110000D01*
G37*
G36*
X234500D02*X239000D01*
Y104000D01*
X234500D01*
Y110000D01*
G37*
G36*
X239900D02*X244400D01*
Y104000D01*
X239900D01*
Y110000D01*
G37*
G36*
X245300D02*X249800D01*
Y104000D01*
X245300D01*
Y110000D01*
G37*
G36*
X250700D02*X255200D01*
Y104000D01*
X250700D01*
Y110000D01*
G37*
G36*
X256100D02*X260600D01*
Y104000D01*
X256100D01*
Y110000D01*
G37*
G36*
X264200D02*X268700D01*
Y104000D01*
X264200D01*
Y110000D01*
G37*
G36*
X269600D02*X274100D01*
Y104000D01*
X269600D01*
Y110000D01*
G37*
G36*
X275000D02*X279500D01*
Y104000D01*
X275000D01*
Y110000D01*
G37*
G36*
X280400D02*X284900D01*
Y104000D01*
X280400D01*
Y110000D01*
G37*
G36*
X288500D02*X293000D01*
Y104000D01*
X288500D01*
Y110000D01*
G37*
G36*
X293900D02*X298400D01*
Y104000D01*
X293900D01*
Y110000D01*
G37*
G36*
X299300D02*X303800D01*
Y104000D01*
X299300D01*
Y110000D01*
G37*
G36*
X304700D02*X309200D01*
Y104000D01*
X304700D01*
Y110000D01*
G37*
G36*
X310100D02*X314600D01*
Y104000D01*
X310100D01*
Y110000D01*
G37*
G36*
X318200D02*X322700D01*
Y104000D01*
X318200D01*
Y110000D01*
G37*
G36*
X323600D02*X328100D01*
Y104000D01*
X323600D01*
Y110000D01*
G37*
G36*
X329000D02*X333500D01*
Y104000D01*
X329000D01*
Y110000D01*
G37*
G36*
X334400D02*X338900D01*
Y104000D01*
X334400D01*
Y110000D01*
G37*
G36*
X339800D02*X344300D01*
Y104000D01*
X339800D01*
Y110000D01*
G37*
G36*
X345200D02*X349700D01*
Y104000D01*
X345200D01*
Y110000D01*
G37*
G36*
X350600D02*X355100D01*
Y104000D01*
X350600D01*
Y110000D01*
G37*
G36*
X356000D02*X360500D01*
Y104000D01*
X356000D01*
Y110000D01*
G37*
G36*
X361400D02*X365900D01*
Y104000D01*
X361400D01*
Y110000D01*
G37*
G36*
X369500D02*X374000D01*
Y104000D01*
X369500D01*
Y110000D01*
G37*
G36*
X374900D02*X379400D01*
Y104000D01*
X374900D01*
Y110000D01*
G37*
G36*
X380300D02*X384800D01*
Y104000D01*
X380300D01*
Y110000D01*
G37*
G36*
X385700D02*X390200D01*
Y104000D01*
X385700D01*
Y110000D01*
G37*
G36*
X391100D02*X395600D01*
Y104000D01*
X391100D01*
Y110000D01*
G37*
G36*
X396500D02*X401000D01*
Y104000D01*
X396500D01*
Y110000D01*
G37*
G36*
X401900D02*X406400D01*
Y104000D01*
X401900D01*
Y110000D01*
G37*
G36*
X407300D02*X411800D01*
Y104000D01*
X407300D01*
Y110000D01*
G37*
G36*
X412700D02*X417200D01*
Y104000D01*
X412700D01*
Y110000D01*
G37*
G36*
X418100D02*X422600D01*
Y104000D01*
X418100D01*
Y110000D01*
G37*
G36*
X423500D02*X428000D01*
Y104000D01*
X423500D01*
Y110000D01*
G37*
G36*
X431600D02*X436100D01*
Y104000D01*
X431600D01*
Y110000D01*
G37*
G36*
X437000D02*X441500D01*
Y104000D01*
X437000D01*
Y110000D01*
G37*
G36*
X445100D02*X449600D01*
Y104000D01*
X445100D01*
Y110000D01*
G37*
G36*
X450500D02*X455000D01*
Y104000D01*
X450500D01*
Y110000D01*
G37*
G36*
X455900D02*X460400D01*
Y104000D01*
X455900D01*
Y110000D01*
G37*
G36*
X461300D02*X465800D01*
Y104000D01*
X461300D01*
Y110000D01*
G37*
G36*
X466700D02*X471200D01*
Y104000D01*
X466700D01*
Y110000D01*
G37*
G36*
X474800D02*X479300D01*
Y104000D01*
X474800D01*
Y110000D01*
G37*
G36*
X480200D02*X484700D01*
Y104000D01*
X480200D01*
Y110000D01*
G37*
G36*
X485600D02*X490100D01*
Y104000D01*
X485600D01*
Y110000D01*
G37*
G36*
X491000D02*X495500D01*
Y104000D01*
X491000D01*
Y110000D01*
G37*
G36*
X499100D02*X503600D01*
Y104000D01*
X499100D01*
Y110000D01*
G37*
G54D11*X507200D02*Y104000D01*
Y110000D02*X510200D01*
X507200Y107300D02*X509450D01*
G54D12*G36*
X512000Y110000D02*X516500D01*
Y104000D01*
X512000D01*
Y110000D01*
G37*
G36*
X517400D02*X521900D01*
Y104000D01*
X517400D01*
Y110000D01*
G37*
G36*
X522800D02*X527300D01*
Y104000D01*
X522800D01*
Y110000D01*
G37*
G36*
X528200D02*X532700D01*
Y104000D01*
X528200D01*
Y110000D01*
G37*
G36*
X533600D02*X538100D01*
Y104000D01*
X533600D01*
Y110000D01*
G37*
G36*
X539000D02*X543500D01*
Y104000D01*
X539000D01*
Y110000D01*
G37*
G36*
X544400D02*X548900D01*
Y104000D01*
X544400D01*
Y110000D01*
G37*
G36*
X549800D02*X554300D01*
Y104000D01*
X549800D01*
Y110000D01*
G37*
G36*
X555200D02*X559700D01*
Y104000D01*
X555200D01*
Y110000D01*
G37*
G36*
X560600D02*X565100D01*
Y104000D01*
X560600D01*
Y110000D01*
G37*
G54D11*X569450D02*Y104000D01*
X571400Y110000D02*X572450Y108950D01*
Y105050D01*
X571400Y104000D02*X572450Y105050D01*
X568700Y104000D02*X571400D01*
X568700Y110000D02*X571400D01*
G54D12*G36*
X574250D02*X578750D01*
Y104000D01*
X574250D01*
Y110000D01*
G37*
G36*
X579650D02*X584150D01*
Y104000D01*
X579650D01*
Y110000D01*
G37*
G36*
X585050D02*X589550D01*
Y104000D01*
X585050D01*
Y110000D01*
G37*
G36*
X590450D02*X594950D01*
Y104000D01*
X590450D01*
Y110000D01*
G37*
G36*
X595850D02*X600350D01*
Y104000D01*
X595850D01*
Y110000D01*
G37*
G36*
X601250D02*X605750D01*
Y104000D01*
X601250D01*
Y110000D01*
G37*
M02*
