<?xml version="1.0" encoding="UTF-8" standalone="no"?>
<!DOCTYPE svg PUBLIC "-//W3C//DTD SVG 1.1//EN"
 "http://www.w3.org/Graphics/SVG/1.1/DTD/svg11.dtd">
<!-- Generated by graphviz version 2.26.3 (20100126.1600)
 -->
<!-- Title: parse_state_macine Pages: 1 -->
<svg width="1900pt" height="1666pt"
 viewBox="0.00 0.00 1900.00 1666.00" xmlns="http://www.w3.org/2000/svg" xmlns:xlink="http://www.w3.org/1999/xlink">
<g id="graph1" class="graph" transform="scale(1 1) rotate(0) translate(4 1662)">
<title>parse_state_macine</title>
<polygon fill="white" stroke="white" points="-4,5 -4,-1662 1897,-1662 1897,5 -4,5"/>
<!-- MSG -->
<g id="node1" class="node"><title>MSG</title>
<polygon fill="yellow" stroke="black" points="261,-1585.5 135,-1585.5 135,-1492.5 261,-1492.5 261,-1585.5"/>
<text text-anchor="middle" x="198" y="-1568.9" font-family="Times Roman,serif" font-size="14.00">MSG:</text>
<text text-anchor="middle" x="198" y="-1551.9" font-family="Times Roman,serif" font-size="14.00">message lead&#45;in</text>
<text text-anchor="middle" x="198" y="-1534.9" font-family="Times Roman,serif" font-size="14.00">or</text>
<text text-anchor="middle" x="198" y="-1517.9" font-family="Times Roman,serif" font-size="14.00">between</text>
<text text-anchor="middle" x="198" y="-1500.9" font-family="Times Roman,serif" font-size="14.00">messages</text>
</g>
<!-- lbl2 -->
<g id="node11" class="node"><title>lbl2</title>
<polygon fill="#fefefe" stroke="#fefefe" points="125,-1453 37,-1453 37,-1417 125,-1417 125,-1453"/>
<text text-anchor="middle" x="81" y="-1430.9" font-family="Times Roman,serif" font-size="14.00">input==#</text>
</g>
<!-- MSG&#45;&gt;lbl2 -->
<g id="edge4" class="edge"><title>MSG&#45;&gt;lbl2</title>
<path fill="none" stroke="blue" d="M145.66,-1492.48C129.962,-1478.52 113.666,-1464.04 101.361,-1453.1"/>
</g>
<!-- lbl3 -->
<g id="node14" class="node"><title>lbl3</title>
<polygon fill="#fefefe" stroke="#fefefe" points="253,-1456 143,-1456 143,-1414 253,-1414 253,-1456"/>
<text text-anchor="middle" x="198" y="-1439.4" font-family="Times Roman,serif" font-size="14.00">input==\r\n\t</text>
<text text-anchor="middle" x="198" y="-1422.4" font-family="Times Roman,serif" font-size="14.00">space</text>
</g>
<!-- MSG&#45;&gt;lbl3 -->
<g id="edge8" class="edge"><title>MSG&#45;&gt;lbl3</title>
<path fill="none" stroke="blue" d="M191.283,-1492.48C191.129,-1479.82 191.512,-1466.73 192.434,-1456.24"/>
</g>
<!-- lbl4 -->
<g id="node17" class="node"><title>lbl4</title>
<polygon fill="#fefefe" stroke="#fefefe" points="332,-328 212,-328 212,-292 332,-292 332,-328"/>
<text text-anchor="middle" x="272" y="-305.9" font-family="Times Roman,serif" font-size="14.00">input==binary</text>
</g>
<!-- MSG&#45;&gt;lbl4 -->
<g id="edge12" class="edge"><title>MSG&#45;&gt;lbl4</title>
<path fill="none" stroke="black" d="M240.148,-1492.37C248.51,-1481.11 256.418,-1468.65 262,-1456 281.673,-1411.41 281,-1396.74 281,-1348 281,-1348 281,-1348 281,-490 281,-430.707 276.068,-360.565 273.506,-328.125"/>
</g>
<!-- lbl5 -->
<g id="node20" class="node"><title>lbl5</title>
<polygon fill="#fefefe" stroke="#fefefe" points="445,-1453 341,-1453 341,-1417 445,-1417 445,-1453"/>
<text text-anchor="middle" x="393" y="-1430.9" font-family="Times Roman,serif" font-size="14.00">input==text</text>
</g>
<!-- MSG&#45;&gt;lbl5 -->
<g id="edge16" class="edge"><title>MSG&#45;&gt;lbl5</title>
<path fill="none" stroke="black" d="M261.042,-1505.38C293.645,-1487.99 332.147,-1467.45 359.12,-1453.07"/>
</g>
<!-- COMMENT -->
<g id="node2" class="node"><title>COMMENT</title>
<polygon fill="yellow" stroke="black" points="164,-1369 24,-1369 24,-1327 164,-1327 164,-1369"/>
<text text-anchor="middle" x="94" y="-1352.4" font-family="Times Roman,serif" font-size="14.00">COMMENT:</text>
<text text-anchor="middle" x="94" y="-1335.4" font-family="Times Roman,serif" font-size="14.00">skipping comment</text>
</g>
<!-- COMMENT&#45;&gt;COMMENT -->
<g id="edge26" class="edge"><title>COMMENT&#45;&gt;COMMENT</title>
<path fill="none" stroke="blue" d="M164.071,-1362.7C174.749,-1360.46 182,-1355.56 182,-1348 182,-1343.04 178.877,-1339.22 173.712,-1336.55"/>
<polygon fill="blue" stroke="blue" points="174.665,-1333.18 164.071,-1333.3 172.425,-1339.81 174.665,-1333.18"/>
</g>
<!-- lbl7 -->
<g id="node24" class="node"><title>lbl7</title>
<polygon fill="#fefefe" stroke="#fefefe" points="90,-1279 1.42109e-14,-1279 0,-1243 90,-1243 90,-1279"/>
<text text-anchor="middle" x="45" y="-1256.9" font-family="Times Roman,serif" font-size="14.00">input==\n</text>
</g>
<!-- COMMENT&#45;&gt;lbl7 -->
<g id="edge22" class="edge"><title>COMMENT&#45;&gt;lbl7</title>
<path fill="none" stroke="blue" d="M82.1385,-1326.94C73.9246,-1312.36 63.1009,-1293.14 55.2589,-1279.21"/>
</g>
<!-- CMD -->
<g id="node3" class="node"><title>CMD</title>
<polygon fill="yellow" stroke="black" points="547,-1282 367,-1282 367,-1240 547,-1240 547,-1282"/>
<text text-anchor="middle" x="457" y="-1265.4" font-family="Times Roman,serif" font-size="14.00">CMD:</text>
<text text-anchor="middle" x="457" y="-1248.4" font-family="Times Roman,serif" font-size="14.00">parsing command name</text>
</g>
<!-- lbl12 -->
<g id="node37" class="node"><title>lbl12</title>
<polygon fill="#fefefe" stroke="#fefefe" points="1105,-1204 1015,-1204 1015,-1168 1105,-1168 1105,-1204"/>
<text text-anchor="middle" x="1060" y="-1181.9" font-family="Times Roman,serif" font-size="14.00">input==({</text>
</g>
<!-- CMD&#45;&gt;lbl12 -->
<g id="edge38" class="edge"><title>CMD&#45;&gt;lbl12</title>
<path fill="none" stroke="black" d="M547.275,-1249.77C678.202,-1233.49 915.922,-1203.92 1014.88,-1191.61"/>
</g>
<!-- lbl13 -->
<g id="node40" class="node"><title>lbl13</title>
<polygon fill="#fefefe" stroke="#fefefe" points="429,-1108 309,-1108 309,-1072 429,-1072 429,-1108"/>
<text text-anchor="middle" x="369" y="-1085.9" font-family="Times Roman,serif" font-size="14.00">input==binary</text>
</g>
<!-- CMD&#45;&gt;lbl13 -->
<g id="edge42" class="edge"><title>CMD&#45;&gt;lbl13</title>
<path fill="none" stroke="black" d="M446.033,-1239.69C428.571,-1205.76 394.751,-1140.04 378.359,-1108.19"/>
</g>
<!-- lbl14 -->
<g id="node43" class="node"><title>lbl14</title>
<polygon fill="#fefefe" stroke="#fefefe" points="615,-1204 511,-1204 511,-1168 615,-1168 615,-1204"/>
<text text-anchor="middle" x="563" y="-1181.9" font-family="Times Roman,serif" font-size="14.00">input==text</text>
</g>
<!-- CMD&#45;&gt;lbl14 -->
<g id="edge46" class="edge"><title>CMD&#45;&gt;lbl14</title>
<path fill="none" stroke="black" d="M486.809,-1239.91C502.73,-1228.64 522.129,-1214.92 537.368,-1204.14"/>
</g>
<!-- TSTR -->
<g id="node4" class="node"><title>TSTR</title>
<polygon fill="yellow" stroke="black" points="930,-586 788,-586 788,-544 930,-544 930,-586"/>
<text text-anchor="middle" x="859" y="-569.4" font-family="Times Roman,serif" font-size="14.00">TSTR:</text>
<text text-anchor="middle" x="859" y="-552.4" font-family="Times Roman,serif" font-size="14.00">parsing test string</text>
</g>
<!-- lbl30 -->
<g id="node90" class="node"><title>lbl30</title>
<polygon fill="#fefefe" stroke="#fefefe" points="758,-508 644,-508 644,-472 758,-472 758,-508"/>
<text text-anchor="middle" x="701" y="-485.9" font-family="Times Roman,serif" font-size="14.00">input==space</text>
</g>
<!-- TSTR&#45;&gt;lbl30 -->
<g id="edge102" class="edge"><title>TSTR&#45;&gt;lbl30</title>
<path fill="none" stroke="black" d="M814.568,-543.909C790.745,-532.601 761.699,-518.813 738.945,-508.012"/>
</g>
<!-- lbl31 -->
<g id="node93" class="node"><title>lbl31</title>
<polygon fill="#fefefe" stroke="#fefefe" points="904,-508 814,-508 814,-472 904,-472 904,-508"/>
<text text-anchor="middle" x="859" y="-485.9" font-family="Times Roman,serif" font-size="14.00">input==)}</text>
</g>
<!-- TSTR&#45;&gt;lbl31 -->
<g id="edge106" class="edge"><title>TSTR&#45;&gt;lbl31</title>
<path fill="none" stroke="black" d="M859,-543.709C859,-532.449 859,-518.775 859,-508.042"/>
</g>
<!-- lbl32 -->
<g id="node96" class="node"><title>lbl32</title>
<polygon fill="#fefefe" stroke="#fefefe" points="842,-328 722,-328 722,-292 842,-292 842,-328"/>
<text text-anchor="middle" x="782" y="-305.9" font-family="Times Roman,serif" font-size="14.00">input==binary</text>
</g>
<!-- TSTR&#45;&gt;lbl32 -->
<g id="edge110" class="edge"><title>TSTR&#45;&gt;lbl32</title>
<path fill="none" stroke="black" d="M832.535,-543.784C822.209,-534.02 811.346,-521.585 805,-508 776.513,-447.017 778.036,-364.405 780.412,-328.232"/>
</g>
<!-- lbl33 -->
<g id="node99" class="node"><title>lbl33</title>
<polygon fill="#fefefe" stroke="#fefefe" points="1026,-508 922,-508 922,-472 1026,-472 1026,-508"/>
<text text-anchor="middle" x="974" y="-485.9" font-family="Times Roman,serif" font-size="14.00">input==text</text>
</g>
<!-- TSTR&#45;&gt;lbl33 -->
<g id="edge114" class="edge"><title>TSTR&#45;&gt;lbl33</title>
<path fill="none" stroke="black" d="M891.34,-543.909C908.613,-532.644 929.659,-518.918 946.192,-508.136"/>
</g>
<!-- BSTR -->
<g id="node5" class="node"><title>BSTR</title>
<polygon fill="yellow" stroke="black" points="1306,-586 1170,-586 1170,-544 1306,-544 1306,-586"/>
<text text-anchor="middle" x="1238" y="-569.4" font-family="Times Roman,serif" font-size="14.00">BSTR:</text>
<text text-anchor="middle" x="1238" y="-552.4" font-family="Times Roman,serif" font-size="14.00">parsing bin string</text>
</g>
<!-- lbl36 -->
<g id="node105" class="node"><title>lbl36</title>
<polygon fill="#fefefe" stroke="#fefefe" points="1442,-508 1338,-508 1338,-472 1442,-472 1442,-508"/>
<text text-anchor="middle" x="1390" y="-485.9" font-family="Times Roman,serif" font-size="14.00">before the =</text>
</g>
<!-- BSTR&#45;&gt;lbl36 -->
<g id="edge122" class="edge"><title>BSTR&#45;&gt;lbl36</title>
<path fill="none" stroke="black" d="M1280.74,-543.909C1303.66,-532.601 1331.61,-518.813 1353.5,-508.012"/>
</g>
<!-- lbl37 -->
<g id="node108" class="node"><title>lbl37</title>
<polygon fill="#fefefe" stroke="#fefefe" points="1138,-508 1044,-508 1044,-472 1138,-472 1138,-508"/>
<text text-anchor="middle" x="1091" y="-485.9" font-family="Times Roman,serif" font-size="14.00">after the =</text>
</g>
<!-- BSTR&#45;&gt;lbl37 -->
<g id="edge126" class="edge"><title>BSTR&#45;&gt;lbl37</title>
<path fill="none" stroke="black" d="M1196.66,-543.909C1174.58,-532.644 1147.68,-518.918 1126.55,-508.136"/>
</g>
<!-- lbl38 -->
<g id="node111" class="node"><title>lbl38</title>
<polygon fill="#fefefe" stroke="#fefefe" points="1320,-508 1156,-508 1156,-472 1320,-472 1320,-508"/>
<text text-anchor="middle" x="1238" y="-485.9" font-family="Times Roman,serif" font-size="14.00">last char of the string</text>
</g>
<!-- BSTR&#45;&gt;lbl38 -->
<g id="edge130" class="edge"><title>BSTR&#45;&gt;lbl38</title>
<path fill="none" stroke="black" d="M1238,-543.709C1238,-532.449 1238,-518.775 1238,-508.042"/>
</g>
<!-- LIST -->
<g id="node6" class="node"><title>LIST</title>
<polygon fill="yellow" stroke="black" points="1499,-1012 1445,-1012 1445,-970 1499,-970 1499,-1012"/>
<text text-anchor="middle" x="1472" y="-995.4" font-family="Times Roman,serif" font-size="14.00">LIST:</text>
<text text-anchor="middle" x="1472" y="-978.4" font-family="Times Roman,serif" font-size="14.00">in list</text>
</g>
<!-- lbl21 -->
<g id="node67" class="node"><title>lbl21</title>
<polygon fill="#fefefe" stroke="#fefefe" points="1702,-736 1612,-736 1612,-700 1702,-700 1702,-736"/>
<text text-anchor="middle" x="1657" y="-713.9" font-family="Times Roman,serif" font-size="14.00">input==)}</text>
</g>
<!-- LIST&#45;&gt;lbl21 -->
<g id="edge72" class="edge"><title>LIST&#45;&gt;lbl21</title>
<path fill="none" stroke="black" d="M1499.13,-987.966C1558.19,-980.909 1696.06,-961.849 1733,-934 1792.4,-889.227 1815.19,-834.588 1775,-772 1758.99,-747.071 1728.3,-733.504 1702.22,-726.204"/>
</g>
<!-- lbl22 -->
<g id="node70" class="node"><title>lbl22</title>
<polygon fill="#fefefe" stroke="#fefefe" points="1554,-931 1464,-931 1464,-895 1554,-895 1554,-931"/>
<text text-anchor="middle" x="1509" y="-908.9" font-family="Times Roman,serif" font-size="14.00">input==({</text>
</g>
<!-- LIST&#45;&gt;lbl22 -->
<g id="edge76" class="edge"><title>LIST&#45;&gt;lbl22</title>
<path fill="none" stroke="black" d="M1482.11,-969.686C1487.84,-957.598 1494.94,-942.633 1500.41,-931.115"/>
</g>
<!-- lbl23 -->
<g id="node73" class="node"><title>lbl23</title>
<polygon fill="#fefefe" stroke="#fefefe" points="1724,-934 1610,-934 1610,-892 1724,-892 1724,-934"/>
<text text-anchor="middle" x="1667" y="-917.4" font-family="Times Roman,serif" font-size="14.00">input==space</text>
<text text-anchor="middle" x="1667" y="-900.4" font-family="Times Roman,serif" font-size="14.00">(ignore)</text>
</g>
<!-- LIST&#45;&gt;lbl23 -->
<g id="edge80" class="edge"><title>LIST&#45;&gt;lbl23</title>
<path fill="none" stroke="black" d="M1499.03,-978.12C1527.55,-966.004 1573.12,-947.665 1609.64,-933.532"/>
</g>
<!-- lbl24 -->
<g id="node76" class="node"><title>lbl24</title>
<polygon fill="#fefefe" stroke="#fefefe" points="1518,-664 1278,-664 1278,-622 1518,-622 1518,-664"/>
<text text-anchor="middle" x="1398" y="-647.4" font-family="Times Roman,serif" font-size="14.00">input!=\n and current == NULL</text>
<text text-anchor="middle" x="1398" y="-630.4" font-family="Times Roman,serif" font-size="14.00">(unbalanced parenthesis)</text>
</g>
<!-- LIST&#45;&gt;lbl24 -->
<g id="edge84" class="edge"><title>LIST&#45;&gt;lbl24</title>
<path fill="none" stroke="black" d="M1447.54,-969.802C1437.86,-959.954 1427.71,-947.451 1422,-934 1382.11,-839.965 1390.15,-713.675 1395.38,-664.165"/>
</g>
<!-- lbl25 -->
<g id="node79" class="node"><title>lbl25</title>
<polygon fill="#fefefe" stroke="#fefefe" points="1330,-931 1226,-931 1226,-895 1330,-895 1330,-931"/>
<text text-anchor="middle" x="1278" y="-908.9" font-family="Times Roman,serif" font-size="14.00">input==text</text>
</g>
<!-- LIST&#45;&gt;lbl25 -->
<g id="edge88" class="edge"><title>LIST&#45;&gt;lbl25</title>
<path fill="none" stroke="black" d="M1444.62,-979.99C1412.97,-967.266 1360.43,-946.14 1322.8,-931.014"/>
</g>
<!-- ERROR -->
<g id="node7" class="node"><title>ERROR</title>
<polygon fill="red" stroke="black" points="720,-123 638,-123 638,-81 720,-81 720,-123"/>
<text text-anchor="middle" x="679" y="-106.4" font-family="Times Roman,serif" font-size="14.00">ERROR:</text>
<text text-anchor="middle" x="679" y="-89.4" font-family="Times Roman,serif" font-size="14.00">bad input</text>
</g>
<!-- lbl39 -->
<g id="node114" class="node"><title>lbl39</title>
<polygon fill="#fefefe" stroke="#fefefe" points="732,-36 626,-36 626,-1.06581e-14 732,-0 732,-36"/>
<text text-anchor="middle" x="679" y="-13.9" font-family="Times Roman,serif" font-size="14.00">can&#39;t recover</text>
</g>
<!-- ERROR&#45;&gt;lbl39 -->
<g id="edge134" class="edge"><title>ERROR&#45;&gt;lbl39</title>
<path fill="none" stroke="black" d="M673.048,-80.8033C671.895,-67.0002 671.992,-49.1868 673.339,-36.0588"/>
</g>
<!-- init -->
<g id="node8" class="node"><title>init</title>
<polygon fill="yellow" stroke="black" points="198,-1658 160.172,-1640 198,-1622 235.828,-1640 198,-1658"/>
<text text-anchor="middle" x="198" y="-1635.9" font-family="Times Roman,serif" font-size="14.00">init</text>
</g>
<!-- init&#45;&gt;MSG -->
<g id="edge2" class="edge"><title>init&#45;&gt;MSG</title>
<path fill="none" stroke="black" d="M198,-1621.94C198,-1614.36 198,-1605.09 198,-1595.53"/>
<polygon fill="black" stroke="black" points="201.5,-1595.51 198,-1585.51 194.5,-1595.51 201.5,-1595.51"/>
</g>
<!-- msg_append -->
<g id="node10" class="node"><title>msg_append</title>
<ellipse fill="none" stroke="black" cx="424" cy="-1348" rx="82.2301" ry="29.6985"/>
<text text-anchor="middle" x="424" y="-1352.4" font-family="Times Roman,serif" font-size="14.00">store 1st</text>
<text text-anchor="middle" x="424" y="-1335.4" font-family="Times Roman,serif" font-size="14.00">command char</text>
</g>
<!-- msg_append&#45;&gt;CMD -->
<g id="edge20" class="edge"><title>msg_append&#45;&gt;CMD</title>
<path fill="none" stroke="black" d="M435.172,-1318.55C438.46,-1309.88 442.064,-1300.38 445.379,-1291.64"/>
<polygon fill="black" stroke="black" points="448.693,-1292.77 448.967,-1282.18 442.148,-1290.29 448.693,-1292.77"/>
</g>
<!-- lbl2&#45;&gt;COMMENT -->
<g id="edge6" class="edge"><title>lbl2&#45;&gt;COMMENT</title>
<path fill="none" stroke="blue" d="M83.6936,-1416.97C85.3205,-1406.09 87.4385,-1391.91 89.3311,-1379.25"/>
<polygon fill="blue" stroke="blue" points="92.8357,-1379.47 90.852,-1369.07 85.9125,-1378.44 92.8357,-1379.47"/>
</g>
<!-- lbl3&#45;&gt;MSG -->
<g id="edge10" class="edge"><title>lbl3&#45;&gt;MSG</title>
<path fill="none" stroke="blue" d="M203.566,-1456.24C204.243,-1463.94 204.63,-1473.05 204.726,-1482.35"/>
<polygon fill="blue" stroke="blue" points="201.226,-1482.47 204.717,-1492.48 208.226,-1482.48 201.226,-1482.47"/>
</g>
<!-- lbl4&#45;&gt;ERROR -->
<g id="edge14" class="edge"><title>lbl4&#45;&gt;ERROR</title>
<path fill="none" stroke="black" d="M276.037,-291.899C283.872,-261.23 304.175,-199.338 346,-168 389.875,-135.126 545.849,-115.176 627.819,-106.728"/>
<polygon fill="black" stroke="black" points="628.318,-110.195 637.915,-105.707 627.614,-103.23 628.318,-110.195"/>
</g>
<!-- lbl5&#45;&gt;msg_append -->
<g id="edge18" class="edge"><title>lbl5&#45;&gt;msg_append</title>
<path fill="none" stroke="black" d="M399.423,-1416.97C402.546,-1408.21 406.428,-1397.31 410.178,-1386.79"/>
<polygon fill="black" stroke="black" points="413.499,-1387.9 413.558,-1377.3 406.905,-1385.55 413.499,-1387.9"/>
</g>
<!-- lbl7&#45;&gt;MSG -->
<g id="edge24" class="edge"><title>lbl7&#45;&gt;MSG</title>
<path fill="none" stroke="blue" d="M32.5752,-1279.08C25.9336,-1289.85 18.4336,-1304.1 15,-1318 0.222419,-1377.81 -8.83346,-1406.62 28,-1456 51.6038,-1487.64 90.5199,-1507.87 125.166,-1520.43"/>
<polygon fill="blue" stroke="blue" points="124.213,-1523.8 134.808,-1523.77 126.505,-1517.18 124.213,-1523.8"/>
</g>
<!-- cmd_list_new -->
<g id="node28" class="node"><title>cmd_list_new</title>
<ellipse fill="none" stroke="black" cx="1294" cy="-1090" rx="92.1303" ry="41.7193"/>
<text text-anchor="middle" x="1294" y="-1102.9" font-family="Times Roman,serif" font-size="14.00">create new list</text>
<text text-anchor="middle" x="1294" y="-1085.9" font-family="Times Roman,serif" font-size="14.00">make it arg tree</text>
<text text-anchor="middle" x="1294" y="-1068.9" font-family="Times Roman,serif" font-size="14.00">root and current</text>
</g>
<!-- cmd_list_new&#45;&gt;LIST -->
<g id="edge28" class="edge"><title>cmd_list_new&#45;&gt;LIST</title>
<path fill="none" stroke="black" d="M1352.28,-1057.58C1379.79,-1042.28 1411.77,-1024.5 1435.75,-1011.16"/>
<polygon fill="black" stroke="black" points="1437.48,-1014.2 1444.52,-1006.28 1434.08,-1008.08 1437.48,-1014.2"/>
</g>
<!-- cmd_append -->
<g id="node30" class="node"><title>cmd_append</title>
<ellipse fill="none" stroke="black" cx="590" cy="-1090" rx="104.86" ry="29.6985"/>
<text text-anchor="middle" x="590" y="-1094.4" font-family="Times Roman,serif" font-size="14.00">append a character</text>
<text text-anchor="middle" x="590" y="-1077.4" font-family="Times Roman,serif" font-size="14.00">to command name</text>
</g>
<!-- lbl10 -->
<g id="node31" class="node"><title>lbl10</title>
<polygon fill="#fefefe" stroke="#fefefe" points="562,-1012 388,-1012 388,-970 562,-970 562,-1012"/>
<text text-anchor="middle" x="475" y="-995.4" font-family="Times Roman,serif" font-size="14.00">command name length</text>
<text text-anchor="middle" x="475" y="-978.4" font-family="Times Roman,serif" font-size="14.00">is less than 16</text>
</g>
<!-- cmd_append&#45;&gt;lbl10 -->
<g id="edge30" class="edge"><title>cmd_append&#45;&gt;lbl10</title>
<path fill="none" stroke="black" d="M557.353,-1061.9C539.026,-1046.12 516.527,-1026.75 499.679,-1012.25"/>
</g>
<!-- lbl11 -->
<g id="node34" class="node"><title>lbl11</title>
<polygon fill="#fefefe" stroke="#fefefe" points="571,-835 397,-835 397,-793 571,-793 571,-835"/>
<text text-anchor="middle" x="484" y="-818.4" font-family="Times Roman,serif" font-size="14.00">command name length</text>
<text text-anchor="middle" x="484" y="-801.4" font-family="Times Roman,serif" font-size="14.00">is more than 16</text>
</g>
<!-- cmd_append&#45;&gt;lbl11 -->
<g id="edge34" class="edge"><title>cmd_append&#45;&gt;lbl11</title>
<path fill="none" stroke="black" d="M588.199,-1060.2C586.021,-1035.48 581.27,-999.703 571,-970 553.166,-918.418 518.732,-864.027 498.953,-835.07"/>
</g>
<!-- lbl10&#45;&gt;CMD -->
<g id="edge32" class="edge"><title>lbl10&#45;&gt;CMD</title>
<path fill="none" stroke="black" d="M473.594,-1012.09C470.446,-1059.31 462.815,-1173.78 459.101,-1229.49"/>
<polygon fill="black" stroke="black" points="455.585,-1229.6 458.412,-1239.81 462.57,-1230.07 455.585,-1229.6"/>
</g>
<!-- lbl11&#45;&gt;ERROR -->
<g id="edge36" class="edge"><title>lbl11&#45;&gt;ERROR</title>
<path fill="none" stroke="black" d="M468.34,-792.839C446.89,-761.7 411,-700.942 411,-643 411,-643 411,-643 411,-310 411,-201.274 550.36,-141.195 628.092,-116.14"/>
<polygon fill="black" stroke="black" points="629.222,-119.454 637.712,-113.117 627.123,-112.776 629.222,-119.454"/>
</g>
<!-- lbl12&#45;&gt;cmd_list_new -->
<g id="edge40" class="edge"><title>lbl12&#45;&gt;cmd_list_new</title>
<path fill="none" stroke="black" d="M1104.01,-1167.94C1135.62,-1154.97 1179.07,-1137.15 1216.44,-1121.82"/>
<polygon fill="black" stroke="black" points="1217.87,-1125.02 1225.79,-1117.98 1215.21,-1118.54 1217.87,-1125.02"/>
</g>
<!-- lbl13&#45;&gt;ERROR -->
<g id="edge44" class="edge"><title>lbl13&#45;&gt;ERROR</title>
<path fill="none" stroke="black" d="M367.473,-1071.92C364.906,-1039.92 360,-971.153 360,-913 360,-913 360,-913 360,-310 360,-239.833 374.808,-212.572 429,-168 459.194,-143.166 564.035,-121.572 627.966,-110.306"/>
<polygon fill="black" stroke="black" points="628.604,-113.747 637.858,-108.587 627.406,-106.85 628.604,-113.747"/>
</g>
<!-- lbl14&#45;&gt;cmd_append -->
<g id="edge48" class="edge"><title>lbl14&#45;&gt;cmd_append</title>
<path fill="none" stroke="black" d="M568.078,-1167.94C571.122,-1157.12 575.116,-1142.92 578.86,-1129.61"/>
<polygon fill="black" stroke="black" points="582.316,-1130.25 581.654,-1119.67 575.577,-1128.35 582.316,-1130.25"/>
</g>
<!-- got_msg -->
<g id="node46" class="node"><title>got_msg</title>
<ellipse fill="cyan" stroke="black" cx="1779" cy="-102" rx="113.137" ry="29.6985"/>
<text text-anchor="middle" x="1779" y="-106.4" font-family="Times Roman,serif" font-size="14.00">message fully parsed</text>
<text text-anchor="middle" x="1779" y="-89.4" font-family="Times Roman,serif" font-size="14.00">execute message</text>
</g>
<!-- got_msg&#45;&gt;MSG -->
<g id="edge50" class="edge"><title>got_msg&#45;&gt;MSG</title>
<path fill="none" stroke="black" d="M1798.46,-131.118C1805.02,-142.23 1811.76,-155.29 1816,-168 1836.15,-228.401 1835,-246.326 1835,-310 1835,-1348 1835,-1348 1835,-1348 1835,-1507.75 589.215,-1534.13 271.198,-1538.27"/>
<polygon fill="black" stroke="black" points="271.124,-1534.77 261.169,-1538.39 271.213,-1541.77 271.124,-1534.77"/>
</g>
<!-- pop -->
<g id="node48" class="node"><title>pop</title>
<ellipse fill="none" stroke="black" cx="1615" cy="-310" rx="181.934" ry="29.6985"/>
<text text-anchor="middle" x="1615" y="-314.4" font-family="Times Roman,serif" font-size="14.00">pop:</text>
<text text-anchor="middle" x="1615" y="-297.4" font-family="Times Roman,serif" font-size="14.00">current_list = current_list&#45;&gt;parent</text>
</g>
<!-- pop&#45;&gt;LIST -->
<g id="edge60" class="edge"><title>pop&#45;&gt;LIST</title>
<path fill="none" stroke="black" d="M1595.96,-339.564C1575.54,-374.182 1546,-433.942 1546,-490 1546,-565 1546,-565 1546,-565 1546,-609.803 1543.98,-622.541 1527,-664 1505.13,-717.383 1471.72,-716.786 1455,-772 1434.14,-840.911 1444.6,-862.755 1455,-934 1456.26,-942.645 1458.55,-951.801 1461.04,-960.187"/>
<polygon fill="black" stroke="black" points="1457.77,-961.47 1464.13,-969.947 1464.45,-959.356 1457.77,-961.47"/>
</g>
<!-- lbl16 -->
<g id="node49" class="node"><title>lbl16</title>
<polygon fill="#fefefe" stroke="#fefefe" points="1807,-244 1641,-244 1641,-168 1807,-168 1807,-244"/>
<text text-anchor="middle" x="1724" y="-227.4" font-family="Times Roman,serif" font-size="14.00">input=\n</text>
<text text-anchor="middle" x="1724" y="-210.4" font-family="Times Roman,serif" font-size="14.00">and</text>
<text text-anchor="middle" x="1724" y="-193.4" font-family="Times Roman,serif" font-size="14.00">current_list == NULL</text>
<text text-anchor="middle" x="1724" y="-176.4" font-family="Times Roman,serif" font-size="14.00">(arg root closed)</text>
</g>
<!-- pop&#45;&gt;lbl16 -->
<g id="edge52" class="edge"><title>pop&#45;&gt;lbl16</title>
<path fill="none" stroke="black" d="M1645.65,-280.753C1657.49,-269.459 1671.2,-256.38 1683.81,-244.35"/>
</g>
<!-- lbl17 -->
<g id="node52" class="node"><title>lbl17</title>
<polygon fill="#fefefe" stroke="#fefefe" points="1623,-244 1433,-244 1433,-168 1623,-168 1623,-244"/>
<text text-anchor="middle" x="1528" y="-227.4" font-family="Times Roman,serif" font-size="14.00">input!=\n</text>
<text text-anchor="middle" x="1528" y="-210.4" font-family="Times Roman,serif" font-size="14.00">and</text>
<text text-anchor="middle" x="1528" y="-193.4" font-family="Times Roman,serif" font-size="14.00">current_list == NULL</text>
<text text-anchor="middle" x="1528" y="-176.4" font-family="Times Roman,serif" font-size="14.00">(unbalanced parenthesis)</text>
</g>
<!-- pop&#45;&gt;lbl17 -->
<g id="edge56" class="edge"><title>pop&#45;&gt;lbl17</title>
<path fill="none" stroke="black" d="M1590.53,-280.753C1581.09,-269.459 1570.14,-256.38 1560.08,-244.35"/>
</g>
<!-- lbl16&#45;&gt;got_msg -->
<g id="edge54" class="edge"><title>lbl16&#45;&gt;got_msg</title>
<path fill="none" stroke="black" d="M1744.17,-167.865C1748.9,-158.915 1753.95,-149.375 1758.69,-140.413"/>
<polygon fill="black" stroke="black" points="1761.91,-141.809 1763.49,-131.333 1755.72,-138.537 1761.91,-141.809"/>
</g>
<!-- lbl17&#45;&gt;ERROR -->
<g id="edge58" class="edge"><title>lbl17&#45;&gt;ERROR</title>
<path fill="none" stroke="black" d="M1432.98,-171.356C1428.28,-170.122 1423.6,-168.992 1419,-168 1286.94,-139.548 875.539,-113.468 730.359,-104.928"/>
<polygon fill="black" stroke="black" points="730.561,-101.434 720.374,-104.344 730.152,-108.422 730.561,-101.434"/>
</g>
<!-- push -->
<g id="node56" class="node"><title>push</title>
<ellipse fill="none" stroke="black" cx="1615" cy="-814" rx="150.821" ry="41.7193"/>
<text text-anchor="middle" x="1615" y="-826.9" font-family="Times Roman,serif" font-size="14.00">push:create new list</text>
<text text-anchor="middle" x="1615" y="-809.9" font-family="Times Roman,serif" font-size="14.00">append it as current&#39;s sibling</text>
<text text-anchor="middle" x="1615" y="-792.9" font-family="Times Roman,serif" font-size="14.00">make it current</text>
</g>
<!-- push&#45;&gt;LIST -->
<g id="edge62" class="edge"><title>push&#45;&gt;LIST</title>
<path fill="none" stroke="black" d="M1603.88,-855.474C1595.65,-880.314 1582.46,-911.358 1563,-934 1548.13,-951.294 1526.7,-965.075 1508.36,-974.753"/>
<polygon fill="black" stroke="black" points="1506.72,-971.661 1499.38,-979.303 1509.88,-977.905 1506.72,-971.661"/>
</g>
<!-- new_str -->
<g id="node58" class="node"><title>new_str</title>
<ellipse fill="none" stroke="black" cx="1165" cy="-814" rx="161.927" ry="41.7193"/>
<text text-anchor="middle" x="1165" y="-826.9" font-family="Times Roman,serif" font-size="14.00">create a new bin or text string</text>
<text text-anchor="middle" x="1165" y="-809.9" font-family="Times Roman,serif" font-size="14.00">node and append it to</text>
<text text-anchor="middle" x="1165" y="-792.9" font-family="Times Roman,serif" font-size="14.00">the current list</text>
</g>
<!-- lbl19 -->
<g id="node59" class="node"><title>lbl19</title>
<polygon fill="#fefefe" stroke="#fefefe" points="972,-736 810,-736 810,-700 972,-700 972,-736"/>
<text text-anchor="middle" x="891" y="-713.9" font-family="Times Roman,serif" font-size="14.00">current is generic list</text>
</g>
<!-- new_str&#45;&gt;lbl19 -->
<g id="edge64" class="edge"><title>new_str&#45;&gt;lbl19</title>
<path fill="none" stroke="black" d="M1069.17,-780.424C1026.57,-765.501 978.129,-748.527 942.517,-736.05"/>
</g>
<!-- lbl20 -->
<g id="node63" class="node"><title>lbl20</title>
<polygon fill="#fefefe" stroke="#fefefe" points="1242,-736 1088,-736 1088,-700 1242,-700 1242,-736"/>
<text text-anchor="middle" x="1165" y="-713.9" font-family="Times Roman,serif" font-size="14.00">current is binary list</text>
</g>
<!-- new_str&#45;&gt;lbl20 -->
<g id="edge68" class="edge"><title>new_str&#45;&gt;lbl20</title>
<path fill="none" stroke="black" d="M1165,-772.451C1165,-759.884 1165,-746.716 1165,-736.478"/>
</g>
<!-- tstr_append -->
<g id="node62" class="node"><title>tstr_append</title>
<ellipse fill="none" stroke="black" cx="867" cy="-643" rx="128.053" ry="18"/>
<text text-anchor="middle" x="867" y="-638.9" font-family="Times Roman,serif" font-size="14.00">append to current string</text>
</g>
<!-- lbl19&#45;&gt;tstr_append -->
<g id="edge66" class="edge"><title>lbl19&#45;&gt;tstr_append</title>
<path fill="none" stroke="black" d="M885.19,-699.845C882.39,-691.093 878.97,-680.405 875.854,-670.669"/>
<polygon fill="black" stroke="black" points="879.138,-669.446 872.756,-660.988 872.471,-671.579 879.138,-669.446"/>
</g>
<!-- tstr_append&#45;&gt;TSTR -->
<g id="edge100" class="edge"><title>tstr_append&#45;&gt;TSTR</title>
<path fill="none" stroke="black" d="M865.145,-624.909C864.27,-616.382 863.201,-605.962 862.202,-596.218"/>
<polygon fill="black" stroke="black" points="865.659,-595.622 861.157,-586.031 858.696,-596.336 865.659,-595.622"/>
</g>
<!-- lbl28 -->
<g id="node86" class="node"><title>lbl28</title>
<polygon fill="#fefefe" stroke="#fefefe" points="751,-224 607,-224 607,-188 751,-188 751,-224"/>
<text text-anchor="middle" x="679" y="-201.9" font-family="Times Roman,serif" font-size="14.00">string length &gt; 16</text>
</g>
<!-- tstr_append&#45;&gt;lbl28 -->
<g id="edge96" class="edge"><title>tstr_append&#45;&gt;lbl28</title>
<path fill="none" stroke="black" d="M807.7,-627.032C751.982,-608.522 671.822,-572.029 635,-508 627.024,-494.13 630.218,-487.269 635,-472 640.822,-453.411 653.417,-454.334 660,-436 686.875,-361.146 683.496,-264.091 680.623,-224.269"/>
</g>
<!-- bstr_append -->
<g id="node66" class="node"><title>bstr_append</title>
<ellipse fill="none" stroke="black" cx="1165" cy="-643" rx="70.1831" ry="18"/>
<text text-anchor="middle" x="1165" y="-638.9" font-family="Times Roman,serif" font-size="14.00">bstr_append</text>
</g>
<!-- lbl20&#45;&gt;bstr_append -->
<g id="edge70" class="edge"><title>lbl20&#45;&gt;bstr_append</title>
<path fill="none" stroke="black" d="M1165,-699.845C1165,-691.34 1165,-681.008 1165,-671.496"/>
<polygon fill="black" stroke="black" points="1168.5,-671.248 1165,-661.248 1161.5,-671.248 1168.5,-671.248"/>
</g>
<!-- bstr_append&#45;&gt;BSTR -->
<g id="edge120" class="edge"><title>bstr_append&#45;&gt;BSTR</title>
<path fill="none" stroke="black" d="M1181.56,-625.301C1190.3,-615.969 1201.23,-604.29 1211.14,-593.703"/>
<polygon fill="black" stroke="black" points="1213.85,-595.928 1218.13,-586.235 1208.74,-591.145 1213.85,-595.928"/>
</g>
<!-- lbl21&#45;&gt;pop -->
<g id="edge74" class="edge"><title>lbl21&#45;&gt;pop</title>
<path fill="none" stroke="black" d="M1651.47,-699.827C1643.31,-671.366 1629,-614.417 1629,-565 1629,-565 1629,-565 1629,-490 1629,-441.645 1623.92,-386.202 1619.88,-349.774"/>
<polygon fill="black" stroke="black" points="1623.32,-349.108 1618.71,-339.567 1616.37,-349.898 1623.32,-349.108"/>
</g>
<!-- lbl22&#45;&gt;push -->
<g id="edge78" class="edge"><title>lbl22&#45;&gt;push</title>
<path fill="none" stroke="black" d="M1528.44,-894.842C1538.63,-885.323 1551.64,-873.176 1564.45,-861.209"/>
<polygon fill="black" stroke="black" points="1567.03,-863.588 1571.95,-854.205 1562.26,-858.472 1567.03,-863.588"/>
</g>
<!-- lbl23&#45;&gt;LIST -->
<g id="edge82" class="edge"><title>lbl23&#45;&gt;LIST</title>
<path fill="none" stroke="black" d="M1620.43,-934.054C1586.31,-948.162 1540.72,-966.278 1509.04,-978.244"/>
<polygon fill="black" stroke="black" points="1507.41,-975.115 1499.27,-981.9 1509.87,-981.671 1507.41,-975.115"/>
</g>
<!-- lbl24&#45;&gt;ERROR -->
<g id="edge86" class="edge"><title>lbl24&#45;&gt;ERROR</title>
<path fill="none" stroke="black" d="M1417.35,-621.685C1458.44,-573.782 1546.09,-455.584 1489,-376 1465.6,-343.386 903.485,-170.276 729.707,-117.371"/>
<polygon fill="black" stroke="black" points="730.618,-113.99 720.033,-114.428 728.581,-120.687 730.618,-113.99"/>
</g>
<!-- lbl25&#45;&gt;new_str -->
<g id="edge90" class="edge"><title>lbl25&#45;&gt;new_str</title>
<path fill="none" stroke="black" d="M1257.27,-894.842C1246.31,-885.234 1232.29,-872.949 1218.5,-860.873"/>
<polygon fill="black" stroke="black" points="1220.72,-858.162 1210.89,-854.205 1216.11,-863.427 1220.72,-858.162"/>
</g>
<!-- str_fin -->
<g id="node82" class="node"><title>str_fin</title>
<ellipse fill="none" stroke="black" cx="545" cy="-406" rx="105.818" ry="18"/>
<text text-anchor="middle" x="545" y="-401.9" font-family="Times Roman,serif" font-size="14.00">finish current string</text>
</g>
<!-- str_fin&#45;&gt;LIST -->
<g id="edge92" class="edge"><title>str_fin&#45;&gt;LIST</title>
<path fill="none" stroke="black" d="M554.874,-424.094C573.354,-457.377 615.181,-530.025 658,-586 713.962,-659.157 729.053,-678.491 801,-736 960.946,-863.849 1020.11,-877.768 1217,-934 1293.56,-955.865 1385,-974.542 1434.94,-984.124"/>
<polygon fill="black" stroke="black" points="1434.46,-987.597 1444.94,-986.029 1435.77,-980.72 1434.46,-987.597"/>
</g>
<!-- str_fin_pop -->
<g id="node84" class="node"><title>str_fin_pop</title>
<ellipse fill="none" stroke="black" cx="1184" cy="-406" rx="105.818" ry="18"/>
<text text-anchor="middle" x="1184" y="-401.9" font-family="Times Roman,serif" font-size="14.00">finish current string</text>
</g>
<!-- str_fin_pop&#45;&gt;pop -->
<g id="edge94" class="edge"><title>str_fin_pop&#45;&gt;pop</title>
<path fill="none" stroke="black" d="M1240.31,-390.719C1258.94,-385.821 1279.82,-380.503 1299,-376 1361.41,-361.352 1431.13,-346.617 1489.18,-334.798"/>
<polygon fill="black" stroke="black" points="1490.03,-338.197 1499.13,-332.776 1488.63,-331.337 1490.03,-338.197"/>
</g>
<!-- lbl28&#45;&gt;ERROR -->
<g id="edge98" class="edge"><title>lbl28&#45;&gt;ERROR</title>
<path fill="none" stroke="black" d="M679,-187.885C679,-172.874 679,-151.191 679,-133.368"/>
<polygon fill="black" stroke="black" points="682.5,-133.132 679,-123.132 675.5,-133.132 682.5,-133.132"/>
</g>
<!-- lbl30&#45;&gt;str_fin -->
<g id="edge104" class="edge"><title>lbl30&#45;&gt;str_fin</title>
<path fill="none" stroke="black" d="M667.534,-471.98C643.693,-459.143 611.505,-441.81 586.101,-428.132"/>
<polygon fill="black" stroke="black" points="587.541,-424.932 577.077,-423.272 584.223,-431.095 587.541,-424.932"/>
</g>
<!-- lbl31&#45;&gt;str_fin_pop -->
<g id="edge108" class="edge"><title>lbl31&#45;&gt;str_fin_pop</title>
<path fill="none" stroke="black" d="M904.288,-474.601C907.228,-473.695 910.151,-472.82 913,-472 978.711,-453.082 1054.39,-434.953 1109.04,-422.498"/>
<polygon fill="black" stroke="black" points="1110.01,-425.866 1118.99,-420.24 1108.46,-419.039 1110.01,-425.866"/>
</g>
<!-- lbl32&#45;&gt;ERROR -->
<g id="edge112" class="edge"><title>lbl32&#45;&gt;ERROR</title>
<path fill="none" stroke="black" d="M783.191,-291.608C784.188,-263.152 782.7,-207.609 760,-168 751.336,-152.881 737.768,-139.816 724.198,-129.391"/>
<polygon fill="black" stroke="black" points="725.93,-126.322 715.791,-123.247 721.799,-131.974 725.93,-126.322"/>
</g>
<!-- lbl33&#45;&gt;tstr_append -->
<g id="edge116" class="edge"><title>lbl33&#45;&gt;tstr_append</title>
<path fill="none" stroke="black" d="M970.539,-508.032C965.953,-528.447 956.343,-561.981 939,-586 929.749,-598.812 916.867,-610.249 904.553,-619.454"/>
<polygon fill="black" stroke="black" points="902.261,-616.79 896.17,-625.459 906.338,-622.48 902.261,-616.79"/>
</g>
<!-- read_base64 -->
<g id="node102" class="node"><title>read_base64</title>
<ellipse fill="none" stroke="black" cx="1394" cy="-406" rx="85.7684" ry="29.6985"/>
<text text-anchor="middle" x="1394" y="-410.4" font-family="Times Roman,serif" font-size="14.00">store next digit</text>
<text text-anchor="middle" x="1394" y="-393.4" font-family="Times Roman,serif" font-size="14.00">of string length</text>
</g>
<!-- read_base64&#45;&gt;BSTR -->
<g id="edge118" class="edge"><title>read_base64&#45;&gt;BSTR</title>
<path fill="none" stroke="black" d="M1426.96,-433.739C1448.24,-455.043 1468.91,-484.667 1451,-508 1434.32,-529.726 1369.74,-544.973 1316.02,-554.196"/>
<polygon fill="black" stroke="black" points="1315.41,-550.748 1306.13,-555.848 1316.57,-557.653 1315.41,-550.748"/>
</g>
<!-- lbl36&#45;&gt;read_base64 -->
<g id="edge124" class="edge"><title>lbl36&#45;&gt;read_base64</title>
<path fill="none" stroke="black" d="M1390.87,-471.773C1391.23,-464.131 1391.67,-454.922 1392.1,-445.848"/>
<polygon fill="black" stroke="black" points="1395.6,-445.905 1392.58,-435.75 1388.61,-445.572 1395.6,-445.905"/>
</g>
<!-- lbl37&#45;&gt;bstr_append -->
<g id="edge128" class="edge"><title>lbl37&#45;&gt;bstr_append</title>
<path fill="none" stroke="black" d="M1099.77,-508.128C1112.61,-534.685 1136.65,-584.375 1151.68,-615.462"/>
<polygon fill="black" stroke="black" points="1148.72,-617.37 1156.22,-624.848 1155.02,-614.322 1148.72,-617.37"/>
</g>
<!-- lbl38&#45;&gt;str_fin_pop -->
<g id="edge132" class="edge"><title>lbl38&#45;&gt;str_fin_pop</title>
<path fill="none" stroke="black" d="M1226.28,-471.773C1218.87,-460.247 1209.17,-445.159 1200.93,-432.342"/>
<polygon fill="black" stroke="black" points="1203.86,-430.422 1195.51,-423.903 1197.97,-434.207 1203.86,-430.422"/>
</g>
<!-- lbl39&#45;&gt;ERROR -->
<g id="edge136" class="edge"><title>lbl39&#45;&gt;ERROR</title>
<path fill="none" stroke="black" d="M684.661,-36.0588C685.693,-46.1099 685.991,-58.9075 685.557,-70.5491"/>
<polygon fill="black" stroke="black" points="682.047,-70.6145 684.952,-80.8033 689.035,-71.0267 682.047,-70.6145"/>
</g>
</g>
</svg>
