<?xml version="1.0" encoding="UTF-8" standalone="no"?>
<!DOCTYPE svg PUBLIC "-//W3C//DTD SVG 1.1//EN"
 "http://www.w3.org/Graphics/SVG/1.1/DTD/svg11.dtd">
<!-- Generated by graphviz version 2.26.3 (20100126.1600)
 -->
<!-- Title: parse_state_macine Pages: 1 -->
<svg width="1745pt" height="1660pt"
 viewBox="0.00 0.00 1745.00 1660.00" xmlns="http://www.w3.org/2000/svg" xmlns:xlink="http://www.w3.org/1999/xlink">
<g id="graph1" class="graph" transform="scale(1 1) rotate(0) translate(4 1656)">
<title>parse_state_macine</title>
<polygon fill="white" stroke="white" points="-4,5 -4,-1656 1742,-1656 1742,5 -4,5"/>
<!-- MSG -->
<g id="node1" class="node"><title>MSG</title>
<polygon fill="yellow" stroke="black" points="261,-1579.5 135,-1579.5 135,-1486.5 261,-1486.5 261,-1579.5"/>
<text text-anchor="middle" x="198" y="-1562.9" font-family="Times Roman,serif" font-size="14.00">MSG:</text>
<text text-anchor="middle" x="198" y="-1545.9" font-family="Times Roman,serif" font-size="14.00">message lead&#45;in</text>
<text text-anchor="middle" x="198" y="-1528.9" font-family="Times Roman,serif" font-size="14.00">or</text>
<text text-anchor="middle" x="198" y="-1511.9" font-family="Times Roman,serif" font-size="14.00">between</text>
<text text-anchor="middle" x="198" y="-1494.9" font-family="Times Roman,serif" font-size="14.00">messages</text>
</g>
<!-- lbl2 -->
<g id="node11" class="node"><title>lbl2</title>
<polygon fill="#fefefe" stroke="#fefefe" points="125,-1447 37,-1447 37,-1411 125,-1411 125,-1447"/>
<text text-anchor="middle" x="81" y="-1424.9" font-family="Times Roman,serif" font-size="14.00">input==#</text>
</g>
<!-- MSG&#45;&gt;lbl2 -->
<g id="edge4" class="edge"><title>MSG&#45;&gt;lbl2</title>
<path fill="none" stroke="blue" d="M145.66,-1486.48C129.962,-1472.52 113.666,-1458.04 101.361,-1447.1"/>
</g>
<!-- lbl3 -->
<g id="node14" class="node"><title>lbl3</title>
<polygon fill="#fefefe" stroke="#fefefe" points="253,-1450 143,-1450 143,-1408 253,-1408 253,-1450"/>
<text text-anchor="middle" x="198" y="-1433.4" font-family="Times Roman,serif" font-size="14.00">input==\r\n\t</text>
<text text-anchor="middle" x="198" y="-1416.4" font-family="Times Roman,serif" font-size="14.00">space</text>
</g>
<!-- MSG&#45;&gt;lbl3 -->
<g id="edge8" class="edge"><title>MSG&#45;&gt;lbl3</title>
<path fill="none" stroke="blue" d="M191.283,-1486.48C191.129,-1473.82 191.512,-1460.73 192.434,-1450.24"/>
</g>
<!-- lbl4 -->
<g id="node17" class="node"><title>lbl4</title>
<polygon fill="#fefefe" stroke="#fefefe" points="332,-328 212,-328 212,-292 332,-292 332,-328"/>
<text text-anchor="middle" x="272" y="-305.9" font-family="Times Roman,serif" font-size="14.00">input==binary</text>
</g>
<!-- MSG&#45;&gt;lbl4 -->
<g id="edge12" class="edge"><title>MSG&#45;&gt;lbl4</title>
<path fill="none" stroke="black" d="M240.148,-1486.37C248.51,-1475.11 256.418,-1462.65 262,-1450 281.673,-1405.41 281,-1390.74 281,-1342 281,-1342 281,-1342 281,-466 281,-416.084 276.351,-357.332 273.735,-328.233"/>
</g>
<!-- lbl5 -->
<g id="node20" class="node"><title>lbl5</title>
<polygon fill="#fefefe" stroke="#fefefe" points="445,-1447 341,-1447 341,-1411 445,-1411 445,-1447"/>
<text text-anchor="middle" x="393" y="-1424.9" font-family="Times Roman,serif" font-size="14.00">input==text</text>
</g>
<!-- MSG&#45;&gt;lbl5 -->
<g id="edge16" class="edge"><title>MSG&#45;&gt;lbl5</title>
<path fill="none" stroke="black" d="M261.042,-1499.38C293.645,-1481.99 332.147,-1461.45 359.12,-1447.07"/>
</g>
<!-- COMMENT -->
<g id="node2" class="node"><title>COMMENT</title>
<polygon fill="yellow" stroke="black" points="164,-1363 24,-1363 24,-1321 164,-1321 164,-1363"/>
<text text-anchor="middle" x="94" y="-1346.4" font-family="Times Roman,serif" font-size="14.00">COMMENT:</text>
<text text-anchor="middle" x="94" y="-1329.4" font-family="Times Roman,serif" font-size="14.00">skipping comment</text>
</g>
<!-- COMMENT&#45;&gt;COMMENT -->
<g id="edge26" class="edge"><title>COMMENT&#45;&gt;COMMENT</title>
<path fill="none" stroke="blue" d="M164.071,-1356.7C174.749,-1354.46 182,-1349.56 182,-1342 182,-1337.04 178.877,-1333.22 173.712,-1330.55"/>
<polygon fill="blue" stroke="blue" points="174.665,-1327.18 164.071,-1327.3 172.425,-1333.81 174.665,-1327.18"/>
</g>
<!-- lbl7 -->
<g id="node24" class="node"><title>lbl7</title>
<polygon fill="#fefefe" stroke="#fefefe" points="90,-1273 1.42109e-14,-1273 0,-1237 90,-1237 90,-1273"/>
<text text-anchor="middle" x="45" y="-1250.9" font-family="Times Roman,serif" font-size="14.00">input==\n</text>
</g>
<!-- COMMENT&#45;&gt;lbl7 -->
<g id="edge22" class="edge"><title>COMMENT&#45;&gt;lbl7</title>
<path fill="none" stroke="blue" d="M82.1385,-1320.94C73.9246,-1306.36 63.1009,-1287.14 55.2589,-1273.21"/>
</g>
<!-- CMD -->
<g id="node3" class="node"><title>CMD</title>
<polygon fill="yellow" stroke="black" points="547,-1276 367,-1276 367,-1234 547,-1234 547,-1276"/>
<text text-anchor="middle" x="457" y="-1259.4" font-family="Times Roman,serif" font-size="14.00">CMD:</text>
<text text-anchor="middle" x="457" y="-1242.4" font-family="Times Roman,serif" font-size="14.00">parsing command name</text>
</g>
<!-- lbl12 -->
<g id="node37" class="node"><title>lbl12</title>
<polygon fill="#fefefe" stroke="#fefefe" points="799,-1198 709,-1198 709,-1162 799,-1162 799,-1198"/>
<text text-anchor="middle" x="754" y="-1175.9" font-family="Times Roman,serif" font-size="14.00">input==({</text>
</g>
<!-- CMD&#45;&gt;lbl12 -->
<g id="edge38" class="edge"><title>CMD&#45;&gt;lbl12</title>
<path fill="none" stroke="black" d="M540.521,-1233.91C595.082,-1220.13 664.219,-1202.67 708.779,-1191.42"/>
</g>
<!-- lbl13 -->
<g id="node40" class="node"><title>lbl13</title>
<polygon fill="#fefefe" stroke="#fefefe" points="429,-1102 309,-1102 309,-1066 429,-1066 429,-1102"/>
<text text-anchor="middle" x="369" y="-1079.9" font-family="Times Roman,serif" font-size="14.00">input==binary</text>
</g>
<!-- CMD&#45;&gt;lbl13 -->
<g id="edge42" class="edge"><title>CMD&#45;&gt;lbl13</title>
<path fill="none" stroke="black" d="M446.033,-1233.69C428.571,-1199.76 394.751,-1134.04 378.359,-1102.19"/>
</g>
<!-- lbl14 -->
<g id="node43" class="node"><title>lbl14</title>
<polygon fill="#fefefe" stroke="#fefefe" points="615,-1198 511,-1198 511,-1162 615,-1162 615,-1198"/>
<text text-anchor="middle" x="563" y="-1175.9" font-family="Times Roman,serif" font-size="14.00">input==text</text>
</g>
<!-- CMD&#45;&gt;lbl14 -->
<g id="edge46" class="edge"><title>CMD&#45;&gt;lbl14</title>
<path fill="none" stroke="black" d="M486.809,-1233.91C502.73,-1222.64 522.129,-1208.92 537.368,-1198.14"/>
</g>
<!-- TSTR -->
<g id="node4" class="node"><title>TSTR</title>
<polygon fill="yellow" stroke="black" points="1101,-562 959,-562 959,-520 1101,-520 1101,-562"/>
<text text-anchor="middle" x="1030" y="-545.4" font-family="Times Roman,serif" font-size="14.00">TSTR:</text>
<text text-anchor="middle" x="1030" y="-528.4" font-family="Times Roman,serif" font-size="14.00">parsing test string</text>
</g>
<!-- lbl30 -->
<g id="node90" class="node"><title>lbl30</title>
<polygon fill="#fefefe" stroke="#fefefe" points="1002,-484 888,-484 888,-448 1002,-448 1002,-484"/>
<text text-anchor="middle" x="945" y="-461.9" font-family="Times Roman,serif" font-size="14.00">input==space</text>
</g>
<!-- TSTR&#45;&gt;lbl30 -->
<g id="edge102" class="edge"><title>TSTR&#45;&gt;lbl30</title>
<path fill="none" stroke="black" d="M1005.87,-519.709C993.109,-508.449 977.611,-494.775 965.447,-484.042"/>
</g>
<!-- lbl31 -->
<g id="node93" class="node"><title>lbl31</title>
<polygon fill="#fefefe" stroke="#fefefe" points="1148,-484 1058,-484 1058,-448 1148,-448 1148,-484"/>
<text text-anchor="middle" x="1103" y="-461.9" font-family="Times Roman,serif" font-size="14.00">input==)}</text>
</g>
<!-- TSTR&#45;&gt;lbl31 -->
<g id="edge106" class="edge"><title>TSTR&#45;&gt;lbl31</title>
<path fill="none" stroke="black" d="M1050.72,-519.709C1061.68,-508.449 1074.99,-494.775 1085.44,-484.042"/>
</g>
<!-- lbl32 -->
<g id="node96" class="node"><title>lbl32</title>
<polygon fill="#fefefe" stroke="#fefefe" points="1055,-328 935,-328 935,-292 1055,-292 1055,-328"/>
<text text-anchor="middle" x="995" y="-305.9" font-family="Times Roman,serif" font-size="14.00">input==binary</text>
</g>
<!-- TSTR&#45;&gt;lbl32 -->
<g id="edge110" class="edge"><title>TSTR&#45;&gt;lbl32</title>
<path fill="none" stroke="black" d="M1026.77,-519.682C1019.93,-474.559 1004.11,-370.094 997.732,-328.03"/>
</g>
<!-- lbl33 -->
<g id="node99" class="node"><title>lbl33</title>
<polygon fill="#fefefe" stroke="#fefefe" points="1270,-484 1166,-484 1166,-448 1270,-448 1270,-484"/>
<text text-anchor="middle" x="1218" y="-461.9" font-family="Times Roman,serif" font-size="14.00">input==text</text>
</g>
<!-- TSTR&#45;&gt;lbl33 -->
<g id="edge114" class="edge"><title>TSTR&#45;&gt;lbl33</title>
<path fill="none" stroke="black" d="M1082.87,-519.909C1111.21,-508.601 1145.78,-494.813 1172.85,-484.012"/>
</g>
<!-- BSTR -->
<g id="node5" class="node"><title>BSTR</title>
<polygon fill="yellow" stroke="black" points="1293,-829 1157,-829 1157,-787 1293,-787 1293,-829"/>
<text text-anchor="middle" x="1225" y="-812.4" font-family="Times Roman,serif" font-size="14.00">BSTR:</text>
<text text-anchor="middle" x="1225" y="-795.4" font-family="Times Roman,serif" font-size="14.00">parsing bin string</text>
</g>
<!-- lbl35 -->
<g id="node104" class="node"><title>lbl35</title>
<polygon fill="#fefefe" stroke="#fefefe" points="1404,-730 1300,-730 1300,-694 1404,-694 1404,-730"/>
<text text-anchor="middle" x="1352" y="-707.9" font-family="Times Roman,serif" font-size="14.00">before the =</text>
</g>
<!-- BSTR&#45;&gt;lbl35 -->
<g id="edge120" class="edge"><title>BSTR&#45;&gt;lbl35</title>
<path fill="none" stroke="black" d="M1252.87,-786.932C1275.36,-769.933 1306.66,-746.269 1328.04,-730.112"/>
</g>
<!-- lbl36 -->
<g id="node107" class="node"><title>lbl36</title>
<polygon fill="#fefefe" stroke="#fefefe" points="1206,-730 1112,-730 1112,-694 1206,-694 1206,-730"/>
<text text-anchor="middle" x="1159" y="-707.9" font-family="Times Roman,serif" font-size="14.00">after the =</text>
</g>
<!-- BSTR&#45;&gt;lbl36 -->
<g id="edge124" class="edge"><title>BSTR&#45;&gt;lbl36</title>
<path fill="none" stroke="black" d="M1210.35,-786.694C1198.66,-769.681 1182.45,-746.107 1171.39,-730.022"/>
</g>
<!-- lbl37 -->
<g id="node110" class="node"><title>lbl37</title>
<polygon fill="#fefefe" stroke="#fefefe" points="1365,-559 1201,-559 1201,-523 1365,-523 1365,-559"/>
<text text-anchor="middle" x="1283" y="-536.9" font-family="Times Roman,serif" font-size="14.00">last char of the string</text>
</g>
<!-- BSTR&#45;&gt;lbl37 -->
<g id="edge128" class="edge"><title>BSTR&#45;&gt;lbl37</title>
<path fill="none" stroke="black" d="M1225.38,-786.904C1226.61,-748.449 1231.72,-664.76 1253,-598 1257.38,-584.255 1264.96,-569.889 1271.41,-559.018"/>
</g>
<!-- LIST -->
<g id="node6" class="node"><title>LIST</title>
<polygon fill="yellow" stroke="black" points="843,-1006 789,-1006 789,-964 843,-964 843,-1006"/>
<text text-anchor="middle" x="816" y="-989.4" font-family="Times Roman,serif" font-size="14.00">LIST:</text>
<text text-anchor="middle" x="816" y="-972.4" font-family="Times Roman,serif" font-size="14.00">in list</text>
</g>
<!-- lbl21 -->
<g id="node67" class="node"><title>lbl21</title>
<polygon fill="#fefefe" stroke="#fefefe" points="1510,-412 1420,-412 1420,-376 1510,-376 1510,-412"/>
<text text-anchor="middle" x="1465" y="-389.9" font-family="Times Roman,serif" font-size="14.00">input==)}</text>
</g>
<!-- LIST&#45;&gt;lbl21 -->
<g id="edge72" class="edge"><title>LIST&#45;&gt;lbl21</title>
<path fill="none" stroke="black" d="M843.263,-980.542C934.939,-965.089 1230.35,-911.394 1302,-850 1333.12,-823.339 1311.51,-795.453 1340,-766 1365.15,-739.998 1388.24,-756.377 1413,-730 1436.72,-704.723 1434.79,-691.682 1443,-658 1464.99,-567.736 1465.97,-455.548 1465.41,-412.235"/>
</g>
<!-- lbl22 -->
<g id="node70" class="node"><title>lbl22</title>
<polygon fill="#fefefe" stroke="#fefefe" points="1511,-925 1421,-925 1421,-889 1511,-889 1511,-925"/>
<text text-anchor="middle" x="1466" y="-902.9" font-family="Times Roman,serif" font-size="14.00">input==({</text>
</g>
<!-- LIST&#45;&gt;lbl22 -->
<g id="edge76" class="edge"><title>LIST&#45;&gt;lbl22</title>
<path fill="none" stroke="black" d="M843.128,-983.95C925.823,-980.399 1181.78,-966.811 1390,-928 1400.09,-926.119 1410.8,-923.537 1420.88,-920.827"/>
</g>
<!-- lbl23 -->
<g id="node73" class="node"><title>lbl23</title>
<polygon fill="#fefefe" stroke="#fefefe" points="781,-928 667,-928 667,-886 781,-886 781,-928"/>
<text text-anchor="middle" x="724" y="-911.4" font-family="Times Roman,serif" font-size="14.00">input==space</text>
<text text-anchor="middle" x="724" y="-894.4" font-family="Times Roman,serif" font-size="14.00">(ignore)</text>
</g>
<!-- LIST&#45;&gt;lbl23 -->
<g id="edge80" class="edge"><title>LIST&#45;&gt;lbl23</title>
<path fill="none" stroke="black" d="M788.861,-966.909C773.997,-955.298 756.072,-940.177 742.738,-928.031"/>
</g>
<!-- lbl24 -->
<g id="node76" class="node"><title>lbl24</title>
<polygon fill="#fefefe" stroke="#fefefe" points="759,-829 519,-829 519,-787 759,-787 759,-829"/>
<text text-anchor="middle" x="639" y="-812.4" font-family="Times Roman,serif" font-size="14.00">input!=\n and current == NULL</text>
<text text-anchor="middle" x="639" y="-795.4" font-family="Times Roman,serif" font-size="14.00">(unbalanced parenthesis)</text>
</g>
<!-- LIST&#45;&gt;lbl24 -->
<g id="edge84" class="edge"><title>LIST&#45;&gt;lbl24</title>
<path fill="none" stroke="black" d="M788.931,-978.755C748.434,-968.856 675.001,-948.565 658,-928 634.884,-900.038 634.253,-855.48 636.328,-829.249"/>
</g>
<!-- lbl25 -->
<g id="node79" class="node"><title>lbl25</title>
<polygon fill="#fefefe" stroke="#fefefe" points="985,-925 881,-925 881,-889 985,-889 985,-925"/>
<text text-anchor="middle" x="933" y="-902.9" font-family="Times Roman,serif" font-size="14.00">input==text</text>
</g>
<!-- LIST&#45;&gt;lbl25 -->
<g id="edge88" class="edge"><title>LIST&#45;&gt;lbl25</title>
<path fill="none" stroke="black" d="M843.136,-966.909C861.903,-954.398 886.783,-937.811 905.606,-925.263"/>
</g>
<!-- ERROR -->
<g id="node7" class="node"><title>ERROR</title>
<polygon fill="red" stroke="black" points="634,-123 552,-123 552,-81 634,-81 634,-123"/>
<text text-anchor="middle" x="593" y="-106.4" font-family="Times Roman,serif" font-size="14.00">ERROR:</text>
<text text-anchor="middle" x="593" y="-89.4" font-family="Times Roman,serif" font-size="14.00">bad input</text>
</g>
<!-- lbl38 -->
<g id="node113" class="node"><title>lbl38</title>
<polygon fill="#fefefe" stroke="#fefefe" points="646,-36 540,-36 540,-1.06581e-14 646,-0 646,-36"/>
<text text-anchor="middle" x="593" y="-13.9" font-family="Times Roman,serif" font-size="14.00">can&#39;t recover</text>
</g>
<!-- ERROR&#45;&gt;lbl38 -->
<g id="edge132" class="edge"><title>ERROR&#45;&gt;lbl38</title>
<path fill="none" stroke="black" d="M587.048,-80.8033C585.895,-67.0002 585.992,-49.1868 587.339,-36.0588"/>
</g>
<!-- init -->
<g id="node8" class="node"><title>init</title>
<polygon fill="yellow" stroke="black" points="198,-1652 160.172,-1634 198,-1616 235.828,-1634 198,-1652"/>
<text text-anchor="middle" x="198" y="-1629.9" font-family="Times Roman,serif" font-size="14.00">init</text>
</g>
<!-- init&#45;&gt;MSG -->
<g id="edge2" class="edge"><title>init&#45;&gt;MSG</title>
<path fill="none" stroke="black" d="M198,-1615.94C198,-1608.36 198,-1599.09 198,-1589.53"/>
<polygon fill="black" stroke="black" points="201.5,-1589.51 198,-1579.51 194.5,-1589.51 201.5,-1589.51"/>
</g>
<!-- msg_append -->
<g id="node10" class="node"><title>msg_append</title>
<ellipse fill="none" stroke="black" cx="424" cy="-1342" rx="82.2301" ry="29.6985"/>
<text text-anchor="middle" x="424" y="-1346.4" font-family="Times Roman,serif" font-size="14.00">store 1st</text>
<text text-anchor="middle" x="424" y="-1329.4" font-family="Times Roman,serif" font-size="14.00">command char</text>
</g>
<!-- msg_append&#45;&gt;CMD -->
<g id="edge20" class="edge"><title>msg_append&#45;&gt;CMD</title>
<path fill="none" stroke="black" d="M435.172,-1312.55C438.46,-1303.88 442.064,-1294.38 445.379,-1285.64"/>
<polygon fill="black" stroke="black" points="448.693,-1286.77 448.967,-1276.18 442.148,-1284.29 448.693,-1286.77"/>
</g>
<!-- lbl2&#45;&gt;COMMENT -->
<g id="edge6" class="edge"><title>lbl2&#45;&gt;COMMENT</title>
<path fill="none" stroke="blue" d="M83.6936,-1410.97C85.3205,-1400.09 87.4385,-1385.91 89.3311,-1373.25"/>
<polygon fill="blue" stroke="blue" points="92.8357,-1373.47 90.852,-1363.07 85.9125,-1372.44 92.8357,-1373.47"/>
</g>
<!-- lbl3&#45;&gt;MSG -->
<g id="edge10" class="edge"><title>lbl3&#45;&gt;MSG</title>
<path fill="none" stroke="blue" d="M203.566,-1450.24C204.243,-1457.94 204.63,-1467.05 204.726,-1476.35"/>
<polygon fill="blue" stroke="blue" points="201.226,-1476.47 204.717,-1486.48 208.226,-1476.48 201.226,-1476.47"/>
</g>
<!-- lbl4&#45;&gt;ERROR -->
<g id="edge14" class="edge"><title>lbl4&#45;&gt;ERROR</title>
<path fill="none" stroke="black" d="M276.39,-291.7C284.65,-261.297 305.439,-200.516 346,-168 376.017,-143.937 478.639,-122.199 541.773,-110.672"/>
<polygon fill="black" stroke="black" points="542.709,-114.059 551.931,-108.843 541.469,-107.17 542.709,-114.059"/>
</g>
<!-- lbl5&#45;&gt;msg_append -->
<g id="edge18" class="edge"><title>lbl5&#45;&gt;msg_append</title>
<path fill="none" stroke="black" d="M399.423,-1410.97C402.546,-1402.21 406.428,-1391.31 410.178,-1380.79"/>
<polygon fill="black" stroke="black" points="413.499,-1381.9 413.558,-1371.3 406.905,-1379.55 413.499,-1381.9"/>
</g>
<!-- lbl7&#45;&gt;MSG -->
<g id="edge24" class="edge"><title>lbl7&#45;&gt;MSG</title>
<path fill="none" stroke="blue" d="M32.5752,-1273.08C25.9336,-1283.85 18.4336,-1298.1 15,-1312 0.222419,-1371.81 -8.83346,-1400.62 28,-1450 51.6038,-1481.64 90.5199,-1501.87 125.166,-1514.43"/>
<polygon fill="blue" stroke="blue" points="124.213,-1517.8 134.808,-1517.77 126.505,-1511.18 124.213,-1517.8"/>
</g>
<!-- cmd_list_new -->
<g id="node28" class="node"><title>cmd_list_new</title>
<ellipse fill="none" stroke="black" cx="814" cy="-1084" rx="92.1303" ry="41.7193"/>
<text text-anchor="middle" x="814" y="-1096.9" font-family="Times Roman,serif" font-size="14.00">create new list</text>
<text text-anchor="middle" x="814" y="-1079.9" font-family="Times Roman,serif" font-size="14.00">make it arg tree</text>
<text text-anchor="middle" x="814" y="-1062.9" font-family="Times Roman,serif" font-size="14.00">root and current</text>
</g>
<!-- cmd_list_new&#45;&gt;LIST -->
<g id="edge28" class="edge"><title>cmd_list_new&#45;&gt;LIST</title>
<path fill="none" stroke="black" d="M814.842,-1042.3C815.02,-1033.53 815.203,-1024.43 815.371,-1016.13"/>
<polygon fill="black" stroke="black" points="818.87,-1016.2 815.573,-1006.13 811.872,-1016.06 818.87,-1016.2"/>
</g>
<!-- cmd_append -->
<g id="node30" class="node"><title>cmd_append</title>
<ellipse fill="none" stroke="black" cx="590" cy="-1084" rx="104.86" ry="29.6985"/>
<text text-anchor="middle" x="590" y="-1088.4" font-family="Times Roman,serif" font-size="14.00">append a character</text>
<text text-anchor="middle" x="590" y="-1071.4" font-family="Times Roman,serif" font-size="14.00">to command name</text>
</g>
<!-- lbl10 -->
<g id="node31" class="node"><title>lbl10</title>
<polygon fill="#fefefe" stroke="#fefefe" points="562,-1006 388,-1006 388,-964 562,-964 562,-1006"/>
<text text-anchor="middle" x="475" y="-989.4" font-family="Times Roman,serif" font-size="14.00">command name length</text>
<text text-anchor="middle" x="475" y="-972.4" font-family="Times Roman,serif" font-size="14.00">is less than 16</text>
</g>
<!-- cmd_append&#45;&gt;lbl10 -->
<g id="edge30" class="edge"><title>cmd_append&#45;&gt;lbl10</title>
<path fill="none" stroke="black" d="M557.353,-1055.9C539.026,-1040.12 516.527,-1020.75 499.679,-1006.25"/>
</g>
<!-- lbl11 -->
<g id="node34" class="node"><title>lbl11</title>
<polygon fill="#fefefe" stroke="#fefefe" points="565,-562 391,-562 391,-520 565,-520 565,-562"/>
<text text-anchor="middle" x="478" y="-545.4" font-family="Times Roman,serif" font-size="14.00">command name length</text>
<text text-anchor="middle" x="478" y="-528.4" font-family="Times Roman,serif" font-size="14.00">is more than 16</text>
</g>
<!-- cmd_append&#45;&gt;lbl11 -->
<g id="edge34" class="edge"><title>cmd_append&#45;&gt;lbl11</title>
<path fill="none" stroke="black" d="M588.064,-1054.25C585.805,-1029.55 581.011,-993.791 571,-964 552.696,-909.529 526.831,-904.944 510,-850 478.011,-745.576 476.607,-613.011 477.417,-562.164"/>
</g>
<!-- lbl10&#45;&gt;CMD -->
<g id="edge32" class="edge"><title>lbl10&#45;&gt;CMD</title>
<path fill="none" stroke="black" d="M473.594,-1006.09C470.446,-1053.31 462.815,-1167.78 459.101,-1223.49"/>
<polygon fill="black" stroke="black" points="455.585,-1223.6 458.412,-1233.81 462.57,-1224.07 455.585,-1223.6"/>
</g>
<!-- lbl11&#45;&gt;ERROR -->
<g id="edge36" class="edge"><title>lbl11&#45;&gt;ERROR</title>
<path fill="none" stroke="black" d="M487.199,-519.533C498.445,-491.293 516,-439.866 516,-394 516,-394 516,-394 516,-310 516,-243.16 551.402,-171.331 574.197,-132.01"/>
<polygon fill="black" stroke="black" points="577.33,-133.588 579.411,-123.2 571.306,-130.023 577.33,-133.588"/>
</g>
<!-- lbl12&#45;&gt;cmd_list_new -->
<g id="edge40" class="edge"><title>lbl12&#45;&gt;cmd_list_new</title>
<path fill="none" stroke="black" d="M765.286,-1161.94C770.484,-1153.63 776.93,-1143.31 783.412,-1132.94"/>
<polygon fill="black" stroke="black" points="786.508,-1134.59 788.84,-1124.26 780.572,-1130.88 786.508,-1134.59"/>
</g>
<!-- lbl13&#45;&gt;ERROR -->
<g id="edge44" class="edge"><title>lbl13&#45;&gt;ERROR</title>
<path fill="none" stroke="black" d="M367.473,-1065.92C364.906,-1033.92 360,-965.153 360,-907 360,-907 360,-907 360,-310 360,-212.896 474.014,-149.864 542.531,-120.752"/>
<polygon fill="black" stroke="black" points="543.988,-123.937 551.881,-116.869 541.303,-117.472 543.988,-123.937"/>
</g>
<!-- lbl14&#45;&gt;cmd_append -->
<g id="edge48" class="edge"><title>lbl14&#45;&gt;cmd_append</title>
<path fill="none" stroke="black" d="M568.078,-1161.94C571.122,-1151.12 575.116,-1136.92 578.86,-1123.61"/>
<polygon fill="black" stroke="black" points="582.316,-1124.25 581.654,-1113.67 575.577,-1122.35 582.316,-1124.25"/>
</g>
<!-- got_msg -->
<g id="node46" class="node"><title>got_msg</title>
<ellipse fill="cyan" stroke="black" cx="1624" cy="-102" rx="113.137" ry="29.6985"/>
<text text-anchor="middle" x="1624" y="-106.4" font-family="Times Roman,serif" font-size="14.00">message fully parsed</text>
<text text-anchor="middle" x="1624" y="-89.4" font-family="Times Roman,serif" font-size="14.00">execute message</text>
</g>
<!-- got_msg&#45;&gt;MSG -->
<g id="edge50" class="edge"><title>got_msg&#45;&gt;MSG</title>
<path fill="none" stroke="black" d="M1646.51,-131.166C1674.04,-169.816 1717,-241.172 1717,-310 1717,-1342 1717,-1342 1717,-1342 1717,-1489.5 574.909,-1524.81 271.352,-1531.59"/>
<polygon fill="black" stroke="black" points="271.256,-1528.09 261.336,-1531.81 271.41,-1535.09 271.256,-1528.09"/>
</g>
<!-- pop -->
<g id="node48" class="node"><title>pop</title>
<ellipse fill="none" stroke="black" cx="1465" cy="-310" rx="181.934" ry="29.6985"/>
<text text-anchor="middle" x="1465" y="-314.4" font-family="Times Roman,serif" font-size="14.00">pop:</text>
<text text-anchor="middle" x="1465" y="-297.4" font-family="Times Roman,serif" font-size="14.00">current_list = current_list&#45;&gt;parent</text>
</g>
<!-- pop&#45;&gt;LIST -->
<g id="edge60" class="edge"><title>pop&#45;&gt;LIST</title>
<path fill="none" stroke="black" d="M1553.28,-335.922C1612.23,-359.282 1679,-400.254 1679,-466 1679,-808 1679,-808 1679,-808 1679,-896.534 1604.72,-902.298 1520,-928 1393.44,-966.395 980.31,-980.556 853.415,-984.062"/>
<polygon fill="black" stroke="black" points="852.965,-980.573 843.063,-984.342 853.154,-987.57 852.965,-980.573"/>
</g>
<!-- lbl16 -->
<g id="node49" class="node"><title>lbl16</title>
<polygon fill="#fefefe" stroke="#fefefe" points="1614,-244 1448,-244 1448,-168 1614,-168 1614,-244"/>
<text text-anchor="middle" x="1531" y="-227.4" font-family="Times Roman,serif" font-size="14.00">input=\n</text>
<text text-anchor="middle" x="1531" y="-210.4" font-family="Times Roman,serif" font-size="14.00">and</text>
<text text-anchor="middle" x="1531" y="-193.4" font-family="Times Roman,serif" font-size="14.00">current_list == NULL</text>
<text text-anchor="middle" x="1531" y="-176.4" font-family="Times Roman,serif" font-size="14.00">(arg root closed)</text>
</g>
<!-- pop&#45;&gt;lbl16 -->
<g id="edge52" class="edge"><title>pop&#45;&gt;lbl16</title>
<path fill="none" stroke="black" d="M1483.74,-280.476C1490.9,-269.186 1499.18,-256.146 1506.78,-244.163"/>
</g>
<!-- lbl17 -->
<g id="node52" class="node"><title>lbl17</title>
<polygon fill="#fefefe" stroke="#fefefe" points="1313,-244 1123,-244 1123,-168 1313,-168 1313,-244"/>
<text text-anchor="middle" x="1218" y="-227.4" font-family="Times Roman,serif" font-size="14.00">input!=\n</text>
<text text-anchor="middle" x="1218" y="-210.4" font-family="Times Roman,serif" font-size="14.00">and</text>
<text text-anchor="middle" x="1218" y="-193.4" font-family="Times Roman,serif" font-size="14.00">current_list == NULL</text>
<text text-anchor="middle" x="1218" y="-176.4" font-family="Times Roman,serif" font-size="14.00">(unbalanced parenthesis)</text>
</g>
<!-- pop&#45;&gt;lbl17 -->
<g id="edge56" class="edge"><title>pop&#45;&gt;lbl17</title>
<path fill="none" stroke="black" d="M1399.46,-282.403C1371.59,-270.668 1338.63,-256.79 1308.49,-244.102"/>
</g>
<!-- lbl16&#45;&gt;got_msg -->
<g id="edge54" class="edge"><title>lbl16&#45;&gt;got_msg</title>
<path fill="none" stroke="black" d="M1565.1,-167.865C1573.61,-158.354 1582.71,-148.175 1591.15,-138.733"/>
<polygon fill="black" stroke="black" points="1594,-140.794 1598.06,-131.007 1588.79,-136.128 1594,-140.794"/>
</g>
<!-- lbl17&#45;&gt;ERROR -->
<g id="edge58" class="edge"><title>lbl17&#45;&gt;ERROR</title>
<path fill="none" stroke="black" d="M1122.89,-189.951C1082.53,-183.155 1034.97,-175.167 992,-168 867.152,-147.178 720.282,-122.953 644.314,-110.443"/>
<polygon fill="black" stroke="black" points="644.511,-106.929 634.075,-108.757 643.373,-113.836 644.511,-106.929"/>
</g>
<!-- push -->
<g id="node56" class="node"><title>push</title>
<ellipse fill="none" stroke="black" cx="1500" cy="-808" rx="150.821" ry="41.7193"/>
<text text-anchor="middle" x="1500" y="-820.9" font-family="Times Roman,serif" font-size="14.00">push:create new list</text>
<text text-anchor="middle" x="1500" y="-803.9" font-family="Times Roman,serif" font-size="14.00">append it as current&#39;s sibling</text>
<text text-anchor="middle" x="1500" y="-786.9" font-family="Times Roman,serif" font-size="14.00">make it current</text>
</g>
<!-- push&#45;&gt;LIST -->
<g id="edge62" class="edge"><title>push&#45;&gt;LIST</title>
<path fill="none" stroke="black" d="M1458.22,-847.983C1426.9,-875.409 1381.58,-909.982 1335,-928 1246.71,-962.151 957.029,-978.518 853.335,-983.387"/>
<polygon fill="black" stroke="black" points="852.87,-979.905 843.041,-983.862 853.192,-986.898 852.87,-979.905"/>
</g>
<!-- new_str -->
<g id="node58" class="node"><title>new_str</title>
<ellipse fill="none" stroke="black" cx="977" cy="-808" rx="161.927" ry="41.7193"/>
<text text-anchor="middle" x="977" y="-820.9" font-family="Times Roman,serif" font-size="14.00">create a new bin or text string</text>
<text text-anchor="middle" x="977" y="-803.9" font-family="Times Roman,serif" font-size="14.00">node and append it to</text>
<text text-anchor="middle" x="977" y="-786.9" font-family="Times Roman,serif" font-size="14.00">the current list</text>
</g>
<!-- lbl19 -->
<g id="node59" class="node"><title>lbl19</title>
<polygon fill="#fefefe" stroke="#fefefe" points="922,-730 760,-730 760,-694 922,-694 922,-730"/>
<text text-anchor="middle" x="841" y="-707.9" font-family="Times Roman,serif" font-size="14.00">current is generic list</text>
</g>
<!-- new_str&#45;&gt;lbl19 -->
<g id="edge64" class="edge"><title>new_str&#45;&gt;lbl19</title>
<path fill="none" stroke="black" d="M921.684,-768.953C902.563,-755.456 882.056,-740.981 866.501,-730.001"/>
</g>
<!-- lbl20 -->
<g id="node63" class="node"><title>lbl20</title>
<polygon fill="#fefefe" stroke="#fefefe" points="1094,-730 940,-730 940,-694 1094,-694 1094,-730"/>
<text text-anchor="middle" x="1017" y="-707.9" font-family="Times Roman,serif" font-size="14.00">current is binary list</text>
</g>
<!-- new_str&#45;&gt;lbl20 -->
<g id="edge68" class="edge"><title>new_str&#45;&gt;lbl20</title>
<path fill="none" stroke="black" d="M994.196,-766.73C999.532,-753.924 1005.14,-740.465 1009.46,-730.099"/>
</g>
<!-- tstr_append -->
<g id="node62" class="node"><title>tstr_append</title>
<ellipse fill="none" stroke="black" cx="896" cy="-628" rx="128.053" ry="18"/>
<text text-anchor="middle" x="896" y="-623.9" font-family="Times Roman,serif" font-size="14.00">append to current string</text>
</g>
<!-- lbl19&#45;&gt;tstr_append -->
<g id="edge66" class="edge"><title>lbl19&#45;&gt;tstr_append</title>
<path fill="none" stroke="black" d="M852.934,-693.773C860.43,-682.325 870.226,-667.364 878.581,-654.604"/>
<polygon fill="black" stroke="black" points="881.539,-656.475 884.089,-646.191 875.683,-652.64 881.539,-656.475"/>
</g>
<!-- tstr_append&#45;&gt;TSTR -->
<g id="edge100" class="edge"><title>tstr_append&#45;&gt;TSTR</title>
<path fill="none" stroke="black" d="M923.117,-610.394C941.937,-598.175 967.358,-581.671 988.687,-567.823"/>
<polygon fill="black" stroke="black" points="990.76,-570.65 997.241,-562.269 986.948,-564.779 990.76,-570.65"/>
</g>
<!-- lbl28 -->
<g id="node86" class="node"><title>lbl28</title>
<polygon fill="#fefefe" stroke="#fefefe" points="849,-224 705,-224 705,-188 849,-188 849,-224"/>
<text text-anchor="middle" x="777" y="-201.9" font-family="Times Roman,serif" font-size="14.00">string length &gt; 16</text>
</g>
<!-- tstr_append&#45;&gt;lbl28 -->
<g id="edge96" class="edge"><title>tstr_append&#45;&gt;lbl28</title>
<path fill="none" stroke="black" d="M893.081,-609.731C886.178,-567.873 867.494,-462.012 842,-376 825.209,-319.348 798.265,-254.752 784.961,-224.046"/>
</g>
<!-- bstr_append -->
<g id="node66" class="node"><title>bstr_append</title>
<ellipse fill="none" stroke="black" cx="1128" cy="-628" rx="70.1831" ry="18"/>
<text text-anchor="middle" x="1128" y="-623.9" font-family="Times Roman,serif" font-size="14.00">bstr_append</text>
</g>
<!-- lbl20&#45;&gt;bstr_append -->
<g id="edge70" class="edge"><title>lbl20&#45;&gt;bstr_append</title>
<path fill="none" stroke="black" d="M1040.81,-693.98C1057.24,-681.552 1079.23,-664.91 1097.01,-651.45"/>
<polygon fill="black" stroke="black" points="1099.5,-653.955 1105.36,-645.13 1095.28,-648.374 1099.5,-653.955"/>
</g>
<!-- lbl21&#45;&gt;pop -->
<g id="edge74" class="edge"><title>lbl21&#45;&gt;pop</title>
<path fill="none" stroke="black" d="M1465,-375.773C1465,-368.131 1465,-358.922 1465,-349.848"/>
<polygon fill="black" stroke="black" points="1468.5,-349.75 1465,-339.75 1461.5,-349.75 1468.5,-349.75"/>
</g>
<!-- lbl22&#45;&gt;push -->
<g id="edge78" class="edge"><title>lbl22&#45;&gt;push</title>
<path fill="none" stroke="black" d="M1472.24,-888.842C1475.14,-880.38 1478.76,-869.842 1482.42,-859.199"/>
<polygon fill="black" stroke="black" points="1485.83,-860.046 1485.76,-849.452 1479.21,-857.773 1485.83,-860.046"/>
</g>
<!-- lbl23&#45;&gt;LIST -->
<g id="edge82" class="edge"><title>lbl23&#45;&gt;LIST</title>
<path fill="none" stroke="black" d="M754.857,-928.018C766.074,-936.912 778.595,-947.403 789.416,-956.944"/>
<polygon fill="black" stroke="black" points="787.165,-959.626 796.951,-963.686 791.833,-954.41 787.165,-959.626"/>
</g>
<!-- lbl24&#45;&gt;ERROR -->
<g id="edge86" class="edge"><title>lbl24&#45;&gt;ERROR</title>
<path fill="none" stroke="black" d="M629.912,-786.837C616.506,-753.643 593,-687.025 593,-628 593,-628 593,-628 593,-310 593,-247.349 593,-174.082 593,-133.365"/>
<polygon fill="black" stroke="black" points="596.5,-133.26 593,-123.26 589.5,-133.26 596.5,-133.26"/>
</g>
<!-- lbl25&#45;&gt;new_str -->
<g id="edge90" class="edge"><title>lbl25&#45;&gt;new_str</title>
<path fill="none" stroke="black" d="M941.07,-888.842C944.87,-880.293 949.611,-869.626 954.39,-858.873"/>
<polygon fill="black" stroke="black" points="957.714,-860.011 958.577,-849.452 951.317,-857.168 957.714,-860.011"/>
</g>
<!-- str_fin -->
<g id="node82" class="node"><title>str_fin</title>
<ellipse fill="none" stroke="black" cx="727" cy="-394" rx="105.818" ry="18"/>
<text text-anchor="middle" x="727" y="-389.9" font-family="Times Roman,serif" font-size="14.00">finish current string</text>
</g>
<!-- str_fin&#45;&gt;LIST -->
<g id="edge92" class="edge"><title>str_fin&#45;&gt;LIST</title>
<path fill="none" stroke="black" d="M728.012,-412.098C729.473,-439.833 732,-494.525 732,-541 732,-628 732,-628 732,-628 732,-674.113 736.816,-686.123 751,-730 756.443,-746.836 762.292,-749.252 768,-766 790.167,-831.041 804.588,-910.524 811.404,-953.599"/>
<polygon fill="black" stroke="black" points="807.985,-954.388 812.974,-963.735 814.902,-953.317 807.985,-954.388"/>
</g>
<!-- str_fin_pop -->
<g id="node84" class="node"><title>str_fin_pop</title>
<ellipse fill="none" stroke="black" cx="1296" cy="-394" rx="105.818" ry="18"/>
<text text-anchor="middle" x="1296" y="-389.9" font-family="Times Roman,serif" font-size="14.00">finish current string</text>
</g>
<!-- str_fin_pop&#45;&gt;pop -->
<g id="edge94" class="edge"><title>str_fin_pop&#45;&gt;pop</title>
<path fill="none" stroke="black" d="M1330.61,-376.799C1350.39,-366.968 1375.85,-354.313 1399.28,-342.667"/>
<polygon fill="black" stroke="black" points="1401.09,-345.676 1408.48,-338.091 1397.97,-339.408 1401.09,-345.676"/>
</g>
<!-- lbl28&#45;&gt;ERROR -->
<g id="edge98" class="edge"><title>lbl28&#45;&gt;ERROR</title>
<path fill="none" stroke="black" d="M744.95,-187.885C715.774,-171.394 672.351,-146.851 639.387,-128.219"/>
<polygon fill="black" stroke="black" points="640.815,-125.006 630.388,-123.132 637.371,-131.1 640.815,-125.006"/>
</g>
<!-- lbl30&#45;&gt;str_fin -->
<g id="edge104" class="edge"><title>lbl30&#45;&gt;str_fin</title>
<path fill="none" stroke="black" d="M890.271,-447.924C858.381,-437.392 818.17,-424.111 785.634,-413.365"/>
<polygon fill="black" stroke="black" points="786.394,-409.931 775.801,-410.118 784.199,-416.577 786.394,-409.931"/>
</g>
<!-- lbl31&#45;&gt;str_fin_pop -->
<g id="edge108" class="edge"><title>lbl31&#45;&gt;str_fin_pop</title>
<path fill="none" stroke="black" d="M1148.25,-449.119C1176.38,-438.626 1212.69,-425.079 1242.28,-414.042"/>
<polygon fill="black" stroke="black" points="1243.88,-417.178 1252.03,-410.403 1241.44,-410.619 1243.88,-417.178"/>
</g>
<!-- lbl32&#45;&gt;ERROR -->
<g id="edge112" class="edge"><title>lbl32&#45;&gt;ERROR</title>
<path fill="none" stroke="black" d="M982.597,-291.595C961.005,-261.038 913.473,-200.035 858,-168 790.359,-128.938 700.029,-112.818 644.226,-106.29"/>
<polygon fill="black" stroke="black" points="644.547,-102.804 634.222,-105.179 643.774,-109.761 644.547,-102.804"/>
</g>
<!-- lbl33&#45;&gt;tstr_append -->
<g id="edge116" class="edge"><title>lbl33&#45;&gt;tstr_append</title>
<path fill="none" stroke="black" d="M1202.21,-484.138C1182.59,-505.606 1147.16,-541.073 1110,-562 1069.94,-584.56 1021.23,-600.361 980.406,-610.833"/>
<polygon fill="black" stroke="black" points="979.331,-607.494 970.478,-613.315 981.029,-614.285 979.331,-607.494"/>
</g>
<!-- read_base64 -->
<g id="node102" class="node"><title>read_base64</title>
<ellipse fill="none" stroke="black" cx="1348" cy="-628" rx="85.7684" ry="29.6985"/>
<text text-anchor="middle" x="1348" y="-632.4" font-family="Times Roman,serif" font-size="14.00">store next digit</text>
<text text-anchor="middle" x="1348" y="-615.4" font-family="Times Roman,serif" font-size="14.00">of string length</text>
</g>
<!-- read_base64&#45;&gt;BSTR -->
<g id="edge118" class="edge"><title>read_base64&#45;&gt;BSTR</title>
<path fill="none" stroke="black" d="M1321.52,-656.281C1311.46,-667.618 1300.22,-681.049 1291,-694 1271.77,-721.02 1253.15,-754.01 1240.61,-777.535"/>
<polygon fill="black" stroke="black" points="1237.36,-776.202 1235.8,-786.68 1243.55,-779.465 1237.36,-776.202"/>
</g>
<!-- lbl35&#45;&gt;read_base64 -->
<g id="edge122" class="edge"><title>lbl35&#45;&gt;read_base64</title>
<path fill="none" stroke="black" d="M1351.13,-693.773C1350.77,-686.131 1350.33,-676.922 1349.9,-667.848"/>
<polygon fill="black" stroke="black" points="1353.39,-667.572 1349.42,-657.75 1346.4,-667.905 1353.39,-667.572"/>
</g>
<!-- lbl36&#45;&gt;bstr_append -->
<g id="edge126" class="edge"><title>lbl36&#45;&gt;bstr_append</title>
<path fill="none" stroke="black" d="M1152.27,-693.773C1148.17,-682.656 1142.84,-668.224 1138.23,-655.713"/>
<polygon fill="black" stroke="black" points="1141.46,-654.361 1134.71,-646.191 1134.89,-656.785 1141.46,-654.361"/>
</g>
<!-- lbl37&#45;&gt;str_fin_pop -->
<g id="edge130" class="edge"><title>lbl37&#45;&gt;str_fin_pop</title>
<path fill="none" stroke="black" d="M1284.59,-522.975C1286.82,-497.847 1290.87,-452.039 1293.5,-422.324"/>
<polygon fill="black" stroke="black" points="1297,-422.442 1294.39,-412.173 1290.03,-421.825 1297,-422.442"/>
</g>
<!-- lbl38&#45;&gt;ERROR -->
<g id="edge134" class="edge"><title>lbl38&#45;&gt;ERROR</title>
<path fill="none" stroke="black" d="M598.661,-36.0588C599.693,-46.1099 599.991,-58.9075 599.557,-70.5491"/>
<polygon fill="black" stroke="black" points="596.047,-70.6145 598.952,-80.8033 603.035,-71.0267 596.047,-70.6145"/>
</g>
</g>
</svg>
