<?xml version="1.0" encoding="UTF-8" standalone="no"?>
<!DOCTYPE svg PUBLIC "-//W3C//DTD SVG 1.1//EN" "http://www.w3.org/Graphics/SVG/1.1/DTD/svg11.dtd">
<!-- Generated by aagraph -->
<svg width="1504pt" height="720pt" viewBox="-8 -18 1512 738" xmlns="http://www.w3.org/2000/svg" xmlns:xlink="http://www.w3.org/1999/xlink">
<g>
	<marker id="ahs" viewBox="0 0 60 60" refX="0" refY="30" markerUnits="strokeWidth" markerWidth="8" markerHeight="10" orient="auto">
		<path d="M 60 0 L 0 30 L 60 60 z" />
	</marker>
	<marker id="ahe" viewBox="-60 0 60 60" refX="0" refY="30" markerUnits="strokeWidth" markerWidth="8" markerHeight="10" orient="auto">
		<g transform="scale(-1 1)">
		<path d="M 60 0 L 0 30 L 60 60 z" />
		</g>
	</marker>

	<polygon fill="#00ffff" stroke="#000000"  points="176,165.6 1200,165.6  1200,518.4 176,518.4"/>
	<text fill="#000000" text-anchor="middle" x="688" y="342" font-family="Times,serif" font-size="14.00"><tspan dy="-0.2em">pcb-rnd</tspan></text>
	<polygon fill="#cccccc" stroke="#cccccc"  points="144,561.6 1232,561.6  1232,698.4 144,698.4"/>
	<text fill="#884433" text-anchor="middle" x="688" y="698.4" font-family="Times,serif" font-size="14.00"><tspan dy="-0.2em">output-only</tspan></text>
	<polygon fill="#cccccc" stroke="#cccccc"  points="176,-14.4 1200,-14.4  1200,122.4 176,122.4"/>
	<text fill="#884433" text-anchor="middle" x="688" y="-14.4" font-family="Times,serif" font-size="14.00"><tspan dy="0.8em">input-output</tspan></text>
	<polygon fill="#cccccc" stroke="#cccccc"  points="1280,129.6 1456,129.6  1456,518.4 1280,518.4"/>
	<text fill="#884433" text-anchor="middle" x="1368" y="129.6" font-family="Times,serif" font-size="14.00"><tspan dy="0.8em">HID (GUI)</tspan></text>
	<polygon fill="#cccccc" stroke="#cccccc"  points="0,129.6 96,129.6  96,554.4 0,554.4"/>
	<text fill="#884433" text-anchor="middle" x="48" y="129.6" font-family="Times,serif" font-size="14.00"><tspan dy="0.8em">input-only</tspan></text>
	<polygon fill="none" stroke="#000000"  points="256,21.6 464,21.6  464,50.4 256,50.4"/>
	<text fill="#000000" text-anchor="middle" x="360" y="36" font-family="Times,serif" font-size="14.00"><tspan dy="-0.2em">kicad</tspan><tspan x="360" dy="1em">pcbnew</tspan></text>
	<polygon fill="none" stroke="#000000"  points="1296,237.6 1424,237.6  1424,266.4 1296,266.4"/>
	<text fill="#000000" text-anchor="middle" x="1360" y="252" font-family="Times,serif" font-size="14.00"><tspan dy="-0.2em">gtk</tspan><tspan x="1360" dy="1em">gdk or gl render</tspan></text>
	<polygon fill="none" stroke="#aaaaaa"  points="1280,597.6 1408,597.6  1408,626.4 1280,626.4"/>
	<text fill="#aaaaaa" text-anchor="middle" x="1344" y="612" font-family="Times,serif" font-size="14.00"><tspan dy="-0.2em">web client</tspan><tspan x="1344" dy="1em">(javascript)</tspan></text>
	<polygon fill="none" stroke="#000000"  points="1296,165.6 1408,165.6  1408,194.4 1296,194.4"/>
	<text fill="#000000" text-anchor="middle" x="1352" y="180" font-family="Times,serif" font-size="14.00"><tspan dy="-0.2em">batch</tspan><tspan x="1352" dy="1em">CLI/automation</tspan></text>
	<polygon fill="none" stroke="#000000"  points="1296,309.6 1408,309.6  1408,338.4 1296,338.4"/>
	<text fill="#000000" text-anchor="middle" x="1352" y="324" font-family="Times,serif" font-size="14.00"><tspan dy="-0.2em">lesstif</tspan><tspan x="1352" dy="1em">(motif)</tspan></text>
	<polygon fill="none" stroke="#000000"  points="624,21.6 736,21.6  736,50.4 624,50.4"/>
	<text fill="#000000" text-anchor="middle" x="680" y="36" font-family="Times,serif" font-size="14.00"><tspan dy="-0.2em">gEDA</tspan><tspan x="680" dy="1em">pcb</tspan></text>
	<polygon fill="none" stroke="#000000"  points="1296,381.6 1392,381.6  1392,410.4 1296,410.4"/>
	<text fill="#000000" text-anchor="middle" x="1344" y="396" font-family="Times,serif" font-size="14.00"><tspan dy="-0.2em">remote</tspan><tspan x="1344" dy="1em">(network)</tspan></text>
	<polygon fill="none" stroke="#000000"  points="496,57.6 592,57.6  592,86.4 496,86.4"/>
	<text fill="#000000" text-anchor="middle" x="544" y="72" font-family="Times,serif" font-size="14.00"><tspan dy="-0.2em">freerouting.net</tspan><tspan x="544" dy="1em">autorouter</tspan></text>
	<polygon fill="none" stroke="#000000"  points="16,417.6 80,417.6  80,446.4 16,446.4"/>
	<text fill="#000000" text-anchor="middle" x="48" y="432" font-family="Times,serif" font-size="14.00"><tspan dy="-0.2em">(any)</tspan><tspan x="48" dy="1em">IPC-D-356</tspan></text>
	<polygon fill="none" stroke="#000000"  points="16,345.6 80,345.6  80,374.4 16,374.4"/>
	<text fill="#000000" text-anchor="middle" x="48" y="360" font-family="Times,serif" font-size="14.00"><tspan dy="-0.2em">(any)</tspan><tspan x="48" dy="1em">EDIF</tspan></text>
	<polygon fill="none" stroke="#000000"  points="16,309.6 80,309.6  80,338.4 16,338.4"/>
	<text fill="#000000" text-anchor="middle" x="48" y="324" font-family="Times,serif" font-size="14.00"><tspan dy="-0.2em">TinyCAD</tspan></text>
	<polygon fill="none" stroke="#000000"  points="16,489.6 80,489.6  80,518.4 16,518.4"/>
	<text fill="#000000" text-anchor="middle" x="48" y="504" font-family="Times,serif" font-size="14.00"><tspan dy="-0.2em">HPGL</tspan><tspan x="48" dy="1em">(2D CAD)</tspan></text>
	<polygon fill="none" stroke="#000000"  points="16,273.6 80,273.6  80,302.4 16,302.4"/>
	<text fill="#000000" text-anchor="middle" x="48" y="288" font-family="Times,serif" font-size="14.00"><tspan dy="-0.2em">LTSpice</tspan></text>
	<polygon fill="none" stroke="#000000"  points="16,201.6 80,201.6  80,230.4 16,230.4"/>
	<text fill="#000000" text-anchor="middle" x="48" y="216" font-family="Times,serif" font-size="14.00"><tspan dy="-0.2em">mucs PCB</tspan><tspan x="48" dy="1em">autorouter</tspan></text>
	<polygon fill="none" stroke="#000000"  points="16,237.6 80,237.6  80,266.4 16,266.4"/>
	<text fill="#000000" text-anchor="middle" x="48" y="252" font-family="Times,serif" font-size="14.00"><tspan dy="-0.2em">lepton</tspan><tspan x="48" dy="1em">EDA</tspan></text>
	<polygon fill="none" stroke="#000000"  points="16,453.6 80,453.6  80,482.4 16,482.4"/>
	<text fill="#000000" text-anchor="middle" x="48" y="468" font-family="Times,serif" font-size="14.00"><tspan dy="-0.2em">EasyEDA</tspan><tspan x="48" dy="1em">(web2.0)</tspan></text>
	<polygon fill="none" stroke="#000000"  points="16,165.6 80,165.6  80,194.4 16,194.4"/>
	<text fill="#000000" text-anchor="middle" x="48" y="180" font-family="Times,serif" font-size="14.00"><tspan dy="-0.2em">kicad</tspan><tspan x="48" dy="1em">eeschema</tspan></text>
	<polygon fill="none" stroke="#000000"  points="16,381.6 80,381.6  80,410.4 16,410.4"/>
	<text fill="#000000" text-anchor="middle" x="48" y="396" font-family="Times,serif" font-size="14.00"><tspan dy="-0.2em">(any)</tspan><tspan x="48" dy="1em">netlist</tspan></text>
	<polygon fill="none" stroke="#000000"  points="832,21.6 896,21.6  896,50.4 832,50.4"/>
	<text fill="#000000" text-anchor="middle" x="864" y="36" font-family="Times,serif" font-size="14.00"><tspan dy="-0.2em">Mentor</tspan><tspan x="864" dy="1em">hyperlynx</tspan></text>
	<polygon fill="none" stroke="#000000"  points="992,21.6 1056,21.6  1056,50.4 992,50.4"/>
	<text fill="#000000" text-anchor="middle" x="1024" y="36" font-family="Times,serif" font-size="14.00"><tspan dy="-0.2em">gEDA</tspan><tspan x="1024" dy="1em">gschem</tspan></text>
	<polygon fill="none" stroke="#000000"  points="1072,57.6 1136,57.6  1136,86.4 1072,86.4"/>
	<text fill="#000000" text-anchor="middle" x="1104" y="72" font-family="Times,serif" font-size="14.00"><tspan dy="-0.2em">Eagle</tspan><tspan x="1104" dy="1em">(board)</tspan></text>
	<polygon fill="none" stroke="#000000"  points="752,57.6 816,57.6  816,86.4 752,86.4"/>
	<text fill="#000000" text-anchor="middle" x="784" y="72" font-family="Times,serif" font-size="14.00"><tspan dy="-0.2em">FidoCadJ</tspan><tspan x="784" dy="1em">(board)</tspan></text>
	<polygon fill="none" stroke="#000000"  points="912,57.6 976,57.6  976,86.4 912,86.4"/>
	<text fill="#000000" text-anchor="middle" x="944" y="72" font-family="Times,serif" font-size="14.00"><tspan dy="-0.2em">Protel</tspan><tspan x="944" dy="1em">Autotrax</tspan></text>
	<polygon fill="none" stroke="#000000"  points="656,597.6 720,597.6  720,626.4 656,626.4"/>
	<text fill="#000000" text-anchor="middle" x="688" y="612" font-family="Times,serif" font-size="14.00"><tspan dy="-0.2em">gerber</tspan></text>
	<polygon fill="none" stroke="#000000"  points="576,633.6 640,633.6  640,662.4 576,662.4"/>
	<text fill="#000000" text-anchor="middle" x="608" y="648" font-family="Times,serif" font-size="14.00"><tspan dy="-0.2em">svg</tspan></text>
	<polygon fill="none" stroke="#000000"  points="976,597.6 1040,597.6  1040,626.4 976,626.4"/>
	<text fill="#000000" text-anchor="middle" x="1008" y="612" font-family="Times,serif" font-size="14.00"><tspan dy="-0.2em">lpr</tspan><tspan x="1008" dy="1em">(print)</tspan></text>
	<polygon fill="none" stroke="#000000"  points="816,597.6 880,597.6  880,626.4 816,626.4"/>
	<text fill="#000000" text-anchor="middle" x="848" y="612" font-family="Times,serif" font-size="14.00"><tspan dy="-0.2em">ipcd356</tspan><tspan x="848" dy="1em">e-tester</tspan></text>
	<polygon fill="none" stroke="#000000"  points="736,633.6 800,633.6  800,662.4 736,662.4"/>
	<text fill="#000000" text-anchor="middle" x="768" y="648" font-family="Times,serif" font-size="14.00"><tspan dy="-0.2em">png</tspan><tspan x="768" dy="1em">jpg, bmp</tspan></text>
	<polygon fill="none" stroke="#000000"  points="176,597.6 240,597.6  240,626.4 176,626.4"/>
	<text fill="#000000" text-anchor="middle" x="208" y="612" font-family="Times,serif" font-size="14.00"><tspan dy="-0.2em">breadboard</tspan></text>
	<polygon fill="none" stroke="#000000"  points="416,633.6 480,633.6  480,662.4 416,662.4"/>
	<text fill="#000000" text-anchor="middle" x="448" y="648" font-family="Times,serif" font-size="14.00"><tspan dy="-0.2em">ps</tspan><tspan x="448" dy="1em">postscript</tspan></text>
	<polygon fill="none" stroke="#000000"  points="1056,633.6 1120,633.6  1120,662.4 1056,662.4"/>
	<text fill="#000000" text-anchor="middle" x="1088" y="648" font-family="Times,serif" font-size="14.00"><tspan dy="-0.2em">dxf</tspan><tspan x="1088" dy="1em">(2D CAD)</tspan></text>
	<polygon fill="none" stroke="#000000"  points="496,597.6 560,597.6  560,626.4 496,626.4"/>
	<text fill="#000000" text-anchor="middle" x="528" y="612" font-family="Times,serif" font-size="14.00"><tspan dy="-0.2em">XY</tspan><tspan x="528" dy="1em">templated</tspan></text>
	<polygon fill="none" stroke="#000000"  points="896,633.6 960,633.6  960,662.4 896,662.4"/>
	<text fill="#000000" text-anchor="middle" x="928" y="648" font-family="Times,serif" font-size="14.00"><tspan dy="-0.2em">nelma</tspan><tspan x="928" dy="1em">(sim)</tspan></text>
	<polygon fill="none" stroke="#000000"  points="1136,597.6 1200,597.6  1200,626.4 1136,626.4"/>
	<text fill="#000000" text-anchor="middle" x="1168" y="612" font-family="Times,serif" font-size="14.00"><tspan dy="-0.2em">openscad</tspan><tspan x="1168" dy="1em">(3D CAD)</tspan></text>
	<polygon fill="none" stroke="#000000"  points="336,597.6 400,597.6  400,626.4 336,626.4"/>
	<text fill="#000000" text-anchor="middle" x="368" y="612" font-family="Times,serif" font-size="14.00"><tspan dy="-0.2em">BOM</tspan></text>
	<polygon fill="none" stroke="#000000"  points="256,633.6 320,633.6  320,662.4 256,662.4"/>
	<text fill="#000000" text-anchor="middle" x="288" y="648" font-family="Times,serif" font-size="14.00"><tspan dy="-0.2em">stat</tspan><tspan x="288" dy="1em">statistics</tspan></text>
	<line  marker-end="url(#ahe)"  x1="1008" y1="518.4" x2="1008" y2="597.6" stroke="#000000"/>
	<g transform="rotate(-90 1008 558)">
	<text fill="#000000" text-anchor="middle" x="1008" y="558" font-family="Times,serif" font-size="14.00"><tspan dy="-0.2em">ps</tspan></text>
	</g>
	<line  marker-end="url(#ahe)"  x1="448" y1="518.4" x2="448" y2="633.6" stroke="#000000"/>
	<g transform="rotate(-90 448 576)">
	<text fill="#000000" text-anchor="middle" x="448" y="576" font-family="Times,serif" font-size="14.00"><tspan dy="-0.2em">postscript</tspan></text>
	</g>
	<line  marker-end="url(#ahe)"  x1="1088" y1="518.4" x2="1088" y2="633.6" stroke="#000000"/>
	<line  marker-end="url(#ahe)"  x1="1168" y1="518.4" x2="1168" y2="597.6" stroke="#000000"/>
	<line  marker-end="url(#ahe)"  x1="608" y1="518.4" x2="608" y2="633.6" stroke="#000000"/>
	<g transform="rotate(-90 608 576)">
	<text fill="#000000" text-anchor="middle" x="608" y="576" font-family="Times,serif" font-size="14.00"><tspan dy="-0.2em">svg</tspan></text>
	</g>
	<line  marker-end="url(#ahe)"  x1="288" y1="518.4" x2="288" y2="633.6" stroke="#000000"/>
	<g transform="rotate(-90 288 576)">
	<text fill="#000000" text-anchor="middle" x="288" y="576" font-family="Times,serif" font-size="14.00"><tspan dy="-0.2em">lihata</tspan></text>
	</g>
	<line  marker-end="url(#ahe)"  x1="80" y1="216" x2="176" y2="216" stroke="#000000"/>
	<text fill="#000000" text-anchor="middle" x="128" y="216" font-family="Times,serif" font-size="14.00"><tspan dy="-0.2em">import</tspan><tspan x="128" dy="1em">netlist</tspan></text>
	<line  marker-end="url(#ahe)"  x1="768" y1="518.4" x2="768" y2="633.6" stroke="#000000"/>
	<line  marker-end="url(#ahe)"  x1="80" y1="324" x2="176" y2="324" stroke="#000000"/>
	<text fill="#000000" text-anchor="middle" x="128" y="324" font-family="Times,serif" font-size="14.00"><tspan dy="-0.2em">import</tspan><tspan x="128" dy="1em">schematics</tspan></text>
	<line  marker-end="url(#ahe)"  x1="80" y1="252" x2="176" y2="252" stroke="#000000"/>
	<text fill="#000000" text-anchor="middle" x="128" y="252" font-family="Times,serif" font-size="14.00"><tspan dy="-0.2em">import</tspan><tspan x="128" dy="1em">schematics</tspan></text>
	<line  marker-end="url(#ahe)"  x1="928" y1="518.4" x2="928" y2="633.6" stroke="#000000"/>
	<line  marker-end="url(#ahe)"  x1="80" y1="432" x2="176" y2="432" stroke="#000000"/>
	<text fill="#000000" text-anchor="middle" x="128" y="432" font-family="Times,serif" font-size="14.00"><tspan dy="-0.2em">netlist</tspan><tspan x="128" dy="1em">pads/subcs</tspan></text>
	<line  marker-end="url(#ahe)"  x1="80" y1="360" x2="176" y2="360" stroke="#000000"/>
	<text fill="#000000" text-anchor="middle" x="128" y="360" font-family="Times,serif" font-size="14.00"><tspan dy="-0.2em">import</tspan><tspan x="128" dy="1em">schematics</tspan></text>
	<line  marker-end="url(#ahe)"  x1="80" y1="288" x2="176" y2="288" stroke="#000000"/>
	<text fill="#000000" text-anchor="middle" x="128" y="288" font-family="Times,serif" font-size="14.00"><tspan dy="-0.2em">import</tspan><tspan x="128" dy="1em">schematics</tspan></text>
	<line  marker-end="url(#ahe)"  x1="80" y1="468" x2="176" y2="468" stroke="#000000"/>
	<text fill="#000000" text-anchor="middle" x="128" y="468" font-family="Times,serif" font-size="14.00"><tspan dy="-0.2em">import</tspan><tspan x="128" dy="1em">schematics</tspan></text>
	<line  marker-end="url(#ahe)"  x1="80" y1="396" x2="176" y2="396" stroke="#000000"/>
	<text fill="#000000" text-anchor="middle" x="128" y="396" font-family="Times,serif" font-size="14.00"><tspan dy="-0.2em">import</tspan><tspan x="128" dy="1em">netlist</tspan></text>
	<line  marker-end="url(#ahe)" marker-start="url(#ahs)"  x1="864" y1="50.4" x2="864" y2="165.6" stroke="#000000"/>
	<g transform="rotate(-90 864 108)">
	<text fill="#000000" text-anchor="middle" x="864" y="108" font-family="Times,serif" font-size="14.00"><tspan dy="-0.2em">board</tspan></text>
	</g>
	<line  marker-end="url(#ahe)"  x1="80" y1="504" x2="176" y2="504" stroke="#000000"/>
	<text fill="#000000" text-anchor="middle" x="128" y="504" font-family="Times,serif" font-size="14.00"><tspan dy="-0.2em">import</tspan><tspan x="128" dy="1em">lines/arcs</tspan></text>
	<line  marker-end="url(#ahe)"  x1="208" y1="518.4" x2="208" y2="597.6" stroke="#000000"/>
	<g transform="rotate(-90 208 558)">
	<text fill="#000000" text-anchor="middle" x="208" y="558" font-family="Times,serif" font-size="14.00"><tspan dy="-0.2em">.png</tspan></text>
	</g>
	<line  marker-end="url(#ahe)" marker-start="url(#ahs)"  x1="713.6" y1="50.4" x2="713.6" y2="165.6" stroke="#000000"/>
	<g transform="rotate(-90 713.6 108)">
	<text fill="#000000" text-anchor="middle" x="713.6" y="108" font-family="Times,serif" font-size="14.00"><tspan dy="-0.2em">footprint</tspan></text>
	</g>
	<line  marker-end="url(#ahe)" marker-start="url(#ahs)"  x1="1024" y1="50.4" x2="1024" y2="165.6" stroke="#000000"/>
	<g transform="rotate(-90 1024 108)">
	<text fill="#000000" text-anchor="middle" x="1024" y="108" font-family="Times,serif" font-size="14.00"><tspan dy="-0.2em">schematics</tspan></text>
	</g>
	<line  marker-end="url(#ahe)"  x1="688" y1="518.4" x2="688" y2="597.6" stroke="#000000"/>
	<g transform="rotate(-90 688 558)">
	<text fill="#000000" text-anchor="middle" x="688" y="558" font-family="Times,serif" font-size="14.00"><tspan dy="-0.2em">.grb, .cnc</tspan></text>
	</g>
	<line  marker-end="url(#ahe)" marker-start="url(#ahs)"  x1="443.2" y1="50.4" x2="443.2" y2="165.6" stroke="#000000"/>
	<g transform="rotate(-90 443.2 108)">
	<text fill="#000000" text-anchor="middle" x="443.2" y="108" font-family="Times,serif" font-size="14.00"><tspan dy="-0.2em">footprint</tspan><tspan x="443.2" dy="1em">s-expr</tspan></text>
	</g>
	<line  marker-end="url(#ahe)"  x1="368" y1="518.4" x2="368" y2="597.6" stroke="#000000"/>
	<g transform="rotate(-90 368 558)">
	<text fill="#000000" text-anchor="middle" x="368" y="558" font-family="Times,serif" font-size="14.00"><tspan dy="-0.2em">text</tspan></text>
	</g>
	<line  marker-end="url(#ahe)" marker-start="url(#ahs)"  x1="276.8" y1="50.4" x2="276.8" y2="165.6" stroke="#000000"/>
	<g transform="rotate(-90 276.8 108)">
	<text fill="#000000" text-anchor="middle" x="276.8" y="108" font-family="Times,serif" font-size="14.00"><tspan dy="-0.2em">board</tspan><tspan x="276.8" dy="1em">s-expr</tspan></text>
	</g>
	<line  marker-end="url(#ahe)" marker-start="url(#ahs)"  x1="646.4" y1="50.4" x2="646.4" y2="165.6" stroke="#000000"/>
	<g transform="rotate(-90 646.4 108)">
	<text fill="#000000" text-anchor="middle" x="646.4" y="108" font-family="Times,serif" font-size="14.00"><tspan dy="-0.2em">board</tspan></text>
	</g>
	<line  marker-end="url(#ahe)" marker-start="url(#ahs)"  x1="544" y1="86.4" x2="544" y2="165.6" stroke="#000000"/>
	<g transform="rotate(-90 544 126)">
	<text fill="#000000" text-anchor="middle" x="544" y="126" font-family="Times,serif" font-size="14.00"><tspan dy="-0.2em">board</tspan></text>
	</g>
	<line  marker-end="url(#ahe)"  x1="80" y1="180" x2="176" y2="180" stroke="#000000"/>
	<text fill="#000000" text-anchor="middle" x="128" y="180" font-family="Times,serif" font-size="14.00"><tspan dy="-0.2em">import</tspan><tspan x="128" dy="1em">schematics</tspan></text>
	<line  marker-end="url(#ahe)"  x1="528" y1="518.4" x2="528" y2="597.6" stroke="#000000"/>
	<g transform="rotate(-90 528 558)">
	<text fill="#000000" text-anchor="middle" x="528" y="558" font-family="Times,serif" font-size="14.00"><tspan dy="-0.2em">.xy</tspan></text>
	</g>
	<line  marker-start="url(#ahs)"  x1="360" y1="50.4" x2="360" y2="165.6" stroke="#000000"/>
	<g transform="rotate(-90 360 108)">
	<text fill="#000000" text-anchor="middle" x="360" y="108" font-family="Times,serif" font-size="14.00"><tspan dy="-0.2em">board</tspan><tspan x="360" dy="1em">legacy</tspan></text>
	</g>
	<line  marker-end="url(#ahe)" marker-start="url(#ahs)"  x1="1104" y1="86.4" x2="1104" y2="165.6" stroke="#000000"/>
	<g transform="rotate(-90 1104 126)">
	<text fill="#000000" text-anchor="middle" x="1104" y="126" font-family="Times,serif" font-size="14.00"><tspan dy="-0.2em">board</tspan></text>
	</g>
	<line  marker-end="url(#ahe)" marker-start="url(#ahs)"  x1="1200" y1="324" x2="1296" y2="324" stroke="#000000"/>
	<line  marker-end="url(#ahe)" marker-start="url(#ahs)"  x1="784" y1="86.4" x2="784" y2="165.6" stroke="#000000"/>
	<g transform="rotate(-90 784 126)">
	<text fill="#000000" text-anchor="middle" x="784" y="126" font-family="Times,serif" font-size="14.00"><tspan dy="-0.2em">board</tspan></text>
	</g>
	<line  marker-end="url(#ahe)"  x1="848" y1="518.4" x2="848" y2="597.6" stroke="#000000"/>
	<g transform="rotate(-90 848 558)">
	<text fill="#000000" text-anchor="middle" x="848" y="558" font-family="Times,serif" font-size="14.00"><tspan dy="-0.2em">IPC356D</tspan></text>
	</g>
	<line  marker-end="url(#ahe)" marker-start="url(#ahs)"  x1="1200" y1="396" x2="1296" y2="396" stroke="#000000"/>
	<line  marker-end="url(#ahe)" marker-start="url(#ahs)"  x1="1200" y1="180" x2="1296" y2="180" stroke="#000000"/>
	<line  marker-end="url(#ahe)" marker-start="url(#ahs)"  x1="944" y1="86.4" x2="944" y2="165.6" stroke="#000000"/>
	<g transform="rotate(-90 944 126)">
	<text fill="#000000" text-anchor="middle" x="944" y="126" font-family="Times,serif" font-size="14.00"><tspan dy="-0.2em">board</tspan></text>
	</g>
	<line  marker-end="url(#ahe)" marker-start="url(#ahs)"  x1="1344" y1="410.4" x2="1344" y2="597.6" stroke="#000000"/>
	<g transform="rotate(-90 1344 504)">
	<text fill="#000000" text-anchor="middle" x="1344" y="504" font-family="Times,serif" font-size="14.00"><tspan dy="-0.2em">TCP/IP</tspan></text>
	</g>
	<line  marker-end="url(#ahe)" marker-start="url(#ahs)"  x1="1200" y1="252" x2="1296" y2="252" stroke="#000000"/>
</g>
</svg>
