<?xml version="1.0" encoding="UTF-8" standalone="no"?>
<!DOCTYPE svg PUBLIC "-//W3C//DTD SVG 1.1//EN" "http://www.w3.org/Graphics/SVG/1.1/DTD/svg11.dtd">
<!-- Generated by aagraph -->
<svg width="1520pt" height="900pt" viewBox="-8 -18 1528 918" xmlns="http://www.w3.org/2000/svg" xmlns:xlink="http://www.w3.org/1999/xlink">
<g>
	<marker id="ahs" viewBox="0 0 60 60" refX="0" refY="30" markerUnits="strokeWidth" markerWidth="8" markerHeight="10" orient="auto">
		<path d="M 60 0 L 0 30 L 60 60 z" />
	</marker>
	<marker id="ahe" viewBox="-60 0 60 60" refX="0" refY="30" markerUnits="strokeWidth" markerWidth="8" markerHeight="10" orient="auto">
		<g transform="scale(-1 1)">
		<path d="M 60 0 L 0 30 L 60 60 z" />
		</g>
	</marker>

	<polygon fill="#00ffff" stroke="#000000"  points="192,165.6 1216,165.6  1216,698.4 192,698.4"/>
	<text fill="#000000" text-anchor="middle" x="704" y="432" font-family="Times,serif" font-size="14.00"><tspan dy="-0.2em">pcb-rnd</tspan></text>
	<polygon fill="#cccccc" stroke="#cccccc"  points="160,741.6 1232,741.6  1232,878.4 160,878.4"/>
	<text fill="#884433" text-anchor="middle" x="696" y="878.4" font-family="Times,serif" font-size="14.00"><tspan dy="-0.2em">output-only</tspan></text>
	<polygon fill="#cccccc" stroke="#cccccc"  points="192,-14.4 1184,-14.4  1184,122.4 192,122.4"/>
	<text fill="#884433" text-anchor="middle" x="688" y="-14.4" font-family="Times,serif" font-size="14.00"><tspan dy="0.8em">input-output</tspan></text>
	<polygon fill="#cccccc" stroke="#cccccc"  points="1296,129.6 1472,129.6  1472,698.4 1296,698.4"/>
	<text fill="#884433" text-anchor="middle" x="1384" y="129.6" font-family="Times,serif" font-size="14.00"><tspan dy="0.8em">HID (GUI)</tspan></text>
	<polygon fill="#cccccc" stroke="#cccccc"  points="0,129.6 112,129.6  112,734.4 0,734.4"/>
	<text fill="#884433" text-anchor="middle" x="56" y="129.6" font-family="Times,serif" font-size="14.00"><tspan dy="0.8em">input-only</tspan></text>
	<polygon fill="none" stroke="#000000"  points="336,57.6 480,57.6  480,86.4 336,86.4"/>
	<text fill="#000000" text-anchor="middle" x="408" y="72" font-family="Times,serif" font-size="14.00"><tspan dy="-0.2em">tEDAx</tspan><tspan x="408" dy="1em">(exchange file format)</tspan></text>
	<polygon fill="none" stroke="#000000"  points="1312,237.6 1440,237.6  1440,266.4 1312,266.4"/>
	<text fill="#000000" text-anchor="middle" x="1376" y="252" font-family="Times,serif" font-size="14.00"><tspan dy="-0.2em">gtk</tspan><tspan x="1376" dy="1em">gdk or gl render</tspan></text>
	<polygon fill="none" stroke="#000000"  points="208,21.6 336,21.6  336,50.4 208,50.4"/>
	<text fill="#000000" text-anchor="middle" x="272" y="36" font-family="Times,serif" font-size="14.00"><tspan dy="-0.2em">kicad</tspan><tspan x="272" dy="1em">pcbnew</tspan></text>
	<polygon fill="none" stroke="#aaaaaa"  points="1328,777.6 1456,777.6  1456,806.4 1328,806.4"/>
	<text fill="#aaaaaa" text-anchor="middle" x="1392" y="792" font-family="Times,serif" font-size="14.00"><tspan dy="-0.2em">web client</tspan><tspan x="1392" dy="1em">(javascript)</tspan></text>
	<polygon fill="none" stroke="#000000"  points="1312,165.6 1424,165.6  1424,194.4 1312,194.4"/>
	<text fill="#000000" text-anchor="middle" x="1368" y="180" font-family="Times,serif" font-size="14.00"><tspan dy="-0.2em">batch</tspan><tspan x="1368" dy="1em">CLI/automation</tspan></text>
	<polygon fill="none" stroke="#000000"  points="1312,309.6 1424,309.6  1424,338.4 1312,338.4"/>
	<text fill="#000000" text-anchor="middle" x="1368" y="324" font-family="Times,serif" font-size="14.00"><tspan dy="-0.2em">lesstif</tspan><tspan x="1368" dy="1em">(motif)</tspan></text>
	<polygon fill="none" stroke="#000000"  points="1312,381.6 1408,381.6  1408,410.4 1312,410.4"/>
	<text fill="#000000" text-anchor="middle" x="1360" y="396" font-family="Times,serif" font-size="14.00"><tspan dy="-0.2em">remote</tspan><tspan x="1360" dy="1em">(network)</tspan></text>
	<polygon fill="none" stroke="#000000"  points="480,21.6 576,21.6  576,50.4 480,50.4"/>
	<text fill="#000000" text-anchor="middle" x="528" y="36" font-family="Times,serif" font-size="14.00"><tspan dy="-0.2em">gEDA</tspan><tspan x="528" dy="1em">pcb</tspan></text>
	<polygon fill="none" stroke="#000000"  points="576,57.6 672,57.6  672,86.4 576,86.4"/>
	<text fill="#000000" text-anchor="middle" x="624" y="72" font-family="Times,serif" font-size="14.00"><tspan dy="-0.2em">freerouting.net</tspan><tspan x="624" dy="1em">autorouter</tspan></text>
	<polygon fill="none" stroke="#000000"  points="16,309.6 96,309.6  96,338.4 16,338.4"/>
	<text fill="#000000" text-anchor="middle" x="56" y="324" font-family="Times,serif" font-size="14.00"><tspan dy="-0.2em">TinyCAD</tspan></text>
	<polygon fill="none" stroke="#000000"  points="16,525.6 96,525.6  96,554.4 16,554.4"/>
	<text fill="#000000" text-anchor="middle" x="56" y="540" font-family="Times,serif" font-size="14.00"><tspan dy="-0.2em">Calay</tspan><tspan x="56" dy="1em"></tspan></text>
	<polygon fill="none" stroke="#000000"  points="16,201.6 96,201.6  96,230.4 16,230.4"/>
	<text fill="#000000" text-anchor="middle" x="56" y="216" font-family="Times,serif" font-size="14.00"><tspan dy="-0.2em">mucs PCB</tspan><tspan x="56" dy="1em">autorouter</tspan></text>
	<polygon fill="none" stroke="#000000"  points="16,489.6 96,489.6  96,518.4 16,518.4"/>
	<text fill="#000000" text-anchor="middle" x="56" y="504" font-family="Times,serif" font-size="14.00"><tspan dy="-0.2em">XSCHEM</tspan><tspan x="56" dy="1em"></tspan></text>
	<polygon fill="none" stroke="#000000"  points="16,417.6 96,417.6  96,446.4 16,446.4"/>
	<text fill="#000000" text-anchor="middle" x="56" y="432" font-family="Times,serif" font-size="14.00"><tspan dy="-0.2em">(any)</tspan><tspan x="56" dy="1em">IPC-D-356</tspan></text>
	<polygon fill="none" stroke="#000000"  points="16,345.6 96,345.6  96,374.4 16,374.4"/>
	<text fill="#000000" text-anchor="middle" x="56" y="360" font-family="Times,serif" font-size="14.00"><tspan dy="-0.2em">(any)</tspan><tspan x="56" dy="1em">EDIF</tspan></text>
	<polygon fill="none" stroke="#000000"  points="16,273.6 96,273.6  96,302.4 16,302.4"/>
	<text fill="#000000" text-anchor="middle" x="56" y="288" font-family="Times,serif" font-size="14.00"><tspan dy="-0.2em">LTSpice</tspan></text>
	<polygon fill="none" stroke="#000000"  points="16,237.6 96,237.6  96,266.4 16,266.4"/>
	<text fill="#000000" text-anchor="middle" x="56" y="252" font-family="Times,serif" font-size="14.00"><tspan dy="-0.2em">Lepton EDA</tspan><tspan x="56" dy="1em">gschem</tspan></text>
	<polygon fill="none" stroke="#000000"  points="16,453.6 96,453.6  96,482.4 16,482.4"/>
	<text fill="#000000" text-anchor="middle" x="56" y="468" font-family="Times,serif" font-size="14.00"><tspan dy="-0.2em">EasyEDA</tspan><tspan x="56" dy="1em">(web2.0)</tspan></text>
	<polygon fill="none" stroke="#000000"  points="16,165.6 96,165.6  96,194.4 16,194.4"/>
	<text fill="#000000" text-anchor="middle" x="56" y="180" font-family="Times,serif" font-size="14.00"><tspan dy="-0.2em">kicad</tspan><tspan x="56" dy="1em">eeschema</tspan></text>
	<polygon fill="none" stroke="#000000"  points="16,381.6 96,381.6  96,410.4 16,410.4"/>
	<text fill="#000000" text-anchor="middle" x="56" y="396" font-family="Times,serif" font-size="14.00"><tspan dy="-0.2em">(any)</tspan><tspan x="56" dy="1em">netlist</tspan></text>
	<polygon fill="none" stroke="#000000"  points="1056,21.6 1136,21.6  1136,50.4 1056,50.4"/>
	<text fill="#000000" text-anchor="middle" x="1096" y="36" font-family="Times,serif" font-size="14.00"><tspan dy="-0.2em">dsn</tspan><tspan x="1096" dy="1em">(autorouting)</tspan></text>
	<polygon fill="none" stroke="#000000"  points="928,21.6 1008,21.6  1008,50.4 928,50.4"/>
	<text fill="#000000" text-anchor="middle" x="968" y="36" font-family="Times,serif" font-size="14.00"><tspan dy="-0.2em">c-pcb</tspan><tspan x="968" dy="1em">(autorouting)</tspan></text>
	<polygon fill="none" stroke="#000000"  points="16,561.6 96,561.6  96,590.4 16,590.4"/>
	<text fill="#000000" text-anchor="middle" x="56" y="576" font-family="Times,serif" font-size="14.00"><tspan dy="-0.2em">HPGL</tspan><tspan x="56" dy="1em">(2D CAD)</tspan></text>
	<polygon fill="none" stroke="#000000"  points="16,633.6 96,633.6  96,662.4 16,662.4"/>
	<text fill="#000000" text-anchor="middle" x="56" y="648" font-family="Times,serif" font-size="14.00"><tspan dy="-0.2em">FreePCB</tspan><tspan x="56" dy="1em">(netlist)</tspan></text>
	<polygon fill="none" stroke="#000000"  points="16,597.6 96,597.6  96,626.4 16,626.4"/>
	<text fill="#000000" text-anchor="middle" x="56" y="612" font-family="Times,serif" font-size="14.00"><tspan dy="-0.2em">hkp</tspan><tspan x="56" dy="1em">(mentor)</tspan></text>
	<polygon fill="none" stroke="#000000"  points="16,669.6 96,669.6  96,698.4 16,698.4"/>
	<text fill="#000000" text-anchor="middle" x="56" y="684" font-family="Times,serif" font-size="14.00"><tspan dy="-0.2em">Mentor grp.</tspan><tspan x="56" dy="1em">(netlist)</tspan></text>
	<polygon fill="none" stroke="#000000"  points="800,21.6 864,21.6  864,50.4 800,50.4"/>
	<text fill="#000000" text-anchor="middle" x="832" y="36" font-family="Times,serif" font-size="14.00"><tspan dy="-0.2em">gEDA</tspan><tspan x="832" dy="1em">gschem</tspan></text>
	<polygon fill="none" stroke="#000000"  points="672,21.6 736,21.6  736,50.4 672,50.4"/>
	<text fill="#000000" text-anchor="middle" x="704" y="36" font-family="Times,serif" font-size="14.00"><tspan dy="-0.2em">Mentor</tspan><tspan x="704" dy="1em">hyperlynx</tspan></text>
	<polygon fill="none" stroke="#000000"  points="992,57.6 1056,57.6  1056,86.4 992,86.4"/>
	<text fill="#000000" text-anchor="middle" x="1024" y="72" font-family="Times,serif" font-size="14.00"><tspan dy="-0.2em">Eagle</tspan><tspan x="1024" dy="1em">(board)</tspan></text>
	<polygon fill="none" stroke="#000000"  points="736,57.6 800,57.6  800,86.4 736,86.4"/>
	<text fill="#000000" text-anchor="middle" x="768" y="72" font-family="Times,serif" font-size="14.00"><tspan dy="-0.2em">FidoCadJ</tspan><tspan x="768" dy="1em">(board)</tspan></text>
	<polygon fill="none" stroke="#000000"  points="864,57.6 928,57.6  928,86.4 864,86.4"/>
	<text fill="#000000" text-anchor="middle" x="896" y="72" font-family="Times,serif" font-size="14.00"><tspan dy="-0.2em">Protel</tspan><tspan x="896" dy="1em">Autotrax</tspan></text>
	<polygon fill="none" stroke="#000000"  points="560,777.6 624,777.6  624,806.4 560,806.4"/>
	<text fill="#000000" text-anchor="middle" x="592" y="792" font-family="Times,serif" font-size="14.00"><tspan dy="-0.2em">gerber</tspan></text>
	<polygon fill="none" stroke="#000000"  points="496,813.6 560,813.6  560,842.4 496,842.4"/>
	<text fill="#000000" text-anchor="middle" x="528" y="828" font-family="Times,serif" font-size="14.00"><tspan dy="-0.2em">svg</tspan></text>
	<polygon fill="none" stroke="#000000"  points="752,813.6 816,813.6  816,842.4 752,842.4"/>
	<text fill="#000000" text-anchor="middle" x="784" y="828" font-family="Times,serif" font-size="14.00"><tspan dy="-0.2em">STL</tspan><tspan x="784" dy="1em">(3d)</tspan></text>
	<polygon fill="none" stroke="#000000"  points="880,813.6 944,813.6  944,842.4 880,842.4"/>
	<text fill="#000000" text-anchor="middle" x="912" y="828" font-family="Times,serif" font-size="14.00"><tspan dy="-0.2em">dxf</tspan><tspan x="912" dy="1em">(2D CAD)</tspan></text>
	<polygon fill="none" stroke="#000000"  points="1136,813.6 1200,813.6  1200,842.4 1136,842.4"/>
	<text fill="#000000" text-anchor="middle" x="1168" y="828" font-family="Times,serif" font-size="14.00"><tspan dy="-0.2em">excellon</tspan><tspan x="1168" dy="1em">(drill)</tspan></text>
	<polygon fill="none" stroke="#000000"  points="432,777.6 496,777.6  496,806.4 432,806.4"/>
	<text fill="#000000" text-anchor="middle" x="464" y="792" font-family="Times,serif" font-size="14.00"><tspan dy="-0.2em">XY</tspan><tspan x="464" dy="1em">templated</tspan></text>
	<polygon fill="none" stroke="#000000"  points="944,777.6 1008,777.6  1008,806.4 944,806.4"/>
	<text fill="#000000" text-anchor="middle" x="976" y="792" font-family="Times,serif" font-size="14.00"><tspan dy="-0.2em">openscad</tspan><tspan x="976" dy="1em">(3D CAD)</tspan></text>
	<polygon fill="none" stroke="#000000"  points="1072,777.6 1136,777.6  1136,806.4 1072,806.4"/>
	<text fill="#000000" text-anchor="middle" x="1104" y="792" font-family="Times,serif" font-size="14.00"><tspan dy="-0.2em">OpenEMS</tspan><tspan x="1104" dy="1em">(sim)</tspan></text>
	<polygon fill="none" stroke="#000000"  points="816,777.6 880,777.6  880,806.4 816,806.4"/>
	<text fill="#000000" text-anchor="middle" x="848" y="792" font-family="Times,serif" font-size="14.00"><tspan dy="-0.2em">lpr</tspan><tspan x="848" dy="1em">(print)</tspan></text>
	<polygon fill="none" stroke="#000000"  points="688,777.6 752,777.6  752,806.4 688,806.4"/>
	<text fill="#000000" text-anchor="middle" x="720" y="792" font-family="Times,serif" font-size="14.00"><tspan dy="-0.2em">ipcd356</tspan><tspan x="720" dy="1em">e-tester</tspan></text>
	<polygon fill="none" stroke="#000000"  points="624,813.6 688,813.6  688,842.4 624,842.4"/>
	<text fill="#000000" text-anchor="middle" x="656" y="828" font-family="Times,serif" font-size="14.00"><tspan dy="-0.2em">png</tspan><tspan x="656" dy="1em">jpg, bmp</tspan></text>
	<polygon fill="none" stroke="#000000"  points="176,777.6 240,777.6  240,806.4 176,806.4"/>
	<text fill="#000000" text-anchor="middle" x="208" y="792" font-family="Times,serif" font-size="14.00"><tspan dy="-0.2em">breadboard</tspan></text>
	<polygon fill="none" stroke="#000000"  points="368,813.6 432,813.6  432,842.4 368,842.4"/>
	<text fill="#000000" text-anchor="middle" x="400" y="828" font-family="Times,serif" font-size="14.00"><tspan dy="-0.2em">ps</tspan><tspan x="400" dy="1em">postscript</tspan></text>
	<polygon fill="none" stroke="#000000"  points="304,777.6 368,777.6  368,806.4 304,806.4"/>
	<text fill="#000000" text-anchor="middle" x="336" y="792" font-family="Times,serif" font-size="14.00"><tspan dy="-0.2em">BOM</tspan></text>
	<polygon fill="none" stroke="#000000"  points="1008,813.6 1072,813.6  1072,842.4 1008,842.4"/>
	<text fill="#000000" text-anchor="middle" x="1040" y="828" font-family="Times,serif" font-size="14.00"><tspan dy="-0.2em">g-code</tspan><tspan x="1040" dy="1em">(mill)</tspan></text>
	<polygon fill="none" stroke="#000000"  points="240,813.6 304,813.6  304,842.4 240,842.4"/>
	<text fill="#000000" text-anchor="middle" x="272" y="828" font-family="Times,serif" font-size="14.00"><tspan dy="-0.2em">stat</tspan><tspan x="272" dy="1em">statistics</tspan></text>
	<line  marker-end="url(#ahe)"  x1="208" y1="698.4" x2="208" y2="777.6" stroke="#000000"/>
	<g transform="rotate(-90 208 738)">
	<text fill="#000000" text-anchor="middle" x="208" y="738" font-family="Times,serif" font-size="14.00"><tspan dy="-0.2em">.png</tspan></text>
	</g>
	<line  marker-end="url(#ahe)"  x1="96" y1="612" x2="192" y2="612" stroke="#000000"/>
	<text fill="#000000" text-anchor="middle" x="144" y="612" font-family="Times,serif" font-size="14.00"><tspan dy="-0.2em">import</tspan><tspan x="144" dy="1em">PCB</tspan></text>
	<line  marker-end="url(#ahe)"  x1="336" y1="698.4" x2="336" y2="777.6" stroke="#000000"/>
	<g transform="rotate(-90 336 738)">
	<text fill="#000000" text-anchor="middle" x="336" y="738" font-family="Times,serif" font-size="14.00"><tspan dy="-0.2em">text</tspan></text>
	</g>
	<line  marker-end="url(#ahe)"  x1="96" y1="648" x2="192" y2="648" stroke="#000000"/>
	<text fill="#000000" text-anchor="middle" x="144" y="648" font-family="Times,serif" font-size="14.00"><tspan dy="-0.2em">import</tspan><tspan x="144" dy="1em">netlist</tspan></text>
	<line  marker-end="url(#ahe)"  x1="96" y1="180" x2="192" y2="180" stroke="#000000"/>
	<text fill="#000000" text-anchor="middle" x="144" y="180" font-family="Times,serif" font-size="14.00"><tspan dy="-0.2em">import</tspan><tspan x="144" dy="1em">schematics</tspan></text>
	<line  marker-end="url(#ahe)" marker-start="url(#ahs)"  x1="704" y1="50.4" x2="704" y2="165.6" stroke="#000000"/>
	<g transform="rotate(-90 704 108)">
	<text fill="#000000" text-anchor="middle" x="704" y="108" font-family="Times,serif" font-size="14.00"><tspan dy="-0.2em">board</tspan></text>
	</g>
	<line  marker-end="url(#ahe)"  x1="464" y1="698.4" x2="464" y2="777.6" stroke="#000000"/>
	<g transform="rotate(-90 464 738)">
	<text fill="#000000" text-anchor="middle" x="464" y="738" font-family="Times,serif" font-size="14.00"><tspan dy="-0.2em">.xy</tspan></text>
	</g>
	<line  marker-end="url(#ahe)"  x1="96" y1="684" x2="192" y2="684" stroke="#000000"/>
	<text fill="#000000" text-anchor="middle" x="144" y="684" font-family="Times,serif" font-size="14.00"><tspan dy="-0.2em">import</tspan><tspan x="144" dy="1em">netlist</tspan></text>
	<line  marker-end="url(#ahe)"  x1="848" y1="698.4" x2="848" y2="777.6" stroke="#000000"/>
	<g transform="rotate(-90 848 738)">
	<text fill="#000000" text-anchor="middle" x="848" y="738" font-family="Times,serif" font-size="14.00"><tspan dy="-0.2em">ps</tspan></text>
	</g>
	<line  marker-end="url(#ahe)"  x1="720" y1="698.4" x2="720" y2="777.6" stroke="#000000"/>
	<g transform="rotate(-90 720 738)">
	<text fill="#000000" text-anchor="middle" x="720" y="738" font-family="Times,serif" font-size="14.00"><tspan dy="-0.2em">IPC356D</tspan></text>
	</g>
	<line  marker-end="url(#ahe)" marker-start="url(#ahs)"  x1="547.2" y1="50.4" x2="547.2" y2="165.6" stroke="#000000"/>
	<g transform="rotate(-90 547.2 108)">
	<text fill="#000000" text-anchor="middle" x="547.2" y="108" font-family="Times,serif" font-size="14.00"><tspan dy="-0.2em">footprint</tspan></text>
	</g>
	<line  marker-end="url(#ahe)" marker-start="url(#ahs)"  x1="832" y1="50.4" x2="832" y2="165.6" stroke="#000000"/>
	<g transform="rotate(-90 832 108)">
	<text fill="#000000" text-anchor="middle" x="832" y="108" font-family="Times,serif" font-size="14.00"><tspan dy="-0.2em">schematics</tspan></text>
	</g>
	<line  marker-end="url(#ahe)"  x1="1104" y1="698.4" x2="1104" y2="777.6" stroke="#000000"/>
	<line  marker-end="url(#ahe)"  x1="592" y1="698.4" x2="592" y2="777.6" stroke="#000000"/>
	<g transform="rotate(-90 592 738)">
	<text fill="#000000" text-anchor="middle" x="592" y="738" font-family="Times,serif" font-size="14.00"><tspan dy="-0.2em">.grb, .cnc</tspan></text>
	</g>
	<line  marker-end="url(#ahe)"  x1="912" y1="698.4" x2="912" y2="813.6" stroke="#000000"/>
	<line  marker-end="url(#ahe)" marker-start="url(#ahs)"  x1="310.4" y1="50.4" x2="310.4" y2="165.6" stroke="#000000"/>
	<g transform="rotate(-90 310.4 108)">
	<text fill="#000000" text-anchor="middle" x="310.4" y="108" font-family="Times,serif" font-size="14.00"><tspan dy="-0.2em">footprint</tspan><tspan x="310.4" dy="1em">s-expr</tspan></text>
	</g>
	<line  marker-end="url(#ahe)"  x1="1168" y1="698.4" x2="1168" y2="813.6" stroke="#000000"/>
	<line  marker-end="url(#ahe)"  x1="784" y1="698.4" x2="784" y2="813.6" stroke="#000000"/>
	<g transform="rotate(-90 784 756)">
	<text fill="#000000" text-anchor="middle" x="784" y="756" font-family="Times,serif" font-size="14.00"><tspan dy="-0.2em">stl</tspan></text>
	</g>
	<line  marker-end="url(#ahe)" marker-start="url(#ahs)"  x1="233.6" y1="50.4" x2="233.6" y2="165.6" stroke="#000000"/>
	<g transform="rotate(-90 233.6 108)">
	<text fill="#000000" text-anchor="middle" x="233.6" y="108" font-family="Times,serif" font-size="14.00"><tspan dy="-0.2em">board</tspan><tspan x="233.6" dy="1em">s-expr</tspan></text>
	</g>
	<line  marker-end="url(#ahe)" marker-start="url(#ahs)"  x1="508.8" y1="50.4" x2="508.8" y2="165.6" stroke="#000000"/>
	<g transform="rotate(-90 508.8 108)">
	<text fill="#000000" text-anchor="middle" x="508.8" y="108" font-family="Times,serif" font-size="14.00"><tspan dy="-0.2em">board</tspan></text>
	</g>
	<line  marker-end="url(#ahe)"  x1="976" y1="698.4" x2="976" y2="777.6" stroke="#000000"/>
	<line  marker-end="url(#ahe)"  x1="528" y1="698.4" x2="528" y2="813.6" stroke="#000000"/>
	<g transform="rotate(-90 528 756)">
	<text fill="#000000" text-anchor="middle" x="528" y="756" font-family="Times,serif" font-size="14.00"><tspan dy="-0.2em">svg</tspan></text>
	</g>
	<line  marker-end="url(#ahe)"  x1="272" y1="698.4" x2="272" y2="813.6" stroke="#000000"/>
	<g transform="rotate(-90 272 756)">
	<text fill="#000000" text-anchor="middle" x="272" y="756" font-family="Times,serif" font-size="14.00"><tspan dy="-0.2em">lihata</tspan></text>
	</g>
	<line  marker-end="url(#ahe)" marker-start="url(#ahs)"  x1="357.6" y1="86.4" x2="357.6" y2="165.6" stroke="#000000"/>
	<g transform="rotate(-90 357.6 126)">
	<text fill="#000000" text-anchor="middle" x="357.6" y="126" font-family="Times,serif" font-size="14.00"><tspan dy="-0.2em">netlist</tspan></text>
	</g>
	<line  marker-end="url(#ahe)"  x1="1040" y1="698.4" x2="1040" y2="813.6" stroke="#000000"/>
	<line  marker-start="url(#ahs)"  x1="272" y1="50.4" x2="272" y2="165.6" stroke="#000000"/>
	<g transform="rotate(-90 272 108)">
	<text fill="#000000" text-anchor="middle" x="272" y="108" font-family="Times,serif" font-size="14.00"><tspan dy="-0.2em">board</tspan><tspan x="272" dy="1em">legacy</tspan></text>
	</g>
	<line  marker-end="url(#ahe)" marker-start="url(#ahs)"  x1="465.6" y1="86.4" x2="465.6" y2="165.6" stroke="#000000"/>
	<g transform="rotate(-90 465.6 126)">
	<text fill="#000000" text-anchor="middle" x="465.6" y="126" font-family="Times,serif" font-size="14.00"><tspan dy="-0.2em">DRC</tspan><tspan x="465.6" dy="1em">spec</tspan></text>
	</g>
	<line  marker-end="url(#ahe)"  x1="96" y1="252" x2="192" y2="252" stroke="#000000"/>
	<text fill="#000000" text-anchor="middle" x="144" y="252" font-family="Times,serif" font-size="14.00"><tspan dy="-0.2em">import</tspan><tspan x="144" dy="1em">schematics</tspan></text>
	<line  marker-end="url(#ahe)"  x1="656" y1="698.4" x2="656" y2="813.6" stroke="#000000"/>
	<line  marker-end="url(#ahe)" marker-start="url(#ahs)"  x1="393.6" y1="86.4" x2="393.6" y2="165.6" stroke="#000000"/>
	<g transform="rotate(-90 393.6 126)">
	<text fill="#000000" text-anchor="middle" x="393.6" y="126" font-family="Times,serif" font-size="14.00"><tspan dy="-0.2em">footprint</tspan></text>
	</g>
	<line  marker-end="url(#ahe)"  x1="400" y1="698.4" x2="400" y2="813.6" stroke="#000000"/>
	<g transform="rotate(-90 400 756)">
	<text fill="#000000" text-anchor="middle" x="400" y="756" font-family="Times,serif" font-size="14.00"><tspan dy="-0.2em">postscript</tspan></text>
	</g>
	<line  marker-end="url(#ahe)" marker-start="url(#ahs)"  x1="896" y1="86.4" x2="896" y2="165.6" stroke="#000000"/>
	<g transform="rotate(-90 896 126)">
	<text fill="#000000" text-anchor="middle" x="896" y="126" font-family="Times,serif" font-size="14.00"><tspan dy="-0.2em">board</tspan></text>
	</g>
	<line  marker-end="url(#ahe)"  x1="96" y1="288" x2="192" y2="288" stroke="#000000"/>
	<text fill="#000000" text-anchor="middle" x="144" y="288" font-family="Times,serif" font-size="14.00"><tspan dy="-0.2em">import</tspan><tspan x="144" dy="1em">schematics</tspan></text>
	<line  marker-end="url(#ahe)" marker-start="url(#ahs)"  x1="624" y1="86.4" x2="624" y2="165.6" stroke="#000000"/>
	<g transform="rotate(-90 624 126)">
	<text fill="#000000" text-anchor="middle" x="624" y="126" font-family="Times,serif" font-size="14.00"><tspan dy="-0.2em">board</tspan></text>
	</g>
	<line  marker-end="url(#ahe)" marker-start="url(#ahs)"  x1="422.4" y1="86.4" x2="422.4" y2="165.6" stroke="#000000"/>
	<g transform="rotate(-90 422.4 126)">
	<text fill="#000000" text-anchor="middle" x="422.4" y="126" font-family="Times,serif" font-size="14.00"><tspan dy="-0.2em">etest</tspan></text>
	</g>
	<line  marker-end="url(#ahe)"  x1="96" y1="216" x2="192" y2="216" stroke="#000000"/>
	<text fill="#000000" text-anchor="middle" x="144" y="216" font-family="Times,serif" font-size="14.00"><tspan dy="-0.2em">import</tspan><tspan x="144" dy="1em">netlist</tspan></text>
	<line  marker-end="url(#ahe)" marker-start="url(#ahs)"  x1="968" y1="50.4" x2="968" y2="165.6" stroke="#000000"/>
	<g transform="rotate(-90 968 108)">
	<text fill="#000000" text-anchor="middle" x="968" y="108" font-family="Times,serif" font-size="14.00"><tspan dy="-0.2em">board</tspan></text>
	</g>
	<line  marker-end="url(#ahe)"  x1="96" y1="396" x2="192" y2="396" stroke="#000000"/>
	<text fill="#000000" text-anchor="middle" x="144" y="396" font-family="Times,serif" font-size="14.00"><tspan dy="-0.2em">import</tspan><tspan x="144" dy="1em">netlist</tspan></text>
	<line  marker-end="url(#ahe)" marker-start="url(#ahs)"  x1="1011.2" y1="86.4" x2="1011.2" y2="165.6" stroke="#000000"/>
	<g transform="rotate(-90 1011.2 126)">
	<text fill="#000000" text-anchor="middle" x="1011.2" y="126" font-family="Times,serif" font-size="14.00"><tspan dy="-0.2em">board</tspan></text>
	</g>
	<line  marker-end="url(#ahe)"  x1="96" y1="324" x2="192" y2="324" stroke="#000000"/>
	<text fill="#000000" text-anchor="middle" x="144" y="324" font-family="Times,serif" font-size="14.00"><tspan dy="-0.2em">import</tspan><tspan x="144" dy="1em">schematics</tspan></text>
	<line  marker-end="url(#ahe)"  x1="96" y1="504" x2="192" y2="504" stroke="#000000"/>
	<text fill="#000000" text-anchor="middle" x="144" y="504" font-family="Times,serif" font-size="14.00"><tspan dy="-0.2em">import</tspan><tspan x="144" dy="1em">schematics</tspan></text>
	<line  marker-end="url(#ahe)" marker-start="url(#ahs)"  x1="768" y1="86.4" x2="768" y2="165.6" stroke="#000000"/>
	<g transform="rotate(-90 768 126)">
	<text fill="#000000" text-anchor="middle" x="768" y="126" font-family="Times,serif" font-size="14.00"><tspan dy="-0.2em">board</tspan></text>
	</g>
	<line  marker-end="url(#ahe)" marker-start="url(#ahs)"  x1="1216" y1="324" x2="1312" y2="324" stroke="#000000"/>
	<line  marker-end="url(#ahe)" marker-start="url(#ahs)"  x1="1096" y1="50.4" x2="1096" y2="165.6" stroke="#000000"/>
	<g transform="rotate(-90 1096 108)">
	<text fill="#000000" text-anchor="middle" x="1096" y="108" font-family="Times,serif" font-size="14.00"><tspan dy="-0.2em">board</tspan></text>
	</g>
	<line  marker-end="url(#ahe)"  x1="96" y1="432" x2="192" y2="432" stroke="#000000"/>
	<text fill="#000000" text-anchor="middle" x="144" y="432" font-family="Times,serif" font-size="14.00"><tspan dy="-0.2em">netlist</tspan><tspan x="144" dy="1em">pads/subcs</tspan></text>
	<line  marker-end="url(#ahe)"  x1="1036.8" y1="86.4" x2="1036.8" y2="165.6" stroke="#000000"/>
	<g transform="rotate(-90 1036.8 126)">
	<text fill="#000000" text-anchor="middle" x="1036.8" y="126" font-family="Times,serif" font-size="14.00"><tspan dy="-0.2em">DRU</tspan></text>
	</g>
	<line  marker-end="url(#ahe)"  x1="96" y1="360" x2="192" y2="360" stroke="#000000"/>
	<text fill="#000000" text-anchor="middle" x="144" y="360" font-family="Times,serif" font-size="14.00"><tspan dy="-0.2em">import</tspan><tspan x="144" dy="1em">schematics</tspan></text>
	<line  marker-end="url(#ahe)" marker-start="url(#ahs)"  x1="1216" y1="396" x2="1312" y2="396" stroke="#000000"/>
	<line  marker-end="url(#ahe)"  x1="96" y1="540" x2="192" y2="540" stroke="#000000"/>
	<text fill="#000000" text-anchor="middle" x="144" y="540" font-family="Times,serif" font-size="14.00"><tspan dy="-0.2em">import</tspan><tspan x="144" dy="1em">schematics</tspan></text>
	<line  marker-end="url(#ahe)" marker-start="url(#ahs)"  x1="1216" y1="180" x2="1312" y2="180" stroke="#000000"/>
	<line  marker-end="url(#ahe)"  x1="96" y1="468" x2="192" y2="468" stroke="#000000"/>
	<text fill="#000000" text-anchor="middle" x="144" y="468" font-family="Times,serif" font-size="14.00"><tspan dy="-0.2em">import</tspan><tspan x="144" dy="1em">schematics</tspan></text>
	<line  marker-end="url(#ahe)" marker-start="url(#ahs)"  x1="1360" y1="410.4" x2="1360" y2="777.6" stroke="#000000"/>
	<g transform="rotate(-90 1360 594)">
	<text fill="#000000" text-anchor="middle" x="1360" y="594" font-family="Times,serif" font-size="14.00"><tspan dy="-0.2em">TCP/IP</tspan></text>
	</g>
	<line  marker-end="url(#ahe)" marker-start="url(#ahs)"  x1="1216" y1="252" x2="1312" y2="252" stroke="#000000"/>
	<line  marker-end="url(#ahe)"  x1="96" y1="576" x2="192" y2="576" stroke="#000000"/>
	<text fill="#000000" text-anchor="middle" x="144" y="576" font-family="Times,serif" font-size="14.00"><tspan dy="-0.2em">import</tspan><tspan x="144" dy="1em">lines/arcs</tspan></text>
</g>
</svg>
