<?xml version="1.0" encoding="UTF-8" standalone="no"?>
<!DOCTYPE svg PUBLIC "-//W3C//DTD SVG 1.1//EN" "http://www.w3.org/Graphics/SVG/1.1/DTD/svg11.dtd">
<!-- Generated by aagraph -->
<svg width="1520pt" height="1080pt" viewBox="-8 -18 1528 1098" xmlns="http://www.w3.org/2000/svg" xmlns:xlink="http://www.w3.org/1999/xlink">
<g>
	<marker id="ahs" viewBox="0 0 60 60" refX="0" refY="30" markerUnits="strokeWidth" markerWidth="8" markerHeight="10" orient="auto">
		<path d="M 60 0 L 0 30 L 60 60 z" />
	</marker>
	<marker id="ahe" viewBox="-60 0 60 60" refX="0" refY="30" markerUnits="strokeWidth" markerWidth="8" markerHeight="10" orient="auto">
		<g transform="scale(-1 1)">
		<path d="M 60 0 L 0 30 L 60 60 z" />
		</g>
	</marker>

	<polygon fill="#00ffff" stroke="#000000"  points="192,165.6 1216,165.6  1216,878.4 192,878.4"/>
	<text fill="#000000" text-anchor="middle" x="704" y="522" font-family="Times,serif" font-size="14.00"><tspan dy="-0.2em">pcb-rnd</tspan></text>
	<polygon fill="#cccccc" stroke="#cccccc"  points="160,921.6 1232,921.6  1232,1058.4 160,1058.4"/>
	<text fill="#884433" text-anchor="middle" x="696" y="1058.4" font-family="Times,serif" font-size="14.00"><tspan dy="-0.2em">output-only</tspan></text>
	<polygon fill="#cccccc" stroke="#cccccc"  points="1296,129.6 1472,129.6  1472,878.4 1296,878.4"/>
	<text fill="#884433" text-anchor="middle" x="1384" y="129.6" font-family="Times,serif" font-size="14.00"><tspan dy="0.8em">HID (GUI)</tspan></text>
	<polygon fill="#cccccc" stroke="#cccccc"  points="224,-14.4 1184,-14.4  1184,122.4 224,122.4"/>
	<text fill="#884433" text-anchor="middle" x="704" y="-14.4" font-family="Times,serif" font-size="14.00"><tspan dy="0.8em">input-output</tspan></text>
	<polygon fill="#cccccc" stroke="#cccccc"  points="0,129.6 112,129.6  112,914.4 0,914.4"/>
	<text fill="#884433" text-anchor="middle" x="56" y="129.6" font-family="Times,serif" font-size="14.00"><tspan dy="0.8em">input-only</tspan></text>
	<polygon fill="none" stroke="#000000"  points="368,57.6 512,57.6  512,86.4 368,86.4"/>
	<text fill="#000000" text-anchor="middle" x="440" y="72" font-family="Times,serif" font-size="14.00"><tspan dy="-0.2em">tEDAx</tspan><tspan x="440" dy="1em">(exchange file format)</tspan></text>
	<polygon fill="none" stroke="#000000"  points="1312,237.6 1440,237.6  1440,266.4 1312,266.4"/>
	<text fill="#000000" text-anchor="middle" x="1376" y="252" font-family="Times,serif" font-size="14.00"><tspan dy="-0.2em">gtk</tspan><tspan x="1376" dy="1em">gdk or gl render</tspan></text>
	<polygon fill="none" stroke="#000000"  points="240,21.6 368,21.6  368,50.4 240,50.4"/>
	<text fill="#000000" text-anchor="middle" x="304" y="36" font-family="Times,serif" font-size="14.00"><tspan dy="-0.2em">kicad</tspan><tspan x="304" dy="1em">pcbnew</tspan></text>
	<polygon fill="none" stroke="#000000"  points="1312,165.6 1424,165.6  1424,194.4 1312,194.4"/>
	<text fill="#000000" text-anchor="middle" x="1368" y="180" font-family="Times,serif" font-size="14.00"><tspan dy="-0.2em">batch</tspan><tspan x="1368" dy="1em">CLI/automation</tspan></text>
	<polygon fill="none" stroke="#000000"  points="1312,309.6 1424,309.6  1424,338.4 1312,338.4"/>
	<text fill="#000000" text-anchor="middle" x="1368" y="324" font-family="Times,serif" font-size="14.00"><tspan dy="-0.2em">lesstif</tspan><tspan x="1368" dy="1em">(motif)</tspan></text>
	<polygon fill="none" stroke="#000000"  points="1312,381.6 1408,381.6  1408,410.4 1312,410.4"/>
	<text fill="#000000" text-anchor="middle" x="1360" y="396" font-family="Times,serif" font-size="14.00"><tspan dy="-0.2em">remote</tspan><tspan x="1360" dy="1em">(network)</tspan></text>
	<polygon fill="none" stroke="#000000"  points="512,21.6 608,21.6  608,50.4 512,50.4"/>
	<text fill="#000000" text-anchor="middle" x="560" y="36" font-family="Times,serif" font-size="14.00"><tspan dy="-0.2em">gEDA</tspan><tspan x="560" dy="1em">pcb</tspan></text>
	<polygon fill="none" stroke="#000000"  points="16,417.6 96,417.6  96,446.4 16,446.4"/>
	<text fill="#000000" text-anchor="middle" x="56" y="432" font-family="Times,serif" font-size="14.00"><tspan dy="-0.2em">(any)</tspan><tspan x="56" dy="1em">IPC-D-356</tspan></text>
	<polygon fill="none" stroke="#000000"  points="16,309.6 96,309.6  96,338.4 16,338.4"/>
	<text fill="#000000" text-anchor="middle" x="56" y="324" font-family="Times,serif" font-size="14.00"><tspan dy="-0.2em">TinyCAD</tspan></text>
	<polygon fill="none" stroke="#000000"  points="16,525.6 96,525.6  96,554.4 16,554.4"/>
	<text fill="#000000" text-anchor="middle" x="56" y="540" font-family="Times,serif" font-size="14.00"><tspan dy="-0.2em">Calay</tspan><tspan x="56" dy="1em"></tspan></text>
	<polygon fill="none" stroke="#000000"  points="16,201.6 96,201.6  96,230.4 16,230.4"/>
	<text fill="#000000" text-anchor="middle" x="56" y="216" font-family="Times,serif" font-size="14.00"><tspan dy="-0.2em">mucs PCB</tspan><tspan x="56" dy="1em">autorouter</tspan></text>
	<polygon fill="none" stroke="#000000"  points="16,489.6 96,489.6  96,518.4 16,518.4"/>
	<text fill="#000000" text-anchor="middle" x="56" y="504" font-family="Times,serif" font-size="14.00"><tspan dy="-0.2em">XSCHEM</tspan><tspan x="56" dy="1em"></tspan></text>
	<polygon fill="none" stroke="#000000"  points="16,345.6 96,345.6  96,374.4 16,374.4"/>
	<text fill="#000000" text-anchor="middle" x="56" y="360" font-family="Times,serif" font-size="14.00"><tspan dy="-0.2em">(any)</tspan><tspan x="56" dy="1em">EDIF</tspan></text>
	<polygon fill="none" stroke="#000000"  points="16,273.6 96,273.6  96,302.4 16,302.4"/>
	<text fill="#000000" text-anchor="middle" x="56" y="288" font-family="Times,serif" font-size="14.00"><tspan dy="-0.2em">LTSpice</tspan></text>
	<polygon fill="none" stroke="#000000"  points="16,237.6 96,237.6  96,266.4 16,266.4"/>
	<text fill="#000000" text-anchor="middle" x="56" y="252" font-family="Times,serif" font-size="14.00"><tspan dy="-0.2em">Lepton EDA</tspan><tspan x="56" dy="1em">gschem</tspan></text>
	<polygon fill="none" stroke="#000000"  points="16,453.6 96,453.6  96,482.4 16,482.4"/>
	<text fill="#000000" text-anchor="middle" x="56" y="468" font-family="Times,serif" font-size="14.00"><tspan dy="-0.2em">EasyEDA</tspan><tspan x="56" dy="1em">(web2.0)</tspan></text>
	<polygon fill="none" stroke="#000000"  points="16,165.6 96,165.6  96,194.4 16,194.4"/>
	<text fill="#000000" text-anchor="middle" x="56" y="180" font-family="Times,serif" font-size="14.00"><tspan dy="-0.2em">kicad</tspan><tspan x="56" dy="1em">eeschema</tspan></text>
	<polygon fill="none" stroke="#000000"  points="16,381.6 96,381.6  96,410.4 16,410.4"/>
	<text fill="#000000" text-anchor="middle" x="56" y="396" font-family="Times,serif" font-size="14.00"><tspan dy="-0.2em">(any)</tspan><tspan x="56" dy="1em">netlist</tspan></text>
	<polygon fill="none" stroke="#000000"  points="1088,21.6 1168,21.6  1168,50.4 1088,50.4"/>
	<text fill="#000000" text-anchor="middle" x="1128" y="36" font-family="Times,serif" font-size="14.00"><tspan dy="-0.2em">dsn</tspan><tspan x="1128" dy="1em">(autorouting)</tspan></text>
	<polygon fill="none" stroke="#000000"  points="960,21.6 1040,21.6  1040,50.4 960,50.4"/>
	<text fill="#000000" text-anchor="middle" x="1000" y="36" font-family="Times,serif" font-size="14.00"><tspan dy="-0.2em">c-pcb</tspan><tspan x="1000" dy="1em">(autorouting)</tspan></text>
	<polygon fill="none" stroke="#000000"  points="16,561.6 96,561.6  96,590.4 16,590.4"/>
	<text fill="#000000" text-anchor="middle" x="56" y="576" font-family="Times,serif" font-size="14.00"><tspan dy="-0.2em">HPGL</tspan><tspan x="56" dy="1em">(2D CAD)</tspan></text>
	<polygon fill="none" stroke="#000000"  points="16,633.6 96,633.6  96,662.4 16,662.4"/>
	<text fill="#000000" text-anchor="middle" x="56" y="648" font-family="Times,serif" font-size="14.00"><tspan dy="-0.2em">FreePCB</tspan><tspan x="56" dy="1em">(netlist)</tspan></text>
	<polygon fill="none" stroke="#000000"  points="16,741.6 96,741.6  96,770.4 16,770.4"/>
	<text fill="#000000" text-anchor="middle" x="56" y="756" font-family="Times,serif" font-size="14.00"><tspan dy="-0.2em">Accel EDA</tspan><tspan x="56" dy="1em">(netlist)</tspan></text>
	<polygon fill="none" stroke="#000000"  points="16,597.6 96,597.6  96,626.4 16,626.4"/>
	<text fill="#000000" text-anchor="middle" x="56" y="612" font-family="Times,serif" font-size="14.00"><tspan dy="-0.2em">hkp</tspan><tspan x="56" dy="1em">(mentor)</tspan></text>
	<polygon fill="none" stroke="#000000"  points="16,777.6 96,777.6  96,806.4 16,806.4"/>
	<text fill="#000000" text-anchor="middle" x="56" y="792" font-family="Times,serif" font-size="14.00"><tspan dy="-0.2em">Protel</tspan><tspan x="56" dy="1em">(netlist)</tspan></text>
	<polygon fill="none" stroke="#000000"  points="16,813.6 96,813.6  96,842.4 16,842.4"/>
	<text fill="#000000" text-anchor="middle" x="56" y="828" font-family="Times,serif" font-size="14.00"><tspan dy="-0.2em">Mentor grp.</tspan><tspan x="56" dy="1em">(netlist)</tspan></text>
	<polygon fill="none" stroke="#000000"  points="16,705.6 96,705.6  96,734.4 16,734.4"/>
	<text fill="#000000" text-anchor="middle" x="56" y="720" font-family="Times,serif" font-size="14.00"><tspan dy="-0.2em">Orcad</tspan><tspan x="56" dy="1em">(netlist)</tspan></text>
	<polygon fill="none" stroke="#000000"  points="16,849.6 96,849.6  96,878.4 16,878.4"/>
	<text fill="#000000" text-anchor="middle" x="56" y="864" font-family="Times,serif" font-size="14.00"><tspan dy="-0.2em">BXL</tspan></text>
	<polygon fill="none" stroke="#000000"  points="16,669.6 96,669.6  96,698.4 16,698.4"/>
	<text fill="#000000" text-anchor="middle" x="56" y="684" font-family="Times,serif" font-size="14.00"><tspan dy="-0.2em">PADS ASCII</tspan><tspan x="56" dy="1em">(netlist)</tspan></text>
	<polygon fill="none" stroke="#000000"  points="832,21.6 896,21.6  896,50.4 832,50.4"/>
	<text fill="#000000" text-anchor="middle" x="864" y="36" font-family="Times,serif" font-size="14.00"><tspan dy="-0.2em">gEDA</tspan><tspan x="864" dy="1em">gschem</tspan></text>
	<polygon fill="none" stroke="#000000"  points="704,21.6 768,21.6  768,50.4 704,50.4"/>
	<text fill="#000000" text-anchor="middle" x="736" y="36" font-family="Times,serif" font-size="14.00"><tspan dy="-0.2em">Mentor</tspan><tspan x="736" dy="1em">hyperlynx</tspan></text>
	<polygon fill="none" stroke="#000000"  points="624,57.6 688,57.6  688,86.4 624,86.4"/>
	<text fill="#000000" text-anchor="middle" x="656" y="72" font-family="Times,serif" font-size="14.00"><tspan dy="-0.2em">PADS</tspan><tspan x="656" dy="1em">ASCII</tspan></text>
	<polygon fill="none" stroke="#000000"  points="1040,57.6 1104,57.6  1104,86.4 1040,86.4"/>
	<text fill="#000000" text-anchor="middle" x="1072" y="72" font-family="Times,serif" font-size="14.00"><tspan dy="-0.2em">Eagle</tspan><tspan x="1072" dy="1em">(board)</tspan></text>
	<polygon fill="none" stroke="#000000"  points="784,57.6 848,57.6  848,86.4 784,86.4"/>
	<text fill="#000000" text-anchor="middle" x="816" y="72" font-family="Times,serif" font-size="14.00"><tspan dy="-0.2em">FidoCadJ</tspan><tspan x="816" dy="1em">(board)</tspan></text>
	<polygon fill="none" stroke="#000000"  points="912,57.6 976,57.6  976,86.4 912,86.4"/>
	<text fill="#000000" text-anchor="middle" x="944" y="72" font-family="Times,serif" font-size="14.00"><tspan dy="-0.2em">Protel</tspan><tspan x="944" dy="1em">Autotrax</tspan></text>
	<polygon fill="none" stroke="#000000"  points="560,957.6 624,957.6  624,986.4 560,986.4"/>
	<text fill="#000000" text-anchor="middle" x="592" y="972" font-family="Times,serif" font-size="14.00"><tspan dy="-0.2em">gerber</tspan></text>
	<polygon fill="none" stroke="#000000"  points="496,993.6 560,993.6  560,1022.4 496,1022.4"/>
	<text fill="#000000" text-anchor="middle" x="528" y="1008" font-family="Times,serif" font-size="14.00"><tspan dy="-0.2em">svg</tspan></text>
	<polygon fill="none" stroke="#000000"  points="752,993.6 816,993.6  816,1022.4 752,1022.4"/>
	<text fill="#000000" text-anchor="middle" x="784" y="1008" font-family="Times,serif" font-size="14.00"><tspan dy="-0.2em">STL</tspan><tspan x="784" dy="1em">(3d)</tspan></text>
	<polygon fill="none" stroke="#000000"  points="880,993.6 944,993.6  944,1022.4 880,1022.4"/>
	<text fill="#000000" text-anchor="middle" x="912" y="1008" font-family="Times,serif" font-size="14.00"><tspan dy="-0.2em">dxf</tspan><tspan x="912" dy="1em">(2D CAD)</tspan></text>
	<polygon fill="none" stroke="#000000"  points="1136,993.6 1200,993.6  1200,1022.4 1136,1022.4"/>
	<text fill="#000000" text-anchor="middle" x="1168" y="1008" font-family="Times,serif" font-size="14.00"><tspan dy="-0.2em">excellon</tspan><tspan x="1168" dy="1em">(drill)</tspan></text>
	<polygon fill="none" stroke="#000000"  points="432,957.6 496,957.6  496,986.4 432,986.4"/>
	<text fill="#000000" text-anchor="middle" x="464" y="972" font-family="Times,serif" font-size="14.00"><tspan dy="-0.2em">XY</tspan><tspan x="464" dy="1em">templated</tspan></text>
	<polygon fill="none" stroke="#000000"  points="944,957.6 1008,957.6  1008,986.4 944,986.4"/>
	<text fill="#000000" text-anchor="middle" x="976" y="972" font-family="Times,serif" font-size="14.00"><tspan dy="-0.2em">openscad</tspan><tspan x="976" dy="1em">(3D CAD)</tspan></text>
	<polygon fill="none" stroke="#000000"  points="1072,957.6 1136,957.6  1136,986.4 1072,986.4"/>
	<text fill="#000000" text-anchor="middle" x="1104" y="972" font-family="Times,serif" font-size="14.00"><tspan dy="-0.2em">OpenEMS</tspan><tspan x="1104" dy="1em">(sim)</tspan></text>
	<polygon fill="none" stroke="#000000"  points="816,957.6 880,957.6  880,986.4 816,986.4"/>
	<text fill="#000000" text-anchor="middle" x="848" y="972" font-family="Times,serif" font-size="14.00"><tspan dy="-0.2em">lpr</tspan><tspan x="848" dy="1em">(print)</tspan></text>
	<polygon fill="none" stroke="#000000"  points="688,957.6 752,957.6  752,986.4 688,986.4"/>
	<text fill="#000000" text-anchor="middle" x="720" y="972" font-family="Times,serif" font-size="14.00"><tspan dy="-0.2em">ipcd356</tspan><tspan x="720" dy="1em">e-tester</tspan></text>
	<polygon fill="none" stroke="#000000"  points="624,993.6 688,993.6  688,1022.4 624,1022.4"/>
	<text fill="#000000" text-anchor="middle" x="656" y="1008" font-family="Times,serif" font-size="14.00"><tspan dy="-0.2em">png</tspan><tspan x="656" dy="1em">jpg, bmp</tspan></text>
	<polygon fill="none" stroke="#000000"  points="368,993.6 432,993.6  432,1022.4 368,1022.4"/>
	<text fill="#000000" text-anchor="middle" x="400" y="1008" font-family="Times,serif" font-size="14.00"><tspan dy="-0.2em">ps</tspan><tspan x="400" dy="1em">postscript</tspan></text>
	<polygon fill="none" stroke="#000000"  points="304,957.6 368,957.6  368,986.4 304,986.4"/>
	<text fill="#000000" text-anchor="middle" x="336" y="972" font-family="Times,serif" font-size="14.00"><tspan dy="-0.2em">BOM</tspan></text>
	<polygon fill="none" stroke="#000000"  points="1008,993.6 1072,993.6  1072,1022.4 1008,1022.4"/>
	<text fill="#000000" text-anchor="middle" x="1040" y="1008" font-family="Times,serif" font-size="14.00"><tspan dy="-0.2em">g-code</tspan><tspan x="1040" dy="1em">(mill)</tspan></text>
	<polygon fill="none" stroke="#000000"  points="240,993.6 304,993.6  304,1022.4 240,1022.4"/>
	<text fill="#000000" text-anchor="middle" x="272" y="1008" font-family="Times,serif" font-size="14.00"><tspan dy="-0.2em">stat</tspan><tspan x="272" dy="1em">statistics</tspan></text>
	<line  marker-end="url(#ahe)"  x1="96" y1="504" x2="192" y2="504" stroke="#000000"/>
	<text fill="#000000" text-anchor="middle" x="144" y="504" font-family="Times,serif" font-size="14.00"><tspan dy="-0.2em">import</tspan><tspan x="144" dy="1em">schematics</tspan></text>
	<line  marker-end="url(#ahe)"  x1="96" y1="612" x2="192" y2="612" stroke="#000000"/>
	<text fill="#000000" text-anchor="middle" x="144" y="612" font-family="Times,serif" font-size="14.00"><tspan dy="-0.2em">import</tspan><tspan x="144" dy="1em">PCB</tspan></text>
	<line  marker-end="url(#ahe)"  x1="96" y1="540" x2="192" y2="540" stroke="#000000"/>
	<text fill="#000000" text-anchor="middle" x="144" y="540" font-family="Times,serif" font-size="14.00"><tspan dy="-0.2em">import</tspan><tspan x="144" dy="1em">schematics</tspan></text>
	<line  marker-end="url(#ahe)"  x1="336" y1="878.4" x2="336" y2="957.6" stroke="#000000"/>
	<g transform="rotate(-90 336 918)">
	<text fill="#000000" text-anchor="middle" x="336" y="918" font-family="Times,serif" font-size="14.00"><tspan dy="-0.2em">text</tspan></text>
	</g>
	<line  marker-end="url(#ahe)"  x1="96" y1="648" x2="192" y2="648" stroke="#000000"/>
	<text fill="#000000" text-anchor="middle" x="144" y="648" font-family="Times,serif" font-size="14.00"><tspan dy="-0.2em">import</tspan><tspan x="144" dy="1em">netlist</tspan></text>
	<line  marker-end="url(#ahe)"  x1="96" y1="576" x2="192" y2="576" stroke="#000000"/>
	<text fill="#000000" text-anchor="middle" x="144" y="576" font-family="Times,serif" font-size="14.00"><tspan dy="-0.2em">import</tspan><tspan x="144" dy="1em">lines/arcs</tspan></text>
	<line  marker-end="url(#ahe)"  x1="96" y1="180" x2="192" y2="180" stroke="#000000"/>
	<text fill="#000000" text-anchor="middle" x="144" y="180" font-family="Times,serif" font-size="14.00"><tspan dy="-0.2em">import</tspan><tspan x="144" dy="1em">schematics</tspan></text>
	<line  marker-end="url(#ahe)"  x1="464" y1="878.4" x2="464" y2="957.6" stroke="#000000"/>
	<g transform="rotate(-90 464 918)">
	<text fill="#000000" text-anchor="middle" x="464" y="918" font-family="Times,serif" font-size="14.00"><tspan dy="-0.2em">.xy</tspan></text>
	</g>
	<line  marker-end="url(#ahe)" marker-start="url(#ahs)"  x1="1216" y1="396" x2="1312" y2="396" stroke="#000000"/>
	<line  marker-end="url(#ahe)"  x1="96" y1="756" x2="192" y2="756" stroke="#000000"/>
	<text fill="#000000" text-anchor="middle" x="144" y="756" font-family="Times,serif" font-size="14.00"><tspan dy="-0.2em">import</tspan><tspan x="144" dy="1em">schematics</tspan></text>
	<line  marker-end="url(#ahe)"  x1="96" y1="684" x2="192" y2="684" stroke="#000000"/>
	<text fill="#000000" text-anchor="middle" x="144" y="684" font-family="Times,serif" font-size="14.00"><tspan dy="-0.2em">import</tspan><tspan x="144" dy="1em">schematics</tspan></text>
	<line  marker-end="url(#ahe)"  x1="848" y1="878.4" x2="848" y2="957.6" stroke="#000000"/>
	<g transform="rotate(-90 848 918)">
	<text fill="#000000" text-anchor="middle" x="848" y="918" font-family="Times,serif" font-size="14.00"><tspan dy="-0.2em">ps</tspan></text>
	</g>
	<line  marker-end="url(#ahe)"  x1="720" y1="878.4" x2="720" y2="957.6" stroke="#000000"/>
	<g transform="rotate(-90 720 918)">
	<text fill="#000000" text-anchor="middle" x="720" y="918" font-family="Times,serif" font-size="14.00"><tspan dy="-0.2em">IPC356D</tspan></text>
	</g>
	<line  marker-end="url(#ahe)"  x1="96" y1="864" x2="192" y2="864" stroke="#000000"/>
	<text fill="#000000" text-anchor="middle" x="144" y="864" font-family="Times,serif" font-size="14.00"><tspan dy="-0.2em">import</tspan><tspan x="144" dy="1em">footprint</tspan></text>
	<line  marker-end="url(#ahe)"  x1="592" y1="878.4" x2="592" y2="957.6" stroke="#000000"/>
	<g transform="rotate(-90 592 918)">
	<text fill="#000000" text-anchor="middle" x="592" y="918" font-family="Times,serif" font-size="14.00"><tspan dy="-0.2em">.grb, .cnc</tspan></text>
	</g>
	<line  marker-end="url(#ahe)"  x1="96" y1="792" x2="192" y2="792" stroke="#000000"/>
	<text fill="#000000" text-anchor="middle" x="144" y="792" font-family="Times,serif" font-size="14.00"><tspan dy="-0.2em">import</tspan><tspan x="144" dy="1em">schematics</tspan></text>
	<line  marker-end="url(#ahe)"  x1="1104" y1="878.4" x2="1104" y2="957.6" stroke="#000000"/>
	<line  marker-end="url(#ahe)"  x1="96" y1="720" x2="192" y2="720" stroke="#000000"/>
	<text fill="#000000" text-anchor="middle" x="144" y="720" font-family="Times,serif" font-size="14.00"><tspan dy="-0.2em">import</tspan><tspan x="144" dy="1em">schematics</tspan></text>
	<line  marker-end="url(#ahe)"  x1="912" y1="878.4" x2="912" y2="993.6" stroke="#000000"/>
	<line  marker-end="url(#ahe)" marker-start="url(#ahs)"  x1="864" y1="50.4" x2="864" y2="165.6" stroke="#000000"/>
	<g transform="rotate(-90 864 108)">
	<text fill="#000000" text-anchor="middle" x="864" y="108" font-family="Times,serif" font-size="14.00"><tspan dy="-0.2em">schematics</tspan></text>
	</g>
	<line  marker-end="url(#ahe)"  x1="784" y1="878.4" x2="784" y2="993.6" stroke="#000000"/>
	<g transform="rotate(-90 784 936)">
	<text fill="#000000" text-anchor="middle" x="784" y="936" font-family="Times,serif" font-size="14.00"><tspan dy="-0.2em">stl</tspan></text>
	</g>
	<line  marker-end="url(#ahe)"  x1="1168" y1="878.4" x2="1168" y2="993.6" stroke="#000000"/>
	<line  marker-end="url(#ahe)"  x1="528" y1="878.4" x2="528" y2="993.6" stroke="#000000"/>
	<g transform="rotate(-90 528 936)">
	<text fill="#000000" text-anchor="middle" x="528" y="936" font-family="Times,serif" font-size="14.00"><tspan dy="-0.2em">svg</tspan></text>
	</g>
	<line  marker-end="url(#ahe)"  x1="96" y1="828" x2="192" y2="828" stroke="#000000"/>
	<text fill="#000000" text-anchor="middle" x="144" y="828" font-family="Times,serif" font-size="14.00"><tspan dy="-0.2em">import</tspan><tspan x="144" dy="1em">netlist</tspan></text>
	<line  marker-end="url(#ahe)"  x1="976" y1="878.4" x2="976" y2="957.6" stroke="#000000"/>
	<line  marker-end="url(#ahe)" marker-start="url(#ahs)"  x1="540.8" y1="50.4" x2="540.8" y2="165.6" stroke="#000000"/>
	<g transform="rotate(-90 540.8 108)">
	<text fill="#000000" text-anchor="middle" x="540.8" y="108" font-family="Times,serif" font-size="14.00"><tspan dy="-0.2em">board</tspan></text>
	</g>
	<line  marker-end="url(#ahe)"  x1="272" y1="878.4" x2="272" y2="993.6" stroke="#000000"/>
	<g transform="rotate(-90 272 936)">
	<text fill="#000000" text-anchor="middle" x="272" y="936" font-family="Times,serif" font-size="14.00"><tspan dy="-0.2em">lihata</tspan></text>
	</g>
	<line  marker-end="url(#ahe)" marker-start="url(#ahs)"  x1="736" y1="50.4" x2="736" y2="165.6" stroke="#000000"/>
	<g transform="rotate(-90 736 108)">
	<text fill="#000000" text-anchor="middle" x="736" y="108" font-family="Times,serif" font-size="14.00"><tspan dy="-0.2em">board</tspan></text>
	</g>
	<line  marker-end="url(#ahe)"  x1="1040" y1="878.4" x2="1040" y2="993.6" stroke="#000000"/>
	<line  marker-start="url(#ahs)"  x1="304" y1="50.4" x2="304" y2="165.6" stroke="#000000"/>
	<g transform="rotate(-90 304 108)">
	<text fill="#000000" text-anchor="middle" x="304" y="108" font-family="Times,serif" font-size="14.00"><tspan dy="-0.2em">board</tspan><tspan x="304" dy="1em">legacy</tspan></text>
	</g>
	<line  marker-end="url(#ahe)"  x1="96" y1="252" x2="192" y2="252" stroke="#000000"/>
	<text fill="#000000" text-anchor="middle" x="144" y="252" font-family="Times,serif" font-size="14.00"><tspan dy="-0.2em">import</tspan><tspan x="144" dy="1em">schematics</tspan></text>
	<line  marker-end="url(#ahe)"  x1="656" y1="878.4" x2="656" y2="993.6" stroke="#000000"/>
	<line  marker-end="url(#ahe)" marker-start="url(#ahs)"  x1="579.2" y1="50.4" x2="579.2" y2="165.6" stroke="#000000"/>
	<g transform="rotate(-90 579.2 108)">
	<text fill="#000000" text-anchor="middle" x="579.2" y="108" font-family="Times,serif" font-size="14.00"><tspan dy="-0.2em">footprint</tspan></text>
	</g>
	<line  marker-end="url(#ahe)"  x1="400" y1="878.4" x2="400" y2="993.6" stroke="#000000"/>
	<g transform="rotate(-90 400 936)">
	<text fill="#000000" text-anchor="middle" x="400" y="936" font-family="Times,serif" font-size="14.00"><tspan dy="-0.2em">postscript</tspan></text>
	</g>
	<line  marker-end="url(#ahe)" marker-start="url(#ahs)"  x1="425.6" y1="86.4" x2="425.6" y2="165.6" stroke="#000000"/>
	<g transform="rotate(-90 425.6 126)">
	<text fill="#000000" text-anchor="middle" x="425.6" y="126" font-family="Times,serif" font-size="14.00"><tspan dy="-0.2em">footprint</tspan></text>
	</g>
	<line  marker-end="url(#ahe)" marker-start="url(#ahs)"  x1="342.4" y1="50.4" x2="342.4" y2="165.6" stroke="#000000"/>
	<g transform="rotate(-90 342.4 108)">
	<text fill="#000000" text-anchor="middle" x="342.4" y="108" font-family="Times,serif" font-size="14.00"><tspan dy="-0.2em">footprint</tspan><tspan x="342.4" dy="1em">s-expr</tspan></text>
	</g>
	<line  marker-end="url(#ahe)"  x1="96" y1="288" x2="192" y2="288" stroke="#000000"/>
	<text fill="#000000" text-anchor="middle" x="144" y="288" font-family="Times,serif" font-size="14.00"><tspan dy="-0.2em">import</tspan><tspan x="144" dy="1em">schematics</tspan></text>
	<line  marker-end="url(#ahe)" marker-start="url(#ahs)"  x1="265.6" y1="50.4" x2="265.6" y2="165.6" stroke="#000000"/>
	<g transform="rotate(-90 265.6 108)">
	<text fill="#000000" text-anchor="middle" x="265.6" y="108" font-family="Times,serif" font-size="14.00"><tspan dy="-0.2em">board</tspan><tspan x="265.6" dy="1em">s-expr</tspan></text>
	</g>
	<line  marker-end="url(#ahe)"  x1="96" y1="216" x2="192" y2="216" stroke="#000000"/>
	<text fill="#000000" text-anchor="middle" x="144" y="216" font-family="Times,serif" font-size="14.00"><tspan dy="-0.2em">import</tspan><tspan x="144" dy="1em">netlist</tspan></text>
	<line  marker-end="url(#ahe)" marker-start="url(#ahs)"  x1="0" y1="0" x2="0" y2="165.6" stroke="#000000"/>
	<g transform="rotate(-90 0 82.8)">
	<text fill="#000000" text-anchor="middle" x="0" y="82.8" font-family="Times,serif" font-size="14.00"><tspan dy="-0.2em">board</tspan></text>
	</g>
	<line  marker-end="url(#ahe)" marker-start="url(#ahs)"  x1="454.4" y1="86.4" x2="454.4" y2="165.6" stroke="#000000"/>
	<g transform="rotate(-90 454.4 126)">
	<text fill="#000000" text-anchor="middle" x="454.4" y="126" font-family="Times,serif" font-size="14.00"><tspan dy="-0.2em">etest</tspan></text>
	</g>
	<line  marker-end="url(#ahe)"  x1="96" y1="396" x2="192" y2="396" stroke="#000000"/>
	<text fill="#000000" text-anchor="middle" x="144" y="396" font-family="Times,serif" font-size="14.00"><tspan dy="-0.2em">import</tspan><tspan x="144" dy="1em">netlist</tspan></text>
	<line  marker-end="url(#ahe)" marker-start="url(#ahs)"  x1="389.6" y1="86.4" x2="389.6" y2="165.6" stroke="#000000"/>
	<g transform="rotate(-90 389.6 126)">
	<text fill="#000000" text-anchor="middle" x="389.6" y="126" font-family="Times,serif" font-size="14.00"><tspan dy="-0.2em">netlist</tspan></text>
	</g>
	<line  marker-end="url(#ahe)"  x1="96" y1="324" x2="192" y2="324" stroke="#000000"/>
	<text fill="#000000" text-anchor="middle" x="144" y="324" font-family="Times,serif" font-size="14.00"><tspan dy="-0.2em">import</tspan><tspan x="144" dy="1em">schematics</tspan></text>
	<line  marker-end="url(#ahe)"  x1="1059.2" y1="86.4" x2="1059.2" y2="165.6" stroke="#000000"/>
	<g transform="rotate(-90 1059.2 126)">
	<text fill="#000000" text-anchor="middle" x="1059.2" y="126" font-family="Times,serif" font-size="14.00"><tspan dy="-0.2em">board</tspan></text>
	</g>
	<line  marker-end="url(#ahe)" marker-start="url(#ahs)"  x1="816" y1="86.4" x2="816" y2="165.6" stroke="#000000"/>
	<g transform="rotate(-90 816 126)">
	<text fill="#000000" text-anchor="middle" x="816" y="126" font-family="Times,serif" font-size="14.00"><tspan dy="-0.2em">board</tspan></text>
	</g>
	<line  marker-end="url(#ahe)" marker-start="url(#ahs)"  x1="497.6" y1="86.4" x2="497.6" y2="165.6" stroke="#000000"/>
	<g transform="rotate(-90 497.6 126)">
	<text fill="#000000" text-anchor="middle" x="497.6" y="126" font-family="Times,serif" font-size="14.00"><tspan dy="-0.2em">DRC</tspan><tspan x="497.6" dy="1em">spec</tspan></text>
	</g>
	<line  marker-end="url(#ahe)"  x1="96" y1="432" x2="192" y2="432" stroke="#000000"/>
	<text fill="#000000" text-anchor="middle" x="144" y="432" font-family="Times,serif" font-size="14.00"><tspan dy="-0.2em">netlist</tspan><tspan x="144" dy="1em">pads/subcs</tspan></text>
	<line  marker-end="url(#ahe)"  x1="96" y1="360" x2="192" y2="360" stroke="#000000"/>
	<text fill="#000000" text-anchor="middle" x="144" y="360" font-family="Times,serif" font-size="14.00"><tspan dy="-0.2em">import</tspan><tspan x="144" dy="1em">schematics</tspan></text>
	<line  marker-end="url(#ahe)"  x1="1084.8" y1="86.4" x2="1084.8" y2="165.6" stroke="#000000"/>
	<g transform="rotate(-90 1084.8 126)">
	<text fill="#000000" text-anchor="middle" x="1084.8" y="126" font-family="Times,serif" font-size="14.00"><tspan dy="-0.2em">DRU</tspan></text>
	</g>
	<line  marker-end="url(#ahe)" marker-start="url(#ahs)"  x1="944" y1="86.4" x2="944" y2="165.6" stroke="#000000"/>
	<g transform="rotate(-90 944 126)">
	<text fill="#000000" text-anchor="middle" x="944" y="126" font-family="Times,serif" font-size="14.00"><tspan dy="-0.2em">board</tspan></text>
	</g>
	<line  marker-end="url(#ahe)"  x1="96" y1="468" x2="192" y2="468" stroke="#000000"/>
	<text fill="#000000" text-anchor="middle" x="144" y="468" font-family="Times,serif" font-size="14.00"><tspan dy="-0.2em">import</tspan><tspan x="144" dy="1em">schematics</tspan></text>
	<line  marker-end="url(#ahe)" marker-start="url(#ahs)"  x1="656" y1="86.4" x2="656" y2="165.6" stroke="#000000"/>
	<g transform="rotate(-90 656 126)">
	<text fill="#000000" text-anchor="middle" x="656" y="126" font-family="Times,serif" font-size="14.00"><tspan dy="-0.2em">board</tspan></text>
	</g>
	<line  marker-end="url(#ahe)" marker-start="url(#ahs)"  x1="1000" y1="50.4" x2="1000" y2="165.6" stroke="#000000"/>
	<g transform="rotate(-90 1000 108)">
	<text fill="#000000" text-anchor="middle" x="1000" y="108" font-family="Times,serif" font-size="14.00"><tspan dy="-0.2em">board</tspan></text>
	</g>
	<line  marker-end="url(#ahe)" marker-start="url(#ahs)"  x1="1216" y1="180" x2="1312" y2="180" stroke="#000000"/>
	<line  marker-end="url(#ahe)" marker-start="url(#ahs)"  x1="1128" y1="50.4" x2="1128" y2="165.6" stroke="#000000"/>
	<g transform="rotate(-90 1128 108)">
	<text fill="#000000" text-anchor="middle" x="1128" y="108" font-family="Times,serif" font-size="14.00"><tspan dy="-0.2em">board</tspan></text>
	</g>
	<line  marker-end="url(#ahe)" marker-start="url(#ahs)"  x1="1216" y1="252" x2="1312" y2="252" stroke="#000000"/>
	<line  marker-end="url(#ahe)" marker-start="url(#ahs)"  x1="1216" y1="324" x2="1312" y2="324" stroke="#000000"/>
</g>
</svg>
