<?xml version="1.0" encoding="UTF-8" standalone="no"?>
<!DOCTYPE svg PUBLIC "-//W3C//DTD SVG 1.1//EN" "http://www.w3.org/Graphics/SVG/1.1/DTD/svg11.dtd">
<!-- Generated by aagraph -->
<svg width="1504pt" height="828pt" viewBox="-8 -18 1512 846" xmlns="http://www.w3.org/2000/svg" xmlns:xlink="http://www.w3.org/1999/xlink">
<g>
	<marker id="ahs" viewBox="0 0 60 60" refX="0" refY="30" markerUnits="strokeWidth" markerWidth="8" markerHeight="10" orient="auto">
		<path d="M 60 0 L 0 30 L 60 60 z" />
	</marker>
	<marker id="ahe" viewBox="-60 0 60 60" refX="0" refY="30" markerUnits="strokeWidth" markerWidth="8" markerHeight="10" orient="auto">
		<g transform="scale(-1 1)">
		<path d="M 60 0 L 0 30 L 60 60 z" />
		</g>
	</marker>

	<polygon fill="#00ffff" stroke="#000000"  points="176,165.6 1200,165.6  1200,626.4 176,626.4"/>
	<text fill="#000000" text-anchor="middle" x="688" y="396" font-family="Times,serif" font-size="14.00"><tspan dy="-0.2em">pcb-rnd</tspan></text>
	<polygon fill="#cccccc" stroke="#cccccc"  points="144,669.6 1216,669.6  1216,806.4 144,806.4"/>
	<text fill="#884433" text-anchor="middle" x="680" y="806.4" font-family="Times,serif" font-size="14.00"><tspan dy="-0.2em">output-only</tspan></text>
	<polygon fill="#cccccc" stroke="#cccccc"  points="176,-14.4 1152,-14.4  1152,122.4 176,122.4"/>
	<text fill="#884433" text-anchor="middle" x="664" y="-14.4" font-family="Times,serif" font-size="14.00"><tspan dy="0.8em">input-output</tspan></text>
	<polygon fill="#cccccc" stroke="#cccccc"  points="1280,129.6 1456,129.6  1456,626.4 1280,626.4"/>
	<text fill="#884433" text-anchor="middle" x="1368" y="129.6" font-family="Times,serif" font-size="14.00"><tspan dy="0.8em">HID (GUI)</tspan></text>
	<polygon fill="#cccccc" stroke="#cccccc"  points="0,129.6 96,129.6  96,662.4 0,662.4"/>
	<text fill="#884433" text-anchor="middle" x="48" y="129.6" font-family="Times,serif" font-size="14.00"><tspan dy="0.8em">input-only</tspan></text>
	<polygon fill="none" stroke="#000000"  points="224,21.6 432,21.6  432,50.4 224,50.4"/>
	<text fill="#000000" text-anchor="middle" x="328" y="36" font-family="Times,serif" font-size="14.00"><tspan dy="-0.2em">kicad</tspan><tspan x="328" dy="1em">pcbnew</tspan></text>
	<polygon fill="none" stroke="#000000"  points="1296,237.6 1424,237.6  1424,266.4 1296,266.4"/>
	<text fill="#000000" text-anchor="middle" x="1360" y="252" font-family="Times,serif" font-size="14.00"><tspan dy="-0.2em">gtk</tspan><tspan x="1360" dy="1em">gdk or gl render</tspan></text>
	<polygon fill="none" stroke="#aaaaaa"  points="1312,705.6 1440,705.6  1440,734.4 1312,734.4"/>
	<text fill="#aaaaaa" text-anchor="middle" x="1376" y="720" font-family="Times,serif" font-size="14.00"><tspan dy="-0.2em">web client</tspan><tspan x="1376" dy="1em">(javascript)</tspan></text>
	<polygon fill="none" stroke="#000000"  points="1296,165.6 1408,165.6  1408,194.4 1296,194.4"/>
	<text fill="#000000" text-anchor="middle" x="1352" y="180" font-family="Times,serif" font-size="14.00"><tspan dy="-0.2em">batch</tspan><tspan x="1352" dy="1em">CLI/automation</tspan></text>
	<polygon fill="none" stroke="#000000"  points="1296,309.6 1408,309.6  1408,338.4 1296,338.4"/>
	<text fill="#000000" text-anchor="middle" x="1352" y="324" font-family="Times,serif" font-size="14.00"><tspan dy="-0.2em">lesstif</tspan><tspan x="1352" dy="1em">(motif)</tspan></text>
	<polygon fill="none" stroke="#000000"  points="528,21.6 640,21.6  640,50.4 528,50.4"/>
	<text fill="#000000" text-anchor="middle" x="584" y="36" font-family="Times,serif" font-size="14.00"><tspan dy="-0.2em">gEDA</tspan><tspan x="584" dy="1em">pcb</tspan></text>
	<polygon fill="none" stroke="#000000"  points="1296,381.6 1392,381.6  1392,410.4 1296,410.4"/>
	<text fill="#000000" text-anchor="middle" x="1344" y="396" font-family="Times,serif" font-size="14.00"><tspan dy="-0.2em">remote</tspan><tspan x="1344" dy="1em">(network)</tspan></text>
	<polygon fill="none" stroke="#000000"  points="432,57.6 528,57.6  528,86.4 432,86.4"/>
	<text fill="#000000" text-anchor="middle" x="480" y="72" font-family="Times,serif" font-size="14.00"><tspan dy="-0.2em">freerouting.net</tspan><tspan x="480" dy="1em">autorouter</tspan></text>
	<polygon fill="none" stroke="#000000"  points="960,21.6 1040,21.6  1040,50.4 960,50.4"/>
	<text fill="#000000" text-anchor="middle" x="1000" y="36" font-family="Times,serif" font-size="14.00"><tspan dy="-0.2em">c-pcb</tspan><tspan x="1000" dy="1em">(autorouting)</tspan></text>
	<polygon fill="none" stroke="#000000"  points="1040,57.6 1120,57.6  1120,86.4 1040,86.4"/>
	<text fill="#000000" text-anchor="middle" x="1080" y="72" font-family="Times,serif" font-size="14.00"><tspan dy="-0.2em">dsn</tspan><tspan x="1080" dy="1em">(autorouting)</tspan></text>
	<polygon fill="none" stroke="#000000"  points="16,309.6 80,309.6  80,338.4 16,338.4"/>
	<text fill="#000000" text-anchor="middle" x="48" y="324" font-family="Times,serif" font-size="14.00"><tspan dy="-0.2em">TinyCAD</tspan></text>
	<polygon fill="none" stroke="#000000"  points="16,525.6 80,525.6  80,554.4 16,554.4"/>
	<text fill="#000000" text-anchor="middle" x="48" y="540" font-family="Times,serif" font-size="14.00"><tspan dy="-0.2em">Calay</tspan><tspan x="48" dy="1em"></tspan></text>
	<polygon fill="none" stroke="#000000"  points="16,201.6 80,201.6  80,230.4 16,230.4"/>
	<text fill="#000000" text-anchor="middle" x="48" y="216" font-family="Times,serif" font-size="14.00"><tspan dy="-0.2em">mucs PCB</tspan><tspan x="48" dy="1em">autorouter</tspan></text>
	<polygon fill="none" stroke="#000000"  points="16,489.6 80,489.6  80,518.4 16,518.4"/>
	<text fill="#000000" text-anchor="middle" x="48" y="504" font-family="Times,serif" font-size="14.00"><tspan dy="-0.2em">XSCHEM</tspan><tspan x="48" dy="1em"></tspan></text>
	<polygon fill="none" stroke="#000000"  points="16,417.6 80,417.6  80,446.4 16,446.4"/>
	<text fill="#000000" text-anchor="middle" x="48" y="432" font-family="Times,serif" font-size="14.00"><tspan dy="-0.2em">(any)</tspan><tspan x="48" dy="1em">IPC-D-356</tspan></text>
	<polygon fill="none" stroke="#000000"  points="16,345.6 80,345.6  80,374.4 16,374.4"/>
	<text fill="#000000" text-anchor="middle" x="48" y="360" font-family="Times,serif" font-size="14.00"><tspan dy="-0.2em">(any)</tspan><tspan x="48" dy="1em">EDIF</tspan></text>
	<polygon fill="none" stroke="#000000"  points="16,273.6 80,273.6  80,302.4 16,302.4"/>
	<text fill="#000000" text-anchor="middle" x="48" y="288" font-family="Times,serif" font-size="14.00"><tspan dy="-0.2em">LTSpice</tspan></text>
	<polygon fill="none" stroke="#000000"  points="16,237.6 80,237.6  80,266.4 16,266.4"/>
	<text fill="#000000" text-anchor="middle" x="48" y="252" font-family="Times,serif" font-size="14.00"><tspan dy="-0.2em">lepton</tspan><tspan x="48" dy="1em">EDA</tspan></text>
	<polygon fill="none" stroke="#000000"  points="16,453.6 80,453.6  80,482.4 16,482.4"/>
	<text fill="#000000" text-anchor="middle" x="48" y="468" font-family="Times,serif" font-size="14.00"><tspan dy="-0.2em">EasyEDA</tspan><tspan x="48" dy="1em">(web2.0)</tspan></text>
	<polygon fill="none" stroke="#000000"  points="16,165.6 80,165.6  80,194.4 16,194.4"/>
	<text fill="#000000" text-anchor="middle" x="48" y="180" font-family="Times,serif" font-size="14.00"><tspan dy="-0.2em">kicad</tspan><tspan x="48" dy="1em">eeschema</tspan></text>
	<polygon fill="none" stroke="#000000"  points="16,381.6 80,381.6  80,410.4 16,410.4"/>
	<text fill="#000000" text-anchor="middle" x="48" y="396" font-family="Times,serif" font-size="14.00"><tspan dy="-0.2em">(any)</tspan><tspan x="48" dy="1em">netlist</tspan></text>
	<polygon fill="none" stroke="#000000"  points="704,21.6 768,21.6  768,50.4 704,50.4"/>
	<text fill="#000000" text-anchor="middle" x="736" y="36" font-family="Times,serif" font-size="14.00"><tspan dy="-0.2em">Mentor</tspan><tspan x="736" dy="1em">hyperlynx</tspan></text>
	<polygon fill="none" stroke="#000000"  points="832,21.6 896,21.6  896,50.4 832,50.4"/>
	<text fill="#000000" text-anchor="middle" x="864" y="36" font-family="Times,serif" font-size="14.00"><tspan dy="-0.2em">gEDA</tspan><tspan x="864" dy="1em">gschem</tspan></text>
	<polygon fill="none" stroke="#000000"  points="896,57.6 960,57.6  960,86.4 896,86.4"/>
	<text fill="#000000" text-anchor="middle" x="928" y="72" font-family="Times,serif" font-size="14.00"><tspan dy="-0.2em">Eagle</tspan><tspan x="928" dy="1em">(board)</tspan></text>
	<polygon fill="none" stroke="#000000"  points="640,57.6 704,57.6  704,86.4 640,86.4"/>
	<text fill="#000000" text-anchor="middle" x="672" y="72" font-family="Times,serif" font-size="14.00"><tspan dy="-0.2em">FidoCadJ</tspan><tspan x="672" dy="1em">(board)</tspan></text>
	<polygon fill="none" stroke="#000000"  points="768,57.6 832,57.6  832,86.4 768,86.4"/>
	<text fill="#000000" text-anchor="middle" x="800" y="72" font-family="Times,serif" font-size="14.00"><tspan dy="-0.2em">Protel</tspan><tspan x="800" dy="1em">Autotrax</tspan></text>
	<polygon fill="none" stroke="#000000"  points="16,561.6 80,561.6  80,590.4 16,590.4"/>
	<text fill="#000000" text-anchor="middle" x="48" y="576" font-family="Times,serif" font-size="14.00"><tspan dy="-0.2em">HPGL</tspan><tspan x="48" dy="1em">(2D CAD)</tspan></text>
	<polygon fill="none" stroke="#000000"  points="544,705.6 608,705.6  608,734.4 544,734.4"/>
	<text fill="#000000" text-anchor="middle" x="576" y="720" font-family="Times,serif" font-size="14.00"><tspan dy="-0.2em">gerber</tspan></text>
	<polygon fill="none" stroke="#000000"  points="480,741.6 544,741.6  544,770.4 480,770.4"/>
	<text fill="#000000" text-anchor="middle" x="512" y="756" font-family="Times,serif" font-size="14.00"><tspan dy="-0.2em">svg</tspan></text>
	<polygon fill="none" stroke="#000000"  points="736,741.6 800,741.6  800,770.4 736,770.4"/>
	<text fill="#000000" text-anchor="middle" x="768" y="756" font-family="Times,serif" font-size="14.00"><tspan dy="-0.2em">STL</tspan><tspan x="768" dy="1em">(3d)</tspan></text>
	<polygon fill="none" stroke="#000000"  points="16,597.6 80,597.6  80,626.4 16,626.4"/>
	<text fill="#000000" text-anchor="middle" x="48" y="612" font-family="Times,serif" font-size="14.00"><tspan dy="-0.2em">hkp</tspan><tspan x="48" dy="1em">(mentor)</tspan></text>
	<polygon fill="none" stroke="#000000"  points="864,741.6 928,741.6  928,770.4 864,770.4"/>
	<text fill="#000000" text-anchor="middle" x="896" y="756" font-family="Times,serif" font-size="14.00"><tspan dy="-0.2em">dxf</tspan><tspan x="896" dy="1em">(2D CAD)</tspan></text>
	<polygon fill="none" stroke="#000000"  points="1120,741.6 1184,741.6  1184,770.4 1120,770.4"/>
	<text fill="#000000" text-anchor="middle" x="1152" y="756" font-family="Times,serif" font-size="14.00"><tspan dy="-0.2em">excellon</tspan><tspan x="1152" dy="1em">(drill)</tspan></text>
	<polygon fill="none" stroke="#000000"  points="416,705.6 480,705.6  480,734.4 416,734.4"/>
	<text fill="#000000" text-anchor="middle" x="448" y="720" font-family="Times,serif" font-size="14.00"><tspan dy="-0.2em">XY</tspan><tspan x="448" dy="1em">templated</tspan></text>
	<polygon fill="none" stroke="#000000"  points="928,705.6 992,705.6  992,734.4 928,734.4"/>
	<text fill="#000000" text-anchor="middle" x="960" y="720" font-family="Times,serif" font-size="14.00"><tspan dy="-0.2em">openscad</tspan><tspan x="960" dy="1em">(3D CAD)</tspan></text>
	<polygon fill="none" stroke="#000000"  points="1056,705.6 1120,705.6  1120,734.4 1056,734.4"/>
	<text fill="#000000" text-anchor="middle" x="1088" y="720" font-family="Times,serif" font-size="14.00"><tspan dy="-0.2em">OpenEMS</tspan><tspan x="1088" dy="1em">(sim)</tspan></text>
	<polygon fill="none" stroke="#000000"  points="800,705.6 864,705.6  864,734.4 800,734.4"/>
	<text fill="#000000" text-anchor="middle" x="832" y="720" font-family="Times,serif" font-size="14.00"><tspan dy="-0.2em">lpr</tspan><tspan x="832" dy="1em">(print)</tspan></text>
	<polygon fill="none" stroke="#000000"  points="672,705.6 736,705.6  736,734.4 672,734.4"/>
	<text fill="#000000" text-anchor="middle" x="704" y="720" font-family="Times,serif" font-size="14.00"><tspan dy="-0.2em">ipcd356</tspan><tspan x="704" dy="1em">e-tester</tspan></text>
	<polygon fill="none" stroke="#000000"  points="608,741.6 672,741.6  672,770.4 608,770.4"/>
	<text fill="#000000" text-anchor="middle" x="640" y="756" font-family="Times,serif" font-size="14.00"><tspan dy="-0.2em">png</tspan><tspan x="640" dy="1em">jpg, bmp</tspan></text>
	<polygon fill="none" stroke="#000000"  points="160,705.6 224,705.6  224,734.4 160,734.4"/>
	<text fill="#000000" text-anchor="middle" x="192" y="720" font-family="Times,serif" font-size="14.00"><tspan dy="-0.2em">breadboard</tspan></text>
	<polygon fill="none" stroke="#000000"  points="352,741.6 416,741.6  416,770.4 352,770.4"/>
	<text fill="#000000" text-anchor="middle" x="384" y="756" font-family="Times,serif" font-size="14.00"><tspan dy="-0.2em">ps</tspan><tspan x="384" dy="1em">postscript</tspan></text>
	<polygon fill="none" stroke="#000000"  points="288,705.6 352,705.6  352,734.4 288,734.4"/>
	<text fill="#000000" text-anchor="middle" x="320" y="720" font-family="Times,serif" font-size="14.00"><tspan dy="-0.2em">BOM</tspan></text>
	<polygon fill="none" stroke="#000000"  points="992,741.6 1056,741.6  1056,770.4 992,770.4"/>
	<text fill="#000000" text-anchor="middle" x="1024" y="756" font-family="Times,serif" font-size="14.00"><tspan dy="-0.2em">g-code</tspan><tspan x="1024" dy="1em">(mill)</tspan></text>
	<polygon fill="none" stroke="#000000"  points="224,741.6 288,741.6  288,770.4 224,770.4"/>
	<text fill="#000000" text-anchor="middle" x="256" y="756" font-family="Times,serif" font-size="14.00"><tspan dy="-0.2em">stat</tspan><tspan x="256" dy="1em">statistics</tspan></text>
	<line  marker-end="url(#ahe)"  x1="320" y1="626.4" x2="320" y2="705.6" stroke="#000000"/>
	<g transform="rotate(-90 320 666)">
	<text fill="#000000" text-anchor="middle" x="320" y="666" font-family="Times,serif" font-size="14.00"><tspan dy="-0.2em">text</tspan></text>
	</g>
	<line  marker-end="url(#ahe)"  x1="80" y1="180" x2="176" y2="180" stroke="#000000"/>
	<text fill="#000000" text-anchor="middle" x="128" y="180" font-family="Times,serif" font-size="14.00"><tspan dy="-0.2em">import</tspan><tspan x="128" dy="1em">schematics</tspan></text>
	<line  marker-end="url(#ahe)" marker-start="url(#ahs)"  x1="550.4" y1="50.4" x2="550.4" y2="165.6" stroke="#000000"/>
	<g transform="rotate(-90 550.4 108)">
	<text fill="#000000" text-anchor="middle" x="550.4" y="108" font-family="Times,serif" font-size="14.00"><tspan dy="-0.2em">board</tspan></text>
	</g>
	<line  marker-end="url(#ahe)"  x1="448" y1="626.4" x2="448" y2="705.6" stroke="#000000"/>
	<g transform="rotate(-90 448 666)">
	<text fill="#000000" text-anchor="middle" x="448" y="666" font-family="Times,serif" font-size="14.00"><tspan dy="-0.2em">.xy</tspan></text>
	</g>
	<line  marker-end="url(#ahe)"  x1="832" y1="626.4" x2="832" y2="705.6" stroke="#000000"/>
	<g transform="rotate(-90 832 666)">
	<text fill="#000000" text-anchor="middle" x="832" y="666" font-family="Times,serif" font-size="14.00"><tspan dy="-0.2em">ps</tspan></text>
	</g>
	<line  marker-end="url(#ahe)"  x1="192" y1="626.4" x2="192" y2="705.6" stroke="#000000"/>
	<g transform="rotate(-90 192 666)">
	<text fill="#000000" text-anchor="middle" x="192" y="666" font-family="Times,serif" font-size="14.00"><tspan dy="-0.2em">.png</tspan></text>
	</g>
	<line  marker-start="url(#ahs)"  x1="328" y1="50.4" x2="328" y2="165.6" stroke="#000000"/>
	<g transform="rotate(-90 328 108)">
	<text fill="#000000" text-anchor="middle" x="328" y="108" font-family="Times,serif" font-size="14.00"><tspan dy="-0.2em">board</tspan><tspan x="328" dy="1em">legacy</tspan></text>
	</g>
	<line  marker-end="url(#ahe)"  x1="704" y1="626.4" x2="704" y2="705.6" stroke="#000000"/>
	<g transform="rotate(-90 704 666)">
	<text fill="#000000" text-anchor="middle" x="704" y="666" font-family="Times,serif" font-size="14.00"><tspan dy="-0.2em">IPC356D</tspan></text>
	</g>
	<line  marker-end="url(#ahe)" marker-start="url(#ahs)"  x1="617.6" y1="50.4" x2="617.6" y2="165.6" stroke="#000000"/>
	<g transform="rotate(-90 617.6 108)">
	<text fill="#000000" text-anchor="middle" x="617.6" y="108" font-family="Times,serif" font-size="14.00"><tspan dy="-0.2em">footprint</tspan></text>
	</g>
	<line  marker-end="url(#ahe)"  x1="576" y1="626.4" x2="576" y2="705.6" stroke="#000000"/>
	<g transform="rotate(-90 576 666)">
	<text fill="#000000" text-anchor="middle" x="576" y="666" font-family="Times,serif" font-size="14.00"><tspan dy="-0.2em">.grb, .cnc</tspan></text>
	</g>
	<line  marker-end="url(#ahe)"  x1="896" y1="626.4" x2="896" y2="741.6" stroke="#000000"/>
	<line  marker-end="url(#ahe)" marker-start="url(#ahs)"  x1="411.2" y1="50.4" x2="411.2" y2="165.6" stroke="#000000"/>
	<g transform="rotate(-90 411.2 108)">
	<text fill="#000000" text-anchor="middle" x="411.2" y="108" font-family="Times,serif" font-size="14.00"><tspan dy="-0.2em">footprint</tspan><tspan x="411.2" dy="1em">s-expr</tspan></text>
	</g>
	<line  marker-end="url(#ahe)"  x1="1152" y1="626.4" x2="1152" y2="741.6" stroke="#000000"/>
	<line  marker-end="url(#ahe)"  x1="768" y1="626.4" x2="768" y2="741.6" stroke="#000000"/>
	<g transform="rotate(-90 768 684)">
	<text fill="#000000" text-anchor="middle" x="768" y="684" font-family="Times,serif" font-size="14.00"><tspan dy="-0.2em">stl</tspan></text>
	</g>
	<line  marker-end="url(#ahe)" marker-start="url(#ahs)"  x1="244.8" y1="50.4" x2="244.8" y2="165.6" stroke="#000000"/>
	<g transform="rotate(-90 244.8 108)">
	<text fill="#000000" text-anchor="middle" x="244.8" y="108" font-family="Times,serif" font-size="14.00"><tspan dy="-0.2em">board</tspan><tspan x="244.8" dy="1em">s-expr</tspan></text>
	</g>
	<line  marker-end="url(#ahe)"  x1="960" y1="626.4" x2="960" y2="705.6" stroke="#000000"/>
	<line  marker-end="url(#ahe)"  x1="256" y1="626.4" x2="256" y2="741.6" stroke="#000000"/>
	<g transform="rotate(-90 256 684)">
	<text fill="#000000" text-anchor="middle" x="256" y="684" font-family="Times,serif" font-size="14.00"><tspan dy="-0.2em">lihata</tspan></text>
	</g>
	<line  marker-end="url(#ahe)" marker-start="url(#ahs)"  x1="800" y1="86.4" x2="800" y2="165.6" stroke="#000000"/>
	<g transform="rotate(-90 800 126)">
	<text fill="#000000" text-anchor="middle" x="800" y="126" font-family="Times,serif" font-size="14.00"><tspan dy="-0.2em">board</tspan></text>
	</g>
	<line  marker-end="url(#ahe)" marker-start="url(#ahs)"  x1="480" y1="86.4" x2="480" y2="165.6" stroke="#000000"/>
	<g transform="rotate(-90 480 126)">
	<text fill="#000000" text-anchor="middle" x="480" y="126" font-family="Times,serif" font-size="14.00"><tspan dy="-0.2em">board</tspan></text>
	</g>
	<line  marker-end="url(#ahe)"  x1="1024" y1="626.4" x2="1024" y2="741.6" stroke="#000000"/>
	<line  marker-end="url(#ahe)"  x1="640" y1="626.4" x2="640" y2="741.6" stroke="#000000"/>
	<line  marker-end="url(#ahe)" marker-start="url(#ahs)"  x1="1080" y1="86.4" x2="1080" y2="165.6" stroke="#000000"/>
	<g transform="rotate(-90 1080 126)">
	<text fill="#000000" text-anchor="middle" x="1080" y="126" font-family="Times,serif" font-size="14.00"><tspan dy="-0.2em">board</tspan></text>
	</g>
	<line  marker-end="url(#ahe)"  x1="384" y1="626.4" x2="384" y2="741.6" stroke="#000000"/>
	<g transform="rotate(-90 384 684)">
	<text fill="#000000" text-anchor="middle" x="384" y="684" font-family="Times,serif" font-size="14.00"><tspan dy="-0.2em">postscript</tspan></text>
	</g>
	<line  marker-end="url(#ahe)"  x1="1088" y1="626.4" x2="1088" y2="705.6" stroke="#000000"/>
	<line  marker-end="url(#ahe)" marker-start="url(#ahs)"  x1="928" y1="86.4" x2="928" y2="165.6" stroke="#000000"/>
	<g transform="rotate(-90 928 126)">
	<text fill="#000000" text-anchor="middle" x="928" y="126" font-family="Times,serif" font-size="14.00"><tspan dy="-0.2em">board</tspan></text>
	</g>
	<line  marker-end="url(#ahe)" marker-start="url(#ahs)"  x1="672" y1="86.4" x2="672" y2="165.6" stroke="#000000"/>
	<g transform="rotate(-90 672 126)">
	<text fill="#000000" text-anchor="middle" x="672" y="126" font-family="Times,serif" font-size="14.00"><tspan dy="-0.2em">board</tspan></text>
	</g>
	<line  marker-end="url(#ahe)" marker-start="url(#ahs)"  x1="1200" y1="396" x2="1296" y2="396" stroke="#000000"/>
	<line  marker-end="url(#ahe)" marker-start="url(#ahs)"  x1="1200" y1="180" x2="1296" y2="180" stroke="#000000"/>
	<line  marker-end="url(#ahe)"  x1="80" y1="288" x2="176" y2="288" stroke="#000000"/>
	<text fill="#000000" text-anchor="middle" x="128" y="288" font-family="Times,serif" font-size="14.00"><tspan dy="-0.2em">import</tspan><tspan x="128" dy="1em">schematics</tspan></text>
	<line  marker-end="url(#ahe)"  x1="512" y1="626.4" x2="512" y2="741.6" stroke="#000000"/>
	<g transform="rotate(-90 512 684)">
	<text fill="#000000" text-anchor="middle" x="512" y="684" font-family="Times,serif" font-size="14.00"><tspan dy="-0.2em">svg</tspan></text>
	</g>
	<line  marker-end="url(#ahe)" marker-start="url(#ahs)"  x1="1344" y1="410.4" x2="1344" y2="705.6" stroke="#000000"/>
	<g transform="rotate(-90 1344 558)">
	<text fill="#000000" text-anchor="middle" x="1344" y="558" font-family="Times,serif" font-size="14.00"><tspan dy="-0.2em">TCP/IP</tspan></text>
	</g>
	<line  marker-end="url(#ahe)" marker-start="url(#ahs)"  x1="1000" y1="50.4" x2="1000" y2="165.6" stroke="#000000"/>
	<g transform="rotate(-90 1000 108)">
	<text fill="#000000" text-anchor="middle" x="1000" y="108" font-family="Times,serif" font-size="14.00"><tspan dy="-0.2em">board</tspan></text>
	</g>
	<line  marker-end="url(#ahe)"  x1="80" y1="216" x2="176" y2="216" stroke="#000000"/>
	<text fill="#000000" text-anchor="middle" x="128" y="216" font-family="Times,serif" font-size="14.00"><tspan dy="-0.2em">import</tspan><tspan x="128" dy="1em">netlist</tspan></text>
	<line  marker-end="url(#ahe)" marker-start="url(#ahs)"  x1="1200" y1="252" x2="1296" y2="252" stroke="#000000"/>
	<line  marker-end="url(#ahe)"  x1="80" y1="396" x2="176" y2="396" stroke="#000000"/>
	<text fill="#000000" text-anchor="middle" x="128" y="396" font-family="Times,serif" font-size="14.00"><tspan dy="-0.2em">import</tspan><tspan x="128" dy="1em">netlist</tspan></text>
	<line  marker-end="url(#ahe)"  x1="80" y1="324" x2="176" y2="324" stroke="#000000"/>
	<text fill="#000000" text-anchor="middle" x="128" y="324" font-family="Times,serif" font-size="14.00"><tspan dy="-0.2em">import</tspan><tspan x="128" dy="1em">schematics</tspan></text>
	<line  marker-end="url(#ahe)"  x1="80" y1="504" x2="176" y2="504" stroke="#000000"/>
	<text fill="#000000" text-anchor="middle" x="128" y="504" font-family="Times,serif" font-size="14.00"><tspan dy="-0.2em">import</tspan><tspan x="128" dy="1em">schematics</tspan></text>
	<line  marker-end="url(#ahe)" marker-start="url(#ahs)"  x1="1200" y1="324" x2="1296" y2="324" stroke="#000000"/>
	<line  marker-end="url(#ahe)"  x1="80" y1="252" x2="176" y2="252" stroke="#000000"/>
	<text fill="#000000" text-anchor="middle" x="128" y="252" font-family="Times,serif" font-size="14.00"><tspan dy="-0.2em">import</tspan><tspan x="128" dy="1em">schematics</tspan></text>
	<line  marker-end="url(#ahe)"  x1="80" y1="432" x2="176" y2="432" stroke="#000000"/>
	<text fill="#000000" text-anchor="middle" x="128" y="432" font-family="Times,serif" font-size="14.00"><tspan dy="-0.2em">netlist</tspan><tspan x="128" dy="1em">pads/subcs</tspan></text>
	<line  marker-end="url(#ahe)"  x1="80" y1="360" x2="176" y2="360" stroke="#000000"/>
	<text fill="#000000" text-anchor="middle" x="128" y="360" font-family="Times,serif" font-size="14.00"><tspan dy="-0.2em">import</tspan><tspan x="128" dy="1em">schematics</tspan></text>
	<line  marker-end="url(#ahe)"  x1="80" y1="540" x2="176" y2="540" stroke="#000000"/>
	<text fill="#000000" text-anchor="middle" x="128" y="540" font-family="Times,serif" font-size="14.00"><tspan dy="-0.2em">import</tspan><tspan x="128" dy="1em">schematics</tspan></text>
	<line  marker-end="url(#ahe)"  x1="80" y1="468" x2="176" y2="468" stroke="#000000"/>
	<text fill="#000000" text-anchor="middle" x="128" y="468" font-family="Times,serif" font-size="14.00"><tspan dy="-0.2em">import</tspan><tspan x="128" dy="1em">schematics</tspan></text>
	<line  marker-end="url(#ahe)"  x1="80" y1="576" x2="176" y2="576" stroke="#000000"/>
	<text fill="#000000" text-anchor="middle" x="128" y="576" font-family="Times,serif" font-size="14.00"><tspan dy="-0.2em">import</tspan><tspan x="128" dy="1em">lines/arcs</tspan></text>
	<line  marker-end="url(#ahe)" marker-start="url(#ahs)"  x1="736" y1="50.4" x2="736" y2="165.6" stroke="#000000"/>
	<g transform="rotate(-90 736 108)">
	<text fill="#000000" text-anchor="middle" x="736" y="108" font-family="Times,serif" font-size="14.00"><tspan dy="-0.2em">board</tspan></text>
	</g>
	<line  marker-end="url(#ahe)"  x1="80" y1="612" x2="176" y2="612" stroke="#000000"/>
	<text fill="#000000" text-anchor="middle" x="128" y="612" font-family="Times,serif" font-size="14.00"><tspan dy="-0.2em">import</tspan><tspan x="128" dy="1em">PCB</tspan></text>
	<line  marker-end="url(#ahe)" marker-start="url(#ahs)"  x1="864" y1="50.4" x2="864" y2="165.6" stroke="#000000"/>
	<g transform="rotate(-90 864 108)">
	<text fill="#000000" text-anchor="middle" x="864" y="108" font-family="Times,serif" font-size="14.00"><tspan dy="-0.2em">schematics</tspan></text>
	</g>
</g>
</svg>
