<?xml version="1.0" encoding="UTF-8" standalone="no"?>
<!DOCTYPE svg PUBLIC "-//W3C//DTD SVG 1.1//EN" "http://www.w3.org/Graphics/SVG/1.1/DTD/svg11.dtd">
<!-- Generated by aagraph -->
<svg width="1424pt" height="792pt" viewBox="-8 -18 1432 810" xmlns="http://www.w3.org/2000/svg" xmlns:xlink="http://www.w3.org/1999/xlink">
<g>
	<marker id="ahs" viewBox="0 0 60 60" refX="0" refY="30" markerUnits="strokeWidth" markerWidth="8" markerHeight="10" orient="auto">
		<path d="M 60 0 L 0 30 L 60 60 z" />
	</marker>
	<marker id="ahe" viewBox="-60 0 60 60" refX="0" refY="30" markerUnits="strokeWidth" markerWidth="8" markerHeight="10" orient="auto">
		<g transform="scale(-1 1)">
		<path d="M 60 0 L 0 30 L 60 60 z" />
		</g>
	</marker>

	<polygon fill="#00ffff" stroke="#000000"  points="176,165.6 1120,165.6  1120,590.4 176,590.4"/>
	<text fill="#000000" text-anchor="middle" x="648" y="378" font-family="Times,serif" font-size="14.00"><tspan dy="-0.2em">pcb-rnd</tspan></text>
	<polygon fill="#cccccc" stroke="#cccccc"  points="144,633.6 1152,633.6  1152,770.4 144,770.4"/>
	<text fill="#884433" text-anchor="middle" x="648" y="770.4" font-family="Times,serif" font-size="14.00"><tspan dy="-0.2em">output-only</tspan></text>
	<polygon fill="#cccccc" stroke="#cccccc"  points="176,-14.4 1152,-14.4  1152,122.4 176,122.4"/>
	<text fill="#884433" text-anchor="middle" x="664" y="-14.4" font-family="Times,serif" font-size="14.00"><tspan dy="0.8em">input-output</tspan></text>
	<polygon fill="#cccccc" stroke="#cccccc"  points="1200,129.6 1376,129.6  1376,590.4 1200,590.4"/>
	<text fill="#884433" text-anchor="middle" x="1288" y="129.6" font-family="Times,serif" font-size="14.00"><tspan dy="0.8em">HID (GUI)</tspan></text>
	<polygon fill="#cccccc" stroke="#cccccc"  points="0,129.6 96,129.6  96,626.4 0,626.4"/>
	<text fill="#884433" text-anchor="middle" x="48" y="129.6" font-family="Times,serif" font-size="14.00"><tspan dy="0.8em">input-only</tspan></text>
	<polygon fill="none" stroke="#000000"  points="224,21.6 432,21.6  432,50.4 224,50.4"/>
	<text fill="#000000" text-anchor="middle" x="328" y="36" font-family="Times,serif" font-size="14.00"><tspan dy="-0.2em">kicad</tspan><tspan x="328" dy="1em">pcbnew</tspan></text>
	<polygon fill="none" stroke="#000000"  points="1216,237.6 1344,237.6  1344,266.4 1216,266.4"/>
	<text fill="#000000" text-anchor="middle" x="1280" y="252" font-family="Times,serif" font-size="14.00"><tspan dy="-0.2em">gtk</tspan><tspan x="1280" dy="1em">gdk or gl render</tspan></text>
	<polygon fill="none" stroke="#aaaaaa"  points="1200,669.6 1328,669.6  1328,698.4 1200,698.4"/>
	<text fill="#aaaaaa" text-anchor="middle" x="1264" y="684" font-family="Times,serif" font-size="14.00"><tspan dy="-0.2em">web client</tspan><tspan x="1264" dy="1em">(javascript)</tspan></text>
	<polygon fill="none" stroke="#000000"  points="1216,165.6 1328,165.6  1328,194.4 1216,194.4"/>
	<text fill="#000000" text-anchor="middle" x="1272" y="180" font-family="Times,serif" font-size="14.00"><tspan dy="-0.2em">batch</tspan><tspan x="1272" dy="1em">CLI/automation</tspan></text>
	<polygon fill="none" stroke="#000000"  points="1216,309.6 1328,309.6  1328,338.4 1216,338.4"/>
	<text fill="#000000" text-anchor="middle" x="1272" y="324" font-family="Times,serif" font-size="14.00"><tspan dy="-0.2em">lesstif</tspan><tspan x="1272" dy="1em">(motif)</tspan></text>
	<polygon fill="none" stroke="#000000"  points="560,21.6 672,21.6  672,50.4 560,50.4"/>
	<text fill="#000000" text-anchor="middle" x="616" y="36" font-family="Times,serif" font-size="14.00"><tspan dy="-0.2em">gEDA</tspan><tspan x="616" dy="1em">pcb</tspan></text>
	<polygon fill="none" stroke="#000000"  points="1216,381.6 1312,381.6  1312,410.4 1216,410.4"/>
	<text fill="#000000" text-anchor="middle" x="1264" y="396" font-family="Times,serif" font-size="14.00"><tspan dy="-0.2em">remote</tspan><tspan x="1264" dy="1em">(network)</tspan></text>
	<polygon fill="none" stroke="#000000"  points="448,57.6 544,57.6  544,86.4 448,86.4"/>
	<text fill="#000000" text-anchor="middle" x="496" y="72" font-family="Times,serif" font-size="14.00"><tspan dy="-0.2em">freerouting.net</tspan><tspan x="496" dy="1em">autorouter</tspan></text>
	<polygon fill="none" stroke="#000000"  points="992,21.6 1072,21.6  1072,50.4 992,50.4"/>
	<text fill="#000000" text-anchor="middle" x="1032" y="36" font-family="Times,serif" font-size="14.00"><tspan dy="-0.2em">c-pcb</tspan><tspan x="1032" dy="1em">(autorouting)</tspan></text>
	<polygon fill="none" stroke="#000000"  points="16,417.6 80,417.6  80,446.4 16,446.4"/>
	<text fill="#000000" text-anchor="middle" x="48" y="432" font-family="Times,serif" font-size="14.00"><tspan dy="-0.2em">(any)</tspan><tspan x="48" dy="1em">IPC-D-356</tspan></text>
	<polygon fill="none" stroke="#000000"  points="16,345.6 80,345.6  80,374.4 16,374.4"/>
	<text fill="#000000" text-anchor="middle" x="48" y="360" font-family="Times,serif" font-size="14.00"><tspan dy="-0.2em">(any)</tspan><tspan x="48" dy="1em">EDIF</tspan></text>
	<polygon fill="none" stroke="#000000"  points="16,309.6 80,309.6  80,338.4 16,338.4"/>
	<text fill="#000000" text-anchor="middle" x="48" y="324" font-family="Times,serif" font-size="14.00"><tspan dy="-0.2em">TinyCAD</tspan></text>
	<polygon fill="none" stroke="#000000"  points="16,525.6 80,525.6  80,554.4 16,554.4"/>
	<text fill="#000000" text-anchor="middle" x="48" y="540" font-family="Times,serif" font-size="14.00"><tspan dy="-0.2em">Calay</tspan><tspan x="48" dy="1em"></tspan></text>
	<polygon fill="none" stroke="#000000"  points="16,201.6 80,201.6  80,230.4 16,230.4"/>
	<text fill="#000000" text-anchor="middle" x="48" y="216" font-family="Times,serif" font-size="14.00"><tspan dy="-0.2em">mucs PCB</tspan><tspan x="48" dy="1em">autorouter</tspan></text>
	<polygon fill="none" stroke="#000000"  points="16,489.6 80,489.6  80,518.4 16,518.4"/>
	<text fill="#000000" text-anchor="middle" x="48" y="504" font-family="Times,serif" font-size="14.00"><tspan dy="-0.2em">XSCHEM</tspan><tspan x="48" dy="1em"></tspan></text>
	<polygon fill="none" stroke="#000000"  points="16,273.6 80,273.6  80,302.4 16,302.4"/>
	<text fill="#000000" text-anchor="middle" x="48" y="288" font-family="Times,serif" font-size="14.00"><tspan dy="-0.2em">LTSpice</tspan></text>
	<polygon fill="none" stroke="#000000"  points="16,237.6 80,237.6  80,266.4 16,266.4"/>
	<text fill="#000000" text-anchor="middle" x="48" y="252" font-family="Times,serif" font-size="14.00"><tspan dy="-0.2em">lepton</tspan><tspan x="48" dy="1em">EDA</tspan></text>
	<polygon fill="none" stroke="#000000"  points="16,453.6 80,453.6  80,482.4 16,482.4"/>
	<text fill="#000000" text-anchor="middle" x="48" y="468" font-family="Times,serif" font-size="14.00"><tspan dy="-0.2em">EasyEDA</tspan><tspan x="48" dy="1em">(web2.0)</tspan></text>
	<polygon fill="none" stroke="#000000"  points="16,165.6 80,165.6  80,194.4 16,194.4"/>
	<text fill="#000000" text-anchor="middle" x="48" y="180" font-family="Times,serif" font-size="14.00"><tspan dy="-0.2em">kicad</tspan><tspan x="48" dy="1em">eeschema</tspan></text>
	<polygon fill="none" stroke="#000000"  points="16,381.6 80,381.6  80,410.4 16,410.4"/>
	<text fill="#000000" text-anchor="middle" x="48" y="396" font-family="Times,serif" font-size="14.00"><tspan dy="-0.2em">(any)</tspan><tspan x="48" dy="1em">netlist</tspan></text>
	<polygon fill="none" stroke="#000000"  points="736,21.6 800,21.6  800,50.4 736,50.4"/>
	<text fill="#000000" text-anchor="middle" x="768" y="36" font-family="Times,serif" font-size="14.00"><tspan dy="-0.2em">Mentor</tspan><tspan x="768" dy="1em">hyperlynx</tspan></text>
	<polygon fill="none" stroke="#000000"  points="864,21.6 928,21.6  928,50.4 864,50.4"/>
	<text fill="#000000" text-anchor="middle" x="896" y="36" font-family="Times,serif" font-size="14.00"><tspan dy="-0.2em">gEDA</tspan><tspan x="896" dy="1em">gschem</tspan></text>
	<polygon fill="none" stroke="#000000"  points="928,57.6 992,57.6  992,86.4 928,86.4"/>
	<text fill="#000000" text-anchor="middle" x="960" y="72" font-family="Times,serif" font-size="14.00"><tspan dy="-0.2em">Eagle</tspan><tspan x="960" dy="1em">(board)</tspan></text>
	<polygon fill="none" stroke="#000000"  points="672,57.6 736,57.6  736,86.4 672,86.4"/>
	<text fill="#000000" text-anchor="middle" x="704" y="72" font-family="Times,serif" font-size="14.00"><tspan dy="-0.2em">FidoCadJ</tspan><tspan x="704" dy="1em">(board)</tspan></text>
	<polygon fill="none" stroke="#000000"  points="800,57.6 864,57.6  864,86.4 800,86.4"/>
	<text fill="#000000" text-anchor="middle" x="832" y="72" font-family="Times,serif" font-size="14.00"><tspan dy="-0.2em">Protel</tspan><tspan x="832" dy="1em">Autotrax</tspan></text>
	<polygon fill="none" stroke="#000000"  points="16,561.6 80,561.6  80,590.4 16,590.4"/>
	<text fill="#000000" text-anchor="middle" x="48" y="576" font-family="Times,serif" font-size="14.00"><tspan dy="-0.2em">HPGL</tspan><tspan x="48" dy="1em">(2D CAD)</tspan></text>
	<polygon fill="none" stroke="#000000"  points="560,669.6 624,669.6  624,698.4 560,698.4"/>
	<text fill="#000000" text-anchor="middle" x="592" y="684" font-family="Times,serif" font-size="14.00"><tspan dy="-0.2em">gerber</tspan></text>
	<polygon fill="none" stroke="#000000"  points="496,705.6 560,705.6  560,734.4 496,734.4"/>
	<text fill="#000000" text-anchor="middle" x="528" y="720" font-family="Times,serif" font-size="14.00"><tspan dy="-0.2em">svg</tspan></text>
	<polygon fill="none" stroke="#000000"  points="752,705.6 816,705.6  816,734.4 752,734.4"/>
	<text fill="#000000" text-anchor="middle" x="784" y="720" font-family="Times,serif" font-size="14.00"><tspan dy="-0.2em">STL</tspan><tspan x="784" dy="1em">(3d)</tspan></text>
	<polygon fill="none" stroke="#000000"  points="880,705.6 944,705.6  944,734.4 880,734.4"/>
	<text fill="#000000" text-anchor="middle" x="912" y="720" font-family="Times,serif" font-size="14.00"><tspan dy="-0.2em">dxf</tspan><tspan x="912" dy="1em">(2D CAD)</tspan></text>
	<polygon fill="none" stroke="#000000"  points="432,669.6 496,669.6  496,698.4 432,698.4"/>
	<text fill="#000000" text-anchor="middle" x="464" y="684" font-family="Times,serif" font-size="14.00"><tspan dy="-0.2em">XY</tspan><tspan x="464" dy="1em">templated</tspan></text>
	<polygon fill="none" stroke="#000000"  points="944,669.6 1008,669.6  1008,698.4 944,698.4"/>
	<text fill="#000000" text-anchor="middle" x="976" y="684" font-family="Times,serif" font-size="14.00"><tspan dy="-0.2em">openscad</tspan><tspan x="976" dy="1em">(3D CAD)</tspan></text>
	<polygon fill="none" stroke="#000000"  points="816,669.6 880,669.6  880,698.4 816,698.4"/>
	<text fill="#000000" text-anchor="middle" x="848" y="684" font-family="Times,serif" font-size="14.00"><tspan dy="-0.2em">lpr</tspan><tspan x="848" dy="1em">(print)</tspan></text>
	<polygon fill="none" stroke="#000000"  points="688,669.6 752,669.6  752,698.4 688,698.4"/>
	<text fill="#000000" text-anchor="middle" x="720" y="684" font-family="Times,serif" font-size="14.00"><tspan dy="-0.2em">ipcd356</tspan><tspan x="720" dy="1em">e-tester</tspan></text>
	<polygon fill="none" stroke="#000000"  points="624,705.6 688,705.6  688,734.4 624,734.4"/>
	<text fill="#000000" text-anchor="middle" x="656" y="720" font-family="Times,serif" font-size="14.00"><tspan dy="-0.2em">png</tspan><tspan x="656" dy="1em">jpg, bmp</tspan></text>
	<polygon fill="none" stroke="#000000"  points="176,669.6 240,669.6  240,698.4 176,698.4"/>
	<text fill="#000000" text-anchor="middle" x="208" y="684" font-family="Times,serif" font-size="14.00"><tspan dy="-0.2em">breadboard</tspan></text>
	<polygon fill="none" stroke="#000000"  points="368,705.6 432,705.6  432,734.4 368,734.4"/>
	<text fill="#000000" text-anchor="middle" x="400" y="720" font-family="Times,serif" font-size="14.00"><tspan dy="-0.2em">ps</tspan><tspan x="400" dy="1em">postscript</tspan></text>
	<polygon fill="none" stroke="#000000"  points="304,669.6 368,669.6  368,698.4 304,698.4"/>
	<text fill="#000000" text-anchor="middle" x="336" y="684" font-family="Times,serif" font-size="14.00"><tspan dy="-0.2em">BOM</tspan></text>
	<polygon fill="none" stroke="#000000"  points="240,705.6 304,705.6  304,734.4 240,734.4"/>
	<text fill="#000000" text-anchor="middle" x="272" y="720" font-family="Times,serif" font-size="14.00"><tspan dy="-0.2em">stat</tspan><tspan x="272" dy="1em">statistics</tspan></text>
	<line  marker-end="url(#ahe)"  x1="592" y1="590.4" x2="592" y2="669.6" stroke="#000000"/>
	<g transform="rotate(-90 592 630)">
	<text fill="#000000" text-anchor="middle" x="592" y="630" font-family="Times,serif" font-size="14.00"><tspan dy="-0.2em">.grb, .cnc</tspan></text>
	</g>
	<line  marker-end="url(#ahe)"  x1="784" y1="590.4" x2="784" y2="705.6" stroke="#000000"/>
	<g transform="rotate(-90 784 648)">
	<text fill="#000000" text-anchor="middle" x="784" y="648" font-family="Times,serif" font-size="14.00"><tspan dy="-0.2em">stl</tspan></text>
	</g>
	<line  marker-end="url(#ahe)"  x1="80" y1="180" x2="176" y2="180" stroke="#000000"/>
	<text fill="#000000" text-anchor="middle" x="128" y="180" font-family="Times,serif" font-size="14.00"><tspan dy="-0.2em">import</tspan><tspan x="128" dy="1em">schematics</tspan></text>
	<line  marker-end="url(#ahe)" marker-start="url(#ahs)"  x1="960" y1="86.4" x2="960" y2="165.6" stroke="#000000"/>
	<g transform="rotate(-90 960 126)">
	<text fill="#000000" text-anchor="middle" x="960" y="126" font-family="Times,serif" font-size="14.00"><tspan dy="-0.2em">board</tspan></text>
	</g>
	<line  marker-end="url(#ahe)"  x1="272" y1="590.4" x2="272" y2="705.6" stroke="#000000"/>
	<g transform="rotate(-90 272 648)">
	<text fill="#000000" text-anchor="middle" x="272" y="648" font-family="Times,serif" font-size="14.00"><tspan dy="-0.2em">lihata</tspan></text>
	</g>
	<line  marker-end="url(#ahe)"  x1="848" y1="590.4" x2="848" y2="669.6" stroke="#000000"/>
	<g transform="rotate(-90 848 630)">
	<text fill="#000000" text-anchor="middle" x="848" y="630" font-family="Times,serif" font-size="14.00"><tspan dy="-0.2em">ps</tspan></text>
	</g>
	<line  marker-end="url(#ahe)"  x1="720" y1="590.4" x2="720" y2="669.6" stroke="#000000"/>
	<g transform="rotate(-90 720 630)">
	<text fill="#000000" text-anchor="middle" x="720" y="630" font-family="Times,serif" font-size="14.00"><tspan dy="-0.2em">IPC356D</tspan></text>
	</g>
	<line  marker-end="url(#ahe)"  x1="656" y1="590.4" x2="656" y2="705.6" stroke="#000000"/>
	<line  marker-end="url(#ahe)" marker-start="url(#ahs)"  x1="1120" y1="324" x2="1216" y2="324" stroke="#000000"/>
	<line  marker-end="url(#ahe)" marker-start="url(#ahs)"  x1="1032" y1="50.4" x2="1032" y2="165.6" stroke="#000000"/>
	<g transform="rotate(-90 1032 108)">
	<text fill="#000000" text-anchor="middle" x="1032" y="108" font-family="Times,serif" font-size="14.00"><tspan dy="-0.2em">board</tspan></text>
	</g>
	<line  marker-end="url(#ahe)"  x1="400" y1="590.4" x2="400" y2="705.6" stroke="#000000"/>
	<g transform="rotate(-90 400 648)">
	<text fill="#000000" text-anchor="middle" x="400" y="648" font-family="Times,serif" font-size="14.00"><tspan dy="-0.2em">postscript</tspan></text>
	</g>
	<line  marker-end="url(#ahe)"  x1="912" y1="590.4" x2="912" y2="705.6" stroke="#000000"/>
	<line  marker-end="url(#ahe)" marker-start="url(#ahs)"  x1="1120" y1="396" x2="1216" y2="396" stroke="#000000"/>
	<line  marker-end="url(#ahe)"  x1="80" y1="288" x2="176" y2="288" stroke="#000000"/>
	<text fill="#000000" text-anchor="middle" x="128" y="288" font-family="Times,serif" font-size="14.00"><tspan dy="-0.2em">import</tspan><tspan x="128" dy="1em">schematics</tspan></text>
	<line  marker-end="url(#ahe)"  x1="976" y1="590.4" x2="976" y2="669.6" stroke="#000000"/>
	<line  marker-end="url(#ahe)" marker-start="url(#ahs)"  x1="1120" y1="180" x2="1216" y2="180" stroke="#000000"/>
	<line  marker-end="url(#ahe)"  x1="80" y1="216" x2="176" y2="216" stroke="#000000"/>
	<text fill="#000000" text-anchor="middle" x="128" y="216" font-family="Times,serif" font-size="14.00"><tspan dy="-0.2em">import</tspan><tspan x="128" dy="1em">netlist</tspan></text>
	<line  marker-end="url(#ahe)"  x1="528" y1="590.4" x2="528" y2="705.6" stroke="#000000"/>
	<g transform="rotate(-90 528 648)">
	<text fill="#000000" text-anchor="middle" x="528" y="648" font-family="Times,serif" font-size="14.00"><tspan dy="-0.2em">svg</tspan></text>
	</g>
	<line  marker-end="url(#ahe)" marker-start="url(#ahs)"  x1="1264" y1="410.4" x2="1264" y2="669.6" stroke="#000000"/>
	<g transform="rotate(-90 1264 540)">
	<text fill="#000000" text-anchor="middle" x="1264" y="540" font-family="Times,serif" font-size="14.00"><tspan dy="-0.2em">TCP/IP</tspan></text>
	</g>
	<line  marker-end="url(#ahe)" marker-start="url(#ahs)"  x1="1120" y1="252" x2="1216" y2="252" stroke="#000000"/>
	<line  marker-end="url(#ahe)"  x1="80" y1="324" x2="176" y2="324" stroke="#000000"/>
	<text fill="#000000" text-anchor="middle" x="128" y="324" font-family="Times,serif" font-size="14.00"><tspan dy="-0.2em">import</tspan><tspan x="128" dy="1em">schematics</tspan></text>
	<line  marker-end="url(#ahe)"  x1="80" y1="252" x2="176" y2="252" stroke="#000000"/>
	<text fill="#000000" text-anchor="middle" x="128" y="252" font-family="Times,serif" font-size="14.00"><tspan dy="-0.2em">import</tspan><tspan x="128" dy="1em">schematics</tspan></text>
	<line  marker-end="url(#ahe)"  x1="80" y1="432" x2="176" y2="432" stroke="#000000"/>
	<text fill="#000000" text-anchor="middle" x="128" y="432" font-family="Times,serif" font-size="14.00"><tspan dy="-0.2em">netlist</tspan><tspan x="128" dy="1em">pads/subcs</tspan></text>
	<line  marker-end="url(#ahe)"  x1="80" y1="360" x2="176" y2="360" stroke="#000000"/>
	<text fill="#000000" text-anchor="middle" x="128" y="360" font-family="Times,serif" font-size="14.00"><tspan dy="-0.2em">import</tspan><tspan x="128" dy="1em">schematics</tspan></text>
	<line  marker-end="url(#ahe)"  x1="80" y1="540" x2="176" y2="540" stroke="#000000"/>
	<text fill="#000000" text-anchor="middle" x="128" y="540" font-family="Times,serif" font-size="14.00"><tspan dy="-0.2em">import</tspan><tspan x="128" dy="1em">schematics</tspan></text>
	<line  marker-end="url(#ahe)"  x1="80" y1="468" x2="176" y2="468" stroke="#000000"/>
	<text fill="#000000" text-anchor="middle" x="128" y="468" font-family="Times,serif" font-size="14.00"><tspan dy="-0.2em">import</tspan><tspan x="128" dy="1em">schematics</tspan></text>
	<line  marker-end="url(#ahe)"  x1="80" y1="396" x2="176" y2="396" stroke="#000000"/>
	<text fill="#000000" text-anchor="middle" x="128" y="396" font-family="Times,serif" font-size="14.00"><tspan dy="-0.2em">import</tspan><tspan x="128" dy="1em">netlist</tspan></text>
	<line  marker-end="url(#ahe)" marker-start="url(#ahs)"  x1="768" y1="50.4" x2="768" y2="165.6" stroke="#000000"/>
	<g transform="rotate(-90 768 108)">
	<text fill="#000000" text-anchor="middle" x="768" y="108" font-family="Times,serif" font-size="14.00"><tspan dy="-0.2em">board</tspan></text>
	</g>
	<line  marker-end="url(#ahe)"  x1="80" y1="576" x2="176" y2="576" stroke="#000000"/>
	<text fill="#000000" text-anchor="middle" x="128" y="576" font-family="Times,serif" font-size="14.00"><tspan dy="-0.2em">import</tspan><tspan x="128" dy="1em">lines/arcs</tspan></text>
	<line  marker-end="url(#ahe)"  x1="80" y1="504" x2="176" y2="504" stroke="#000000"/>
	<text fill="#000000" text-anchor="middle" x="128" y="504" font-family="Times,serif" font-size="14.00"><tspan dy="-0.2em">import</tspan><tspan x="128" dy="1em">schematics</tspan></text>
	<line  marker-end="url(#ahe)"  x1="208" y1="590.4" x2="208" y2="669.6" stroke="#000000"/>
	<g transform="rotate(-90 208 630)">
	<text fill="#000000" text-anchor="middle" x="208" y="630" font-family="Times,serif" font-size="14.00"><tspan dy="-0.2em">.png</tspan></text>
	</g>
	<line  marker-end="url(#ahe)" marker-start="url(#ahs)"  x1="896" y1="50.4" x2="896" y2="165.6" stroke="#000000"/>
	<g transform="rotate(-90 896 108)">
	<text fill="#000000" text-anchor="middle" x="896" y="108" font-family="Times,serif" font-size="14.00"><tspan dy="-0.2em">schematics</tspan></text>
	</g>
	<line  marker-end="url(#ahe)" marker-start="url(#ahs)"  x1="244.8" y1="50.4" x2="244.8" y2="165.6" stroke="#000000"/>
	<g transform="rotate(-90 244.8 108)">
	<text fill="#000000" text-anchor="middle" x="244.8" y="108" font-family="Times,serif" font-size="14.00"><tspan dy="-0.2em">board</tspan><tspan x="244.8" dy="1em">s-expr</tspan></text>
	</g>
	<line  marker-end="url(#ahe)"  x1="336" y1="590.4" x2="336" y2="669.6" stroke="#000000"/>
	<g transform="rotate(-90 336 630)">
	<text fill="#000000" text-anchor="middle" x="336" y="630" font-family="Times,serif" font-size="14.00"><tspan dy="-0.2em">text</tspan></text>
	</g>
	<line  marker-end="url(#ahe)" marker-start="url(#ahs)"  x1="582.4" y1="50.4" x2="582.4" y2="165.6" stroke="#000000"/>
	<g transform="rotate(-90 582.4 108)">
	<text fill="#000000" text-anchor="middle" x="582.4" y="108" font-family="Times,serif" font-size="14.00"><tspan dy="-0.2em">board</tspan></text>
	</g>
	<line  marker-end="url(#ahe)" marker-start="url(#ahs)"  x1="496" y1="86.4" x2="496" y2="165.6" stroke="#000000"/>
	<g transform="rotate(-90 496 126)">
	<text fill="#000000" text-anchor="middle" x="496" y="126" font-family="Times,serif" font-size="14.00"><tspan dy="-0.2em">board</tspan></text>
	</g>
	<line  marker-start="url(#ahs)"  x1="328" y1="50.4" x2="328" y2="165.6" stroke="#000000"/>
	<g transform="rotate(-90 328 108)">
	<text fill="#000000" text-anchor="middle" x="328" y="108" font-family="Times,serif" font-size="14.00"><tspan dy="-0.2em">board</tspan><tspan x="328" dy="1em">legacy</tspan></text>
	</g>
	<line  marker-end="url(#ahe)"  x1="464" y1="590.4" x2="464" y2="669.6" stroke="#000000"/>
	<g transform="rotate(-90 464 630)">
	<text fill="#000000" text-anchor="middle" x="464" y="630" font-family="Times,serif" font-size="14.00"><tspan dy="-0.2em">.xy</tspan></text>
	</g>
	<line  marker-end="url(#ahe)" marker-start="url(#ahs)"  x1="649.6" y1="50.4" x2="649.6" y2="165.6" stroke="#000000"/>
	<g transform="rotate(-90 649.6 108)">
	<text fill="#000000" text-anchor="middle" x="649.6" y="108" font-family="Times,serif" font-size="14.00"><tspan dy="-0.2em">footprint</tspan></text>
	</g>
	<line  marker-end="url(#ahe)" marker-start="url(#ahs)"  x1="704" y1="86.4" x2="704" y2="165.6" stroke="#000000"/>
	<g transform="rotate(-90 704 126)">
	<text fill="#000000" text-anchor="middle" x="704" y="126" font-family="Times,serif" font-size="14.00"><tspan dy="-0.2em">board</tspan></text>
	</g>
	<line  marker-end="url(#ahe)" marker-start="url(#ahs)"  x1="411.2" y1="50.4" x2="411.2" y2="165.6" stroke="#000000"/>
	<g transform="rotate(-90 411.2 108)">
	<text fill="#000000" text-anchor="middle" x="411.2" y="108" font-family="Times,serif" font-size="14.00"><tspan dy="-0.2em">footprint</tspan><tspan x="411.2" dy="1em">s-expr</tspan></text>
	</g>
	<line  marker-end="url(#ahe)" marker-start="url(#ahs)"  x1="832" y1="86.4" x2="832" y2="165.6" stroke="#000000"/>
	<g transform="rotate(-90 832 126)">
	<text fill="#000000" text-anchor="middle" x="832" y="126" font-family="Times,serif" font-size="14.00"><tspan dy="-0.2em">board</tspan></text>
	</g>
</g>
</svg>
