<?xml version="1.0" encoding="UTF-8" standalone="no"?>
<!DOCTYPE svg PUBLIC "-//W3C//DTD SVG 1.1//EN" "http://www.w3.org/Graphics/SVG/1.1/DTD/svg11.dtd">
<!-- Generated by aagraph -->
<svg width="1504pt" height="792pt" viewBox="-8 -18 1512 810" xmlns="http://www.w3.org/2000/svg" xmlns:xlink="http://www.w3.org/1999/xlink">
<g>
	<marker id="ahs" viewBox="0 0 60 60" refX="0" refY="30" markerUnits="strokeWidth" markerWidth="8" markerHeight="10" orient="auto">
		<path d="M 60 0 L 0 30 L 60 60 z" />
	</marker>
	<marker id="ahe" viewBox="-60 0 60 60" refX="0" refY="30" markerUnits="strokeWidth" markerWidth="8" markerHeight="10" orient="auto">
		<g transform="scale(-1 1)">
		<path d="M 60 0 L 0 30 L 60 60 z" />
		</g>
	</marker>

	<polygon fill="#00ffff" stroke="#000000"  points="176,165.6 1200,165.6  1200,590.4 176,590.4"/>
	<text fill="#000000" text-anchor="middle" x="688" y="378" font-family="Times,serif" font-size="14.00"><tspan dy="-0.2em">pcb-rnd</tspan></text>
	<polygon fill="#cccccc" stroke="#cccccc"  points="144,633.6 1232,633.6  1232,770.4 144,770.4"/>
	<text fill="#884433" text-anchor="middle" x="688" y="770.4" font-family="Times,serif" font-size="14.00"><tspan dy="-0.2em">output-only</tspan></text>
	<polygon fill="#cccccc" stroke="#cccccc"  points="176,-14.4 1232,-14.4  1232,122.4 176,122.4"/>
	<text fill="#884433" text-anchor="middle" x="704" y="-14.4" font-family="Times,serif" font-size="14.00"><tspan dy="0.8em">input-output</tspan></text>
	<polygon fill="#cccccc" stroke="#cccccc"  points="1280,129.6 1456,129.6  1456,590.4 1280,590.4"/>
	<text fill="#884433" text-anchor="middle" x="1368" y="129.6" font-family="Times,serif" font-size="14.00"><tspan dy="0.8em">HID (GUI)</tspan></text>
	<polygon fill="#cccccc" stroke="#cccccc"  points="0,129.6 96,129.6  96,626.4 0,626.4"/>
	<text fill="#884433" text-anchor="middle" x="48" y="129.6" font-family="Times,serif" font-size="14.00"><tspan dy="0.8em">input-only</tspan></text>
	<polygon fill="none" stroke="#000000"  points="224,21.6 432,21.6  432,50.4 224,50.4"/>
	<text fill="#000000" text-anchor="middle" x="328" y="36" font-family="Times,serif" font-size="14.00"><tspan dy="-0.2em">kicad</tspan><tspan x="328" dy="1em">pcbnew</tspan></text>
	<polygon fill="none" stroke="#000000"  points="1296,237.6 1424,237.6  1424,266.4 1296,266.4"/>
	<text fill="#000000" text-anchor="middle" x="1360" y="252" font-family="Times,serif" font-size="14.00"><tspan dy="-0.2em">gtk</tspan><tspan x="1360" dy="1em">gdk or gl render</tspan></text>
	<polygon fill="none" stroke="#aaaaaa"  points="1280,669.6 1408,669.6  1408,698.4 1280,698.4"/>
	<text fill="#aaaaaa" text-anchor="middle" x="1344" y="684" font-family="Times,serif" font-size="14.00"><tspan dy="-0.2em">web client</tspan><tspan x="1344" dy="1em">(javascript)</tspan></text>
	<polygon fill="none" stroke="#000000"  points="1296,165.6 1408,165.6  1408,194.4 1296,194.4"/>
	<text fill="#000000" text-anchor="middle" x="1352" y="180" font-family="Times,serif" font-size="14.00"><tspan dy="-0.2em">batch</tspan><tspan x="1352" dy="1em">CLI/automation</tspan></text>
	<polygon fill="none" stroke="#000000"  points="1296,309.6 1408,309.6  1408,338.4 1296,338.4"/>
	<text fill="#000000" text-anchor="middle" x="1352" y="324" font-family="Times,serif" font-size="14.00"><tspan dy="-0.2em">lesstif</tspan><tspan x="1352" dy="1em">(motif)</tspan></text>
	<polygon fill="none" stroke="#000000"  points="592,21.6 704,21.6  704,50.4 592,50.4"/>
	<text fill="#000000" text-anchor="middle" x="648" y="36" font-family="Times,serif" font-size="14.00"><tspan dy="-0.2em">gEDA</tspan><tspan x="648" dy="1em">pcb</tspan></text>
	<polygon fill="none" stroke="#000000"  points="1296,381.6 1392,381.6  1392,410.4 1296,410.4"/>
	<text fill="#000000" text-anchor="middle" x="1344" y="396" font-family="Times,serif" font-size="14.00"><tspan dy="-0.2em">remote</tspan><tspan x="1344" dy="1em">(network)</tspan></text>
	<polygon fill="none" stroke="#000000"  points="464,57.6 560,57.6  560,86.4 464,86.4"/>
	<text fill="#000000" text-anchor="middle" x="512" y="72" font-family="Times,serif" font-size="14.00"><tspan dy="-0.2em">freerouting.net</tspan><tspan x="512" dy="1em">autorouter</tspan></text>
	<polygon fill="none" stroke="#000000"  points="1120,21.6 1200,21.6  1200,50.4 1120,50.4"/>
	<text fill="#000000" text-anchor="middle" x="1160" y="36" font-family="Times,serif" font-size="14.00"><tspan dy="-0.2em">c-pcb</tspan><tspan x="1160" dy="1em">(autorouting)</tspan></text>
	<polygon fill="none" stroke="#000000"  points="16,417.6 80,417.6  80,446.4 16,446.4"/>
	<text fill="#000000" text-anchor="middle" x="48" y="432" font-family="Times,serif" font-size="14.00"><tspan dy="-0.2em">(any)</tspan><tspan x="48" dy="1em">IPC-D-356</tspan></text>
	<polygon fill="none" stroke="#000000"  points="16,345.6 80,345.6  80,374.4 16,374.4"/>
	<text fill="#000000" text-anchor="middle" x="48" y="360" font-family="Times,serif" font-size="14.00"><tspan dy="-0.2em">(any)</tspan><tspan x="48" dy="1em">EDIF</tspan></text>
	<polygon fill="none" stroke="#000000"  points="16,309.6 80,309.6  80,338.4 16,338.4"/>
	<text fill="#000000" text-anchor="middle" x="48" y="324" font-family="Times,serif" font-size="14.00"><tspan dy="-0.2em">TinyCAD</tspan></text>
	<polygon fill="none" stroke="#000000"  points="16,525.6 80,525.6  80,554.4 16,554.4"/>
	<text fill="#000000" text-anchor="middle" x="48" y="540" font-family="Times,serif" font-size="14.00"><tspan dy="-0.2em">Calay</tspan><tspan x="48" dy="1em"></tspan></text>
	<polygon fill="none" stroke="#000000"  points="16,201.6 80,201.6  80,230.4 16,230.4"/>
	<text fill="#000000" text-anchor="middle" x="48" y="216" font-family="Times,serif" font-size="14.00"><tspan dy="-0.2em">mucs PCB</tspan><tspan x="48" dy="1em">autorouter</tspan></text>
	<polygon fill="none" stroke="#000000"  points="16,489.6 80,489.6  80,518.4 16,518.4"/>
	<text fill="#000000" text-anchor="middle" x="48" y="504" font-family="Times,serif" font-size="14.00"><tspan dy="-0.2em">XSCHEM</tspan><tspan x="48" dy="1em"></tspan></text>
	<polygon fill="none" stroke="#000000"  points="16,273.6 80,273.6  80,302.4 16,302.4"/>
	<text fill="#000000" text-anchor="middle" x="48" y="288" font-family="Times,serif" font-size="14.00"><tspan dy="-0.2em">LTSpice</tspan></text>
	<polygon fill="none" stroke="#000000"  points="16,237.6 80,237.6  80,266.4 16,266.4"/>
	<text fill="#000000" text-anchor="middle" x="48" y="252" font-family="Times,serif" font-size="14.00"><tspan dy="-0.2em">lepton</tspan><tspan x="48" dy="1em">EDA</tspan></text>
	<polygon fill="none" stroke="#000000"  points="16,453.6 80,453.6  80,482.4 16,482.4"/>
	<text fill="#000000" text-anchor="middle" x="48" y="468" font-family="Times,serif" font-size="14.00"><tspan dy="-0.2em">EasyEDA</tspan><tspan x="48" dy="1em">(web2.0)</tspan></text>
	<polygon fill="none" stroke="#000000"  points="16,165.6 80,165.6  80,194.4 16,194.4"/>
	<text fill="#000000" text-anchor="middle" x="48" y="180" font-family="Times,serif" font-size="14.00"><tspan dy="-0.2em">kicad</tspan><tspan x="48" dy="1em">eeschema</tspan></text>
	<polygon fill="none" stroke="#000000"  points="16,381.6 80,381.6  80,410.4 16,410.4"/>
	<text fill="#000000" text-anchor="middle" x="48" y="396" font-family="Times,serif" font-size="14.00"><tspan dy="-0.2em">(any)</tspan><tspan x="48" dy="1em">netlist</tspan></text>
	<polygon fill="none" stroke="#000000"  points="800,21.6 864,21.6  864,50.4 800,50.4"/>
	<text fill="#000000" text-anchor="middle" x="832" y="36" font-family="Times,serif" font-size="14.00"><tspan dy="-0.2em">Mentor</tspan><tspan x="832" dy="1em">hyperlynx</tspan></text>
	<polygon fill="none" stroke="#000000"  points="960,21.6 1024,21.6  1024,50.4 960,50.4"/>
	<text fill="#000000" text-anchor="middle" x="992" y="36" font-family="Times,serif" font-size="14.00"><tspan dy="-0.2em">gEDA</tspan><tspan x="992" dy="1em">gschem</tspan></text>
	<polygon fill="none" stroke="#000000"  points="1040,57.6 1104,57.6  1104,86.4 1040,86.4"/>
	<text fill="#000000" text-anchor="middle" x="1072" y="72" font-family="Times,serif" font-size="14.00"><tspan dy="-0.2em">Eagle</tspan><tspan x="1072" dy="1em">(board)</tspan></text>
	<polygon fill="none" stroke="#000000"  points="720,57.6 784,57.6  784,86.4 720,86.4"/>
	<text fill="#000000" text-anchor="middle" x="752" y="72" font-family="Times,serif" font-size="14.00"><tspan dy="-0.2em">FidoCadJ</tspan><tspan x="752" dy="1em">(board)</tspan></text>
	<polygon fill="none" stroke="#000000"  points="880,57.6 944,57.6  944,86.4 880,86.4"/>
	<text fill="#000000" text-anchor="middle" x="912" y="72" font-family="Times,serif" font-size="14.00"><tspan dy="-0.2em">Protel</tspan><tspan x="912" dy="1em">Autotrax</tspan></text>
	<polygon fill="none" stroke="#000000"  points="16,561.6 80,561.6  80,590.4 16,590.4"/>
	<text fill="#000000" text-anchor="middle" x="48" y="576" font-family="Times,serif" font-size="14.00"><tspan dy="-0.2em">HPGL</tspan><tspan x="48" dy="1em">(2D CAD)</tspan></text>
	<polygon fill="none" stroke="#000000"  points="656,669.6 720,669.6  720,698.4 656,698.4"/>
	<text fill="#000000" text-anchor="middle" x="688" y="684" font-family="Times,serif" font-size="14.00"><tspan dy="-0.2em">gerber</tspan></text>
	<polygon fill="none" stroke="#000000"  points="576,705.6 640,705.6  640,734.4 576,734.4"/>
	<text fill="#000000" text-anchor="middle" x="608" y="720" font-family="Times,serif" font-size="14.00"><tspan dy="-0.2em">svg</tspan></text>
	<polygon fill="none" stroke="#000000"  points="976,669.6 1040,669.6  1040,698.4 976,698.4"/>
	<text fill="#000000" text-anchor="middle" x="1008" y="684" font-family="Times,serif" font-size="14.00"><tspan dy="-0.2em">lpr</tspan><tspan x="1008" dy="1em">(print)</tspan></text>
	<polygon fill="none" stroke="#000000"  points="816,669.6 880,669.6  880,698.4 816,698.4"/>
	<text fill="#000000" text-anchor="middle" x="848" y="684" font-family="Times,serif" font-size="14.00"><tspan dy="-0.2em">ipcd356</tspan><tspan x="848" dy="1em">e-tester</tspan></text>
	<polygon fill="none" stroke="#000000"  points="1056,705.6 1120,705.6  1120,734.4 1056,734.4"/>
	<text fill="#000000" text-anchor="middle" x="1088" y="720" font-family="Times,serif" font-size="14.00"><tspan dy="-0.2em">dxf</tspan><tspan x="1088" dy="1em">(2D CAD)</tspan></text>
	<polygon fill="none" stroke="#000000"  points="496,669.6 560,669.6  560,698.4 496,698.4"/>
	<text fill="#000000" text-anchor="middle" x="528" y="684" font-family="Times,serif" font-size="14.00"><tspan dy="-0.2em">XY</tspan><tspan x="528" dy="1em">templated</tspan></text>
	<polygon fill="none" stroke="#000000"  points="1136,669.6 1200,669.6  1200,698.4 1136,698.4"/>
	<text fill="#000000" text-anchor="middle" x="1168" y="684" font-family="Times,serif" font-size="14.00"><tspan dy="-0.2em">openscad</tspan><tspan x="1168" dy="1em">(3D CAD)</tspan></text>
	<polygon fill="none" stroke="#000000"  points="736,705.6 800,705.6  800,734.4 736,734.4"/>
	<text fill="#000000" text-anchor="middle" x="768" y="720" font-family="Times,serif" font-size="14.00"><tspan dy="-0.2em">png</tspan><tspan x="768" dy="1em">jpg, bmp</tspan></text>
	<polygon fill="none" stroke="#000000"  points="176,669.6 240,669.6  240,698.4 176,698.4"/>
	<text fill="#000000" text-anchor="middle" x="208" y="684" font-family="Times,serif" font-size="14.00"><tspan dy="-0.2em">breadboard</tspan></text>
	<polygon fill="none" stroke="#000000"  points="416,705.6 480,705.6  480,734.4 416,734.4"/>
	<text fill="#000000" text-anchor="middle" x="448" y="720" font-family="Times,serif" font-size="14.00"><tspan dy="-0.2em">ps</tspan><tspan x="448" dy="1em">postscript</tspan></text>
	<polygon fill="none" stroke="#000000"  points="336,669.6 400,669.6  400,698.4 336,698.4"/>
	<text fill="#000000" text-anchor="middle" x="368" y="684" font-family="Times,serif" font-size="14.00"><tspan dy="-0.2em">BOM</tspan></text>
	<polygon fill="none" stroke="#000000"  points="256,705.6 320,705.6  320,734.4 256,734.4"/>
	<text fill="#000000" text-anchor="middle" x="288" y="720" font-family="Times,serif" font-size="14.00"><tspan dy="-0.2em">stat</tspan><tspan x="288" dy="1em">statistics</tspan></text>
	<line  marker-end="url(#ahe)"  x1="80" y1="180" x2="176" y2="180" stroke="#000000"/>
	<text fill="#000000" text-anchor="middle" x="128" y="180" font-family="Times,serif" font-size="14.00"><tspan dy="-0.2em">import</tspan><tspan x="128" dy="1em">schematics</tspan></text>
	<line  marker-end="url(#ahe)"  x1="1088" y1="590.4" x2="1088" y2="705.6" stroke="#000000"/>
	<line  marker-end="url(#ahe)"  x1="848" y1="590.4" x2="848" y2="669.6" stroke="#000000"/>
	<g transform="rotate(-90 848 630)">
	<text fill="#000000" text-anchor="middle" x="848" y="630" font-family="Times,serif" font-size="14.00"><tspan dy="-0.2em">IPC356D</tspan></text>
	</g>
	<line  marker-end="url(#ahe)"  x1="1168" y1="590.4" x2="1168" y2="669.6" stroke="#000000"/>
	<line  marker-end="url(#ahe)" marker-start="url(#ahs)"  x1="1200" y1="180" x2="1296" y2="180" stroke="#000000"/>
	<line  marker-end="url(#ahe)"  x1="608" y1="590.4" x2="608" y2="705.6" stroke="#000000"/>
	<g transform="rotate(-90 608 648)">
	<text fill="#000000" text-anchor="middle" x="608" y="648" font-family="Times,serif" font-size="14.00"><tspan dy="-0.2em">svg</tspan></text>
	</g>
	<line  marker-end="url(#ahe)"  x1="288" y1="590.4" x2="288" y2="705.6" stroke="#000000"/>
	<g transform="rotate(-90 288 648)">
	<text fill="#000000" text-anchor="middle" x="288" y="648" font-family="Times,serif" font-size="14.00"><tspan dy="-0.2em">lihata</tspan></text>
	</g>
	<line  marker-end="url(#ahe)"  x1="1008" y1="590.4" x2="1008" y2="669.6" stroke="#000000"/>
	<g transform="rotate(-90 1008 630)">
	<text fill="#000000" text-anchor="middle" x="1008" y="630" font-family="Times,serif" font-size="14.00"><tspan dy="-0.2em">ps</tspan></text>
	</g>
	<line  marker-end="url(#ahe)" marker-start="url(#ahs)"  x1="1200" y1="252" x2="1296" y2="252" stroke="#000000"/>
	<line  marker-end="url(#ahe)"  x1="80" y1="252" x2="176" y2="252" stroke="#000000"/>
	<text fill="#000000" text-anchor="middle" x="128" y="252" font-family="Times,serif" font-size="14.00"><tspan dy="-0.2em">import</tspan><tspan x="128" dy="1em">schematics</tspan></text>
	<line  marker-end="url(#ahe)"  x1="768" y1="590.4" x2="768" y2="705.6" stroke="#000000"/>
	<line  marker-end="url(#ahe)" marker-start="url(#ahs)"  x1="1200" y1="324" x2="1296" y2="324" stroke="#000000"/>
	<line  marker-end="url(#ahe)"  x1="448" y1="590.4" x2="448" y2="705.6" stroke="#000000"/>
	<g transform="rotate(-90 448 648)">
	<text fill="#000000" text-anchor="middle" x="448" y="648" font-family="Times,serif" font-size="14.00"><tspan dy="-0.2em">postscript</tspan></text>
	</g>
	<line  marker-end="url(#ahe)"  x1="80" y1="360" x2="176" y2="360" stroke="#000000"/>
	<text fill="#000000" text-anchor="middle" x="128" y="360" font-family="Times,serif" font-size="14.00"><tspan dy="-0.2em">import</tspan><tspan x="128" dy="1em">schematics</tspan></text>
	<line  marker-end="url(#ahe)" marker-start="url(#ahs)"  x1="1200" y1="396" x2="1296" y2="396" stroke="#000000"/>
	<line  marker-end="url(#ahe)"  x1="80" y1="288" x2="176" y2="288" stroke="#000000"/>
	<text fill="#000000" text-anchor="middle" x="128" y="288" font-family="Times,serif" font-size="14.00"><tspan dy="-0.2em">import</tspan><tspan x="128" dy="1em">schematics</tspan></text>
	<line  marker-end="url(#ahe)"  x1="80" y1="216" x2="176" y2="216" stroke="#000000"/>
	<text fill="#000000" text-anchor="middle" x="128" y="216" font-family="Times,serif" font-size="14.00"><tspan dy="-0.2em">import</tspan><tspan x="128" dy="1em">netlist</tspan></text>
	<line  marker-end="url(#ahe)" marker-start="url(#ahs)"  x1="1344" y1="410.4" x2="1344" y2="669.6" stroke="#000000"/>
	<g transform="rotate(-90 1344 540)">
	<text fill="#000000" text-anchor="middle" x="1344" y="540" font-family="Times,serif" font-size="14.00"><tspan dy="-0.2em">TCP/IP</tspan></text>
	</g>
	<line  marker-end="url(#ahe)"  x1="80" y1="396" x2="176" y2="396" stroke="#000000"/>
	<text fill="#000000" text-anchor="middle" x="128" y="396" font-family="Times,serif" font-size="14.00"><tspan dy="-0.2em">import</tspan><tspan x="128" dy="1em">netlist</tspan></text>
	<line  marker-end="url(#ahe)"  x1="80" y1="324" x2="176" y2="324" stroke="#000000"/>
	<text fill="#000000" text-anchor="middle" x="128" y="324" font-family="Times,serif" font-size="14.00"><tspan dy="-0.2em">import</tspan><tspan x="128" dy="1em">schematics</tspan></text>
	<line  marker-end="url(#ahe)"  x1="80" y1="504" x2="176" y2="504" stroke="#000000"/>
	<text fill="#000000" text-anchor="middle" x="128" y="504" font-family="Times,serif" font-size="14.00"><tspan dy="-0.2em">import</tspan><tspan x="128" dy="1em">schematics</tspan></text>
	<line  marker-end="url(#ahe)"  x1="80" y1="432" x2="176" y2="432" stroke="#000000"/>
	<text fill="#000000" text-anchor="middle" x="128" y="432" font-family="Times,serif" font-size="14.00"><tspan dy="-0.2em">netlist</tspan><tspan x="128" dy="1em">pads/subcs</tspan></text>
	<line  marker-end="url(#ahe)"  x1="80" y1="540" x2="176" y2="540" stroke="#000000"/>
	<text fill="#000000" text-anchor="middle" x="128" y="540" font-family="Times,serif" font-size="14.00"><tspan dy="-0.2em">import</tspan><tspan x="128" dy="1em">schematics</tspan></text>
	<line  marker-end="url(#ahe)"  x1="208" y1="590.4" x2="208" y2="669.6" stroke="#000000"/>
	<g transform="rotate(-90 208 630)">
	<text fill="#000000" text-anchor="middle" x="208" y="630" font-family="Times,serif" font-size="14.00"><tspan dy="-0.2em">.png</tspan></text>
	</g>
	<line  marker-end="url(#ahe)"  x1="80" y1="468" x2="176" y2="468" stroke="#000000"/>
	<text fill="#000000" text-anchor="middle" x="128" y="468" font-family="Times,serif" font-size="14.00"><tspan dy="-0.2em">import</tspan><tspan x="128" dy="1em">schematics</tspan></text>
	<line  marker-end="url(#ahe)" marker-start="url(#ahs)"  x1="614.4" y1="50.4" x2="614.4" y2="165.6" stroke="#000000"/>
	<g transform="rotate(-90 614.4 108)">
	<text fill="#000000" text-anchor="middle" x="614.4" y="108" font-family="Times,serif" font-size="14.00"><tspan dy="-0.2em">board</tspan></text>
	</g>
	<line  marker-end="url(#ahe)" marker-start="url(#ahs)"  x1="832" y1="50.4" x2="832" y2="165.6" stroke="#000000"/>
	<g transform="rotate(-90 832 108)">
	<text fill="#000000" text-anchor="middle" x="832" y="108" font-family="Times,serif" font-size="14.00"><tspan dy="-0.2em">board</tspan></text>
	</g>
	<line  marker-end="url(#ahe)"  x1="80" y1="576" x2="176" y2="576" stroke="#000000"/>
	<text fill="#000000" text-anchor="middle" x="128" y="576" font-family="Times,serif" font-size="14.00"><tspan dy="-0.2em">import</tspan><tspan x="128" dy="1em">lines/arcs</tspan></text>
	<line  marker-end="url(#ahe)"  x1="368" y1="590.4" x2="368" y2="669.6" stroke="#000000"/>
	<g transform="rotate(-90 368 630)">
	<text fill="#000000" text-anchor="middle" x="368" y="630" font-family="Times,serif" font-size="14.00"><tspan dy="-0.2em">text</tspan></text>
	</g>
	<line  marker-end="url(#ahe)" marker-start="url(#ahs)"  x1="681.6" y1="50.4" x2="681.6" y2="165.6" stroke="#000000"/>
	<g transform="rotate(-90 681.6 108)">
	<text fill="#000000" text-anchor="middle" x="681.6" y="108" font-family="Times,serif" font-size="14.00"><tspan dy="-0.2em">footprint</tspan></text>
	</g>
	<line  marker-end="url(#ahe)" marker-start="url(#ahs)"  x1="992" y1="50.4" x2="992" y2="165.6" stroke="#000000"/>
	<g transform="rotate(-90 992 108)">
	<text fill="#000000" text-anchor="middle" x="992" y="108" font-family="Times,serif" font-size="14.00"><tspan dy="-0.2em">schematics</tspan></text>
	</g>
	<line  marker-end="url(#ahe)" marker-start="url(#ahs)"  x1="411.2" y1="50.4" x2="411.2" y2="165.6" stroke="#000000"/>
	<g transform="rotate(-90 411.2 108)">
	<text fill="#000000" text-anchor="middle" x="411.2" y="108" font-family="Times,serif" font-size="14.00"><tspan dy="-0.2em">footprint</tspan><tspan x="411.2" dy="1em">s-expr</tspan></text>
	</g>
	<line  marker-end="url(#ahe)"  x1="528" y1="590.4" x2="528" y2="669.6" stroke="#000000"/>
	<g transform="rotate(-90 528 630)">
	<text fill="#000000" text-anchor="middle" x="528" y="630" font-family="Times,serif" font-size="14.00"><tspan dy="-0.2em">.xy</tspan></text>
	</g>
	<line  marker-end="url(#ahe)" marker-start="url(#ahs)"  x1="244.8" y1="50.4" x2="244.8" y2="165.6" stroke="#000000"/>
	<g transform="rotate(-90 244.8 108)">
	<text fill="#000000" text-anchor="middle" x="244.8" y="108" font-family="Times,serif" font-size="14.00"><tspan dy="-0.2em">board</tspan><tspan x="244.8" dy="1em">s-expr</tspan></text>
	</g>
	<line  marker-end="url(#ahe)" marker-start="url(#ahs)"  x1="912" y1="86.4" x2="912" y2="165.6" stroke="#000000"/>
	<g transform="rotate(-90 912 126)">
	<text fill="#000000" text-anchor="middle" x="912" y="126" font-family="Times,serif" font-size="14.00"><tspan dy="-0.2em">board</tspan></text>
	</g>
	<line  marker-end="url(#ahe)" marker-start="url(#ahs)"  x1="512" y1="86.4" x2="512" y2="165.6" stroke="#000000"/>
	<g transform="rotate(-90 512 126)">
	<text fill="#000000" text-anchor="middle" x="512" y="126" font-family="Times,serif" font-size="14.00"><tspan dy="-0.2em">board</tspan></text>
	</g>
	<line  marker-end="url(#ahe)"  x1="688" y1="590.4" x2="688" y2="669.6" stroke="#000000"/>
	<g transform="rotate(-90 688 630)">
	<text fill="#000000" text-anchor="middle" x="688" y="630" font-family="Times,serif" font-size="14.00"><tspan dy="-0.2em">.grb, .cnc</tspan></text>
	</g>
	<line  marker-start="url(#ahs)"  x1="328" y1="50.4" x2="328" y2="165.6" stroke="#000000"/>
	<g transform="rotate(-90 328 108)">
	<text fill="#000000" text-anchor="middle" x="328" y="108" font-family="Times,serif" font-size="14.00"><tspan dy="-0.2em">board</tspan><tspan x="328" dy="1em">legacy</tspan></text>
	</g>
	<line  marker-end="url(#ahe)" marker-start="url(#ahs)"  x1="1072" y1="86.4" x2="1072" y2="165.6" stroke="#000000"/>
	<g transform="rotate(-90 1072 126)">
	<text fill="#000000" text-anchor="middle" x="1072" y="126" font-family="Times,serif" font-size="14.00"><tspan dy="-0.2em">board</tspan></text>
	</g>
	<line  marker-end="url(#ahe)" marker-start="url(#ahs)"  x1="752" y1="86.4" x2="752" y2="165.6" stroke="#000000"/>
	<g transform="rotate(-90 752 126)">
	<text fill="#000000" text-anchor="middle" x="752" y="126" font-family="Times,serif" font-size="14.00"><tspan dy="-0.2em">board</tspan></text>
	</g>
	<line  marker-end="url(#ahe)" marker-start="url(#ahs)"  x1="1160" y1="50.4" x2="1160" y2="165.6" stroke="#000000"/>
	<g transform="rotate(-90 1160 108)">
	<text fill="#000000" text-anchor="middle" x="1160" y="108" font-family="Times,serif" font-size="14.00"><tspan dy="-0.2em">board</tspan></text>
	</g>
</g>
</svg>
