G04 start of page 3 for group -1 layer_idx 268435461 *
G04 Title: text rotations, <virtual group> *
G04 Creator: <version>
G04 CreationDate: <date>
G04 For: TEST *
G04 Format: Gerber/RS-274X *
G04 PCB-Dimensions: 50000 50000 *
G04 PCB-Coordinate-Origin: lower left *
%MOIN*%
%FSLAX25Y25*%
%LNFAB*%
%ADD15C,0.0060*%
%ADD14C,0.0100*%
%ADD13C,0.0080*%
%ADD12C,0.0001*%
G54D12*G36*
X0Y125000D02*Y117500D01*
X3750D01*
Y125000D01*
X0D01*
G37*
G36*
X4500D02*Y117500D01*
X8250D01*
Y125000D01*
X4500D01*
G37*
G36*
X9000D02*Y117500D01*
X12750D01*
Y125000D01*
X9000D01*
G37*
G36*
X13500D02*Y117500D01*
X17250D01*
Y125000D01*
X13500D01*
G37*
G36*
X18000D02*Y117500D01*
X21750D01*
Y125000D01*
X18000D01*
G37*
G36*
X22500D02*Y117500D01*
X26250D01*
Y125000D01*
X22500D01*
G37*
G54D13*X0Y116500D03*
G54D12*G36*
X41000Y125000D02*Y117500D01*
X44750D01*
Y125000D01*
X41000D01*
G37*
G36*
X45500D02*Y117500D01*
X49250D01*
Y125000D01*
X45500D01*
G37*
G36*
X50000D02*Y117500D01*
X53750D01*
Y125000D01*
X50000D01*
G37*
G36*
X54500D02*Y117500D01*
X58250D01*
Y125000D01*
X54500D01*
G37*
G36*
X59000D02*Y117500D01*
X62750D01*
Y125000D01*
X59000D01*
G37*
G36*
X63500D02*Y117500D01*
X67250D01*
Y125000D01*
X63500D01*
G37*
G36*
X68000D02*Y117500D01*
X71750D01*
Y125000D01*
X68000D01*
G37*
G36*
X72500D02*Y117500D01*
X76250D01*
Y125000D01*
X72500D01*
G37*
G36*
X77000D02*Y117500D01*
X80750D01*
Y125000D01*
X77000D01*
G37*
G36*
X81500D02*Y117500D01*
X85250D01*
Y125000D01*
X81500D01*
G37*
G36*
X86000D02*Y117500D01*
X89750D01*
Y125000D01*
X86000D01*
G37*
G36*
X90500D02*Y117500D01*
X94250D01*
Y125000D01*
X90500D01*
G37*
G54D13*X41000Y116500D03*
G54D12*G36*
X95000Y125000D02*Y117500D01*
X98750D01*
Y125000D01*
X95000D01*
G37*
G36*
X99500D02*Y117500D01*
X103250D01*
Y125000D01*
X99500D01*
G37*
G36*
X104000D02*Y117500D01*
X107750D01*
Y125000D01*
X104000D01*
G37*
G36*
X108500D02*Y117500D01*
X112250D01*
Y125000D01*
X108500D01*
G37*
G36*
X113000D02*Y117500D01*
X116750D01*
Y125000D01*
X113000D01*
G37*
G54D13*X95000Y116500D03*
G54D12*G36*
X130000Y125000D02*Y117500D01*
X133750D01*
Y125000D01*
X130000D01*
G37*
G36*
X134500D02*Y117500D01*
X138250D01*
Y125000D01*
X134500D01*
G37*
G36*
X139000D02*Y117500D01*
X142750D01*
Y125000D01*
X139000D01*
G37*
G36*
X143500D02*Y117500D01*
X147250D01*
Y125000D01*
X143500D01*
G37*
G36*
X148000D02*Y117500D01*
X151750D01*
Y125000D01*
X148000D01*
G37*
G36*
X152500D02*Y117500D01*
X156250D01*
Y125000D01*
X152500D01*
G37*
G36*
X157000D02*Y117500D01*
X160750D01*
Y125000D01*
X157000D01*
G37*
G54D13*X130000Y116500D03*
G54D12*G36*
X0Y140000D02*Y132500D01*
X3750D01*
Y140000D01*
X0D01*
G37*
G36*
X4500D02*Y132500D01*
X8250D01*
Y140000D01*
X4500D01*
G37*
G36*
X9000D02*Y132500D01*
X12750D01*
Y140000D01*
X9000D01*
G37*
G36*
X13500D02*Y132500D01*
X17250D01*
Y140000D01*
X13500D01*
G37*
G36*
X18000D02*Y132500D01*
X21750D01*
Y140000D01*
X18000D01*
G37*
G36*
X22500D02*Y132500D01*
X26250D01*
Y140000D01*
X22500D01*
G37*
G36*
X27000D02*Y132500D01*
X30750D01*
Y140000D01*
X27000D01*
G37*
G36*
X31500D02*Y132500D01*
X35250D01*
Y140000D01*
X31500D01*
G37*
G36*
X36000D02*Y132500D01*
X39750D01*
Y140000D01*
X36000D01*
G37*
G36*
X40500D02*Y132500D01*
X44250D01*
Y140000D01*
X40500D01*
G37*
G36*
X45000D02*Y132500D01*
X48750D01*
Y140000D01*
X45000D01*
G37*
G36*
X49500D02*Y132500D01*
X53250D01*
Y140000D01*
X49500D01*
G37*
G36*
X54000D02*Y132500D01*
X57750D01*
Y140000D01*
X54000D01*
G37*
G36*
X58500D02*Y132500D01*
X62250D01*
Y140000D01*
X58500D01*
G37*
G36*
X63000D02*Y132500D01*
X66750D01*
Y140000D01*
X63000D01*
G37*
G36*
X67500D02*Y132500D01*
X71250D01*
Y140000D01*
X67500D01*
G37*
G36*
X72000D02*Y132500D01*
X75750D01*
Y140000D01*
X72000D01*
G37*
G36*
X76500D02*Y132500D01*
X80250D01*
Y140000D01*
X76500D01*
G37*
G36*
X81000D02*Y132500D01*
X84750D01*
Y140000D01*
X81000D01*
G37*
G36*
X85500D02*Y132500D01*
X89250D01*
Y140000D01*
X85500D01*
G37*
G36*
X90000D02*Y132500D01*
X93750D01*
Y140000D01*
X90000D01*
G37*
G36*
X94500D02*Y132500D01*
X98250D01*
Y140000D01*
X94500D01*
G37*
G36*
X99000D02*Y132500D01*
X102750D01*
Y140000D01*
X99000D01*
G37*
G36*
X103500D02*Y132500D01*
X107250D01*
Y140000D01*
X103500D01*
G37*
G36*
X108000D02*Y132500D01*
X111750D01*
Y140000D01*
X108000D01*
G37*
G36*
X112500D02*Y132500D01*
X116250D01*
Y140000D01*
X112500D01*
G37*
G36*
X117000D02*Y132500D01*
X120750D01*
Y140000D01*
X117000D01*
G37*
G36*
X121500D02*Y132500D01*
X125250D01*
Y140000D01*
X121500D01*
G37*
G36*
X126000D02*Y132500D01*
X129750D01*
Y140000D01*
X126000D01*
G37*
G36*
X130500D02*Y132500D01*
X134250D01*
Y140000D01*
X130500D01*
G37*
G36*
X135000D02*Y132500D01*
X138750D01*
Y140000D01*
X135000D01*
G37*
G36*
X139500D02*Y132500D01*
X143250D01*
Y140000D01*
X139500D01*
G37*
G36*
X144000D02*Y132500D01*
X147750D01*
Y140000D01*
X144000D01*
G37*
G36*
X148500D02*Y132500D01*
X152250D01*
Y140000D01*
X148500D01*
G37*
G36*
X153000D02*Y132500D01*
X156750D01*
Y140000D01*
X153000D01*
G37*
G36*
X157500D02*Y132500D01*
X161250D01*
Y140000D01*
X157500D01*
G37*
G36*
X162000D02*Y132500D01*
X165750D01*
Y140000D01*
X162000D01*
G37*
G36*
X166500D02*Y132500D01*
X170250D01*
Y140000D01*
X166500D01*
G37*
G36*
X171000D02*Y132500D01*
X174750D01*
Y140000D01*
X171000D01*
G37*
G36*
X175500D02*Y132500D01*
X179250D01*
Y140000D01*
X175500D01*
G37*
G36*
X180000D02*Y132500D01*
X183750D01*
Y140000D01*
X180000D01*
G37*
G36*
X184500D02*Y132500D01*
X188250D01*
Y140000D01*
X184500D01*
G37*
G36*
X189000D02*Y132500D01*
X192750D01*
Y140000D01*
X189000D01*
G37*
G36*
X193500D02*Y132500D01*
X197250D01*
Y140000D01*
X193500D01*
G37*
G36*
X198000D02*Y132500D01*
X201750D01*
Y140000D01*
X198000D01*
G37*
G36*
X202500D02*Y132500D01*
X206250D01*
Y140000D01*
X202500D01*
G37*
G36*
X207000D02*Y132500D01*
X210750D01*
Y140000D01*
X207000D01*
G37*
G36*
X211500D02*Y132500D01*
X215250D01*
Y140000D01*
X211500D01*
G37*
G36*
X216000D02*Y132500D01*
X219750D01*
Y140000D01*
X216000D01*
G37*
G36*
X220500D02*Y132500D01*
X224250D01*
Y140000D01*
X220500D01*
G37*
G36*
X225000D02*Y132500D01*
X228750D01*
Y140000D01*
X225000D01*
G37*
G36*
X229500D02*Y132500D01*
X233250D01*
Y140000D01*
X229500D01*
G37*
G36*
X234000D02*Y132500D01*
X237750D01*
Y140000D01*
X234000D01*
G37*
G36*
X238500D02*Y132500D01*
X242250D01*
Y140000D01*
X238500D01*
G37*
G36*
X243000D02*Y132500D01*
X246750D01*
Y140000D01*
X243000D01*
G37*
G36*
X247500D02*Y132500D01*
X251250D01*
Y140000D01*
X247500D01*
G37*
G36*
X252000D02*Y132500D01*
X255750D01*
Y140000D01*
X252000D01*
G37*
G36*
X256500D02*Y132500D01*
X260250D01*
Y140000D01*
X256500D01*
G37*
G36*
X261000D02*Y132500D01*
X264750D01*
Y140000D01*
X261000D01*
G37*
G36*
X265500D02*Y132500D01*
X269250D01*
Y140000D01*
X265500D01*
G37*
G36*
X270000D02*Y132500D01*
X273750D01*
Y140000D01*
X270000D01*
G37*
G36*
X274500D02*Y132500D01*
X278250D01*
Y140000D01*
X274500D01*
G37*
G36*
X279000D02*Y132500D01*
X282750D01*
Y140000D01*
X279000D01*
G37*
G36*
X283500D02*Y132500D01*
X287250D01*
Y140000D01*
X283500D01*
G37*
G36*
X288000D02*Y132500D01*
X291750D01*
Y140000D01*
X288000D01*
G37*
G36*
X292500D02*Y132500D01*
X296250D01*
Y140000D01*
X292500D01*
G37*
G36*
X297000D02*Y132500D01*
X300750D01*
Y140000D01*
X297000D01*
G37*
G36*
X301500D02*Y132500D01*
X305250D01*
Y140000D01*
X301500D01*
G37*
G54D14*X0Y50000D02*X50000D01*
X0D02*Y0D01*
X50000Y50000D02*Y0D01*
X0D02*X50000D01*
G54D12*G36*
X200000Y65000D02*Y57500D01*
X203750D01*
Y65000D01*
X200000D01*
G37*
G36*
X204500D02*Y57500D01*
X208250D01*
Y65000D01*
X204500D01*
G37*
G36*
X209000D02*Y57500D01*
X212750D01*
Y65000D01*
X209000D01*
G37*
G36*
X213500D02*Y57500D01*
X217250D01*
Y65000D01*
X213500D01*
G37*
G36*
X218000D02*Y57500D01*
X221750D01*
Y65000D01*
X218000D01*
G37*
G36*
X222500D02*Y57500D01*
X226250D01*
Y65000D01*
X222500D01*
G37*
G36*
X227000D02*Y57500D01*
X230750D01*
Y65000D01*
X227000D01*
G37*
G36*
X231500D02*Y57500D01*
X235250D01*
Y65000D01*
X231500D01*
G37*
G36*
X236000D02*Y57500D01*
X239750D01*
Y65000D01*
X236000D01*
G37*
G36*
X240500D02*Y57500D01*
X244250D01*
Y65000D01*
X240500D01*
G37*
G36*
X245000D02*Y57500D01*
X248750D01*
Y65000D01*
X245000D01*
G37*
G36*
X249500D02*Y57500D01*
X253250D01*
Y65000D01*
X249500D01*
G37*
G36*
X254000D02*Y57500D01*
X257750D01*
Y65000D01*
X254000D01*
G37*
G36*
X258500D02*Y57500D01*
X262250D01*
Y65000D01*
X258500D01*
G37*
G36*
X263000D02*Y57500D01*
X266750D01*
Y65000D01*
X263000D01*
G37*
G36*
X267500D02*Y57500D01*
X271250D01*
Y65000D01*
X267500D01*
G37*
G36*
X272000D02*Y57500D01*
X275750D01*
Y65000D01*
X272000D01*
G37*
G36*
X276500D02*Y57500D01*
X280250D01*
Y65000D01*
X276500D01*
G37*
G36*
X281000D02*Y57500D01*
X284750D01*
Y65000D01*
X281000D01*
G37*
G36*
X285500D02*Y57500D01*
X289250D01*
Y65000D01*
X285500D01*
G37*
G36*
X290000D02*Y57500D01*
X293750D01*
Y65000D01*
X290000D01*
G37*
G36*
X294500D02*Y57500D01*
X298250D01*
Y65000D01*
X294500D01*
G37*
G36*
X299000D02*Y57500D01*
X302750D01*
Y65000D01*
X299000D01*
G37*
G36*
X303500D02*Y57500D01*
X307250D01*
Y65000D01*
X303500D01*
G37*
G36*
X308000D02*Y57500D01*
X311750D01*
Y65000D01*
X308000D01*
G37*
G36*
X312500D02*Y57500D01*
X316250D01*
Y65000D01*
X312500D01*
G37*
G36*
X317000D02*Y57500D01*
X320750D01*
Y65000D01*
X317000D01*
G37*
G36*
X321500D02*Y57500D01*
X325250D01*
Y65000D01*
X321500D01*
G37*
G36*
X326000D02*Y57500D01*
X329750D01*
Y65000D01*
X326000D01*
G37*
G36*
X330500D02*Y57500D01*
X334250D01*
Y65000D01*
X330500D01*
G37*
G36*
X335000D02*Y57500D01*
X338750D01*
Y65000D01*
X335000D01*
G37*
G36*
X339500D02*Y57500D01*
X343250D01*
Y65000D01*
X339500D01*
G37*
G36*
X344000D02*Y57500D01*
X347750D01*
Y65000D01*
X344000D01*
G37*
G36*
X348500D02*Y57500D01*
X352250D01*
Y65000D01*
X348500D01*
G37*
G36*
X353000D02*Y57500D01*
X356750D01*
Y65000D01*
X353000D01*
G37*
G36*
X357500D02*Y57500D01*
X361250D01*
Y65000D01*
X357500D01*
G37*
G36*
X362000D02*Y57500D01*
X365750D01*
Y65000D01*
X362000D01*
G37*
G36*
X366500D02*Y57500D01*
X370250D01*
Y65000D01*
X366500D01*
G37*
G36*
X371000D02*Y57500D01*
X374750D01*
Y65000D01*
X371000D01*
G37*
G36*
X375500D02*Y57500D01*
X379250D01*
Y65000D01*
X375500D01*
G37*
G36*
X380000D02*Y57500D01*
X383750D01*
Y65000D01*
X380000D01*
G37*
G36*
X384500D02*Y57500D01*
X388250D01*
Y65000D01*
X384500D01*
G37*
G36*
X389000D02*Y57500D01*
X392750D01*
Y65000D01*
X389000D01*
G37*
G36*
X393500D02*Y57500D01*
X397250D01*
Y65000D01*
X393500D01*
G37*
G36*
X398000D02*Y57500D01*
X401750D01*
Y65000D01*
X398000D01*
G37*
G36*
X402500D02*Y57500D01*
X406250D01*
Y65000D01*
X402500D01*
G37*
G36*
X407000D02*Y57500D01*
X410750D01*
Y65000D01*
X407000D01*
G37*
G36*
X411500D02*Y57500D01*
X415250D01*
Y65000D01*
X411500D01*
G37*
G36*
X416000D02*Y57500D01*
X419750D01*
Y65000D01*
X416000D01*
G37*
G36*
X420500D02*Y57500D01*
X424250D01*
Y65000D01*
X420500D01*
G37*
G36*
X425000D02*Y57500D01*
X428750D01*
Y65000D01*
X425000D01*
G37*
G36*
X429500D02*Y57500D01*
X433250D01*
Y65000D01*
X429500D01*
G37*
G36*
X434000D02*Y57500D01*
X437750D01*
Y65000D01*
X434000D01*
G37*
G36*
X438500D02*Y57500D01*
X442250D01*
Y65000D01*
X438500D01*
G37*
G36*
X443000D02*Y57500D01*
X446750D01*
Y65000D01*
X443000D01*
G37*
G36*
X447500D02*Y57500D01*
X451250D01*
Y65000D01*
X447500D01*
G37*
G36*
X452000D02*Y57500D01*
X455750D01*
Y65000D01*
X452000D01*
G37*
G36*
X456500D02*Y57500D01*
X460250D01*
Y65000D01*
X456500D01*
G37*
G36*
X461000D02*Y57500D01*
X464750D01*
Y65000D01*
X461000D01*
G37*
G36*
X465500D02*Y57500D01*
X469250D01*
Y65000D01*
X465500D01*
G37*
G36*
X470000D02*Y57500D01*
X473750D01*
Y65000D01*
X470000D01*
G37*
G36*
X474500D02*Y57500D01*
X478250D01*
Y65000D01*
X474500D01*
G37*
G36*
X25000Y-2000D02*Y-9500D01*
X28750D01*
Y-2000D01*
X25000D01*
G37*
G36*
X29500D02*Y-9500D01*
X33250D01*
Y-2000D01*
X29500D01*
G37*
G36*
X34000D02*Y-9500D01*
X37750D01*
Y-2000D01*
X34000D01*
G37*
G36*
X38500D02*Y-9500D01*
X42250D01*
Y-2000D01*
X38500D01*
G37*
G36*
X43000D02*Y-9500D01*
X46750D01*
Y-2000D01*
X43000D01*
G37*
G36*
X47500D02*Y-9500D01*
X51250D01*
Y-2000D01*
X47500D01*
G37*
G36*
X52000D02*Y-9500D01*
X55750D01*
Y-2000D01*
X52000D01*
G37*
G36*
X56500D02*Y-9500D01*
X60250D01*
Y-2000D01*
X56500D01*
G37*
G36*
X61000D02*Y-9500D01*
X64750D01*
Y-2000D01*
X61000D01*
G37*
G36*
X65500D02*Y-9500D01*
X69250D01*
Y-2000D01*
X65500D01*
G37*
G36*
X70000D02*Y-9500D01*
X73750D01*
Y-2000D01*
X70000D01*
G37*
G36*
X74500D02*Y-9500D01*
X78250D01*
Y-2000D01*
X74500D01*
G37*
G36*
X79000D02*Y-9500D01*
X82750D01*
Y-2000D01*
X79000D01*
G37*
G36*
X83500D02*Y-9500D01*
X87250D01*
Y-2000D01*
X83500D01*
G37*
G36*
X88000D02*Y-9500D01*
X91750D01*
Y-2000D01*
X88000D01*
G37*
G36*
X92500D02*Y-9500D01*
X96250D01*
Y-2000D01*
X92500D01*
G37*
G36*
X97000D02*Y-9500D01*
X100750D01*
Y-2000D01*
X97000D01*
G37*
G36*
X101500D02*Y-9500D01*
X105250D01*
Y-2000D01*
X101500D01*
G37*
G36*
X106000D02*Y-9500D01*
X109750D01*
Y-2000D01*
X106000D01*
G37*
G36*
X110500D02*Y-9500D01*
X114250D01*
Y-2000D01*
X110500D01*
G37*
G36*
X115000D02*Y-9500D01*
X118750D01*
Y-2000D01*
X115000D01*
G37*
G36*
X119500D02*Y-9500D01*
X123250D01*
Y-2000D01*
X119500D01*
G37*
G36*
X124000D02*Y-9500D01*
X127750D01*
Y-2000D01*
X124000D01*
G37*
G36*
X128500D02*Y-9500D01*
X132250D01*
Y-2000D01*
X128500D01*
G37*
G36*
X133000D02*Y-9500D01*
X136750D01*
Y-2000D01*
X133000D01*
G37*
G36*
X137500D02*Y-9500D01*
X141250D01*
Y-2000D01*
X137500D01*
G37*
G36*
X142000D02*Y-9500D01*
X145750D01*
Y-2000D01*
X142000D01*
G37*
G36*
X146500D02*Y-9500D01*
X150250D01*
Y-2000D01*
X146500D01*
G37*
G36*
X151000D02*Y-9500D01*
X154750D01*
Y-2000D01*
X151000D01*
G37*
G36*
X155500D02*Y-9500D01*
X159250D01*
Y-2000D01*
X155500D01*
G37*
G36*
X160000D02*Y-9500D01*
X163750D01*
Y-2000D01*
X160000D01*
G37*
G36*
X164500D02*Y-9500D01*
X168250D01*
Y-2000D01*
X164500D01*
G37*
G36*
X169000D02*Y-9500D01*
X172750D01*
Y-2000D01*
X169000D01*
G37*
G36*
X173500D02*Y-9500D01*
X177250D01*
Y-2000D01*
X173500D01*
G37*
G36*
X178000D02*Y-9500D01*
X181750D01*
Y-2000D01*
X178000D01*
G37*
G36*
X182500D02*Y-9500D01*
X186250D01*
Y-2000D01*
X182500D01*
G37*
G36*
X187000D02*Y-9500D01*
X190750D01*
Y-2000D01*
X187000D01*
G37*
G36*
X191500D02*Y-9500D01*
X195250D01*
Y-2000D01*
X191500D01*
G37*
G36*
X196000D02*Y-9500D01*
X199750D01*
Y-2000D01*
X196000D01*
G37*
G36*
X200500D02*Y-9500D01*
X204250D01*
Y-2000D01*
X200500D01*
G37*
G36*
X205000D02*Y-9500D01*
X208750D01*
Y-2000D01*
X205000D01*
G37*
G36*
X209500D02*Y-9500D01*
X213250D01*
Y-2000D01*
X209500D01*
G37*
G36*
X214000D02*Y-9500D01*
X217750D01*
Y-2000D01*
X214000D01*
G37*
G36*
X218500D02*Y-9500D01*
X222250D01*
Y-2000D01*
X218500D01*
G37*
G36*
X223000D02*Y-9500D01*
X226750D01*
Y-2000D01*
X223000D01*
G37*
G36*
X227500D02*Y-9500D01*
X231250D01*
Y-2000D01*
X227500D01*
G37*
G36*
X232000D02*Y-9500D01*
X235750D01*
Y-2000D01*
X232000D01*
G37*
G36*
X236500D02*Y-9500D01*
X240250D01*
Y-2000D01*
X236500D01*
G37*
G36*
X241000D02*Y-9500D01*
X244750D01*
Y-2000D01*
X241000D01*
G37*
G36*
X245500D02*Y-9500D01*
X249250D01*
Y-2000D01*
X245500D01*
G37*
G36*
X250000D02*Y-9500D01*
X253750D01*
Y-2000D01*
X250000D01*
G37*
G36*
X254500D02*Y-9500D01*
X258250D01*
Y-2000D01*
X254500D01*
G37*
G36*
X259000D02*Y-9500D01*
X262750D01*
Y-2000D01*
X259000D01*
G37*
G36*
X263500D02*Y-9500D01*
X267250D01*
Y-2000D01*
X263500D01*
G37*
G36*
X268000D02*Y-9500D01*
X271750D01*
Y-2000D01*
X268000D01*
G37*
G36*
X272500D02*Y-9500D01*
X276250D01*
Y-2000D01*
X272500D01*
G37*
G36*
X277000D02*Y-9500D01*
X280750D01*
Y-2000D01*
X277000D01*
G37*
G36*
X281500D02*Y-9500D01*
X285250D01*
Y-2000D01*
X281500D01*
G37*
G36*
X286000D02*Y-9500D01*
X289750D01*
Y-2000D01*
X286000D01*
G37*
G36*
X290500D02*Y-9500D01*
X294250D01*
Y-2000D01*
X290500D01*
G37*
G36*
X295000D02*Y-9500D01*
X298750D01*
Y-2000D01*
X295000D01*
G37*
G36*
X299500D02*Y-9500D01*
X303250D01*
Y-2000D01*
X299500D01*
G37*
G36*
X304000D02*Y-9500D01*
X307750D01*
Y-2000D01*
X304000D01*
G37*
G36*
X308500D02*Y-9500D01*
X312250D01*
Y-2000D01*
X308500D01*
G37*
G36*
X313000D02*Y-9500D01*
X316750D01*
Y-2000D01*
X313000D01*
G37*
G36*
X317500D02*Y-9500D01*
X321250D01*
Y-2000D01*
X317500D01*
G37*
G36*
X322000D02*Y-9500D01*
X325750D01*
Y-2000D01*
X322000D01*
G37*
G36*
X326500D02*Y-9500D01*
X330250D01*
Y-2000D01*
X326500D01*
G37*
G36*
X331000D02*Y-9500D01*
X334750D01*
Y-2000D01*
X331000D01*
G37*
G36*
X335500D02*Y-9500D01*
X339250D01*
Y-2000D01*
X335500D01*
G37*
G36*
X340000D02*Y-9500D01*
X343750D01*
Y-2000D01*
X340000D01*
G37*
G36*
X344500D02*Y-9500D01*
X348250D01*
Y-2000D01*
X344500D01*
G37*
G36*
X349000D02*Y-9500D01*
X352750D01*
Y-2000D01*
X349000D01*
G37*
G36*
X353500D02*Y-9500D01*
X357250D01*
Y-2000D01*
X353500D01*
G37*
G36*
X358000D02*Y-9500D01*
X361750D01*
Y-2000D01*
X358000D01*
G37*
G36*
X362500D02*Y-9500D01*
X366250D01*
Y-2000D01*
X362500D01*
G37*
G36*
X367000D02*Y-9500D01*
X370750D01*
Y-2000D01*
X367000D01*
G37*
G36*
X371500D02*Y-9500D01*
X375250D01*
Y-2000D01*
X371500D01*
G37*
G36*
X376000D02*Y-9500D01*
X379750D01*
Y-2000D01*
X376000D01*
G37*
G36*
X380500D02*Y-9500D01*
X384250D01*
Y-2000D01*
X380500D01*
G37*
G36*
X385000D02*Y-9500D01*
X388750D01*
Y-2000D01*
X385000D01*
G37*
G36*
X389500D02*Y-9500D01*
X393250D01*
Y-2000D01*
X389500D01*
G37*
G36*
X394000D02*Y-9500D01*
X397750D01*
Y-2000D01*
X394000D01*
G37*
G36*
X398500D02*Y-9500D01*
X402250D01*
Y-2000D01*
X398500D01*
G37*
G36*
X403000D02*Y-9500D01*
X406751D01*
Y-2000D01*
X403000D01*
G37*
G36*
X407501D02*Y-9500D01*
X411251D01*
Y-2000D01*
X407501D01*
G37*
G36*
X412001D02*Y-9500D01*
X415751D01*
Y-2000D01*
X412001D01*
G37*
G36*
X416501D02*Y-9500D01*
X420251D01*
Y-2000D01*
X416501D01*
G37*
G36*
X421001D02*Y-9500D01*
X424751D01*
Y-2000D01*
X421001D01*
G37*
G36*
X425501D02*Y-9500D01*
X429251D01*
Y-2000D01*
X425501D01*
G37*
G36*
X430001D02*Y-9500D01*
X433751D01*
Y-2000D01*
X430001D01*
G37*
G36*
X434501D02*Y-9500D01*
X438251D01*
Y-2000D01*
X434501D01*
G37*
G36*
X439001D02*Y-9500D01*
X442751D01*
Y-2000D01*
X439001D01*
G37*
G36*
X443501D02*Y-9500D01*
X447251D01*
Y-2000D01*
X443501D01*
G37*
G36*
X448001D02*Y-9500D01*
X451751D01*
Y-2000D01*
X448001D01*
G37*
G36*
X452501D02*Y-9500D01*
X456251D01*
Y-2000D01*
X452501D01*
G37*
G36*
X457001D02*Y-9500D01*
X460751D01*
Y-2000D01*
X457001D01*
G37*
G36*
X461501D02*Y-9500D01*
X465251D01*
Y-2000D01*
X461501D01*
G37*
G36*
X200000Y80000D02*Y72500D01*
X203750D01*
Y80000D01*
X200000D01*
G37*
G36*
X204500D02*Y72500D01*
X208250D01*
Y80000D01*
X204500D01*
G37*
G36*
X209000D02*Y72500D01*
X212750D01*
Y80000D01*
X209000D01*
G37*
G36*
X213500D02*Y72500D01*
X217250D01*
Y80000D01*
X213500D01*
G37*
G36*
X218000D02*Y72500D01*
X221750D01*
Y80000D01*
X218000D01*
G37*
G36*
X222500D02*Y72500D01*
X226250D01*
Y80000D01*
X222500D01*
G37*
G36*
X227000D02*Y72500D01*
X230750D01*
Y80000D01*
X227000D01*
G37*
G36*
X231500D02*Y72500D01*
X235250D01*
Y80000D01*
X231500D01*
G37*
G36*
X236000D02*Y72500D01*
X239750D01*
Y80000D01*
X236000D01*
G37*
G36*
X240500D02*Y72500D01*
X244250D01*
Y80000D01*
X240500D01*
G37*
G36*
X245000D02*Y72500D01*
X248750D01*
Y80000D01*
X245000D01*
G37*
G36*
X249500D02*Y72500D01*
X253250D01*
Y80000D01*
X249500D01*
G37*
G54D15*X200000Y93500D02*Y89000D01*
Y93500D02*X201050Y95000D01*
X202700D01*
X203750Y93500D01*
Y89000D01*
X200000Y92000D02*X203750D01*
G54D12*G36*
X205550Y95000D02*Y87500D01*
X209300D01*
Y95000D01*
X205550D01*
G37*
G36*
X210050D02*Y87500D01*
X213800D01*
Y95000D01*
X210050D01*
G37*
G36*
X214550D02*Y87500D01*
X218300D01*
Y95000D01*
X214550D01*
G37*
G36*
X219050D02*Y87500D01*
X222800D01*
Y95000D01*
X219050D01*
G37*
G36*
X223550D02*Y87500D01*
X227300D01*
Y95000D01*
X223550D01*
G37*
G36*
X228050D02*Y87500D01*
X231800D01*
Y95000D01*
X228050D01*
G37*
G36*
X232550D02*Y87500D01*
X236300D01*
Y95000D01*
X232550D01*
G37*
G36*
X237050D02*Y87500D01*
X240800D01*
Y95000D01*
X237050D01*
G37*
G36*
X241550D02*Y87500D01*
X245300D01*
Y95000D01*
X241550D01*
G37*
G36*
X246050D02*Y87500D01*
X249800D01*
Y95000D01*
X246050D01*
G37*
G36*
X250550D02*Y87500D01*
X254300D01*
Y95000D01*
X250550D01*
G37*
G36*
X200000Y110000D02*Y102500D01*
X203750D01*
Y110000D01*
X200000D01*
G37*
G36*
X204500D02*Y102500D01*
X208250D01*
Y110000D01*
X204500D01*
G37*
G36*
X209000D02*Y102500D01*
X212750D01*
Y110000D01*
X209000D01*
G37*
G36*
X213500D02*Y102500D01*
X217250D01*
Y110000D01*
X213500D01*
G37*
G36*
X218000D02*Y102500D01*
X221750D01*
Y110000D01*
X218000D01*
G37*
G36*
X222500D02*Y102500D01*
X226250D01*
Y110000D01*
X222500D01*
G37*
G36*
X227000D02*Y102500D01*
X230750D01*
Y110000D01*
X227000D01*
G37*
G36*
X231500D02*Y102500D01*
X235250D01*
Y110000D01*
X231500D01*
G37*
G36*
X236000D02*Y102500D01*
X239750D01*
Y110000D01*
X236000D01*
G37*
G36*
X240500D02*Y102500D01*
X244250D01*
Y110000D01*
X240500D01*
G37*
G36*
X245000D02*Y102500D01*
X248750D01*
Y110000D01*
X245000D01*
G37*
G36*
X249500D02*Y102500D01*
X253250D01*
Y110000D01*
X249500D01*
G37*
G36*
X254000D02*Y102500D01*
X257750D01*
Y110000D01*
X254000D01*
G37*
G36*
X258500D02*Y102500D01*
X262250D01*
Y110000D01*
X258500D01*
G37*
G36*
X263000D02*Y102500D01*
X266750D01*
Y110000D01*
X263000D01*
G37*
G36*
X267500D02*Y102500D01*
X271250D01*
Y110000D01*
X267500D01*
G37*
G36*
X272000D02*Y102500D01*
X275750D01*
Y110000D01*
X272000D01*
G37*
G36*
X276500D02*Y102500D01*
X280250D01*
Y110000D01*
X276500D01*
G37*
G36*
X281000D02*Y102500D01*
X284750D01*
Y110000D01*
X281000D01*
G37*
G36*
X285500D02*Y102500D01*
X289250D01*
Y110000D01*
X285500D01*
G37*
G36*
X290000D02*Y102500D01*
X293750D01*
Y110000D01*
X290000D01*
G37*
G36*
X294500D02*Y102500D01*
X298250D01*
Y110000D01*
X294500D01*
G37*
G36*
X299000D02*Y102500D01*
X302750D01*
Y110000D01*
X299000D01*
G37*
G36*
X303500D02*Y102500D01*
X307250D01*
Y110000D01*
X303500D01*
G37*
G36*
X308000D02*Y102500D01*
X311750D01*
Y110000D01*
X308000D01*
G37*
G36*
X312500D02*Y102500D01*
X316250D01*
Y110000D01*
X312500D01*
G37*
G36*
X317000D02*Y102500D01*
X320750D01*
Y110000D01*
X317000D01*
G37*
G36*
X321500D02*Y102500D01*
X325250D01*
Y110000D01*
X321500D01*
G37*
G36*
X326000D02*Y102500D01*
X329750D01*
Y110000D01*
X326000D01*
G37*
G36*
X330500D02*Y102500D01*
X334250D01*
Y110000D01*
X330500D01*
G37*
G36*
X335000D02*Y102500D01*
X338750D01*
Y110000D01*
X335000D01*
G37*
G36*
X339500D02*Y102500D01*
X343250D01*
Y110000D01*
X339500D01*
G37*
G36*
X344000D02*Y102500D01*
X347750D01*
Y110000D01*
X344000D01*
G37*
G36*
X348500D02*Y102500D01*
X352250D01*
Y110000D01*
X348500D01*
G37*
G36*
X353000D02*Y102500D01*
X356750D01*
Y110000D01*
X353000D01*
G37*
G36*
X357500D02*Y102500D01*
X361250D01*
Y110000D01*
X357500D01*
G37*
G36*
X362000D02*Y102500D01*
X365750D01*
Y110000D01*
X362000D01*
G37*
G36*
X366500D02*Y102500D01*
X370250D01*
Y110000D01*
X366500D01*
G37*
G36*
X371000D02*Y102500D01*
X374750D01*
Y110000D01*
X371000D01*
G37*
G36*
X375500D02*Y102500D01*
X379250D01*
Y110000D01*
X375500D01*
G37*
G36*
X380000D02*Y102500D01*
X383750D01*
Y110000D01*
X380000D01*
G37*
G36*
X384500D02*Y102500D01*
X388250D01*
Y110000D01*
X384500D01*
G37*
G36*
X389000D02*Y102500D01*
X392750D01*
Y110000D01*
X389000D01*
G37*
M02*
