G04 start of page 2 for group 3 layer_idx 0 *
G04 Title: Arc with clearline flag, top_copper *
G04 Creator: <version>
G04 CreationDate: <date>
G04 For: TEST *
G04 Format: Gerber/RS-274X *
G04 PCB-Dimensions: 50000 50000 *
G04 PCB-Coordinate-Origin: lower left *
%MOIN*%
%FSLAX25Y25*%
%LNTOP_COPPER_NONE_3*%
%ADD14C,0.0300*%
%ADD13C,0.0200*%
%ADD12C,0.0100*%
%ADD11C,0.0001*%
G54D11*G36*
X29999Y35000D02*X47500D01*
Y2500D01*
X29999D01*
Y17495D01*
X30000Y17495D01*
X30436Y17514D01*
X30869Y17571D01*
X31295Y17666D01*
X31712Y17797D01*
X32115Y17964D01*
X32502Y18166D01*
X32871Y18400D01*
X33217Y18666D01*
X33539Y18961D01*
X33834Y19283D01*
X34100Y19629D01*
X34334Y19998D01*
X34536Y20385D01*
X34703Y20788D01*
X34834Y21205D01*
X34929Y21631D01*
X34986Y22064D01*
X35005Y22500D01*
X34986Y22936D01*
X34929Y23369D01*
X34834Y23795D01*
X34703Y24212D01*
X34536Y24615D01*
X34334Y25002D01*
X34100Y25371D01*
X33834Y25717D01*
X33539Y26039D01*
X33217Y26334D01*
X32871Y26600D01*
X32502Y26834D01*
X32115Y27036D01*
X31712Y27203D01*
X31295Y27334D01*
X30869Y27429D01*
X30436Y27486D01*
X30000Y27505D01*
X29999Y27505D01*
Y35000D01*
G37*
G36*
X13759D02*X29999D01*
Y27505D01*
X29564Y27486D01*
X29131Y27429D01*
X28705Y27334D01*
X28288Y27203D01*
X27885Y27036D01*
X27667Y26922D01*
X27612Y26899D01*
X27548Y26860D01*
X27498Y26834D01*
X27500Y26831D01*
X27276Y26694D01*
X26977Y26438D01*
X26721Y26139D01*
X26516Y25804D01*
X26365Y25440D01*
X26273Y25057D01*
X26242Y24665D01*
X26243Y24661D01*
X26026Y24529D01*
X25727Y24273D01*
X25471Y23974D01*
X25266Y23638D01*
X25115Y23275D01*
X25023Y22892D01*
X24992Y22500D01*
X25005Y22332D01*
X25014Y22064D01*
X25071Y21631D01*
X25166Y21205D01*
X25297Y20788D01*
X25464Y20385D01*
X25666Y19998D01*
X25900Y19629D01*
X26166Y19283D01*
X26461Y18961D01*
X26783Y18666D01*
X27129Y18400D01*
X27498Y18166D01*
X27885Y17964D01*
X28288Y17797D01*
X28705Y17666D01*
X29131Y17571D01*
X29564Y17514D01*
X29999Y17495D01*
Y2500D01*
X13759D01*
Y13849D01*
X14865Y13391D01*
X16114Y12997D01*
X17393Y12714D01*
X18691Y12543D01*
X20000Y12486D01*
X20394Y12514D01*
X20778Y12606D01*
X21143Y12757D01*
X21480Y12963D01*
X21780Y13220D01*
X22037Y13520D01*
X22243Y13857D01*
X22394Y14222D01*
X22486Y14606D01*
X22517Y15000D01*
X22486Y15394D01*
X22394Y15778D01*
X22243Y16143D01*
X22037Y16480D01*
X21780Y16780D01*
X21480Y17037D01*
X21143Y17243D01*
X20778Y17394D01*
X20394Y17486D01*
X20000Y17510D01*
X19128Y17538D01*
X18264Y17652D01*
X17412Y17841D01*
X16580Y18103D01*
X15774Y18437D01*
X15000Y18840D01*
X14264Y19308D01*
X13759Y19696D01*
Y35000D01*
G37*
G36*
X2500D02*X13759D01*
Y19696D01*
X13572Y19840D01*
X12929Y20429D01*
X12340Y21072D01*
X11808Y21764D01*
X11340Y22500D01*
X10937Y23274D01*
X10603Y24080D01*
X10341Y24912D01*
X10152Y25764D01*
X10038Y26628D01*
X10000Y27500D01*
X9977Y27892D01*
X9885Y28275D01*
X9734Y28638D01*
X9529Y28974D01*
X9273Y29273D01*
X8974Y29529D01*
X8638Y29734D01*
X8275Y29885D01*
X7892Y29977D01*
X7500Y30008D01*
X7108Y29977D01*
X6725Y29885D01*
X6362Y29734D01*
X6026Y29529D01*
X5727Y29273D01*
X5471Y28974D01*
X5266Y28638D01*
X5115Y28275D01*
X5023Y27892D01*
X5000Y27500D01*
X5043Y26191D01*
X5214Y24893D01*
X5497Y23614D01*
X5891Y22365D01*
X6392Y21155D01*
X6997Y19993D01*
X7701Y18888D01*
X8498Y17849D01*
X9383Y16883D01*
X10349Y15998D01*
X11388Y15201D01*
X12493Y14497D01*
X13655Y13892D01*
X13759Y13849D01*
Y2500D01*
X2500D01*
Y35000D01*
G37*
G54D12*X7500Y27500D02*G75*G03X20000Y15000I12500J0D01*G01*
G54D13*X7652Y29236D02*G75*G02X17500Y37500I9848J-1736D01*G01*
G54D12*X27500Y22500D02*G75*G03X32500Y22500I2500J0D01*G01*
G75*G03X28750Y24665I-2500J0D01*G01*
G54D14*X20725Y39246D02*G75*G02X36746Y31775I4275J-11746D01*G01*
M02*
