<?xml version="1.0" encoding="UTF-8" standalone="no"?>
<!DOCTYPE svg PUBLIC "-//W3C//DTD SVG 1.1//EN"
 "http://www.w3.org/Graphics/SVG/1.1/DTD/svg11.dtd">
<!-- Generated by graphviz version 2.26.3 (20100126.1600)
 -->
<!-- Title: gr Pages: 1 -->
<svg width="1084pt" height="1377pt"
 viewBox="0.00 0.00 1084.00 1377.00" xmlns="http://www.w3.org/2000/svg" xmlns:xlink="http://www.w3.org/1999/xlink">
<g id="graph1" class="graph" transform="scale(1 1) rotate(0) translate(4 1373)">
<title>gr</title>
<polygon fill="white" stroke="white" points="-4,5 -4,-1373 1081,-1373 1081,5 -4,5"/>
<g id="graph2" class="cluster"><title>cluster_HID</title>
<polygon fill="#dddddd" stroke="#dddddd" points="698,-144 698,-458 902,-458 902,-144 698,-144"/>
<text text-anchor="middle" x="800" y="-441.4" font-family="Times Roman,serif" font-size="14.00">HID &#45; user interface</text>
</g>
<g id="graph3" class="cluster"><title>cluster_import</title>
<polygon fill="#dddddd" stroke="#dddddd" points="8,-8 8,-486 220,-486 220,-8 8,-8"/>
<text text-anchor="middle" x="114" y="-469.4" font-family="Times Roman,serif" font-size="14.00">import only</text>
</g>
<g id="graph4" class="cluster"><title>cluster_export</title>
<polygon fill="#dddddd" stroke="#dddddd" points="40,-494 40,-1361 188,-1361 188,-494 40,-494"/>
<text text-anchor="middle" x="114" y="-1344.4" font-family="Times Roman,serif" font-size="14.00">export only</text>
</g>
<g id="graph5" class="cluster"><title>cluster_ie</title>
<polygon fill="#dddddd" stroke="#dddddd" points="704,-466 704,-893 896,-893 896,-466 704,-466"/>
<text text-anchor="middle" x="800" y="-876.4" font-family="Times Roman,serif" font-size="14.00">import and export</text>
</g>
<!-- pcbrnd -->
<g id="node1" class="node"><title>pcbrnd</title>
<polygon fill="cyan" stroke="black" points="514,-1031 370,-1031 370,-167 514,-167 514,-1031"/>
<text text-anchor="middle" x="442" y="-594.9" font-family="Times Roman,serif" font-size="14.00">pcb&#45;rnd</text>
</g>
<!-- kicad -->
<g id="node2" class="node"><title>kicad</title>
<polygon fill="none" stroke="black" points="828,-860 772,-860 772,-824 828,-824 828,-860"/>
<text text-anchor="middle" x="800" y="-837.9" font-family="Times Roman,serif" font-size="14.00">KiCad</text>
</g>
<!-- pcbrnd&#45;&gt;kicad -->
<g id="edge6" class="edge"><title>pcbrnd&#45;&gt;kicad</title>
<path fill="none" stroke="black" d="M514.076,-887.474C519.748,-896.899 525.726,-904.289 532,-909 603.565,-962.743 713.202,-902.532 767.379,-865.944"/>
<polygon fill="black" stroke="black" points="769.646,-868.632 775.895,-860.077 765.674,-862.868 769.646,-868.632"/>
<text text-anchor="middle" x="610" y="-935.4" font-family="Times Roman,serif" font-size="14.00">board: legacy format</text>
</g>
<!-- pcbrnd&#45;&gt;kicad -->
<g id="edge8" class="edge"><title>pcbrnd&#45;&gt;kicad</title>
<path fill="none" stroke="black" d="M519.964,-831.849C523.924,-837.037 527.943,-841.168 532,-844 600.964,-892.136 706.145,-871.302 762.021,-854.894"/>
<polygon fill="black" stroke="black" points="522.774,-829.757 514.21,-823.519 517.014,-833.736 522.774,-829.757"/>
<polygon fill="black" stroke="black" points="763.313,-858.16 771.86,-851.9 761.275,-851.463 763.313,-858.16"/>
<text text-anchor="middle" x="610" y="-878.4" font-family="Times Roman,serif" font-size="14.00">board: s&#45;expression</text>
</g>
<!-- pcbrnd&#45;&gt;kicad -->
<g id="edge10" class="edge"><title>pcbrnd&#45;&gt;kicad</title>
<path fill="none" stroke="black" d="M521.022,-768.383C524.537,-771.771 528.195,-774.987 532,-778 541.071,-785.181 689.52,-818.066 761.482,-833.699"/>
<polygon fill="black" stroke="black" points="523.496,-765.907 514.006,-761.197 518.487,-770.797 523.496,-765.907"/>
<polygon fill="black" stroke="black" points="761.004,-837.177 771.519,-835.875 762.488,-830.336 761.004,-837.177"/>
<text text-anchor="middle" x="610" y="-822.4" font-family="Times Roman,serif" font-size="14.00">footprint: s&#45;expression</text>
</g>
<!-- pcb -->
<g id="node3" class="node"><title>pcb</title>
<polygon fill="none" stroke="black" points="844,-781 756,-781 756,-745 844,-745 844,-781"/>
<text text-anchor="middle" x="800" y="-758.9" font-family="Times Roman,serif" font-size="14.00">gEDA/PCB</text>
</g>
<!-- pcbrnd&#45;&gt;pcb -->
<g id="edge14" class="edge"><title>pcbrnd&#45;&gt;pcb</title>
<path fill="none" stroke="black" d="M522.369,-707.567C525.504,-709.861 528.715,-712.014 532,-714 567.179,-735.269 678.147,-750.246 745.762,-757.67"/>
<polygon fill="black" stroke="black" points="524.277,-704.614 514.253,-701.184 519.95,-710.117 524.277,-704.614"/>
<polygon fill="black" stroke="black" points="745.498,-761.161 755.816,-758.753 746.248,-754.202 745.498,-761.161"/>
<text text-anchor="middle" x="610" y="-755.4" font-family="Times Roman,serif" font-size="14.00">board: .pcb</text>
</g>
<!-- pcbrnd&#45;&gt;pcb -->
<g id="edge16" class="edge"><title>pcbrnd&#45;&gt;pcb</title>
<path fill="none" stroke="black" d="M523.382,-645.385C526.267,-646.653 529.145,-647.863 532,-649 598.496,-675.486 636.509,-639.283 688,-689 699.331,-699.941 687.361,-711.385 698,-723 710.737,-736.906 728.907,-746.04 746.391,-752.013"/>
<polygon fill="black" stroke="black" points="524.716,-642.146 514.168,-641.156 521.797,-648.508 524.716,-642.146"/>
<polygon fill="black" stroke="black" points="745.406,-755.372 755.994,-755.017 747.495,-748.692 745.406,-755.372"/>
<text text-anchor="middle" x="610" y="-693.4" font-family="Times Roman,serif" font-size="14.00">footprint: .fp</text>
</g>
<!-- freerouting -->
<g id="node4" class="node"><title>freerouting</title>
<polygon fill="none" stroke="black" points="862,-702 738,-702 738,-660 862,-660 862,-702"/>
<text text-anchor="middle" x="800" y="-685.4" font-family="Times Roman,serif" font-size="14.00">freerouting.net</text>
<text text-anchor="middle" x="800" y="-668.4" font-family="Times Roman,serif" font-size="14.00">java application</text>
</g>
<!-- pcbrnd&#45;&gt;freerouting -->
<g id="edge18" class="edge"><title>pcbrnd&#45;&gt;freerouting</title>
<path fill="none" stroke="black" d="M524.166,-592.986C574.274,-592.843 638.065,-599.193 688,-626 694.117,-629.284 692.421,-633.868 698,-638 707.257,-644.856 717.771,-650.859 728.446,-656.033"/>
<polygon fill="black" stroke="black" points="523.972,-589.488 514.013,-593.103 524.053,-596.487 523.972,-589.488"/>
<polygon fill="black" stroke="black" points="727.294,-659.356 737.84,-660.366 730.226,-652.999 727.294,-659.356"/>
<text text-anchor="middle" x="610" y="-630.4" font-family="Times Roman,serif" font-size="14.00">.dsn</text>
</g>
<!-- fidocadj -->
<g id="node11" class="node"><title>fidocadj</title>
<polygon fill="none" stroke="black" points="887,-617.5 713,-617.5 713,-558.5 887,-558.5 887,-617.5"/>
<text text-anchor="middle" x="800" y="-600.9" font-family="Times Roman,serif" font-size="14.00">FidoCadj</text>
<text text-anchor="middle" x="800" y="-583.9" font-family="Times Roman,serif" font-size="14.00">artistic PCBs</text>
<text text-anchor="middle" x="800" y="-566.9" font-family="Times Roman,serif" font-size="14.00">(experimental support)</text>
</g>
<!-- pcbrnd&#45;&gt;fidocadj -->
<g id="edge12" class="edge"><title>pcbrnd&#45;&gt;fidocadj</title>
<path fill="none" stroke="black" d="M523.933,-562.858C526.633,-562.165 529.326,-561.541 532,-561 599.955,-547.242 619.151,-552.818 688,-561 692.717,-561.561 697.523,-562.249 702.361,-563.038"/>
<polygon fill="black" stroke="black" points="522.809,-559.539 514.154,-565.649 524.73,-566.27 522.809,-559.539"/>
<polygon fill="black" stroke="black" points="701.862,-566.504 712.316,-564.788 703.073,-559.61 701.862,-566.504"/>
<text text-anchor="middle" x="610" y="-565.4" font-family="Times Roman,serif" font-size="14.00">board</text>
</g>
<!-- batch -->
<g id="node13" class="node"><title>batch</title>
<polygon fill="none" stroke="black" points="800,-425 718.935,-407 800,-389 881.065,-407 800,-425"/>
<text text-anchor="middle" x="800" y="-402.9" font-family="Times Roman,serif" font-size="14.00">hid_batch</text>
</g>
<!-- pcbrnd&#45;&gt;batch -->
<g id="edge56" class="edge"><title>pcbrnd&#45;&gt;batch</title>
<path fill="none" stroke="black" d="M522.085,-481.382C525.305,-478.769 528.611,-476.298 532,-474 589.573,-434.96 667.936,-418.65 725.05,-411.847"/>
<polygon fill="black" stroke="black" points="519.528,-478.967 514.259,-488.159 524.11,-484.259 519.528,-478.967"/>
<polygon fill="black" stroke="black" points="725.55,-415.313 735.099,-410.721 724.771,-408.356 725.55,-415.313"/>
</g>
<!-- gtk -->
<g id="node14" class="node"><title>gtk</title>
<polygon fill="none" stroke="black" points="800,-346 733.176,-328 800,-310 866.824,-328 800,-346"/>
<text text-anchor="middle" x="800" y="-323.9" font-family="Times Roman,serif" font-size="14.00">hid_gtk</text>
</g>
<!-- pcbrnd&#45;&gt;gtk -->
<g id="edge58" class="edge"><title>pcbrnd&#45;&gt;gtk</title>
<path fill="none" stroke="black" d="M521.055,-418.348C524.558,-414.723 528.205,-411.264 532,-408 589.423,-358.617 676.361,-339.712 735.531,-332.478"/>
<polygon fill="black" stroke="black" points="518.219,-416.263 514.065,-426.01 523.391,-420.981 518.219,-416.263"/>
<polygon fill="black" stroke="black" points="735.973,-335.951 745.51,-331.336 735.177,-328.996 735.973,-335.951"/>
</g>
<!-- lesstif -->
<g id="node15" class="node"><title>lesstif</title>
<polygon fill="none" stroke="black" points="800,-267 716.97,-249 800,-231 883.03,-249 800,-267"/>
<text text-anchor="middle" x="800" y="-244.9" font-family="Times Roman,serif" font-size="14.00">hid_lesstif</text>
</g>
<!-- pcbrnd&#45;&gt;lesstif -->
<g id="edge60" class="edge"><title>pcbrnd&#45;&gt;lesstif</title>
<path fill="none" stroke="black" d="M519.147,-348.127C523.405,-341.009 527.702,-335.183 532,-331 583.09,-281.274 663.491,-261.608 722.914,-253.881"/>
<polygon fill="black" stroke="black" points="515.982,-346.617 514.17,-357.055 522.096,-350.026 515.982,-346.617"/>
<polygon fill="black" stroke="black" points="723.501,-257.335 733.007,-252.656 722.658,-250.386 723.501,-257.335"/>
</g>
<!-- remote -->
<g id="node16" class="node"><title>remote</title>
<polygon fill="none" stroke="black" points="800,-188 707.142,-170 800,-152 892.858,-170 800,-188"/>
<text text-anchor="middle" x="800" y="-165.9" font-family="Times Roman,serif" font-size="14.00">hid_remote</text>
</g>
<!-- pcbrnd&#45;&gt;remote -->
<g id="edge62" class="edge"><title>pcbrnd&#45;&gt;remote</title>
<path fill="none" stroke="black" d="M518.966,-268.261C523.169,-260.836 527.516,-254.657 532,-250 578.883,-201.315 654.017,-181.921 712.818,-174.36"/>
<polygon fill="black" stroke="black" points="515.648,-267.052 514.1,-277.533 521.846,-270.305 515.648,-267.052"/>
<polygon fill="black" stroke="black" points="713.336,-177.823 722.851,-173.163 712.506,-170.872 713.336,-177.823"/>
</g>
<!-- breadboard -->
<g id="node21" class="node"><title>breadboard</title>
<ellipse fill="none" stroke="black" cx="114" cy="-1310" rx="66.0138" ry="18"/>
<text text-anchor="middle" x="114" y="-1305.9" font-family="Times Roman,serif" font-size="14.00">breadboard</text>
</g>
<!-- pcbrnd&#45;&gt;breadboard -->
<g id="edge22" class="edge"><title>pcbrnd&#45;&gt;breadboard</title>
<path fill="none" stroke="black" d="M400.802,-1031.18C386.673,-1140.18 369.878,-1232.2 352,-1252 311.505,-1296.85 242.641,-1309.78 189.375,-1312.41"/>
<polygon fill="black" stroke="black" points="189.142,-1308.92 179.283,-1312.8 189.409,-1315.91 189.142,-1308.92"/>
<text text-anchor="middle" x="291" y="-1312.4" font-family="Times Roman,serif" font-size="14.00">.png</text>
</g>
<!-- BoM -->
<g id="node22" class="node"><title>BoM</title>
<ellipse fill="none" stroke="black" cx="114" cy="-1231" rx="32.157" ry="18"/>
<text text-anchor="middle" x="114" y="-1226.9" font-family="Times Roman,serif" font-size="14.00">BoM</text>
</g>
<!-- pcbrnd&#45;&gt;BoM -->
<g id="edge24" class="edge"><title>pcbrnd&#45;&gt;BoM</title>
<path fill="none" stroke="black" d="M404.542,-1031.09C391.82,-1093.41 374.791,-1144.94 352,-1170 302.219,-1224.73 210.65,-1233.3 156.764,-1233.13"/>
<polygon fill="black" stroke="black" points="156.559,-1229.63 146.513,-1233 156.465,-1236.63 156.559,-1229.63"/>
<text text-anchor="middle" x="291" y="-1231.4" font-family="Times Roman,serif" font-size="14.00">text</text>
</g>
<!-- XY -->
<g id="node23" class="node"><title>XY</title>
<ellipse fill="none" stroke="black" cx="114" cy="-1152" rx="27" ry="18"/>
<text text-anchor="middle" x="114" y="-1147.9" font-family="Times Roman,serif" font-size="14.00">XY</text>
</g>
<!-- pcbrnd&#45;&gt;XY -->
<g id="edge26" class="edge"><title>pcbrnd&#45;&gt;XY</title>
<path fill="none" stroke="black" d="M377.325,-1031.05C369.734,-1050.66 361.318,-1066.5 352,-1077 325.077,-1107.34 210.199,-1133.42 150.444,-1145.24"/>
<polygon fill="black" stroke="black" points="149.455,-1141.87 140.308,-1147.22 150.792,-1148.74 149.455,-1141.87"/>
<text text-anchor="middle" x="291" y="-1147.4" font-family="Times Roman,serif" font-size="14.00">.xy</text>
<text text-anchor="middle" x="291" y="-1130.4" font-family="Times Roman,serif" font-size="14.00">for pick and place</text>
</g>
<!-- gerber -->
<g id="node24" class="node"><title>gerber</title>
<ellipse fill="none" stroke="black" cx="114" cy="-1073" rx="43.0827" ry="18"/>
<text text-anchor="middle" x="114" y="-1068.9" font-family="Times Roman,serif" font-size="14.00">gerber</text>
</g>
<!-- pcbrnd&#45;&gt;gerber -->
<g id="edge28" class="edge"><title>pcbrnd&#45;&gt;gerber</title>
<path fill="none" stroke="black" d="M369.975,-948.524C364.276,-961.241 358.279,-971.658 352,-979 304.665,-1034.35 220.356,-1057.36 165.839,-1066.75"/>
<polygon fill="black" stroke="black" points="164.995,-1063.34 155.687,-1068.4 166.119,-1070.25 164.995,-1063.34"/>
<text text-anchor="middle" x="291" y="-1054.4" font-family="Times Roman,serif" font-size="14.00">.gbr, .cnc</text>
</g>
<!-- ipcd356 -->
<g id="node25" class="node"><title>ipcd356</title>
<ellipse fill="none" stroke="black" cx="114" cy="-994" rx="48.8383" ry="18"/>
<text text-anchor="middle" x="114" y="-989.9" font-family="Times Roman,serif" font-size="14.00">ipcd356</text>
</g>
<!-- pcbrnd&#45;&gt;ipcd356 -->
<g id="edge30" class="edge"><title>pcbrnd&#45;&gt;ipcd356</title>
<path fill="none" stroke="black" d="M369.952,-887.14C364.167,-898.99 358.165,-908.563 352,-915 305.035,-964.03 226.969,-982.641 173.123,-989.699"/>
<polygon fill="black" stroke="black" points="172.533,-986.245 163.028,-990.925 173.377,-993.194 172.533,-986.245"/>
</g>
<!-- lpr -->
<g id="node26" class="node"><title>lpr</title>
<ellipse fill="none" stroke="black" cx="114" cy="-915" rx="27" ry="18"/>
<text text-anchor="middle" x="114" y="-910.9" font-family="Times Roman,serif" font-size="14.00">lpr</text>
</g>
<!-- pcbrnd&#45;&gt;lpr -->
<g id="edge32" class="edge"><title>pcbrnd&#45;&gt;lpr</title>
<path fill="none" stroke="black" d="M369.867,-798.21C364.325,-805.564 358.378,-812.539 352,-819 296.069,-875.658 202.262,-899.993 150.704,-909.524"/>
<polygon fill="black" stroke="black" points="149.918,-906.108 140.676,-911.289 151.132,-913.002 149.918,-906.108"/>
<text text-anchor="middle" x="291" y="-892.4" font-family="Times Roman,serif" font-size="14.00">print</text>
</g>
<!-- nelma -->
<g id="node27" class="node"><title>nelma</title>
<ellipse fill="none" stroke="black" cx="114" cy="-836" rx="40.9981" ry="18"/>
<text text-anchor="middle" x="114" y="-831.9" font-family="Times Roman,serif" font-size="14.00">nelma</text>
</g>
<!-- pcbrnd&#45;&gt;nelma -->
<g id="edge34" class="edge"><title>pcbrnd&#45;&gt;nelma</title>
<path fill="none" stroke="black" d="M369.967,-739.84C364.333,-746.019 358.347,-751.796 352,-757 297.239,-801.898 215.984,-821.635 164.01,-830.058"/>
<polygon fill="black" stroke="black" points="163.373,-826.615 154.022,-831.596 164.438,-833.533 163.373,-826.615"/>
</g>
<!-- png -->
<g id="node28" class="node"><title>png</title>
<ellipse fill="none" stroke="black" cx="114" cy="-757" rx="29.1851" ry="18"/>
<text text-anchor="middle" x="114" y="-752.9" font-family="Times Roman,serif" font-size="14.00">png</text>
</g>
<!-- pcbrnd&#45;&gt;png -->
<g id="edge36" class="edge"><title>pcbrnd&#45;&gt;png</title>
<path fill="none" stroke="black" d="M369.849,-669.318C364.017,-673.557 358.04,-677.51 352,-681 286.786,-718.687 200.537,-740.215 151.795,-750.166"/>
<polygon fill="black" stroke="black" points="151.111,-746.733 141.985,-752.115 152.475,-753.599 151.111,-746.733"/>
<text text-anchor="middle" x="291" y="-734.4" font-family="Times Roman,serif" font-size="14.00">bitmap</text>
</g>
<!-- ps -->
<g id="node29" class="node"><title>ps</title>
<ellipse fill="none" stroke="black" cx="114" cy="-599" rx="27" ry="18"/>
<text text-anchor="middle" x="114" y="-594.9" font-family="Times Roman,serif" font-size="14.00">ps</text>
</g>
<!-- pcbrnd&#45;&gt;ps -->
<g id="edge38" class="edge"><title>pcbrnd&#45;&gt;ps</title>
<path fill="none" stroke="black" d="M369.822,-555.831C363.928,-553.51 357.948,-551.514 352,-550 299.454,-536.623 280.623,-530.574 230,-550 224.418,-552.142 225.107,-555.891 220,-559 197.809,-572.509 170.299,-582.726 148.867,-589.452"/>
<polygon fill="black" stroke="black" points="147.742,-586.136 139.186,-592.384 149.771,-592.835 147.742,-586.136"/>
<text text-anchor="middle" x="291" y="-554.4" font-family="Times Roman,serif" font-size="14.00">.ps, .eps</text>
</g>
<!-- stat -->
<g id="node30" class="node"><title>stat</title>
<ellipse fill="none" stroke="black" cx="114" cy="-678" rx="30.0736" ry="18"/>
<text text-anchor="middle" x="114" y="-673.9" font-family="Times Roman,serif" font-size="14.00">stat</text>
</g>
<!-- pcbrnd&#45;&gt;stat -->
<g id="edge40" class="edge"><title>pcbrnd&#45;&gt;stat</title>
<path fill="none" stroke="black" d="M369.925,-621.15C363.877,-622.848 357.843,-624.488 352,-626 282.384,-644.019 200.257,-661.041 152.945,-670.442"/>
<polygon fill="black" stroke="black" points="152.243,-667.012 143.112,-672.385 153.601,-673.88 152.243,-667.012"/>
<text text-anchor="middle" x="291" y="-658.4" font-family="Times Roman,serif" font-size="14.00">statsitics .lht</text>
</g>
<!-- svg -->
<g id="node31" class="node"><title>svg</title>
<ellipse fill="none" stroke="black" cx="114" cy="-520" rx="27.7953" ry="18"/>
<text text-anchor="middle" x="114" y="-515.9" font-family="Times Roman,serif" font-size="14.00">svg</text>
</g>
<!-- pcbrnd&#45;&gt;svg -->
<g id="edge42" class="edge"><title>pcbrnd&#45;&gt;svg</title>
<path fill="none" stroke="black" d="M369.895,-520.306C364.151,-516.682 358.172,-513.516 352,-511 284.579,-483.516 197.31,-498.098 149.392,-509.88"/>
<polygon fill="black" stroke="black" points="148.323,-506.541 139.503,-512.411 150.058,-513.323 148.323,-506.541"/>
<text text-anchor="middle" x="291" y="-515.4" font-family="Times Roman,serif" font-size="14.00">.svg</text>
</g>
<!-- mucs -->
<g id="node5" class="node"><title>mucs</title>
<polygon fill="none" stroke="black" points="211,-453 17,-453 17,-417 211,-417 211,-453"/>
<text text-anchor="middle" x="114" y="-430.9" font-family="Times Roman,serif" font-size="14.00">mucs pcb with autorouter</text>
</g>
<!-- mucs&#45;&gt;pcbrnd -->
<g id="edge20" class="edge"><title>mucs&#45;&gt;pcbrnd</title>
<path fill="none" stroke="black" d="M211.561,-431.479C257.176,-434.018 310.459,-443.326 352,-469 355.448,-471.131 358.797,-473.448 362.049,-475.924"/>
<polygon fill="black" stroke="black" points="359.976,-478.751 369.927,-482.387 364.415,-473.339 359.976,-478.751"/>
<text text-anchor="middle" x="291" y="-473.4" font-family="Times Roman,serif" font-size="14.00">import</text>
</g>
<!-- gEDA -->
<g id="node6" class="node"><title>gEDA</title>
<polygon fill="none" stroke="black" points="870,-516 730,-516 730,-474 870,-474 870,-516"/>
<text text-anchor="middle" x="800" y="-499.4" font-family="Times Roman,serif" font-size="14.00">gEDA/gaf</text>
<text text-anchor="middle" x="800" y="-482.4" font-family="Times Roman,serif" font-size="14.00">(gschem, gnetlist)</text>
</g>
<!-- gEDA&#45;&gt;pcbrnd -->
<g id="edge52" class="edge"><title>gEDA&#45;&gt;pcbrnd</title>
<path fill="none" stroke="black" d="M719.855,-484.566C664.689,-480.81 591.004,-482.736 532,-509 528.921,-510.37 525.89,-511.897 522.912,-513.556"/>
<polygon fill="black" stroke="black" points="719.697,-488.064 729.932,-485.329 720.225,-481.084 719.697,-488.064"/>
<polygon fill="black" stroke="black" points="520.853,-510.712 514.14,-518.908 524.499,-516.687 520.853,-510.712"/>
<text text-anchor="middle" x="610" y="-530.4" font-family="Times Roman,serif" font-size="14.00">schematics</text>
<text text-anchor="middle" x="610" y="-513.4" font-family="Times Roman,serif" font-size="14.00">back annotation</text>
</g>
<!-- lepton -->
<g id="node7" class="node"><title>lepton</title>
<polygon fill="none" stroke="black" points="184,-374 44,-374 44,-332 184,-332 184,-374"/>
<text text-anchor="middle" x="114" y="-357.4" font-family="Times Roman,serif" font-size="14.00">lepton&#45;eda</text>
<text text-anchor="middle" x="114" y="-340.4" font-family="Times Roman,serif" font-size="14.00">(gschem, gnetlist)</text>
</g>
<!-- lepton&#45;&gt;pcbrnd -->
<g id="edge50" class="edge"><title>lepton&#45;&gt;pcbrnd</title>
<path fill="none" stroke="black" d="M184.051,-353.031C235.591,-356.523 304.639,-368.874 352,-407 355.647,-409.936 359.154,-413.054 362.526,-416.329"/>
<polygon fill="black" stroke="black" points="360.225,-418.985 369.693,-423.74 365.257,-414.119 360.225,-418.985"/>
<text text-anchor="middle" x="291" y="-411.4" font-family="Times Roman,serif" font-size="14.00">schematics</text>
</g>
<!-- ltspice -->
<g id="node8" class="node"><title>ltspice</title>
<polygon fill="none" stroke="black" points="146,-289 82,-289 82,-253 146,-253 146,-289"/>
<text text-anchor="middle" x="114" y="-266.9" font-family="Times Roman,serif" font-size="14.00">LTSpce</text>
</g>
<!-- ltspice&#45;&gt;pcbrnd -->
<g id="edge46" class="edge"><title>ltspice&#45;&gt;pcbrnd</title>
<path fill="none" stroke="black" d="M146.239,-270.089C196.695,-270.45 294.482,-278.6 352,-332 356.222,-335.92 360.429,-341.379 364.588,-348.06"/>
<polygon fill="black" stroke="black" points="361.803,-350.237 369.828,-357.154 367.868,-346.742 361.803,-350.237"/>
<text text-anchor="middle" x="291" y="-336.4" font-family="Times Roman,serif" font-size="14.00">schematics</text>
</g>
<!-- tinycad -->
<g id="node9" class="node"><title>tinycad</title>
<polygon fill="none" stroke="black" points="152,-210 76,-210 76,-174 152,-174 152,-210"/>
<text text-anchor="middle" x="114" y="-187.9" font-family="Times Roman,serif" font-size="14.00">TinyCAD</text>
</g>
<!-- tinycad&#45;&gt;pcbrnd -->
<g id="edge54" class="edge"><title>tinycad&#45;&gt;pcbrnd</title>
<path fill="none" stroke="black" d="M152.717,-190.43C205.198,-190.514 298.486,-198.85 352,-252 356.483,-256.453 360.821,-262.382 365.009,-269.525"/>
<polygon fill="black" stroke="black" points="362.009,-271.335 369.856,-278.453 368.161,-267.995 362.009,-271.335"/>
<text text-anchor="middle" x="291" y="-256.4" font-family="Times Roman,serif" font-size="14.00">schematics</text>
</g>
<!-- web -->
<g id="node10" class="node"><title>web</title>
<polygon fill="none" stroke="#aaaaaa" points="1075,-199.5 933,-199.5 933,-140.5 1075,-140.5 1075,-199.5"/>
<text text-anchor="middle" x="1004" y="-182.9" font-family="Times Roman,serif" font-size="14.00" fill="#aaaaaa">JavaScript based</text>
<text text-anchor="middle" x="1004" y="-165.9" font-family="Times Roman,serif" font-size="14.00" fill="#aaaaaa">web application</text>
<text text-anchor="middle" x="1004" y="-148.9" font-family="Times Roman,serif" font-size="14.00" fill="#aaaaaa">(work in progress)</text>
</g>
<!-- remote&#45;&gt;web -->
<g id="edge64" class="edge"><title>remote&#45;&gt;web</title>
<path fill="none" stroke="black" d="M903.708,-170C909.901,-170 916.086,-170 922.171,-170"/>
<polygon fill="black" stroke="black" points="903.641,-166.5 893.641,-170 903.641,-173.5 903.641,-166.5"/>
<polygon fill="black" stroke="black" points="922.301,-173.5 932.301,-170 922.301,-166.5 922.301,-173.5"/>
</g>
<!-- edif -->
<g id="node18" class="node"><title>edif</title>
<ellipse fill="none" stroke="black" cx="114" cy="-113" rx="27.9903" ry="18"/>
<text text-anchor="middle" x="114" y="-108.9" font-family="Times Roman,serif" font-size="14.00">edif</text>
</g>
<!-- edif&#45;&gt;pcbrnd -->
<g id="edge44" class="edge"><title>edif&#45;&gt;pcbrnd</title>
<path fill="none" stroke="black" d="M142.623,-113.287C192.812,-115.423 296.61,-127.405 352,-188 356.66,-193.098 361.122,-199.685 365.391,-207.514"/>
<polygon fill="black" stroke="black" points="362.298,-209.153 369.947,-216.484 368.539,-205.983 362.298,-209.153"/>
</g>
<!-- netlist -->
<g id="node19" class="node"><title>netlist</title>
<ellipse fill="none" stroke="black" cx="114" cy="-34" rx="41.1906" ry="18"/>
<text text-anchor="middle" x="114" y="-29.9" font-family="Times Roman,serif" font-size="14.00">netlist</text>
</g>
<!-- netlist&#45;&gt;pcbrnd -->
<g id="edge48" class="edge"><title>netlist&#45;&gt;pcbrnd</title>
<path fill="none" stroke="black" d="M155.677,-32.9982C209.315,-34.1319 301.583,-44.7131 352,-100 363.341,-112.437 373.302,-132.292 382.043,-157.072"/>
<polygon fill="black" stroke="black" points="378.815,-158.452 385.333,-166.805 385.446,-156.21 378.815,-158.452"/>
<text text-anchor="middle" x="291" y="-104.4" font-family="Times Roman,serif" font-size="14.00">pcb .net</text>
</g>
<!-- ps&#45;&gt;pcbrnd -->
</g>
</svg>
