<?xml version="1.0" encoding="UTF-8" standalone="no"?>
<!DOCTYPE svg PUBLIC "-//W3C//DTD SVG 1.1//EN" "http://www.w3.org/Graphics/SVG/1.1/DTD/svg11.dtd">
<!-- Generated by aagraph -->
<svg width="1424pt" height="612pt" viewBox="-8 -18 1432 630" xmlns="http://www.w3.org/2000/svg" xmlns:xlink="http://www.w3.org/1999/xlink">
<g>
	<marker id="ahs" viewBox="0 0 60 60" refX="0" refY="30" markerUnits="strokeWidth" markerWidth="8" markerHeight="10" orient="auto">
		<path d="M 60 0 L 0 30 L 60 60 z" />
	</marker>
	<marker id="ahe" viewBox="-60 0 60 60" refX="0" refY="30" markerUnits="strokeWidth" markerWidth="8" markerHeight="10" orient="auto">
		<g transform="scale(-1 1)">
		<path d="M 60 0 L 0 30 L 60 60 z" />
		</g>
	</marker>

	<polygon fill="#00ffff" stroke="#000000"  points="176,165.6 1120,165.6  1120,410.4 176,410.4"/>
	<text fill="#000000" text-anchor="middle" x="648" y="288" font-family="Times,serif" font-size="14.00"><tspan dy="-0.2em">pcb-rnd</tspan></text>
	<polygon fill="#cccccc" stroke="#cccccc"  points="144,453.6 1152,453.6  1152,590.4 144,590.4"/>
	<text fill="#884433" text-anchor="middle" x="648" y="590.4" font-family="Times,serif" font-size="14.00"><tspan dy="-0.2em">output-only</tspan></text>
	<polygon fill="#cccccc" stroke="#cccccc"  points="176,-14.4 1120,-14.4  1120,122.4 176,122.4"/>
	<text fill="#884433" text-anchor="middle" x="648" y="-14.4" font-family="Times,serif" font-size="14.00"><tspan dy="0.8em">input-output</tspan></text>
	<polygon fill="#cccccc" stroke="#cccccc"  points="1200,129.6 1376,129.6  1376,446.4 1200,446.4"/>
	<text fill="#884433" text-anchor="middle" x="1288" y="129.6" font-family="Times,serif" font-size="14.00"><tspan dy="0.8em">HID (GUI)</tspan></text>
	<polygon fill="#cccccc" stroke="#cccccc"  points="0,129.6 96,129.6  96,446.4 0,446.4"/>
	<text fill="#884433" text-anchor="middle" x="48" y="129.6" font-family="Times,serif" font-size="14.00"><tspan dy="0.8em">input-only</tspan></text>
	<polygon fill="none" stroke="#000000"  points="208,21.6 416,21.6  416,50.4 208,50.4"/>
	<text fill="#000000" text-anchor="middle" x="312" y="36" font-family="Times,serif" font-size="14.00"><tspan dy="-0.2em">kicad</tspan><tspan x="312" dy="1em">pcbnew</tspan></text>
	<polygon fill="none" stroke="#000000"  points="1216,237.6 1344,237.6  1344,266.4 1216,266.4"/>
	<text fill="#000000" text-anchor="middle" x="1280" y="252" font-family="Times,serif" font-size="14.00"><tspan dy="-0.2em">gtk</tspan><tspan x="1280" dy="1em">gdk or gl render</tspan></text>
	<polygon fill="none" stroke="#aaaaaa"  points="1200,489.6 1328,489.6  1328,518.4 1200,518.4"/>
	<text fill="#aaaaaa" text-anchor="middle" x="1264" y="504" font-family="Times,serif" font-size="14.00"><tspan dy="-0.2em">web client</tspan><tspan x="1264" dy="1em">(javascript)</tspan></text>
	<polygon fill="none" stroke="#000000"  points="1216,165.6 1328,165.6  1328,194.4 1216,194.4"/>
	<text fill="#000000" text-anchor="middle" x="1272" y="180" font-family="Times,serif" font-size="14.00"><tspan dy="-0.2em">batch</tspan><tspan x="1272" dy="1em">CLI/automation</tspan></text>
	<polygon fill="none" stroke="#000000"  points="1216,309.6 1328,309.6  1328,338.4 1216,338.4"/>
	<text fill="#000000" text-anchor="middle" x="1272" y="324" font-family="Times,serif" font-size="14.00"><tspan dy="-0.2em">lesstif</tspan><tspan x="1272" dy="1em">(motif)</tspan></text>
	<polygon fill="none" stroke="#000000"  points="576,21.6 688,21.6  688,50.4 576,50.4"/>
	<text fill="#000000" text-anchor="middle" x="632" y="36" font-family="Times,serif" font-size="14.00"><tspan dy="-0.2em">gEDA</tspan><tspan x="632" dy="1em">pcb</tspan></text>
	<polygon fill="none" stroke="#000000"  points="1216,381.6 1312,381.6  1312,410.4 1216,410.4"/>
	<text fill="#000000" text-anchor="middle" x="1264" y="396" font-family="Times,serif" font-size="14.00"><tspan dy="-0.2em">remote</tspan><tspan x="1264" dy="1em">(network)</tspan></text>
	<polygon fill="none" stroke="#000000"  points="448,57.6 544,57.6  544,86.4 448,86.4"/>
	<text fill="#000000" text-anchor="middle" x="496" y="72" font-family="Times,serif" font-size="14.00"><tspan dy="-0.2em">freerouting.net</tspan><tspan x="496" dy="1em">autorouter</tspan></text>
	<polygon fill="none" stroke="#000000"  points="816,489.6 880,489.6  880,518.4 816,518.4"/>
	<text fill="#000000" text-anchor="middle" x="848" y="504" font-family="Times,serif" font-size="14.00"><tspan dy="-0.2em">ipcd356</tspan><tspan x="848" dy="1em">e-tester</tspan></text>
	<polygon fill="none" stroke="#000000"  points="656,489.6 720,489.6  720,518.4 656,518.4"/>
	<text fill="#000000" text-anchor="middle" x="688" y="504" font-family="Times,serif" font-size="14.00"><tspan dy="-0.2em">gerber</tspan></text>
	<polygon fill="none" stroke="#000000"  points="16,345.6 80,345.6  80,374.4 16,374.4"/>
	<text fill="#000000" text-anchor="middle" x="48" y="360" font-family="Times,serif" font-size="14.00"><tspan dy="-0.2em">(any)</tspan><tspan x="48" dy="1em">EDIF</tspan></text>
	<polygon fill="none" stroke="#000000"  points="16,309.6 80,309.6  80,338.4 16,338.4"/>
	<text fill="#000000" text-anchor="middle" x="48" y="324" font-family="Times,serif" font-size="14.00"><tspan dy="-0.2em">TinyCAD</tspan></text>
	<polygon fill="none" stroke="#000000"  points="16,273.6 80,273.6  80,302.4 16,302.4"/>
	<text fill="#000000" text-anchor="middle" x="48" y="288" font-family="Times,serif" font-size="14.00"><tspan dy="-0.2em">LTSpice</tspan></text>
	<polygon fill="none" stroke="#000000"  points="576,525.6 640,525.6  640,554.4 576,554.4"/>
	<text fill="#000000" text-anchor="middle" x="608" y="540" font-family="Times,serif" font-size="14.00"><tspan dy="-0.2em">svg</tspan></text>
	<polygon fill="none" stroke="#000000"  points="496,489.6 560,489.6  560,518.4 496,518.4"/>
	<text fill="#000000" text-anchor="middle" x="528" y="504" font-family="Times,serif" font-size="14.00"><tspan dy="-0.2em">XY</tspan><tspan x="528" dy="1em">templated</tspan></text>
	<polygon fill="none" stroke="#000000"  points="976,489.6 1040,489.6  1040,518.4 976,518.4"/>
	<text fill="#000000" text-anchor="middle" x="1008" y="504" font-family="Times,serif" font-size="14.00"><tspan dy="-0.2em">lpr</tspan><tspan x="1008" dy="1em">(print)</tspan></text>
	<polygon fill="none" stroke="#000000"  points="736,525.6 800,525.6  800,554.4 736,554.4"/>
	<text fill="#000000" text-anchor="middle" x="768" y="540" font-family="Times,serif" font-size="14.00"><tspan dy="-0.2em">png</tspan><tspan x="768" dy="1em">jpg, bmp</tspan></text>
	<polygon fill="none" stroke="#000000"  points="176,489.6 240,489.6  240,518.4 176,518.4"/>
	<text fill="#000000" text-anchor="middle" x="208" y="504" font-family="Times,serif" font-size="14.00"><tspan dy="-0.2em">breadboard</tspan></text>
	<polygon fill="none" stroke="#000000"  points="416,525.6 480,525.6  480,554.4 416,554.4"/>
	<text fill="#000000" text-anchor="middle" x="448" y="540" font-family="Times,serif" font-size="14.00"><tspan dy="-0.2em">ps</tspan><tspan x="448" dy="1em">postscript</tspan></text>
	<polygon fill="none" stroke="#000000"  points="16,201.6 80,201.6  80,230.4 16,230.4"/>
	<text fill="#000000" text-anchor="middle" x="48" y="216" font-family="Times,serif" font-size="14.00"><tspan dy="-0.2em">mucs PCB</tspan><tspan x="48" dy="1em">autorouter</tspan></text>
	<polygon fill="none" stroke="#000000"  points="1056,525.6 1120,525.6  1120,554.4 1056,554.4"/>
	<text fill="#000000" text-anchor="middle" x="1088" y="540" font-family="Times,serif" font-size="14.00"><tspan dy="-0.2em">dxf</tspan><tspan x="1088" dy="1em">(2D CAD)</tspan></text>
	<polygon fill="none" stroke="#000000"  points="16,237.6 80,237.6  80,266.4 16,266.4"/>
	<text fill="#000000" text-anchor="middle" x="48" y="252" font-family="Times,serif" font-size="14.00"><tspan dy="-0.2em">lepton</tspan><tspan x="48" dy="1em">EDA</tspan></text>
	<polygon fill="none" stroke="#000000"  points="896,525.6 960,525.6  960,554.4 896,554.4"/>
	<text fill="#000000" text-anchor="middle" x="928" y="540" font-family="Times,serif" font-size="14.00"><tspan dy="-0.2em">nelma</tspan><tspan x="928" dy="1em">(sim)</tspan></text>
	<polygon fill="none" stroke="#000000"  points="16,165.6 80,165.6  80,194.4 16,194.4"/>
	<text fill="#000000" text-anchor="middle" x="48" y="180" font-family="Times,serif" font-size="14.00"><tspan dy="-0.2em">kicad</tspan><tspan x="48" dy="1em">eeschema</tspan></text>
	<polygon fill="none" stroke="#000000"  points="336,489.6 400,489.6  400,518.4 336,518.4"/>
	<text fill="#000000" text-anchor="middle" x="368" y="504" font-family="Times,serif" font-size="14.00"><tspan dy="-0.2em">BOM</tspan></text>
	<polygon fill="none" stroke="#000000"  points="16,381.6 80,381.6  80,410.4 16,410.4"/>
	<text fill="#000000" text-anchor="middle" x="48" y="396" font-family="Times,serif" font-size="14.00"><tspan dy="-0.2em">(any)</tspan><tspan x="48" dy="1em">netlist</tspan></text>
	<polygon fill="none" stroke="#000000"  points="256,525.6 320,525.6  320,554.4 256,554.4"/>
	<text fill="#000000" text-anchor="middle" x="288" y="540" font-family="Times,serif" font-size="14.00"><tspan dy="-0.2em">stat</tspan><tspan x="288" dy="1em">statistics</tspan></text>
	<polygon fill="none" stroke="#000000"  points="784,21.6 848,21.6  848,50.4 784,50.4"/>
	<text fill="#000000" text-anchor="middle" x="816" y="36" font-family="Times,serif" font-size="14.00"><tspan dy="-0.2em">Mentor</tspan><tspan x="816" dy="1em">hyperlynx</tspan></text>
	<polygon fill="none" stroke="#000000"  points="944,21.6 1008,21.6  1008,50.4 944,50.4"/>
	<text fill="#000000" text-anchor="middle" x="976" y="36" font-family="Times,serif" font-size="14.00"><tspan dy="-0.2em">gEDA</tspan><tspan x="976" dy="1em">gschem</tspan></text>
	<polygon fill="none" stroke="#000000"  points="1024,57.6 1088,57.6  1088,86.4 1024,86.4"/>
	<text fill="#000000" text-anchor="middle" x="1056" y="72" font-family="Times,serif" font-size="14.00"><tspan dy="-0.2em">Eagle</tspan><tspan x="1056" dy="1em">(board)</tspan></text>
	<polygon fill="none" stroke="#000000"  points="704,57.6 768,57.6  768,86.4 704,86.4"/>
	<text fill="#000000" text-anchor="middle" x="736" y="72" font-family="Times,serif" font-size="14.00"><tspan dy="-0.2em">FidoCadJ</tspan><tspan x="736" dy="1em">(board)</tspan></text>
	<polygon fill="none" stroke="#000000"  points="864,57.6 928,57.6  928,86.4 864,86.4"/>
	<text fill="#000000" text-anchor="middle" x="896" y="72" font-family="Times,serif" font-size="14.00"><tspan dy="-0.2em">Protel</tspan><tspan x="896" dy="1em">Autotrax</tspan></text>
	<line  marker-end="url(#ahe)"  x1="928" y1="410.4" x2="928" y2="525.6" stroke="#000000"/>
	<line  marker-end="url(#ahe)"  x1="80" y1="288" x2="176" y2="288" stroke="#000000"/>
	<text fill="#000000" text-anchor="middle" x="128" y="288" font-family="Times,serif" font-size="14.00"><tspan dy="-0.2em">import</tspan><tspan x="128" dy="1em">schematics</tspan></text>
	<line  marker-end="url(#ahe)"  x1="80" y1="216" x2="176" y2="216" stroke="#000000"/>
	<text fill="#000000" text-anchor="middle" x="128" y="216" font-family="Times,serif" font-size="14.00"><tspan dy="-0.2em">import</tspan><tspan x="128" dy="1em">netlist</tspan></text>
	<line  marker-end="url(#ahe)"  x1="80" y1="396" x2="176" y2="396" stroke="#000000"/>
	<text fill="#000000" text-anchor="middle" x="128" y="396" font-family="Times,serif" font-size="14.00"><tspan dy="-0.2em">import</tspan><tspan x="128" dy="1em">netlist</tspan></text>
	<line  marker-end="url(#ahe)"  x1="80" y1="324" x2="176" y2="324" stroke="#000000"/>
	<text fill="#000000" text-anchor="middle" x="128" y="324" font-family="Times,serif" font-size="14.00"><tspan dy="-0.2em">import</tspan><tspan x="128" dy="1em">schematics</tspan></text>
	<line  marker-end="url(#ahe)"  x1="80" y1="252" x2="176" y2="252" stroke="#000000"/>
	<text fill="#000000" text-anchor="middle" x="128" y="252" font-family="Times,serif" font-size="14.00"><tspan dy="-0.2em">import</tspan><tspan x="128" dy="1em">schematics</tspan></text>
	<line  marker-end="url(#ahe)"  x1="80" y1="360" x2="176" y2="360" stroke="#000000"/>
	<text fill="#000000" text-anchor="middle" x="128" y="360" font-family="Times,serif" font-size="14.00"><tspan dy="-0.2em">import</tspan><tspan x="128" dy="1em">schematics</tspan></text>
	<line  marker-end="url(#ahe)" marker-start="url(#ahs)"  x1="598.4" y1="50.4" x2="598.4" y2="165.6" stroke="#000000"/>
	<g transform="rotate(-90 598.4 108)">
	<text fill="#000000" text-anchor="middle" x="598.4" y="108" font-family="Times,serif" font-size="14.00"><tspan dy="-0.2em">board</tspan></text>
	</g>
	<line  marker-end="url(#ahe)" marker-start="url(#ahs)"  x1="816" y1="50.4" x2="816" y2="165.6" stroke="#000000"/>
	<g transform="rotate(-90 816 108)">
	<text fill="#000000" text-anchor="middle" x="816" y="108" font-family="Times,serif" font-size="14.00"><tspan dy="-0.2em">board</tspan></text>
	</g>
	<line  marker-end="url(#ahe)"  x1="312" y1="50.4" x2="312" y2="165.6" stroke="#000000"/>
	<g transform="rotate(-90 312 108)">
	<text fill="#000000" text-anchor="middle" x="312" y="108" font-family="Times,serif" font-size="14.00"><tspan dy="-0.2em">board</tspan><tspan x="312" dy="1em">legacy</tspan></text>
	</g>
	<line  marker-end="url(#ahe)" marker-start="url(#ahs)"  x1="665.6" y1="50.4" x2="665.6" y2="165.6" stroke="#000000"/>
	<g transform="rotate(-90 665.6 108)">
	<text fill="#000000" text-anchor="middle" x="665.6" y="108" font-family="Times,serif" font-size="14.00"><tspan dy="-0.2em">footprint</tspan></text>
	</g>
	<line  marker-end="url(#ahe)"  x1="368" y1="410.4" x2="368" y2="489.6" stroke="#000000"/>
	<g transform="rotate(-90 368 450)">
	<text fill="#000000" text-anchor="middle" x="368" y="450" font-family="Times,serif" font-size="14.00"><tspan dy="-0.2em">text</tspan></text>
	</g>
	<line  marker-end="url(#ahe)" marker-start="url(#ahs)"  x1="736" y1="86.4" x2="736" y2="165.6" stroke="#000000"/>
	<g transform="rotate(-90 736 126)">
	<text fill="#000000" text-anchor="middle" x="736" y="126" font-family="Times,serif" font-size="14.00"><tspan dy="-0.2em">board</tspan></text>
	</g>
	<line  marker-end="url(#ahe)" marker-start="url(#ahs)"  x1="976" y1="50.4" x2="976" y2="165.6" stroke="#000000"/>
	<g transform="rotate(-90 976 108)">
	<text fill="#000000" text-anchor="middle" x="976" y="108" font-family="Times,serif" font-size="14.00"><tspan dy="-0.2em">schematics</tspan></text>
	</g>
	<line  marker-end="url(#ahe)" marker-start="url(#ahs)"  x1="395.2" y1="50.4" x2="395.2" y2="165.6" stroke="#000000"/>
	<g transform="rotate(-90 395.2 108)">
	<text fill="#000000" text-anchor="middle" x="395.2" y="108" font-family="Times,serif" font-size="14.00"><tspan dy="-0.2em">footprint</tspan><tspan x="395.2" dy="1em">s-expr</tspan></text>
	</g>
	<line  marker-end="url(#ahe)" marker-start="url(#ahs)"  x1="228.8" y1="50.4" x2="228.8" y2="165.6" stroke="#000000"/>
	<g transform="rotate(-90 228.8 108)">
	<text fill="#000000" text-anchor="middle" x="228.8" y="108" font-family="Times,serif" font-size="14.00"><tspan dy="-0.2em">board</tspan><tspan x="228.8" dy="1em">s-expr</tspan></text>
	</g>
	<line  marker-end="url(#ahe)"  x1="528" y1="410.4" x2="528" y2="489.6" stroke="#000000"/>
	<g transform="rotate(-90 528 450)">
	<text fill="#000000" text-anchor="middle" x="528" y="450" font-family="Times,serif" font-size="14.00"><tspan dy="-0.2em">.xy</tspan></text>
	</g>
	<line  marker-end="url(#ahe)" marker-start="url(#ahs)"  x1="896" y1="86.4" x2="896" y2="165.6" stroke="#000000"/>
	<g transform="rotate(-90 896 126)">
	<text fill="#000000" text-anchor="middle" x="896" y="126" font-family="Times,serif" font-size="14.00"><tspan dy="-0.2em">board</tspan></text>
	</g>
	<line  marker-end="url(#ahe)"  x1="208" y1="410.4" x2="208" y2="489.6" stroke="#000000"/>
	<g transform="rotate(-90 208 450)">
	<text fill="#000000" text-anchor="middle" x="208" y="450" font-family="Times,serif" font-size="14.00"><tspan dy="-0.2em">.png</tspan></text>
	</g>
	<line  marker-end="url(#ahe)" marker-start="url(#ahs)"  x1="1120" y1="180" x2="1216" y2="180" stroke="#000000"/>
	<line  marker-end="url(#ahe)" marker-start="url(#ahs)"  x1="496" y1="86.4" x2="496" y2="165.6" stroke="#000000"/>
	<g transform="rotate(-90 496 126)">
	<text fill="#000000" text-anchor="middle" x="496" y="126" font-family="Times,serif" font-size="14.00"><tspan dy="-0.2em">board</tspan></text>
	</g>
	<line  marker-end="url(#ahe)"  x1="848" y1="410.4" x2="848" y2="489.6" stroke="#000000"/>
	<g transform="rotate(-90 848 450)">
	<text fill="#000000" text-anchor="middle" x="848" y="450" font-family="Times,serif" font-size="14.00"><tspan dy="-0.2em">IPC356D</tspan></text>
	</g>
	<line  marker-end="url(#ahe)"  x1="288" y1="410.4" x2="288" y2="525.6" stroke="#000000"/>
	<g transform="rotate(-90 288 468)">
	<text fill="#000000" text-anchor="middle" x="288" y="468" font-family="Times,serif" font-size="14.00"><tspan dy="-0.2em">lihata</tspan></text>
	</g>
	<line  marker-end="url(#ahe)"  x1="688" y1="410.4" x2="688" y2="489.6" stroke="#000000"/>
	<g transform="rotate(-90 688 450)">
	<text fill="#000000" text-anchor="middle" x="688" y="450" font-family="Times,serif" font-size="14.00"><tspan dy="-0.2em">.grb, .cnc</tspan></text>
	</g>
	<line  marker-end="url(#ahe)" marker-start="url(#ahs)"  x1="1120" y1="252" x2="1216" y2="252" stroke="#000000"/>
	<line  marker-end="url(#ahe)" marker-start="url(#ahs)"  x1="1056" y1="86.4" x2="1056" y2="165.6" stroke="#000000"/>
	<g transform="rotate(-90 1056 126)">
	<text fill="#000000" text-anchor="middle" x="1056" y="126" font-family="Times,serif" font-size="14.00"><tspan dy="-0.2em">board</tspan></text>
	</g>
	<line  marker-end="url(#ahe)"  x1="1008" y1="410.4" x2="1008" y2="489.6" stroke="#000000"/>
	<g transform="rotate(-90 1008 450)">
	<text fill="#000000" text-anchor="middle" x="1008" y="450" font-family="Times,serif" font-size="14.00"><tspan dy="-0.2em">ps</tspan></text>
	</g>
	<line  marker-end="url(#ahe)" marker-start="url(#ahs)"  x1="1120" y1="324" x2="1216" y2="324" stroke="#000000"/>
	<line  marker-end="url(#ahe)"  x1="80" y1="180" x2="176" y2="180" stroke="#000000"/>
	<text fill="#000000" text-anchor="middle" x="128" y="180" font-family="Times,serif" font-size="14.00"><tspan dy="-0.2em">import</tspan><tspan x="128" dy="1em">schematics</tspan></text>
	<line  marker-end="url(#ahe)"  x1="448" y1="410.4" x2="448" y2="525.6" stroke="#000000"/>
	<g transform="rotate(-90 448 468)">
	<text fill="#000000" text-anchor="middle" x="448" y="468" font-family="Times,serif" font-size="14.00"><tspan dy="-0.2em">postscript</tspan></text>
	</g>
	<line  marker-end="url(#ahe)" marker-start="url(#ahs)"  x1="1120" y1="396" x2="1216" y2="396" stroke="#000000"/>
	<line  marker-end="url(#ahe)"  x1="1088" y1="410.4" x2="1088" y2="525.6" stroke="#000000"/>
	<line  marker-end="url(#ahe)" marker-start="url(#ahs)"  x1="1264" y1="410.4" x2="1264" y2="489.6" stroke="#000000"/>
	<g transform="rotate(-90 1264 450)">
	<text fill="#000000" text-anchor="middle" x="1264" y="450" font-family="Times,serif" font-size="14.00"><tspan dy="-0.2em">TCP/IP</tspan></text>
	</g>
	<line  marker-end="url(#ahe)"  x1="608" y1="410.4" x2="608" y2="525.6" stroke="#000000"/>
	<g transform="rotate(-90 608 468)">
	<text fill="#000000" text-anchor="middle" x="608" y="468" font-family="Times,serif" font-size="14.00"><tspan dy="-0.2em">svg</tspan></text>
	</g>
	<line  marker-end="url(#ahe)"  x1="768" y1="410.4" x2="768" y2="525.6" stroke="#000000"/>
</g>
</svg>
