<?xml version="1.0" encoding="UTF-8" standalone="no"?>
<!DOCTYPE svg PUBLIC "-//W3C//DTD SVG 1.1//EN"
 "http://www.w3.org/Graphics/SVG/1.1/DTD/svg11.dtd">
<!-- Generated by graphviz version 2.26.3 (20100126.1600)
 -->
<!-- Title: gr Pages: 1 -->
<svg width="1084pt" height="1462pt"
 viewBox="0.00 0.00 1084.00 1462.00" xmlns="http://www.w3.org/2000/svg" xmlns:xlink="http://www.w3.org/1999/xlink">
<g id="graph1" class="graph" transform="scale(1 1) rotate(0) translate(4 1458)">
<title>gr</title>
<polygon fill="white" stroke="white" points="-4,5 -4,-1458 1081,-1458 1081,5 -4,5"/>
<g id="graph2" class="cluster"><title>cluster_HID</title>
<polygon fill="#dddddd" stroke="#dddddd" points="698,-231 698,-545 902,-545 902,-231 698,-231"/>
<text text-anchor="middle" x="800" y="-528.4" font-family="Times Roman,serif" font-size="14.00">HID &#45; user interface</text>
</g>
<g id="graph3" class="cluster"><title>cluster_import</title>
<polygon fill="#dddddd" stroke="#dddddd" points="8,-8 8,-571 220,-571 220,-8 8,-8"/>
<text text-anchor="middle" x="114" y="-554.4" font-family="Times Roman,serif" font-size="14.00">import only</text>
</g>
<g id="graph4" class="cluster"><title>cluster_export</title>
<polygon fill="#dddddd" stroke="#dddddd" points="40,-579 40,-1446 188,-1446 188,-579 40,-579"/>
<text text-anchor="middle" x="114" y="-1429.4" font-family="Times Roman,serif" font-size="14.00">export only</text>
</g>
<g id="graph5" class="cluster"><title>cluster_ie</title>
<polygon fill="#dddddd" stroke="#dddddd" points="704,-553 704,-986 896,-986 896,-553 704,-553"/>
<text text-anchor="middle" x="800" y="-969.4" font-family="Times Roman,serif" font-size="14.00">import and export</text>
</g>
<!-- pcbrnd -->
<g id="node1" class="node"><title>pcbrnd</title>
<polygon fill="cyan" stroke="black" points="514,-1116 370,-1116 370,-252 514,-252 514,-1116"/>
<text text-anchor="middle" x="442" y="-679.9" font-family="Times Roman,serif" font-size="14.00">pcb&#45;rnd</text>
</g>
<!-- kicad -->
<g id="node2" class="node"><title>kicad</title>
<polygon fill="none" stroke="black" points="835,-953 765,-953 765,-911 835,-911 835,-953"/>
<text text-anchor="middle" x="800" y="-936.4" font-family="Times Roman,serif" font-size="14.00">KiCad</text>
<text text-anchor="middle" x="800" y="-919.4" font-family="Times Roman,serif" font-size="14.00">pcbnew</text>
</g>
<!-- pcbrnd&#45;&gt;kicad -->
<g id="edge6" class="edge"><title>pcbrnd&#45;&gt;kicad</title>
<path fill="none" stroke="black" d="M514.076,-972.474C519.748,-981.899 525.726,-989.289 532,-994 600.872,-1045.72 705.717,-993.795 761.666,-958.591"/>
<polygon fill="black" stroke="black" points="763.69,-961.451 770.213,-953.103 759.907,-955.561 763.69,-961.451"/>
<text text-anchor="middle" x="610" y="-1020.4" font-family="Times Roman,serif" font-size="14.00">board: legacy format</text>
</g>
<!-- pcbrnd&#45;&gt;kicad -->
<g id="edge8" class="edge"><title>pcbrnd&#45;&gt;kicad</title>
<path fill="none" stroke="black" d="M520.004,-916.792C523.953,-921.996 527.959,-926.146 532,-929 597.97,-975.597 697.689,-960.384 755.062,-945.758"/>
<polygon fill="black" stroke="black" points="522.813,-914.7 514.264,-908.442 517.045,-918.666 522.813,-914.7"/>
<polygon fill="black" stroke="black" points="756.153,-949.09 764.922,-943.143 754.359,-942.324 756.153,-949.09"/>
<text text-anchor="middle" x="610" y="-965.4" font-family="Times Roman,serif" font-size="14.00">board: s&#45;expression</text>
</g>
<!-- pcbrnd&#45;&gt;kicad -->
<g id="edge10" class="edge"><title>pcbrnd&#45;&gt;kicad</title>
<path fill="none" stroke="black" d="M521.043,-854.255C524.552,-857.684 528.203,-860.943 532,-864 533.106,-864.89 679.044,-901.627 755.07,-920.724"/>
<polygon fill="black" stroke="black" points="523.498,-851.759 514.038,-846.987 518.458,-856.616 523.498,-851.759"/>
<polygon fill="black" stroke="black" points="754.316,-924.143 764.868,-923.185 756.021,-917.354 754.316,-924.143"/>
<text text-anchor="middle" x="610" y="-907.4" font-family="Times Roman,serif" font-size="14.00">footprint: s&#45;expression</text>
</g>
<!-- pcb -->
<g id="node4" class="node"><title>pcb</title>
<polygon fill="none" stroke="black" points="844,-868 756,-868 756,-832 844,-832 844,-868"/>
<text text-anchor="middle" x="800" y="-845.9" font-family="Times Roman,serif" font-size="14.00">gEDA/PCB</text>
</g>
<!-- pcbrnd&#45;&gt;pcb -->
<g id="edge16" class="edge"><title>pcbrnd&#45;&gt;pcb</title>
<path fill="none" stroke="black" d="M522.389,-792.535C525.518,-794.838 528.722,-797.002 532,-799 567.15,-820.425 678.128,-836.268 745.752,-844.232"/>
<polygon fill="black" stroke="black" points="524.301,-789.585 514.285,-786.132 519.961,-795.078 524.301,-789.585"/>
<polygon fill="black" stroke="black" points="745.472,-847.722 755.808,-845.395 746.277,-840.769 745.472,-847.722"/>
<text text-anchor="middle" x="610" y="-841.4" font-family="Times Roman,serif" font-size="14.00">board: .pcb</text>
</g>
<!-- pcbrnd&#45;&gt;pcb -->
<g id="edge18" class="edge"><title>pcbrnd&#45;&gt;pcb</title>
<path fill="none" stroke="black" d="M523.382,-730.385C526.267,-731.653 529.145,-732.863 532,-734 598.496,-760.486 636.886,-723.895 688,-774 699.859,-785.624 686.877,-797.67 698,-810 710.632,-824.002 728.778,-833.158 746.272,-839.121"/>
<polygon fill="black" stroke="black" points="524.716,-727.146 514.168,-726.156 521.797,-733.508 524.716,-727.146"/>
<polygon fill="black" stroke="black" points="745.296,-842.483 755.885,-842.116 747.379,-835.8 745.296,-842.483"/>
<text text-anchor="middle" x="610" y="-778.4" font-family="Times Roman,serif" font-size="14.00">footprint: .fp</text>
</g>
<!-- freerouting -->
<g id="node5" class="node"><title>freerouting</title>
<polygon fill="none" stroke="black" points="862,-789 738,-789 738,-747 862,-747 862,-789"/>
<text text-anchor="middle" x="800" y="-772.4" font-family="Times Roman,serif" font-size="14.00">freerouting.net</text>
<text text-anchor="middle" x="800" y="-755.4" font-family="Times Roman,serif" font-size="14.00">java application</text>
</g>
<!-- pcbrnd&#45;&gt;freerouting -->
<g id="edge20" class="edge"><title>pcbrnd&#45;&gt;freerouting</title>
<path fill="none" stroke="black" d="M524.358,-676.695C574.823,-676.014 638.924,-682.25 688,-711 694.598,-714.865 692.029,-720.223 698,-725 707.203,-732.363 717.851,-738.665 728.722,-743.994"/>
<polygon fill="black" stroke="black" points="524.049,-673.201 514.132,-676.93 524.209,-680.2 524.049,-673.201"/>
<polygon fill="black" stroke="black" points="727.336,-747.209 737.88,-748.242 730.282,-740.859 727.336,-747.209"/>
<text text-anchor="middle" x="610" y="-715.4" font-family="Times Roman,serif" font-size="14.00">.dsn</text>
</g>
<!-- fidocadj -->
<g id="node12" class="node"><title>fidocadj</title>
<polygon fill="none" stroke="black" points="887,-704.5 713,-704.5 713,-645.5 887,-645.5 887,-704.5"/>
<text text-anchor="middle" x="800" y="-687.9" font-family="Times Roman,serif" font-size="14.00">FidoCadj</text>
<text text-anchor="middle" x="800" y="-670.9" font-family="Times Roman,serif" font-size="14.00">artistic PCBs</text>
<text text-anchor="middle" x="800" y="-653.9" font-family="Times Roman,serif" font-size="14.00">(experimental support)</text>
</g>
<!-- pcbrnd&#45;&gt;fidocadj -->
<g id="edge12" class="edge"><title>pcbrnd&#45;&gt;fidocadj</title>
<path fill="none" stroke="black" d="M523.933,-647.858C526.633,-647.165 529.326,-646.541 532,-646 599.955,-632.242 619.222,-637.24 688,-646 692.732,-646.603 697.55,-647.343 702.398,-648.191"/>
<polygon fill="black" stroke="black" points="522.809,-644.539 514.154,-650.649 524.73,-651.27 522.809,-644.539"/>
<polygon fill="black" stroke="black" points="701.895,-651.658 712.37,-650.071 703.192,-644.779 701.895,-651.658"/>
<text text-anchor="middle" x="610" y="-650.4" font-family="Times Roman,serif" font-size="14.00">board</text>
</g>
<!-- batch -->
<g id="node14" class="node"><title>batch</title>
<polygon fill="none" stroke="black" points="800,-512 718.935,-494 800,-476 881.065,-494 800,-512"/>
<text text-anchor="middle" x="800" y="-489.9" font-family="Times Roman,serif" font-size="14.00">hid_batch</text>
</g>
<!-- pcbrnd&#45;&gt;batch -->
<g id="edge58" class="edge"><title>pcbrnd&#45;&gt;batch</title>
<path fill="none" stroke="black" d="M522.11,-567.307C525.323,-564.719 528.62,-562.274 532,-560 589.384,-521.394 667.252,-505.341 724.265,-498.681"/>
<polygon fill="black" stroke="black" points="519.603,-564.847 514.3,-574.019 524.165,-570.156 519.603,-564.847"/>
<polygon fill="black" stroke="black" points="724.741,-502.15 734.3,-497.581 723.978,-495.192 724.741,-502.15"/>
</g>
<!-- gtk -->
<g id="node15" class="node"><title>gtk</title>
<polygon fill="none" stroke="black" points="800,-433 733.176,-415 800,-397 866.824,-415 800,-433"/>
<text text-anchor="middle" x="800" y="-410.9" font-family="Times Roman,serif" font-size="14.00">hid_gtk</text>
</g>
<!-- pcbrnd&#45;&gt;gtk -->
<g id="edge60" class="edge"><title>pcbrnd&#45;&gt;gtk</title>
<path fill="none" stroke="black" d="M521.125,-505.236C524.607,-501.65 528.23,-498.228 532,-495 589.523,-445.734 676.439,-426.804 735.577,-419.532"/>
<polygon fill="black" stroke="black" points="518.353,-503.08 514.174,-512.815 523.512,-507.811 518.353,-503.08"/>
<polygon fill="black" stroke="black" points="736.016,-423.005 745.55,-418.383 735.215,-416.051 736.016,-423.005"/>
</g>
<!-- lesstif -->
<g id="node16" class="node"><title>lesstif</title>
<polygon fill="none" stroke="black" points="800,-354 716.97,-336 800,-318 883.03,-336 800,-354"/>
<text text-anchor="middle" x="800" y="-331.9" font-family="Times Roman,serif" font-size="14.00">hid_lesstif</text>
</g>
<!-- pcbrnd&#45;&gt;lesstif -->
<g id="edge62" class="edge"><title>pcbrnd&#45;&gt;lesstif</title>
<path fill="none" stroke="black" d="M520.555,-430.147C524.198,-425.931 528.011,-421.874 532,-418 583.229,-368.252 663.799,-348.594 723.232,-340.875"/>
<polygon fill="black" stroke="black" points="517.826,-427.954 514.177,-437.901 523.232,-432.401 517.826,-427.954"/>
<polygon fill="black" stroke="black" points="723.819,-344.33 733.325,-339.652 722.977,-337.381 723.819,-344.33"/>
</g>
<!-- remote -->
<g id="node17" class="node"><title>remote</title>
<polygon fill="none" stroke="black" points="800,-275 707.142,-257 800,-239 892.858,-257 800,-275"/>
<text text-anchor="middle" x="800" y="-252.9" font-family="Times Roman,serif" font-size="14.00">hid_remote</text>
</g>
<!-- pcbrnd&#45;&gt;remote -->
<g id="edge64" class="edge"><title>pcbrnd&#45;&gt;remote</title>
<path fill="none" stroke="black" d="M518.91,-355.345C523.132,-347.878 527.498,-341.669 532,-337 578.917,-288.347 654.048,-268.951 712.839,-261.38"/>
<polygon fill="black" stroke="black" points="515.564,-354.191 514.021,-364.673 521.763,-357.441 515.564,-354.191"/>
<polygon fill="black" stroke="black" points="713.356,-264.843 722.87,-260.181 712.525,-257.893 713.356,-264.843"/>
</g>
<!-- breadboard -->
<g id="node22" class="node"><title>breadboard</title>
<ellipse fill="none" stroke="black" cx="114" cy="-1395" rx="66.0138" ry="18"/>
<text text-anchor="middle" x="114" y="-1390.9" font-family="Times Roman,serif" font-size="14.00">breadboard</text>
</g>
<!-- pcbrnd&#45;&gt;breadboard -->
<g id="edge24" class="edge"><title>pcbrnd&#45;&gt;breadboard</title>
<path fill="none" stroke="black" d="M400.802,-1116.18C386.673,-1225.18 369.878,-1317.2 352,-1337 311.505,-1381.85 242.641,-1394.78 189.375,-1397.41"/>
<polygon fill="black" stroke="black" points="189.142,-1393.92 179.283,-1397.8 189.409,-1400.91 189.142,-1393.92"/>
<text text-anchor="middle" x="291" y="-1397.4" font-family="Times Roman,serif" font-size="14.00">.png</text>
</g>
<!-- BoM -->
<g id="node23" class="node"><title>BoM</title>
<ellipse fill="none" stroke="black" cx="114" cy="-1316" rx="32.157" ry="18"/>
<text text-anchor="middle" x="114" y="-1311.9" font-family="Times Roman,serif" font-size="14.00">BoM</text>
</g>
<!-- pcbrnd&#45;&gt;BoM -->
<g id="edge26" class="edge"><title>pcbrnd&#45;&gt;BoM</title>
<path fill="none" stroke="black" d="M404.822,-1116.22C392.072,-1178.95 374.961,-1230.85 352,-1256 302.169,-1310.58 210.618,-1318.74 156.748,-1318.33"/>
<polygon fill="black" stroke="black" points="156.562,-1314.83 146.5,-1318.15 156.436,-1321.83 156.562,-1314.83"/>
<text text-anchor="middle" x="291" y="-1317.4" font-family="Times Roman,serif" font-size="14.00">text</text>
</g>
<!-- XY -->
<g id="node24" class="node"><title>XY</title>
<ellipse fill="none" stroke="black" cx="114" cy="-1237" rx="27" ry="18"/>
<text text-anchor="middle" x="114" y="-1232.9" font-family="Times Roman,serif" font-size="14.00">XY</text>
</g>
<!-- pcbrnd&#45;&gt;XY -->
<g id="edge28" class="edge"><title>pcbrnd&#45;&gt;XY</title>
<path fill="none" stroke="black" d="M378.179,-1116.15C370.372,-1136.65 361.675,-1153.17 352,-1164 325.037,-1194.17 210.177,-1219.26 150.435,-1230.56"/>
<polygon fill="black" stroke="black" points="149.493,-1227.18 140.301,-1232.45 150.773,-1234.06 149.493,-1227.18"/>
<text text-anchor="middle" x="291" y="-1233.4" font-family="Times Roman,serif" font-size="14.00">.xy</text>
<text text-anchor="middle" x="291" y="-1216.4" font-family="Times Roman,serif" font-size="14.00">for pick and place</text>
</g>
<!-- gerber -->
<g id="node25" class="node"><title>gerber</title>
<ellipse fill="none" stroke="black" cx="114" cy="-1158" rx="43.0827" ry="18"/>
<text text-anchor="middle" x="114" y="-1153.9" font-family="Times Roman,serif" font-size="14.00">gerber</text>
</g>
<!-- pcbrnd&#45;&gt;gerber -->
<g id="edge30" class="edge"><title>pcbrnd&#45;&gt;gerber</title>
<path fill="none" stroke="black" d="M369.942,-1039.35C364.273,-1051.72 358.289,-1061.85 352,-1069 304.518,-1123 221.018,-1144.31 166.613,-1152.68"/>
<polygon fill="black" stroke="black" points="165.873,-1149.25 156.474,-1154.14 166.871,-1156.17 165.873,-1149.25"/>
<text text-anchor="middle" x="291" y="-1141.4" font-family="Times Roman,serif" font-size="14.00">.gbr, .cnc</text>
</g>
<!-- ipcd356 -->
<g id="node26" class="node"><title>ipcd356</title>
<ellipse fill="none" stroke="black" cx="114" cy="-1079" rx="48.8383" ry="18"/>
<text text-anchor="middle" x="114" y="-1074.9" font-family="Times Roman,serif" font-size="14.00">ipcd356</text>
</g>
<!-- pcbrnd&#45;&gt;ipcd356 -->
<g id="edge32" class="edge"><title>pcbrnd&#45;&gt;ipcd356</title>
<path fill="none" stroke="black" d="M369.978,-979.566C364.214,-991.235 358.208,-1000.65 352,-1007 305.065,-1054.98 227.352,-1071.24 173.559,-1076.61"/>
<polygon fill="black" stroke="black" points="173.116,-1073.13 163.47,-1077.52 173.744,-1080.1 173.116,-1073.13"/>
</g>
<!-- lpr -->
<g id="node27" class="node"><title>lpr</title>
<ellipse fill="none" stroke="black" cx="114" cy="-1000" rx="27" ry="18"/>
<text text-anchor="middle" x="114" y="-995.9" font-family="Times Roman,serif" font-size="14.00">lpr</text>
</g>
<!-- pcbrnd&#45;&gt;lpr -->
<g id="edge34" class="edge"><title>pcbrnd&#45;&gt;lpr</title>
<path fill="none" stroke="black" d="M369.982,-895.865C364.419,-903.006 358.436,-909.759 352,-916 295.938,-970.364 202.584,-989.745 151.033,-996.505"/>
<polygon fill="black" stroke="black" points="150.502,-993.043 141,-997.729 151.35,-999.992 150.502,-993.043"/>
<text text-anchor="middle" x="291" y="-984.4" font-family="Times Roman,serif" font-size="14.00">print</text>
</g>
<!-- nelma -->
<g id="node28" class="node"><title>nelma</title>
<ellipse fill="none" stroke="black" cx="114" cy="-921" rx="40.9981" ry="18"/>
<text text-anchor="middle" x="114" y="-916.9" font-family="Times Roman,serif" font-size="14.00">nelma</text>
</g>
<!-- pcbrnd&#45;&gt;nelma -->
<g id="edge36" class="edge"><title>pcbrnd&#45;&gt;nelma</title>
<path fill="none" stroke="black" d="M369.912,-841.114C364.331,-847.213 358.367,-852.892 352,-858 298.083,-901.255 217.31,-915.001 165.127,-919.259"/>
<polygon fill="black" stroke="black" points="164.807,-915.773 155.088,-919.991 165.316,-922.755 164.807,-915.773"/>
</g>
<!-- png -->
<g id="node29" class="node"><title>png</title>
<ellipse fill="none" stroke="black" cx="114" cy="-842" rx="29.1851" ry="18"/>
<text text-anchor="middle" x="114" y="-837.9" font-family="Times Roman,serif" font-size="14.00">png</text>
</g>
<!-- pcbrnd&#45;&gt;png -->
<g id="edge38" class="edge"><title>pcbrnd&#45;&gt;png</title>
<path fill="none" stroke="black" d="M369.857,-776.344C364.14,-781.013 358.175,-785.293 352,-789 289.315,-826.63 202.881,-837.609 153.276,-840.77"/>
<polygon fill="black" stroke="black" points="153.06,-837.276 143.272,-841.332 153.453,-844.265 153.06,-837.276"/>
<text text-anchor="middle" x="291" y="-835.4" font-family="Times Roman,serif" font-size="14.00">bitmap</text>
</g>
<!-- ps -->
<g id="node30" class="node"><title>ps</title>
<ellipse fill="none" stroke="black" cx="114" cy="-684" rx="27" ry="18"/>
<text text-anchor="middle" x="114" y="-679.9" font-family="Times Roman,serif" font-size="14.00">ps</text>
</g>
<!-- pcbrnd&#45;&gt;ps -->
<g id="edge40" class="edge"><title>pcbrnd&#45;&gt;ps</title>
<path fill="none" stroke="black" d="M369.601,-704.158C363.68,-705.3 357.76,-706.276 352,-707 298.202,-713.766 283.963,-712.298 230,-707 202.713,-704.321 172.327,-698.178 149.502,-692.914"/>
<polygon fill="black" stroke="black" points="150.122,-689.464 139.585,-690.573 148.513,-696.277 150.122,-689.464"/>
<text text-anchor="middle" x="291" y="-716.4" font-family="Times Roman,serif" font-size="14.00">.ps, .eps</text>
</g>
<!-- stat -->
<g id="node31" class="node"><title>stat</title>
<ellipse fill="none" stroke="black" cx="114" cy="-763" rx="30.0736" ry="18"/>
<text text-anchor="middle" x="114" y="-758.9" font-family="Times Roman,serif" font-size="14.00">stat</text>
</g>
<!-- pcbrnd&#45;&gt;stat -->
<g id="edge42" class="edge"><title>pcbrnd&#45;&gt;stat</title>
<path fill="none" stroke="black" d="M369.911,-731.748C363.996,-734.515 357.988,-736.986 352,-739 285.443,-761.391 202.974,-764.674 154.652,-764.322"/>
<polygon fill="black" stroke="black" points="154.631,-760.821 144.586,-764.192 154.54,-767.821 154.631,-760.821"/>
<text text-anchor="middle" x="291" y="-766.4" font-family="Times Roman,serif" font-size="14.00">statsitics .lht</text>
</g>
<!-- svg -->
<g id="node32" class="node"><title>svg</title>
<ellipse fill="none" stroke="black" cx="114" cy="-605" rx="27.7953" ry="18"/>
<text text-anchor="middle" x="114" y="-600.9" font-family="Times Roman,serif" font-size="14.00">svg</text>
</g>
<!-- pcbrnd&#45;&gt;svg -->
<g id="edge44" class="edge"><title>pcbrnd&#45;&gt;svg</title>
<path fill="none" stroke="black" d="M369.925,-661.85C363.877,-660.152 357.843,-658.512 352,-657 281.388,-638.723 197.904,-621.472 150.936,-612.16"/>
<polygon fill="black" stroke="black" points="151.416,-608.687 140.927,-610.186 150.061,-615.555 151.416,-608.687"/>
<text text-anchor="middle" x="291" y="-661.4" font-family="Times Roman,serif" font-size="14.00">.svg</text>
</g>
<!-- eeschema -->
<g id="node3" class="node"><title>eeschema</title>
<polygon fill="none" stroke="black" points="156,-538 72,-538 72,-496 156,-496 156,-538"/>
<text text-anchor="middle" x="114" y="-521.4" font-family="Times Roman,serif" font-size="14.00">KiCad</text>
<text text-anchor="middle" x="114" y="-504.4" font-family="Times Roman,serif" font-size="14.00">eeschema</text>
</g>
<!-- eeschema&#45;&gt;pcbrnd -->
<g id="edge14" class="edge"><title>eeschema&#45;&gt;pcbrnd</title>
<path fill="none" stroke="black" d="M156.59,-527.052C205.973,-539.883 288.685,-565.066 352,-603 355.209,-604.923 358.407,-606.97 361.58,-609.114"/>
<polygon fill="black" stroke="black" points="359.723,-612.088 369.91,-615 363.763,-606.371 359.723,-612.088"/>
<text text-anchor="middle" x="291" y="-607.4" font-family="Times Roman,serif" font-size="14.00">netlist</text>
</g>
<!-- mucs -->
<g id="node6" class="node"><title>mucs</title>
<polygon fill="none" stroke="black" points="211,-453 17,-453 17,-417 211,-417 211,-453"/>
<text text-anchor="middle" x="114" y="-430.9" font-family="Times Roman,serif" font-size="14.00">mucs pcb with autorouter</text>
</g>
<!-- mucs&#45;&gt;pcbrnd -->
<g id="edge22" class="edge"><title>mucs&#45;&gt;pcbrnd</title>
<path fill="none" stroke="black" d="M206.645,-453.035C254.296,-466.06 310.846,-487.752 352,-523 355.755,-526.216 359.384,-529.629 362.888,-533.205"/>
<polygon fill="black" stroke="black" points="360.538,-535.817 369.909,-540.76 365.666,-531.052 360.538,-535.817"/>
<text text-anchor="middle" x="291" y="-527.4" font-family="Times Roman,serif" font-size="14.00">import</text>
</g>
<!-- gEDA -->
<g id="node7" class="node"><title>gEDA</title>
<polygon fill="none" stroke="black" points="870,-603 730,-603 730,-561 870,-561 870,-603"/>
<text text-anchor="middle" x="800" y="-586.4" font-family="Times Roman,serif" font-size="14.00">gEDA/gaf</text>
<text text-anchor="middle" x="800" y="-569.4" font-family="Times Roman,serif" font-size="14.00">(gschem, gnetlist)</text>
</g>
<!-- gEDA&#45;&gt;pcbrnd -->
<g id="edge54" class="edge"><title>gEDA&#45;&gt;pcbrnd</title>
<path fill="none" stroke="black" d="M719.903,-570.835C664.759,-566.607 591.08,-567.965 532,-594 528.916,-595.359 525.881,-596.875 522.898,-598.526"/>
<polygon fill="black" stroke="black" points="719.717,-574.331 729.976,-571.685 720.306,-567.356 719.717,-574.331"/>
<polygon fill="black" stroke="black" points="520.85,-595.675 514.116,-603.854 524.481,-601.659 520.85,-595.675"/>
<text text-anchor="middle" x="610" y="-615.4" font-family="Times Roman,serif" font-size="14.00">schematics</text>
<text text-anchor="middle" x="610" y="-598.4" font-family="Times Roman,serif" font-size="14.00">back annotation</text>
</g>
<!-- lepton -->
<g id="node8" class="node"><title>lepton</title>
<polygon fill="none" stroke="black" points="184,-374 44,-374 44,-332 184,-332 184,-374"/>
<text text-anchor="middle" x="114" y="-357.4" font-family="Times Roman,serif" font-size="14.00">lepton&#45;eda</text>
<text text-anchor="middle" x="114" y="-340.4" font-family="Times Roman,serif" font-size="14.00">(gschem, gnetlist)</text>
</g>
<!-- lepton&#45;&gt;pcbrnd -->
<g id="edge52" class="edge"><title>lepton&#45;&gt;pcbrnd</title>
<path fill="none" stroke="black" d="M184.244,-360.508C236.742,-369.617 306.936,-389.719 352,-434 356.01,-437.94 359.842,-442.072 363.504,-446.368"/>
<polygon fill="black" stroke="black" points="360.897,-448.71 369.915,-454.273 366.334,-444.301 360.897,-448.71"/>
<text text-anchor="middle" x="291" y="-438.4" font-family="Times Roman,serif" font-size="14.00">schematics</text>
</g>
<!-- ltspice -->
<g id="node9" class="node"><title>ltspice</title>
<polygon fill="none" stroke="black" points="148,-289 80,-289 80,-253 148,-253 148,-289"/>
<text text-anchor="middle" x="114" y="-266.9" font-family="Times Roman,serif" font-size="14.00">LTSpice</text>
</g>
<!-- ltspice&#45;&gt;pcbrnd -->
<g id="edge48" class="edge"><title>ltspice&#45;&gt;pcbrnd</title>
<path fill="none" stroke="black" d="M148.075,-271.702C199.661,-274.663 297.344,-288.002 352,-345 356.468,-349.66 360.813,-355.873 365.026,-363.35"/>
<polygon fill="black" stroke="black" points="362.174,-365.451 369.909,-372.692 368.378,-362.208 362.174,-365.451"/>
<text text-anchor="middle" x="291" y="-349.4" font-family="Times Roman,serif" font-size="14.00">schematics</text>
</g>
<!-- tinycad -->
<g id="node10" class="node"><title>tinycad</title>
<polygon fill="none" stroke="black" points="152,-210 76,-210 76,-174 152,-174 152,-210"/>
<text text-anchor="middle" x="114" y="-187.9" font-family="Times Roman,serif" font-size="14.00">TinyCAD</text>
</g>
<!-- tinycad&#45;&gt;pcbrnd -->
<g id="edge56" class="edge"><title>tinycad&#45;&gt;pcbrnd</title>
<path fill="none" stroke="black" d="M152.711,-191.165C205.621,-192.253 299.885,-202.532 352,-258 356.557,-262.85 360.913,-269.049 365.075,-276.388"/>
<polygon fill="black" stroke="black" points="362.12,-278.29 369.87,-285.514 368.317,-275.034 362.12,-278.29"/>
<text text-anchor="middle" x="291" y="-262.4" font-family="Times Roman,serif" font-size="14.00">schematics</text>
</g>
<!-- web -->
<g id="node11" class="node"><title>web</title>
<polygon fill="none" stroke="#aaaaaa" points="1075,-286.5 933,-286.5 933,-227.5 1075,-227.5 1075,-286.5"/>
<text text-anchor="middle" x="1004" y="-269.9" font-family="Times Roman,serif" font-size="14.00" fill="#aaaaaa">JavaScript based</text>
<text text-anchor="middle" x="1004" y="-252.9" font-family="Times Roman,serif" font-size="14.00" fill="#aaaaaa">web application</text>
<text text-anchor="middle" x="1004" y="-235.9" font-family="Times Roman,serif" font-size="14.00" fill="#aaaaaa">(work in progress)</text>
</g>
<!-- remote&#45;&gt;web -->
<g id="edge66" class="edge"><title>remote&#45;&gt;web</title>
<path fill="none" stroke="black" d="M903.708,-257C909.901,-257 916.086,-257 922.171,-257"/>
<polygon fill="black" stroke="black" points="903.641,-253.5 893.641,-257 903.641,-260.5 903.641,-253.5"/>
<polygon fill="black" stroke="black" points="922.301,-260.5 932.301,-257 922.301,-253.5 922.301,-260.5"/>
</g>
<!-- edif -->
<g id="node19" class="node"><title>edif</title>
<ellipse fill="none" stroke="black" cx="114" cy="-113" rx="27.9903" ry="18"/>
<text text-anchor="middle" x="114" y="-108.9" font-family="Times Roman,serif" font-size="14.00">edif</text>
</g>
<!-- edif&#45;&gt;pcbrnd -->
<g id="edge46" class="edge"><title>edif&#45;&gt;pcbrnd</title>
<path fill="none" stroke="black" d="M142.871,-113.486C193.447,-116.001 297.833,-128.908 352,-191 362.072,-202.545 371.076,-220.245 379.115,-242.186"/>
<polygon fill="black" stroke="black" points="375.889,-243.566 382.501,-251.844 382.495,-241.249 375.889,-243.566"/>
</g>
<!-- netlist -->
<g id="node20" class="node"><title>netlist</title>
<ellipse fill="none" stroke="black" cx="114" cy="-34" rx="41.1906" ry="18"/>
<text text-anchor="middle" x="114" y="-29.9" font-family="Times Roman,serif" font-size="14.00">netlist</text>
</g>
<!-- netlist&#45;&gt;pcbrnd -->
<g id="edge50" class="edge"><title>netlist&#45;&gt;pcbrnd</title>
<path fill="none" stroke="black" d="M155.416,-32.6046C209.206,-33.229 302.102,-43.0648 352,-99 375.098,-124.892 392.273,-177.835 405.042,-241.754"/>
<polygon fill="black" stroke="black" points="401.628,-242.535 406.973,-251.682 408.499,-241.197 401.628,-242.535"/>
<text text-anchor="middle" x="291" y="-103.4" font-family="Times Roman,serif" font-size="14.00">pcb .net</text>
</g>
<!-- ps&#45;&gt;pcbrnd -->
</g>
</svg>
