<?xml version="1.0" encoding="UTF-8" standalone="no"?>
<!DOCTYPE svg PUBLIC "-//W3C//DTD SVG 1.1//EN" "http://www.w3.org/Graphics/SVG/1.1/DTD/svg11.dtd">
<!-- Generated by aagraph -->
<svg width="1376pt" height="612pt" viewBox="-8 -18 1384 630" xmlns="http://www.w3.org/2000/svg" xmlns:xlink="http://www.w3.org/1999/xlink">
<g>
	<marker id="ahs" viewBox="0 0 60 60" refX="0" refY="30" markerUnits="strokeWidth" markerWidth="8" markerHeight="10" orient="auto">
		<path d="M 60 0 L 0 30 L 60 60 z" />
	</marker>
	<marker id="ahe" viewBox="-60 0 60 60" refX="0" refY="30" markerUnits="strokeWidth" markerWidth="8" markerHeight="10" orient="auto">
		<g transform="scale(-1 1)">
		<path d="M 60 0 L 0 30 L 60 60 z" />
		</g>
	</marker>

	<polygon fill="#00ffff" stroke="#000000"  points="224,165.6 1072,165.6  1072,410.4 224,410.4"/>
	<text fill="#000000" text-anchor="middle" x="648" y="288" font-family="Times,serif" font-size="14.00"><tspan dy="-0.2em">pcb-rnd</tspan></text>
	<polygon fill="#cccccc" stroke="#cccccc"  points="192,-14.4 1120,-14.4  1120,122.4 192,122.4"/>
	<text fill="#884433" text-anchor="middle" x="656" y="-14.4" font-family="Times,serif" font-size="14.00"><tspan dy="0.8em">input-output</tspan></text>
	<polygon fill="#cccccc" stroke="#cccccc"  points="192,453.6 1120,453.6  1120,590.4 192,590.4"/>
	<text fill="#884433" text-anchor="middle" x="656" y="590.4" font-family="Times,serif" font-size="14.00"><tspan dy="-0.2em">output-only</tspan></text>
	<polygon fill="#cccccc" stroke="#cccccc"  points="1152,129.6 1328,129.6  1328,446.4 1152,446.4"/>
	<text fill="#884433" text-anchor="middle" x="1240" y="129.6" font-family="Times,serif" font-size="14.00"><tspan dy="0.8em">HID (GUI)</tspan></text>
	<polygon fill="#cccccc" stroke="#cccccc"  points="0,129.6 96,129.6  96,446.4 0,446.4"/>
	<text fill="#884433" text-anchor="middle" x="48" y="129.6" font-family="Times,serif" font-size="14.00"><tspan dy="0.8em">input-only</tspan></text>
	<polygon fill="none" stroke="#000000"  points="224,21.6 416,21.6  416,50.4 224,50.4"/>
	<text fill="#000000" text-anchor="middle" x="320" y="36" font-family="Times,serif" font-size="14.00"><tspan dy="-0.2em">kicad</tspan><tspan x="320" dy="1em">pcbnew</tspan></text>
	<polygon fill="none" stroke="#000000"  points="1168,237.6 1296,237.6  1296,266.4 1168,266.4"/>
	<text fill="#000000" text-anchor="middle" x="1232" y="252" font-family="Times,serif" font-size="14.00"><tspan dy="-0.2em">gtk</tspan><tspan x="1232" dy="1em">gdk or gl render</tspan></text>
	<polygon fill="none" stroke="#aaaaaa"  points="1168,489.6 1296,489.6  1296,518.4 1168,518.4"/>
	<text fill="#aaaaaa" text-anchor="middle" x="1232" y="504" font-family="Times,serif" font-size="14.00"><tspan dy="-0.2em">web client</tspan><tspan x="1232" dy="1em">(javascript)</tspan></text>
	<polygon fill="none" stroke="#000000"  points="1168,165.6 1280,165.6  1280,194.4 1168,194.4"/>
	<text fill="#000000" text-anchor="middle" x="1224" y="180" font-family="Times,serif" font-size="14.00"><tspan dy="-0.2em">batch</tspan><tspan x="1224" dy="1em">CLI/automation</tspan></text>
	<polygon fill="none" stroke="#000000"  points="1168,309.6 1280,309.6  1280,338.4 1168,338.4"/>
	<text fill="#000000" text-anchor="middle" x="1224" y="324" font-family="Times,serif" font-size="14.00"><tspan dy="-0.2em">lesstif</tspan><tspan x="1224" dy="1em">(motif)</tspan></text>
	<polygon fill="none" stroke="#000000"  points="576,21.6 688,21.6  688,50.4 576,50.4"/>
	<text fill="#000000" text-anchor="middle" x="632" y="36" font-family="Times,serif" font-size="14.00"><tspan dy="-0.2em">gEDA</tspan><tspan x="632" dy="1em">pcb</tspan></text>
	<polygon fill="none" stroke="#000000"  points="1168,381.6 1264,381.6  1264,410.4 1168,410.4"/>
	<text fill="#000000" text-anchor="middle" x="1216" y="396" font-family="Times,serif" font-size="14.00"><tspan dy="-0.2em">remote</tspan><tspan x="1216" dy="1em">(network)</tspan></text>
	<polygon fill="none" stroke="#000000"  points="448,57.6 544,57.6  544,86.4 448,86.4"/>
	<text fill="#000000" text-anchor="middle" x="496" y="72" font-family="Times,serif" font-size="14.00"><tspan dy="-0.2em">freerouting.net</tspan><tspan x="496" dy="1em">autorouter</tspan></text>
	<polygon fill="none" stroke="#000000"  points="864,489.6 928,489.6  928,518.4 864,518.4"/>
	<text fill="#000000" text-anchor="middle" x="896" y="504" font-family="Times,serif" font-size="14.00"><tspan dy="-0.2em">ipcd356</tspan><tspan x="896" dy="1em">e-tester</tspan></text>
	<polygon fill="none" stroke="#000000"  points="704,489.6 768,489.6  768,518.4 704,518.4"/>
	<text fill="#000000" text-anchor="middle" x="736" y="504" font-family="Times,serif" font-size="14.00"><tspan dy="-0.2em">gerber</tspan></text>
	<polygon fill="none" stroke="#000000"  points="16,345.6 80,345.6  80,374.4 16,374.4"/>
	<text fill="#000000" text-anchor="middle" x="48" y="360" font-family="Times,serif" font-size="14.00"><tspan dy="-0.2em">(any)</tspan><tspan x="48" dy="1em">EDIF</tspan></text>
	<polygon fill="none" stroke="#000000"  points="16,309.6 80,309.6  80,338.4 16,338.4"/>
	<text fill="#000000" text-anchor="middle" x="48" y="324" font-family="Times,serif" font-size="14.00"><tspan dy="-0.2em">TinyCAD</tspan></text>
	<polygon fill="none" stroke="#000000"  points="16,273.6 80,273.6  80,302.4 16,302.4"/>
	<text fill="#000000" text-anchor="middle" x="48" y="288" font-family="Times,serif" font-size="14.00"><tspan dy="-0.2em">LTSpice</tspan></text>
	<polygon fill="none" stroke="#000000"  points="624,525.6 688,525.6  688,554.4 624,554.4"/>
	<text fill="#000000" text-anchor="middle" x="656" y="540" font-family="Times,serif" font-size="14.00"><tspan dy="-0.2em">svg</tspan></text>
	<polygon fill="none" stroke="#000000"  points="544,489.6 608,489.6  608,518.4 544,518.4"/>
	<text fill="#000000" text-anchor="middle" x="576" y="504" font-family="Times,serif" font-size="14.00"><tspan dy="-0.2em">XY</tspan><tspan x="576" dy="1em">templated</tspan></text>
	<polygon fill="none" stroke="#000000"  points="1024,489.6 1088,489.6  1088,518.4 1024,518.4"/>
	<text fill="#000000" text-anchor="middle" x="1056" y="504" font-family="Times,serif" font-size="14.00"><tspan dy="-0.2em">lpr</tspan><tspan x="1056" dy="1em">(print)</tspan></text>
	<polygon fill="none" stroke="#000000"  points="784,525.6 848,525.6  848,554.4 784,554.4"/>
	<text fill="#000000" text-anchor="middle" x="816" y="540" font-family="Times,serif" font-size="14.00"><tspan dy="-0.2em">png</tspan><tspan x="816" dy="1em">jpg, bmp</tspan></text>
	<polygon fill="none" stroke="#000000"  points="224,489.6 288,489.6  288,518.4 224,518.4"/>
	<text fill="#000000" text-anchor="middle" x="256" y="504" font-family="Times,serif" font-size="14.00"><tspan dy="-0.2em">breadboard</tspan></text>
	<polygon fill="none" stroke="#000000"  points="464,525.6 528,525.6  528,554.4 464,554.4"/>
	<text fill="#000000" text-anchor="middle" x="496" y="540" font-family="Times,serif" font-size="14.00"><tspan dy="-0.2em">ps</tspan><tspan x="496" dy="1em">postscript</tspan></text>
	<polygon fill="none" stroke="#000000"  points="16,201.6 80,201.6  80,230.4 16,230.4"/>
	<text fill="#000000" text-anchor="middle" x="48" y="216" font-family="Times,serif" font-size="14.00"><tspan dy="-0.2em">mucs PCB</tspan><tspan x="48" dy="1em">autorouter</tspan></text>
	<polygon fill="none" stroke="#000000"  points="16,237.6 80,237.6  80,266.4 16,266.4"/>
	<text fill="#000000" text-anchor="middle" x="48" y="252" font-family="Times,serif" font-size="14.00"><tspan dy="-0.2em">lepton</tspan><tspan x="48" dy="1em">EDA</tspan></text>
	<polygon fill="none" stroke="#000000"  points="944,525.6 1008,525.6  1008,554.4 944,554.4"/>
	<text fill="#000000" text-anchor="middle" x="976" y="540" font-family="Times,serif" font-size="14.00"><tspan dy="-0.2em">nelma</tspan><tspan x="976" dy="1em">(sim)</tspan></text>
	<polygon fill="none" stroke="#000000"  points="16,165.6 80,165.6  80,194.4 16,194.4"/>
	<text fill="#000000" text-anchor="middle" x="48" y="180" font-family="Times,serif" font-size="14.00"><tspan dy="-0.2em">kicad</tspan><tspan x="48" dy="1em">eeschema</tspan></text>
	<polygon fill="none" stroke="#000000"  points="384,489.6 448,489.6  448,518.4 384,518.4"/>
	<text fill="#000000" text-anchor="middle" x="416" y="504" font-family="Times,serif" font-size="14.00"><tspan dy="-0.2em">BOM</tspan></text>
	<polygon fill="none" stroke="#000000"  points="16,381.6 80,381.6  80,410.4 16,410.4"/>
	<text fill="#000000" text-anchor="middle" x="48" y="396" font-family="Times,serif" font-size="14.00"><tspan dy="-0.2em">(any)</tspan><tspan x="48" dy="1em">netlist</tspan></text>
	<polygon fill="none" stroke="#000000"  points="304,525.6 368,525.6  368,554.4 304,554.4"/>
	<text fill="#000000" text-anchor="middle" x="336" y="540" font-family="Times,serif" font-size="14.00"><tspan dy="-0.2em">stat</tspan><tspan x="336" dy="1em">statistics</tspan></text>
	<polygon fill="none" stroke="#000000"  points="784,21.6 848,21.6  848,50.4 784,50.4"/>
	<text fill="#000000" text-anchor="middle" x="816" y="36" font-family="Times,serif" font-size="14.00"><tspan dy="-0.2em">Mentor</tspan><tspan x="816" dy="1em">hyperlynx</tspan></text>
	<polygon fill="none" stroke="#000000"  points="944,21.6 1008,21.6  1008,50.4 944,50.4"/>
	<text fill="#000000" text-anchor="middle" x="976" y="36" font-family="Times,serif" font-size="14.00"><tspan dy="-0.2em">gEDA</tspan><tspan x="976" dy="1em">gschem</tspan></text>
	<polygon fill="none" stroke="#000000"  points="1024,57.6 1088,57.6  1088,86.4 1024,86.4"/>
	<text fill="#000000" text-anchor="middle" x="1056" y="72" font-family="Times,serif" font-size="14.00"><tspan dy="-0.2em">Eagle</tspan><tspan x="1056" dy="1em">(board)</tspan></text>
	<polygon fill="none" stroke="#000000"  points="704,57.6 768,57.6  768,86.4 704,86.4"/>
	<text fill="#000000" text-anchor="middle" x="736" y="72" font-family="Times,serif" font-size="14.00"><tspan dy="-0.2em">FidoCadJ</tspan><tspan x="736" dy="1em">(board)</tspan></text>
	<polygon fill="none" stroke="#000000"  points="864,57.6 928,57.6  928,86.4 864,86.4"/>
	<text fill="#000000" text-anchor="middle" x="896" y="72" font-family="Times,serif" font-size="14.00"><tspan dy="-0.2em">Protel</tspan><tspan x="896" dy="1em">Autotrax</tspan></text>
	<line  marker-end="url(#ahe)"  x1="80" y1="216" x2="224" y2="216" stroke="#000000"/>
	<text fill="#000000" text-anchor="middle" x="152" y="216" font-family="Times,serif" font-size="14.00"><tspan dy="-0.2em">import</tspan><tspan x="152" dy="1em">netlist</tspan></text>
	<line  marker-end="url(#ahe)"  x1="80" y1="252" x2="224" y2="252" stroke="#000000"/>
	<text fill="#000000" text-anchor="middle" x="152" y="252" font-family="Times,serif" font-size="14.00"><tspan dy="-0.2em">import</tspan><tspan x="152" dy="1em">schematics</tspan></text>
	<line  marker-end="url(#ahe)"  x1="80" y1="360" x2="224" y2="360" stroke="#000000"/>
	<text fill="#000000" text-anchor="middle" x="152" y="360" font-family="Times,serif" font-size="14.00"><tspan dy="-0.2em">import</tspan><tspan x="152" dy="1em">schematics</tspan></text>
	<line  marker-end="url(#ahe)"  x1="80" y1="288" x2="224" y2="288" stroke="#000000"/>
	<text fill="#000000" text-anchor="middle" x="152" y="288" font-family="Times,serif" font-size="14.00"><tspan dy="-0.2em">import</tspan><tspan x="152" dy="1em">schematics</tspan></text>
	<line  marker-end="url(#ahe)" marker-start="url(#ahs)"  x1="816" y1="50.4" x2="816" y2="165.6" stroke="#000000"/>
	<g transform="rotate(-90 816 108)">
	<text fill="#000000" text-anchor="middle" x="816" y="108" font-family="Times,serif" font-size="14.00"><tspan dy="-0.2em">board</tspan></text>
	</g>
	<line  marker-end="url(#ahe)"  x1="80" y1="396" x2="224" y2="396" stroke="#000000"/>
	<text fill="#000000" text-anchor="middle" x="152" y="396" font-family="Times,serif" font-size="14.00"><tspan dy="-0.2em">import</tspan><tspan x="152" dy="1em">netlist</tspan></text>
	<line  marker-end="url(#ahe)" marker-start="url(#ahs)"  x1="665.6" y1="50.4" x2="665.6" y2="165.6" stroke="#000000"/>
	<g transform="rotate(-90 665.6 108)">
	<text fill="#000000" text-anchor="middle" x="665.6" y="108" font-family="Times,serif" font-size="14.00"><tspan dy="-0.2em">footprint</tspan></text>
	</g>
	<line  marker-end="url(#ahe)"  x1="80" y1="324" x2="224" y2="324" stroke="#000000"/>
	<text fill="#000000" text-anchor="middle" x="152" y="324" font-family="Times,serif" font-size="14.00"><tspan dy="-0.2em">import</tspan><tspan x="152" dy="1em">schematics</tspan></text>
	<line  marker-end="url(#ahe)" marker-start="url(#ahs)"  x1="976" y1="50.4" x2="976" y2="165.6" stroke="#000000"/>
	<g transform="rotate(-90 976 108)">
	<text fill="#000000" text-anchor="middle" x="976" y="108" font-family="Times,serif" font-size="14.00"><tspan dy="-0.2em">schematics</tspan></text>
	</g>
	<line  marker-end="url(#ahe)" marker-start="url(#ahs)"  x1="243.2" y1="50.4" x2="243.2" y2="165.6" stroke="#000000"/>
	<g transform="rotate(-90 243.2 108)">
	<text fill="#000000" text-anchor="middle" x="243.2" y="108" font-family="Times,serif" font-size="14.00"><tspan dy="-0.2em">board</tspan><tspan x="243.2" dy="1em">s-expr</tspan></text>
	</g>
	<line  marker-end="url(#ahe)" marker-start="url(#ahs)"  x1="598.4" y1="50.4" x2="598.4" y2="165.6" stroke="#000000"/>
	<g transform="rotate(-90 598.4 108)">
	<text fill="#000000" text-anchor="middle" x="598.4" y="108" font-family="Times,serif" font-size="14.00"><tspan dy="-0.2em">board</tspan></text>
	</g>
	<line  marker-end="url(#ahe)" marker-start="url(#ahs)"  x1="496" y1="86.4" x2="496" y2="165.6" stroke="#000000"/>
	<g transform="rotate(-90 496 126)">
	<text fill="#000000" text-anchor="middle" x="496" y="126" font-family="Times,serif" font-size="14.00"><tspan dy="-0.2em">board</tspan></text>
	</g>
	<line  marker-end="url(#ahe)"  x1="576" y1="410.4" x2="576" y2="489.6" stroke="#000000"/>
	<g transform="rotate(-90 576 450)">
	<text fill="#000000" text-anchor="middle" x="576" y="450" font-family="Times,serif" font-size="14.00"><tspan dy="-0.2em">.xy</tspan></text>
	</g>
	<line  marker-end="url(#ahe)"  x1="320" y1="50.4" x2="320" y2="165.6" stroke="#000000"/>
	<g transform="rotate(-90 320 108)">
	<text fill="#000000" text-anchor="middle" x="320" y="108" font-family="Times,serif" font-size="14.00"><tspan dy="-0.2em">board</tspan><tspan x="320" dy="1em">legace</tspan></text>
	</g>
	<line  marker-end="url(#ahe)"  x1="256" y1="410.4" x2="256" y2="489.6" stroke="#000000"/>
	<g transform="rotate(-90 256 450)">
	<text fill="#000000" text-anchor="middle" x="256" y="450" font-family="Times,serif" font-size="14.00"><tspan dy="-0.2em">.png</tspan></text>
	</g>
	<line  marker-end="url(#ahe)" marker-start="url(#ahs)"  x1="1056" y1="86.4" x2="1056" y2="165.6" stroke="#000000"/>
	<g transform="rotate(-90 1056 126)">
	<text fill="#000000" text-anchor="middle" x="1056" y="126" font-family="Times,serif" font-size="14.00"><tspan dy="-0.2em">board</tspan></text>
	</g>
	<line  marker-end="url(#ahe)" marker-start="url(#ahs)"  x1="736" y1="86.4" x2="736" y2="165.6" stroke="#000000"/>
	<g transform="rotate(-90 736 126)">
	<text fill="#000000" text-anchor="middle" x="736" y="126" font-family="Times,serif" font-size="14.00"><tspan dy="-0.2em">board</tspan></text>
	</g>
	<line  marker-end="url(#ahe)"  x1="736" y1="410.4" x2="736" y2="489.6" stroke="#000000"/>
	<g transform="rotate(-90 736 450)">
	<text fill="#000000" text-anchor="middle" x="736" y="450" font-family="Times,serif" font-size="14.00"><tspan dy="-0.2em">.grb, .cnc</tspan></text>
	</g>
	<line  marker-end="url(#ahe)" marker-start="url(#ahs)"  x1="396.8" y1="50.4" x2="396.8" y2="165.6" stroke="#000000"/>
	<g transform="rotate(-90 396.8 108)">
	<text fill="#000000" text-anchor="middle" x="396.8" y="108" font-family="Times,serif" font-size="14.00"><tspan dy="-0.2em">footprint</tspan><tspan x="396.8" dy="1em">s-expr</tspan></text>
	</g>
	<line  marker-end="url(#ahe)"  x1="416" y1="410.4" x2="416" y2="489.6" stroke="#000000"/>
	<g transform="rotate(-90 416 450)">
	<text fill="#000000" text-anchor="middle" x="416" y="450" font-family="Times,serif" font-size="14.00"><tspan dy="-0.2em">text</tspan></text>
	</g>
	<line  marker-end="url(#ahe)"  x1="1056" y1="410.4" x2="1056" y2="489.6" stroke="#000000"/>
	<g transform="rotate(-90 1056 450)">
	<text fill="#000000" text-anchor="middle" x="1056" y="450" font-family="Times,serif" font-size="14.00"><tspan dy="-0.2em">ps</tspan></text>
	</g>
	<line  marker-end="url(#ahe)" marker-start="url(#ahs)"  x1="1072" y1="396" x2="1168" y2="396" stroke="#000000"/>
	<line  marker-end="url(#ahe)" marker-start="url(#ahs)"  x1="1072" y1="180" x2="1168" y2="180" stroke="#000000"/>
	<line  marker-end="url(#ahe)" marker-start="url(#ahs)"  x1="896" y1="86.4" x2="896" y2="165.6" stroke="#000000"/>
	<g transform="rotate(-90 896 126)">
	<text fill="#000000" text-anchor="middle" x="896" y="126" font-family="Times,serif" font-size="14.00"><tspan dy="-0.2em">board</tspan></text>
	</g>
	<line  marker-end="url(#ahe)"  x1="80" y1="180" x2="224" y2="180" stroke="#000000"/>
	<text fill="#000000" text-anchor="middle" x="152" y="180" font-family="Times,serif" font-size="14.00"><tspan dy="-0.2em">import</tspan><tspan x="152" dy="1em">schematics</tspan></text>
	<line  marker-end="url(#ahe)"  x1="656" y1="410.4" x2="656" y2="525.6" stroke="#000000"/>
	<g transform="rotate(-90 656 468)">
	<text fill="#000000" text-anchor="middle" x="656" y="468" font-family="Times,serif" font-size="14.00"><tspan dy="-0.2em">svg</tspan></text>
	</g>
	<line  marker-end="url(#ahe)" marker-start="url(#ahs)"  x1="1216" y1="410.4" x2="1216" y2="489.6" stroke="#000000"/>
	<g transform="rotate(-90 1216 450)">
	<text fill="#000000" text-anchor="middle" x="1216" y="450" font-family="Times,serif" font-size="14.00"><tspan dy="-0.2em">TCP/IP</tspan></text>
	</g>
	<line  marker-end="url(#ahe)"  x1="336" y1="410.4" x2="336" y2="525.6" stroke="#000000"/>
	<g transform="rotate(-90 336 468)">
	<text fill="#000000" text-anchor="middle" x="336" y="468" font-family="Times,serif" font-size="14.00"><tspan dy="-0.2em">lihata</tspan></text>
	</g>
	<line  marker-end="url(#ahe)" marker-start="url(#ahs)"  x1="1072" y1="252" x2="1168" y2="252" stroke="#000000"/>
	<line  marker-end="url(#ahe)"  x1="896" y1="410.4" x2="896" y2="489.6" stroke="#000000"/>
	<g transform="rotate(-90 896 450)">
	<text fill="#000000" text-anchor="middle" x="896" y="450" font-family="Times,serif" font-size="14.00"><tspan dy="-0.2em">IPC356D</tspan></text>
	</g>
	<line  marker-end="url(#ahe)" marker-start="url(#ahs)"  x1="1072" y1="324" x2="1168" y2="324" stroke="#000000"/>
	<line  marker-end="url(#ahe)"  x1="816" y1="410.4" x2="816" y2="525.6" stroke="#000000"/>
	<line  marker-end="url(#ahe)"  x1="496" y1="410.4" x2="496" y2="525.6" stroke="#000000"/>
	<g transform="rotate(-90 496 468)">
	<text fill="#000000" text-anchor="middle" x="496" y="468" font-family="Times,serif" font-size="14.00"><tspan dy="-0.2em">postscript</tspan></text>
	</g>
	<line  marker-end="url(#ahe)"  x1="976" y1="410.4" x2="976" y2="525.6" stroke="#000000"/>
</g>
</svg>
