<?xml version="1.0" encoding="UTF-8" standalone="no"?>
<!DOCTYPE svg PUBLIC "-//W3C//DTD SVG 1.1//EN"
 "http://www.w3.org/Graphics/SVG/1.1/DTD/svg11.dtd">
<!-- Generated by graphviz version 2.40.1 (20161225.0304)
 -->
<!-- Title: pcb_data Pages: 1 -->
<svg width="1271pt" height="1404pt"
 viewBox="0.00 0.00 1270.57 1403.57" xmlns="http://www.w3.org/2000/svg" xmlns:xlink="http://www.w3.org/1999/xlink">
<g id="graph0" class="graph" transform="scale(1 1) rotate(0) translate(4 1399.5656)">
<title>pcb_data</title>
<polygon fill="#ffffff" stroke="transparent" points="-4,4 -4,-1399.5656 1266.5685,-1399.5656 1266.5685,4 -4,4"/>
<g id="clust1" class="cluster">
<title>cluster_1</title>
<polygon fill="#c0c0c0" stroke="#000000" points="649,-8 649,-123 1191,-123 1191,-8 649,-8"/>
<text text-anchor="middle" x="920" y="-107.8" font-family="Times,serif" font-size="14.00" fill="#000000">LEGEND</text>
</g>
<!-- PCBType_misc -->
<g id="node1" class="node">
<title>PCBType_misc</title>
<ellipse fill="none" stroke="#000000" cx="272" cy="-900.6295" rx="71.3357" ry="132.8722"/>
<text text-anchor="middle" x="272" y="-979.4295" font-family="Times,serif" font-size="14.00" fill="#000000">misc fields:</text>
<text text-anchor="middle" x="272" y="-964.4295" font-family="Times,serif" font-size="14.00" fill="#000000">ID</text>
<text text-anchor="middle" x="272" y="-949.4295" font-family="Times,serif" font-size="14.00" fill="#000000">Name</text>
<text text-anchor="middle" x="272" y="-934.4295" font-family="Times,serif" font-size="14.00" fill="#000000">FileName</text>
<text text-anchor="middle" x="272" y="-919.4295" font-family="Times,serif" font-size="14.00" fill="#000000">colors</text>
<text text-anchor="middle" x="272" y="-904.4295" font-family="Times,serif" font-size="14.00" fill="#000000">drc settings</text>
<text text-anchor="middle" x="272" y="-889.4295" font-family="Times,serif" font-size="14.00" fill="#000000">cursor coords</text>
<text text-anchor="middle" x="272" y="-874.4295" font-family="Times,serif" font-size="14.00" fill="#000000">grid</text>
<text text-anchor="middle" x="272" y="-859.4295" font-family="Times,serif" font-size="14.00" fill="#000000">layergroups</text>
<text text-anchor="middle" x="272" y="-844.4295" font-family="Times,serif" font-size="14.00" fill="#000000">route styles</text>
<text text-anchor="middle" x="272" y="-829.4295" font-family="Times,serif" font-size="14.00" fill="#000000">padstack protos</text>
<text text-anchor="middle" x="272" y="-814.4295" font-family="Times,serif" font-size="14.00" fill="#000000">...</text>
</g>
<!-- PCBType_flags -->
<g id="node2" class="node">
<title>PCBType_flags</title>
<ellipse fill="none" stroke="#000000" cx="454" cy="-900.6295" rx="92.7622" ry="48.1667"/>
<text text-anchor="middle" x="454" y="-919.4295" font-family="Times,serif" font-size="14.00" fill="#000000">flags:</text>
<text text-anchor="middle" x="454" y="-904.4295" font-family="Times,serif" font-size="14.00" fill="#000000">Changed</text>
<text text-anchor="middle" x="454" y="-889.4295" font-family="Times,serif" font-size="14.00" fill="#000000">ViaOn (vias drawn?)</text>
<text text-anchor="middle" x="454" y="-874.4295" font-family="Times,serif" font-size="14.00" fill="#000000">...</text>
</g>
<!-- pcb_board_t -->
<g id="node3" class="node">
<title>pcb_board_t</title>
<polygon fill="none" stroke="#000000" points="491,-1164.5656 407,-1164.5656 407,-1128.5656 491,-1128.5656 491,-1164.5656"/>
<text text-anchor="middle" x="449" y="-1142.8656" font-family="Times,serif" font-size="14.00" fill="#000000">pcb_board_t</text>
</g>
<!-- pcb_board_t&#45;&gt;PCBType_misc -->
<g id="edge1" class="edge">
<title>pcb_board_t&#45;&gt;PCBType_misc</title>
<path fill="none" stroke="#000000" d="M431.8704,-1128.5562C411.6629,-1106.8866 377.5848,-1068.9861 352,-1033.5656 344.459,-1023.1255 336.9442,-1011.948 329.7089,-1000.6728"/>
<polygon fill="#000000" stroke="#000000" points="332.5466,-998.6121 324.2348,-992.0421 326.6353,-1002.3614 332.5466,-998.6121"/>
</g>
<!-- pcb_board_t&#45;&gt;PCBType_flags -->
<g id="edge2" class="edge">
<title>pcb_board_t&#45;&gt;PCBType_flags</title>
<path fill="none" stroke="#000000" d="M449.3677,-1128.4813C450.0817,-1093.3615 451.6839,-1014.5535 452.8028,-959.5149"/>
<polygon fill="#000000" stroke="#000000" points="456.3087,-959.2567 453.0128,-949.1876 449.3102,-959.1143 456.3087,-959.2567"/>
</g>
<!-- pcb_data_t -->
<g id="node4" class="node">
<title>pcb_data_t</title>
<polygon fill="none" stroke="#000000" points="660,-918.6295 584,-918.6295 584,-882.6295 660,-882.6295 660,-918.6295"/>
<text text-anchor="middle" x="622" y="-896.9295" font-family="Times,serif" font-size="14.00" fill="#000000">pcb_data_t</text>
</g>
<!-- pcb_board_t&#45;&gt;pcb_data_t -->
<g id="edge3" class="edge">
<title>pcb_board_t&#45;&gt;pcb_data_t</title>
<path fill="none" stroke="#000000" d="M469.4403,-1128.5031C492.5072,-1107.3764 530.1718,-1070.561 556,-1033.5656 579.6463,-999.6954 599.559,-956.1144 611.1413,-928.2672"/>
<polygon fill="#000000" stroke="#000000" points="614.4807,-929.3476 615.0231,-918.7666 608.0007,-926.6999 614.4807,-929.3476"/>
</g>
<!-- DataType_listrt -->
<g id="node19" class="node">
<title>DataType_listrt</title>
<ellipse fill="none" stroke="#000000" cx="213" cy="-645.8234" rx="128.0773" ry="18"/>
<text text-anchor="middle" x="213" y="-642.1234" font-family="Times,serif" font-size="14.00" fill="#000000">layer&#45;independent lists and rtrees</text>
</g>
<!-- pcb_data_t&#45;&gt;DataType_listrt -->
<g id="edge11" class="edge">
<title>pcb_data_t:s&#45;&gt;DataType_listrt</title>
<path fill="none" stroke="#000000" d="M622,-882.6295C622,-823.7238 601.2252,-805.4369 556,-767.6934 513.7783,-732.4566 370.4309,-688.8031 282.974,-664.4636"/>
<polygon fill="#000000" stroke="#000000" points="283.6916,-661.0307 273.1204,-661.7372 281.8249,-667.7772 283.6916,-661.0307"/>
</g>
<!-- DataType_LayerN -->
<g id="node20" class="node">
<title>DataType_LayerN</title>
<ellipse fill="none" stroke="#000000" cx="445" cy="-645.8234" rx="86.0347" ry="26.7407"/>
<text text-anchor="middle" x="445" y="-649.6234" font-family="Times,serif" font-size="14.00" fill="#000000">LayerN: number of</text>
<text text-anchor="middle" x="445" y="-634.6234" font-family="Times,serif" font-size="14.00" fill="#000000">layers in use</text>
</g>
<!-- pcb_data_t&#45;&gt;DataType_LayerN -->
<g id="edge9" class="edge">
<title>pcb_data_t:s&#45;&gt;DataType_LayerN</title>
<path fill="none" stroke="#000000" d="M622,-882.6295C622,-793.9576 541.3937,-717.1214 488.9731,-676.528"/>
<polygon fill="#000000" stroke="#000000" points="490.8974,-673.5943 480.8186,-670.328 486.6606,-679.1666 490.8974,-673.5943"/>
</g>
<!-- DataType_layers -->
<g id="node21" class="node">
<title>DataType_layers</title>
<ellipse fill="none" stroke="#000000" cx="622" cy="-645.8234" rx="72.5877" ry="18"/>
<text text-anchor="middle" x="622" y="-642.1234" font-family="Times,serif" font-size="14.00" fill="#000000">an array of layers</text>
</g>
<!-- pcb_data_t&#45;&gt;DataType_layers -->
<g id="edge10" class="edge">
<title>pcb_data_t:s&#45;&gt;DataType_layers</title>
<path fill="none" stroke="#000000" d="M622,-882.6295C622,-807.238 622,-718.3453 622,-673.9793"/>
<polygon fill="#000000" stroke="#000000" points="625.5001,-673.9456 622,-663.9457 618.5001,-673.9457 625.5001,-673.9456"/>
</g>
<!-- DataType_misc -->
<g id="node22" class="node">
<title>DataType_misc</title>
<ellipse fill="none" stroke="#000000" cx="763" cy="-645.8234" rx="50.0912" ry="18"/>
<text text-anchor="middle" x="763" y="-642.1234" font-family="Times,serif" font-size="14.00" fill="#000000">misc fields</text>
</g>
<!-- pcb_data_t&#45;&gt;DataType_misc -->
<g id="edge8" class="edge">
<title>pcb_data_t:s&#45;&gt;DataType_misc</title>
<path fill="none" stroke="#000000" d="M622,-882.6295C622,-794.0759 695.6923,-709.7956 736.5268,-669.8915"/>
<polygon fill="#000000" stroke="#000000" points="739.1892,-672.1876 743.9841,-662.7399 734.3441,-667.1354 739.1892,-672.1876"/>
</g>
<!-- DataType_rtrees -->
<g id="node23" class="node">
<title>DataType_rtrees</title>
<ellipse fill="none" stroke="#000000" cx="901" cy="-645.8234" rx="69.5877" ry="18"/>
<text text-anchor="middle" x="901" y="-642.1234" font-family="Times,serif" font-size="14.00" fill="#000000">DataType_rtrees</text>
</g>
<!-- pcb_data_t&#45;&gt;DataType_rtrees -->
<g id="edge12" class="edge">
<title>pcb_data_t:s&#45;&gt;DataType_rtrees</title>
<path fill="none" stroke="#000000" d="M622,-882.6295C622,-765.4117 766.9162,-694.1522 847.8655,-663.4909"/>
<polygon fill="#000000" stroke="#000000" points="849.2473,-666.7114 857.4063,-659.9526 846.8132,-660.1482 849.2473,-666.7114"/>
</g>
<!-- pcb_data_t2 -->
<g id="node5" class="node">
<title>pcb_data_t2</title>
<text text-anchor="middle" x="51" y="-366.7767" font-family="Times,serif" font-size="14.00" fill="#000000">another level of</text>
<text text-anchor="middle" x="51" y="-351.7767" font-family="Times,serif" font-size="14.00" fill="#000000">pcb_data_t</text>
<text text-anchor="middle" x="51" y="-336.7767" font-family="Times,serif" font-size="14.00" fill="#000000">...</text>
</g>
<!-- pcb_subc_t -->
<g id="node6" class="node">
<title>pcb_subc_t</title>
<polygon fill="#aaffaa" stroke="#aaffaa" points="90,-523.9533 12,-523.9533 12,-487.9533 90,-487.9533 90,-523.9533"/>
<text text-anchor="middle" x="51" y="-502.2533" font-family="Times,serif" font-size="14.00" fill="#000000">pcb_subc_t</text>
</g>
<!-- pcb_subc_t&#45;&gt;pcb_data_t2 -->
<g id="edge18" class="edge">
<title>pcb_subc_t&#45;&gt;pcb_data_t2</title>
<path fill="none" stroke="#000000" d="M51,-487.8023C51,-464.2379 51,-422.5494 51,-392.2481"/>
<polygon fill="#000000" stroke="#000000" points="54.5001,-392.0534 51,-382.0534 47.5001,-392.0534 54.5001,-392.0534"/>
</g>
<!-- pcb_rat_line_t -->
<g id="node7" class="node">
<title>pcb_rat_line_t</title>
<polygon fill="#aaffaa" stroke="#aaffaa" points="203.5,-523.9533 108.5,-523.9533 108.5,-487.9533 203.5,-487.9533 203.5,-523.9533"/>
<text text-anchor="middle" x="156" y="-502.2533" font-family="Times,serif" font-size="14.00" fill="#000000">pcb_rat_line_t</text>
</g>
<!-- pcb_pstk_t -->
<g id="node8" class="node">
<title>pcb_pstk_t</title>
<polygon fill="#aaffaa" stroke="#aaffaa" points="298,-523.9533 222,-523.9533 222,-487.9533 298,-487.9533 298,-523.9533"/>
<text text-anchor="middle" x="260" y="-502.2533" font-family="Times,serif" font-size="14.00" fill="#000000">pcb_pstk_t</text>
</g>
<!-- pcb_padstack_proto_t -->
<g id="node9" class="node">
<title>pcb_padstack_proto_t</title>
<polygon fill="none" stroke="#000000" points="471,-523.9533 335,-523.9533 335,-487.9533 471,-487.9533 471,-523.9533"/>
<text text-anchor="middle" x="403" y="-502.2533" font-family="Times,serif" font-size="14.00" fill="#000000">pcb_padstack_proto_t</text>
</g>
<!-- pcb_pstk_t&#45;&gt;pcb_padstack_proto_t -->
<g id="edge19" class="edge">
<title>pcb_pstk_t&#45;&gt;pcb_padstack_proto_t</title>
<path fill="none" stroke="#0000ff" d="M298.3214,-505.9533C306.4962,-505.9533 315.4146,-505.9533 324.485,-505.9533"/>
<polygon fill="#0000ff" stroke="#0000ff" points="324.7589,-509.4534 334.7589,-505.9533 324.7589,-502.4534 324.7589,-509.4534"/>
<text text-anchor="middle" x="316.5" y="-527.7533" font-family="Times,serif" font-size="14.00" fill="#000000">id</text>
<text text-anchor="middle" x="316.5" y="-512.7533" font-family="Times,serif" font-size="14.00" fill="#000000">ref.</text>
</g>
<!-- pcb_arc_t -->
<g id="node10" class="node">
<title>pcb_arc_t</title>
<polygon fill="#aaffaa" stroke="#aaffaa" points="452,-223 382,-223 382,-187 452,-187 452,-223"/>
<text text-anchor="middle" x="417" y="-201.3" font-family="Times,serif" font-size="14.00" fill="#000000">pcb_arc_t</text>
</g>
<!-- pcb_gfx_t -->
<g id="node11" class="node">
<title>pcb_gfx_t</title>
<polygon fill="#aaffaa" stroke="#aaffaa" points="634.5,-223 563.5,-223 563.5,-187 634.5,-187 634.5,-223"/>
<text text-anchor="middle" x="599" y="-201.3" font-family="Times,serif" font-size="14.00" fill="#000000">pcb_gfx_t</text>
</g>
<!-- pcb_line_t -->
<g id="node12" class="node">
<title>pcb_line_t</title>
<polygon fill="#aaffaa" stroke="#aaffaa" points="271,-223 197,-223 197,-187 271,-187 271,-223"/>
<text text-anchor="middle" x="234" y="-201.3" font-family="Times,serif" font-size="14.00" fill="#000000">pcb_line_t</text>
</g>
<!-- pcb_text_t -->
<g id="node13" class="node">
<title>pcb_text_t</title>
<polygon fill="#aaffaa" stroke="#aaffaa" points="844,-223 770,-223 770,-187 844,-187 844,-223"/>
<text text-anchor="middle" x="807" y="-201.3" font-family="Times,serif" font-size="14.00" fill="#000000">pcb_text_t</text>
</g>
<!-- pcb_poly_t -->
<g id="node14" class="node">
<title>pcb_poly_t</title>
<polygon fill="#aaffaa" stroke="#aaffaa" points="1070.5,-223 993.5,-223 993.5,-187 1070.5,-187 1070.5,-223"/>
<text text-anchor="middle" x="1032" y="-201.3" font-family="Times,serif" font-size="14.00" fill="#000000">pcb_poly_t</text>
</g>
<!-- struct -->
<g id="node32" class="node">
<title>struct</title>
<polygon fill="none" stroke="#000000" points="1059,-73 1005,-73 1005,-35 1059,-35 1059,-73"/>
<text text-anchor="middle" x="1032" y="-57.8" font-family="Times,serif" font-size="14.00" fill="#000000">box:</text>
<text text-anchor="middle" x="1032" y="-42.8" font-family="Times,serif" font-size="14.00" fill="#000000">struct</text>
</g>
<!-- pcb_poly_t&#45;&gt;struct -->
<!-- PCB -->
<g id="node15" class="node">
<title>PCB</title>
<polygon fill="none" stroke="#000000" points="411,-1395.5656 260,-1327.5656 411,-1259.5656 562,-1327.5656 411,-1395.5656"/>
<text text-anchor="middle" x="411" y="-1346.3656" font-family="Times,serif" font-size="14.00" fill="#000000">extern pcb_board_t PCB</text>
<text text-anchor="middle" x="411" y="-1331.3656" font-family="Times,serif" font-size="14.00" fill="#000000">global variable</text>
<text text-anchor="middle" x="411" y="-1316.3656" font-family="Times,serif" font-size="14.00" fill="#000000">holding the current</text>
<text text-anchor="middle" x="411" y="-1301.3656" font-family="Times,serif" font-size="14.00" fill="#000000">board</text>
</g>
<!-- PCB&#45;&gt;pcb_board_t -->
<g id="edge4" class="edge">
<title>PCB&#45;&gt;pcb_board_t</title>
<path fill="none" stroke="#000000" d="M424.0774,-1265.2757C430.5481,-1234.4548 438.0371,-1198.7838 443.1031,-1174.6533"/>
<polygon fill="#000000" stroke="#000000" points="446.5525,-1175.2577 445.1819,-1164.7519 439.7018,-1173.8194 446.5525,-1175.2577"/>
</g>
<!-- Buffers -->
<g id="node16" class="node">
<title>Buffers</title>
<polygon fill="none" stroke="#000000" points="757,-1380.5656 580,-1327.5656 757,-1274.5656 934,-1327.5656 757,-1380.5656"/>
<text text-anchor="middle" x="757" y="-1338.8656" font-family="Times,serif" font-size="14.00" fill="#000000">extern pcb_buffer_t Buffers[]</text>
<text text-anchor="middle" x="757" y="-1323.8656" font-family="Times,serif" font-size="14.00" fill="#000000">global variable holding</text>
<text text-anchor="middle" x="757" y="-1308.8656" font-family="Times,serif" font-size="14.00" fill="#000000">all paste buffers</text>
</g>
<!-- pcb_buffer_t -->
<g id="node17" class="node">
<title>pcb_buffer_t</title>
<polygon fill="none" stroke="#000000" points="795,-1164.5656 709,-1164.5656 709,-1128.5656 795,-1128.5656 795,-1164.5656"/>
<text text-anchor="middle" x="752" y="-1142.8656" font-family="Times,serif" font-size="14.00" fill="#000000">pcb_buffer_t</text>
</g>
<!-- Buffers&#45;&gt;pcb_buffer_t -->
<g id="edge5" class="edge">
<title>Buffers&#45;&gt;pcb_buffer_t</title>
<path fill="none" stroke="#000000" d="M755.5404,-1274.7263C754.6385,-1242.0778 753.5167,-1201.4702 752.7806,-1174.8243"/>
<polygon fill="#000000" stroke="#000000" points="756.2748,-1174.5626 752.4999,-1164.6631 749.2775,-1174.756 756.2748,-1174.5626"/>
</g>
<!-- pcb_buffer_t&#45;&gt;pcb_data_t -->
<g id="edge7" class="edge">
<title>pcb_buffer_t&#45;&gt;pcb_data_t</title>
<path fill="none" stroke="#000000" d="M738.6225,-1128.4043C722.9088,-1106.5885 696.6249,-1068.5475 678,-1033.5656 659.3195,-998.4791 642.2761,-955.7983 632.0207,-928.4279"/>
<polygon fill="#000000" stroke="#000000" points="635.1869,-926.8987 628.4334,-918.7353 628.6221,-929.3285 635.1869,-926.8987"/>
</g>
<!-- BufferType_misc -->
<g id="node18" class="node">
<title>BufferType_misc</title>
<ellipse fill="none" stroke="#000000" cx="752" cy="-900.6295" rx="65.1077" ry="37.4533"/>
<text text-anchor="middle" x="752" y="-911.9295" font-family="Times,serif" font-size="14.00" fill="#000000">misc fields:</text>
<text text-anchor="middle" x="752" y="-896.9295" font-family="Times,serif" font-size="14.00" fill="#000000">bounding box</text>
<text text-anchor="middle" x="752" y="-881.9295" font-family="Times,serif" font-size="14.00" fill="#000000">offset</text>
</g>
<!-- pcb_buffer_t&#45;&gt;BufferType_misc -->
<g id="edge6" class="edge">
<title>pcb_buffer_t&#45;&gt;BufferType_misc</title>
<path fill="none" stroke="#000000" d="M752,-1128.4813C752,-1090.9646 752,-1003.5928 752,-948.5995"/>
<polygon fill="#000000" stroke="#000000" points="755.5001,-948.3921 752,-938.3921 748.5001,-948.3922 755.5001,-948.3921"/>
</g>
<!-- DataType_listrt&#45;&gt;pcb_subc_t -->
<g id="edge14" class="edge">
<title>DataType_listrt&#45;&gt;pcb_subc_t</title>
<path fill="none" stroke="#000000" d="M192.153,-627.8242C163.5558,-603.1335 112.042,-558.6567 79.7842,-530.8055"/>
<polygon fill="#000000" stroke="#000000" points="81.8801,-527.991 72.0236,-524.105 77.3054,-533.2894 81.8801,-527.991"/>
</g>
<!-- DataType_listrt&#45;&gt;pcb_rat_line_t -->
<g id="edge15" class="edge">
<title>DataType_listrt&#45;&gt;pcb_rat_line_t</title>
<path fill="none" stroke="#000000" d="M205.6649,-627.8242C195.9708,-604.0362 178.7923,-561.8823 167.3991,-533.925"/>
<polygon fill="#000000" stroke="#000000" points="170.503,-532.2673 163.4879,-524.3276 164.0206,-534.909 170.503,-532.2673"/>
</g>
<!-- DataType_listrt&#45;&gt;pcb_pstk_t -->
<g id="edge16" class="edge">
<title>DataType_listrt&#45;&gt;pcb_pstk_t</title>
<path fill="none" stroke="#000000" d="M219.0482,-627.8242C227.0416,-604.0362 241.2064,-561.8823 250.6008,-533.925"/>
<polygon fill="#000000" stroke="#000000" points="253.9582,-534.9216 253.8258,-524.3276 247.3227,-532.6919 253.9582,-534.9216"/>
</g>
<!-- DataType_listrt&#45;&gt;pcb_padstack_proto_t -->
<g id="edge17" class="edge">
<title>DataType_listrt&#45;&gt;pcb_padstack_proto_t</title>
<path fill="none" stroke="#000000" d="M237.0636,-628.1087C270.8556,-603.2325 332.468,-557.876 370.3629,-529.9794"/>
<polygon fill="#000000" stroke="#000000" points="372.5534,-532.713 378.5316,-523.9659 368.4034,-527.0758 372.5534,-532.713"/>
</g>
<!-- pcb_layer_t -->
<g id="node24" class="node">
<title>pcb_layer_t</title>
<polygon fill="none" stroke="#000000" points="662,-523.9533 582,-523.9533 582,-487.9533 662,-487.9533 662,-523.9533"/>
<text text-anchor="middle" x="622" y="-502.2533" font-family="Times,serif" font-size="14.00" fill="#000000">pcb_layer_t</text>
</g>
<!-- DataType_layers&#45;&gt;pcb_layer_t -->
<g id="edge13" class="edge">
<title>DataType_layers&#45;&gt;pcb_layer_t</title>
<path fill="none" stroke="#000000" d="M622,-627.5378C622,-603.8731 622,-562.3815 622,-534.5369"/>
<polygon fill="#000000" stroke="#000000" points="625.5001,-534.2433 622,-524.2434 618.5001,-534.2434 625.5001,-534.2433"/>
</g>
<!-- LayerType_lines -->
<g id="node25" class="node">
<title>LayerType_lines</title>
<ellipse fill="none" stroke="#000000" cx="234" cy="-355.4767" rx="83.6854" ry="18"/>
<text text-anchor="middle" x="234" y="-351.7767" font-family="Times,serif" font-size="14.00" fill="#000000">list and rtree of lines</text>
</g>
<!-- pcb_layer_t&#45;&gt;LayerType_lines -->
<g id="edge26" class="edge">
<title>pcb_layer_t&#45;&gt;LayerType_lines</title>
<path fill="none" stroke="#000000" d="M581.8343,-490.8191C524.9874,-469.3423 417.8585,-428.6588 327,-392.9533 312.6517,-387.3147 297.1007,-381.0922 282.8963,-375.3647"/>
<polygon fill="#000000" stroke="#000000" points="283.892,-371.9922 273.309,-371.4918 281.2701,-378.4826 283.892,-371.9922"/>
</g>
<!-- LayerType_arcs -->
<g id="node26" class="node">
<title>LayerType_arcs</title>
<ellipse fill="none" stroke="#000000" cx="417" cy="-355.4767" rx="81.4863" ry="18"/>
<text text-anchor="middle" x="417" y="-351.7767" font-family="Times,serif" font-size="14.00" fill="#000000">list and rtree of arcs</text>
</g>
<!-- pcb_layer_t&#45;&gt;LayerType_arcs -->
<g id="edge27" class="edge">
<title>pcb_layer_t&#45;&gt;LayerType_arcs</title>
<path fill="none" stroke="#000000" d="M597.2722,-487.8023C560.0891,-460.5087 489.7815,-408.9007 448.8214,-378.8346"/>
<polygon fill="#000000" stroke="#000000" points="450.6814,-375.8582 440.5489,-372.7623 446.5392,-381.5012 450.6814,-375.8582"/>
</g>
<!-- LayerType_gfxs -->
<g id="node27" class="node">
<title>LayerType_gfxs</title>
<ellipse fill="none" stroke="#000000" cx="599" cy="-355.4767" rx="82.5854" ry="18"/>
<text text-anchor="middle" x="599" y="-351.7767" font-family="Times,serif" font-size="14.00" fill="#000000">list and rtree of gfxs</text>
</g>
<!-- pcb_layer_t&#45;&gt;LayerType_gfxs -->
<g id="edge28" class="edge">
<title>pcb_layer_t&#45;&gt;LayerType_gfxs</title>
<path fill="none" stroke="#000000" d="M619.2257,-487.8023C615.2712,-461.9304 607.9774,-414.2111 603.3141,-383.7018"/>
<polygon fill="#000000" stroke="#000000" points="606.755,-383.0484 601.7842,-373.692 599.8354,-384.1061 606.755,-383.0484"/>
</g>
<!-- LayerType_texts -->
<g id="node28" class="node">
<title>LayerType_texts</title>
<ellipse fill="none" stroke="#000000" cx="807" cy="-355.4767" rx="107.781" ry="18"/>
<text text-anchor="middle" x="807" y="-351.7767" font-family="Times,serif" font-size="14.00" fill="#000000">list and rtree of text objects</text>
</g>
<!-- pcb_layer_t&#45;&gt;LayerType_texts -->
<g id="edge29" class="edge">
<title>pcb_layer_t&#45;&gt;LayerType_texts</title>
<path fill="none" stroke="#000000" d="M644.3153,-487.8023C677.5517,-460.7683 740.1151,-409.88 777.2215,-379.6981"/>
<polygon fill="#000000" stroke="#000000" points="779.6308,-382.2501 785.18,-373.2248 775.2137,-376.8196 779.6308,-382.2501"/>
</g>
<!-- LayerType_polygons -->
<g id="node29" class="node">
<title>LayerType_polygons</title>
<ellipse fill="none" stroke="#000000" cx="1032" cy="-355.4767" rx="99.3824" ry="18"/>
<text text-anchor="middle" x="1032" y="-351.7767" font-family="Times,serif" font-size="14.00" fill="#000000">list and rtree of polygons</text>
</g>
<!-- pcb_layer_t&#45;&gt;LayerType_polygons -->
<g id="edge30" class="edge">
<title>pcb_layer_t&#45;&gt;LayerType_polygons</title>
<path fill="none" stroke="#000000" d="M662.059,-491.251C736.1964,-464.0414 894.8225,-405.823 978.2219,-375.2141"/>
<polygon fill="#000000" stroke="#000000" points="979.5827,-378.443 987.7645,-371.7118 977.1709,-371.8716 979.5827,-378.443"/>
</g>
<!-- LayerType_misc -->
<g id="node30" class="node">
<title>LayerType_misc</title>
<ellipse fill="none" stroke="#000000" cx="1206" cy="-355.4767" rx="56.6372" ry="37.4533"/>
<text text-anchor="middle" x="1206" y="-366.7767" font-family="Times,serif" font-size="14.00" fill="#000000">misc fields:</text>
<text text-anchor="middle" x="1206" y="-351.7767" font-family="Times,serif" font-size="14.00" fill="#000000">flags</text>
<text text-anchor="middle" x="1206" y="-336.7767" font-family="Times,serif" font-size="14.00" fill="#000000">colors</text>
</g>
<!-- pcb_layer_t&#45;&gt;LayerType_misc -->
<g id="edge25" class="edge">
<title>pcb_layer_t&#45;&gt;LayerType_misc</title>
<path fill="none" stroke="#000000" d="M662.1631,-501.3814C750.8145,-490.3968 968.9356,-458.4394 1140,-392.9533 1145.1531,-390.9806 1150.3863,-388.6506 1155.5355,-386.1328"/>
<polygon fill="#000000" stroke="#000000" points="1157.3832,-389.1185 1164.6779,-381.4348 1154.1838,-382.8924 1157.3832,-389.1185"/>
</g>
<!-- LayerType_lines&#45;&gt;pcb_line_t -->
<g id="edge20" class="edge">
<title>LayerType_lines&#45;&gt;pcb_line_t</title>
<path fill="none" stroke="#000000" d="M234,-337.3257C234,-311.4538 234,-263.7344 234,-233.2251"/>
<polygon fill="#000000" stroke="#000000" points="237.5001,-233.2153 234,-223.2154 230.5001,-233.2154 237.5001,-233.2153"/>
</g>
<!-- LayerType_arcs&#45;&gt;pcb_arc_t -->
<g id="edge21" class="edge">
<title>LayerType_arcs&#45;&gt;pcb_arc_t</title>
<path fill="none" stroke="#000000" d="M417,-337.3257C417,-311.4538 417,-263.7344 417,-233.2251"/>
<polygon fill="#000000" stroke="#000000" points="420.5001,-233.2153 417,-223.2154 413.5001,-233.2154 420.5001,-233.2153"/>
</g>
<!-- LayerType_gfxs&#45;&gt;pcb_gfx_t -->
<g id="edge22" class="edge">
<title>LayerType_gfxs&#45;&gt;pcb_gfx_t</title>
<path fill="none" stroke="#000000" d="M599,-337.3257C599,-311.4538 599,-263.7344 599,-233.2251"/>
<polygon fill="#000000" stroke="#000000" points="602.5001,-233.2153 599,-223.2154 595.5001,-233.2154 602.5001,-233.2153"/>
</g>
<!-- LayerType_texts&#45;&gt;pcb_text_t -->
<g id="edge24" class="edge">
<title>LayerType_texts&#45;&gt;pcb_text_t</title>
<path fill="none" stroke="#000000" d="M807,-337.3257C807,-311.4538 807,-263.7344 807,-233.2251"/>
<polygon fill="#000000" stroke="#000000" points="810.5001,-233.2153 807,-223.2154 803.5001,-233.2154 810.5001,-233.2153"/>
</g>
<!-- LayerType_polygons&#45;&gt;pcb_poly_t -->
<g id="edge23" class="edge">
<title>LayerType_polygons&#45;&gt;pcb_poly_t</title>
<path fill="none" stroke="#000000" d="M1032,-337.3257C1032,-311.4538 1032,-263.7344 1032,-233.2251"/>
<polygon fill="#000000" stroke="#000000" points="1035.5001,-233.2153 1032,-223.2154 1028.5001,-233.2154 1035.5001,-233.2153"/>
</g>
<!-- round -->
<g id="node31" class="node">
<title>round</title>
<ellipse fill="none" stroke="#000000" cx="1130" cy="-54" rx="53.066" ry="26.7407"/>
<text text-anchor="middle" x="1130" y="-57.8" font-family="Times,serif" font-size="14.00" fill="#000000">round:</text>
<text text-anchor="middle" x="1130" y="-42.8" font-family="Times,serif" font-size="14.00" fill="#000000">struct field</text>
</g>
<!-- diamond -->
<g id="node33" class="node">
<title>diamond</title>
<polygon fill="none" stroke="#000000" points="889,-92 791,-54 889,-16 987,-54 889,-92"/>
<text text-anchor="middle" x="889" y="-57.8" font-family="Times,serif" font-size="14.00" fill="#000000">diamond:</text>
<text text-anchor="middle" x="889" y="-42.8" font-family="Times,serif" font-size="14.00" fill="#000000">global variable</text>
</g>
<!-- grn -->
<g id="node34" class="node">
<title>grn</title>
<polygon fill="#aaffaa" stroke="#aaffaa" points="772.5,-73 657.5,-73 657.5,-35 772.5,-35 772.5,-73"/>
<text text-anchor="middle" x="715" y="-57.8" font-family="Times,serif" font-size="14.00" fill="#000000">green:</text>
<text text-anchor="middle" x="715" y="-42.8" font-family="Times,serif" font-size="14.00" fill="#000000">drawing primitive</text>
</g>
</g>
</svg>
