G04 start of page 2 for group 1 layer_idx 8 *
G04 Title: text sizes (scales), top_silk *
G04 Creator: <version>
G04 CreationDate: <date>
G04 For: TEST *
G04 Format: Gerber/RS-274X *
G04 PCB-Dimensions: 50000 50000 *
G04 PCB-Coordinate-Origin: lower left *
%MOIN*%
%FSLAX25Y25*%
%LNTOP_SILK_NONE_1*%
%ADD12C,0.0128*%
%ADD11C,0.0070*%
G54D11*X5000Y46500D02*Y43500D01*
Y46500D02*X5700Y47500D01*
X6800D01*
X7500Y46500D01*
Y43500D01*
X5000Y45500D02*X7500D01*
X8700Y46700D02*X9500Y47500D01*
Y43500D01*
X8700D02*X10200D01*
X5000Y29900D02*Y29600D01*
Y29900D02*X5070Y30000D01*
X5180D01*
X5250Y29900D01*
Y29600D01*
X5000Y29800D02*X5250D01*
X5370Y29950D02*X5420Y30000D01*
X5570D01*
X5620Y29950D01*
Y29850D01*
X5370Y29600D02*X5620Y29850D01*
X5370Y29600D02*X5620D01*
G54D12*X5000Y16800D02*Y7200D01*
Y16800D02*X7240Y20000D01*
X10760D01*
X13000Y16800D01*
Y7200D01*
X5000Y13600D02*X13000D01*
X16840Y18400D02*X18440Y20000D01*
X21640D01*
X23240Y18400D01*
X21640Y7200D02*X23240Y8800D01*
X18440Y7200D02*X21640D01*
X16840Y8800D02*X18440Y7200D01*
Y14240D02*X21640D01*
X23240Y18400D02*Y15840D01*
Y12640D02*Y8800D01*
Y12640D02*X21640Y14240D01*
X23240Y15840D02*X21640Y14240D01*
M02*
